<svg width="100" height="100" viewBox="0 0 100 100" fill="none" xmlns="http://www.w3.org/2000/svg">
<g id="flower" clip-path="url(#clip0_106489_7804)">
<path id="Vector" d="M73.9006 40.7552H73.0883C66.8015 40.8657 60.6078 42.3213 54.9295 45.024C57.6479 39.3562 59.119 33.1717 59.2423 26.8875C59.4208 17.6777 56.6396 6.89653 53.1693 3.39702C52.7895 2.92566 52.3092 2.54501 51.7635 2.2837C51.2178 2.0224 50.6193 1.88647 50.0133 1.88647C49.4072 1.88647 48.8087 2.0224 48.263 2.2837C47.7148 2.54501 47.2345 2.92566 46.8548 3.39702C43.3845 6.92869 40.5806 17.6941 40.734 26.8875C40.8522 33.1705 42.3082 39.3559 45.0065 45.0321C39.3358 42.3165 33.1496 40.8471 26.8629 40.7227H26.0531C15.9264 40.7227 1.81126 44.222 1.80371 49.9569C1.79617 55.6919 15.9188 59.2235 26.0355 59.2316H26.8477C33.132 59.121 39.3207 57.6683 44.9989 54.971C42.2856 60.6406 40.8195 66.8243 40.6938 73.1072C40.5152 82.3171 43.2965 93.099 46.7668 96.5965C47.1465 97.0689 47.6268 97.4508 48.1725 97.7121C48.7182 97.9734 49.3167 98.1091 49.9228 98.1091C50.5288 98.1091 51.1273 97.9734 51.673 97.7121C52.2212 97.4508 52.7015 97.0689 53.0812 96.5965C56.5515 93.0663 59.3555 82.301 59.2021 73.1072C59.0864 66.8233 57.6278 60.6369 54.922 54.9627C60.5952 57.6773 66.7839 59.1467 73.0732 59.272H73.8829C84.0097 59.272 98.1323 55.7728 98.1398 50.0379C98.1474 44.3029 84.0248 40.7632 73.9006 40.7552Z" fill="white"/>
<path id="Vector_2" d="M90.175 41.4295C84.9117 39.7639 79.4247 38.9092 73.9023 38.8941H73.0926C68.0908 38.9843 63.1343 39.8928 58.4268 41.5833C60.1318 36.8843 61.0496 31.936 61.1427 26.9383C61.3036 18.3845 58.8241 6.44475 54.5365 2.07087C53.9808 1.42162 53.2943 0.900262 52.5197 0.542723C51.7452 0.185185 50.9003 0 50.0478 0C49.1953 0 48.3503 0.185185 47.5758 0.542723C46.8013 0.900262 46.1148 1.42162 45.5615 2.07087C41.2639 6.43671 38.7592 18.3684 38.9051 26.9222C38.9906 31.9202 39.8984 36.8702 41.5883 41.5752C36.8833 39.8745 31.9318 38.9576 26.93 38.8617H26.1203C20.598 38.87 15.1109 39.7139 9.84005 41.3647C3.35461 43.4868 0 46.3705 0 49.9509C0 53.531 3.2993 56.4311 9.82497 58.5612C15.0883 60.2235 20.5754 61.0783 26.0952 61.0966H26.9074C31.9067 61.0137 36.8581 60.1079 41.5632 58.4155C39.8657 63.1167 38.9478 68.0637 38.8473 73.0605C38.6863 81.6143 41.1658 93.5553 45.4635 97.9271C46.0167 98.5779 46.7057 99.098 47.4803 99.4573C48.2548 99.8141 49.0972 100 49.9497 100C50.8047 100 51.6471 99.8141 52.4217 99.4573C53.1962 99.098 53.8852 98.5779 54.4385 97.9271C58.7336 93.5628 61.2408 81.6306 61.0949 73.0768C61.0094 68.0778 60.0991 63.127 58.4017 58.4235C63.1092 60.1245 68.0632 61.0411 73.0675 61.1371H73.8797C79.3995 61.1288 84.8891 60.2848 90.1574 58.6343C96.6429 56.512 100 53.6283 100 50.0398C100 46.4516 96.7007 43.5599 90.175 41.4295ZM42.6017 26.8491C42.4232 16.1975 46.2984 3.72313 50.0126 3.73117C53.7243 3.73946 57.5844 16.2136 57.3807 26.8654C57.2549 32.6601 55.9398 38.3672 53.5131 43.6328C52.6555 44.0539 51.8357 44.4833 51.0813 44.9207L49.995 43.3006L48.9011 44.9207C48.0913 44.4913 47.2791 44.0539 46.4693 43.6328C44.0527 38.3599 42.745 32.6476 42.6269 26.8491H42.6017ZM26.8169 57.3464H26.0071C15.5233 57.3464 3.63877 53.5554 3.63877 49.9345C3.63877 46.3139 15.5409 42.5554 26.0222 42.5634H26.8345C32.6384 42.6901 38.3544 44.0051 43.6302 46.4273C44.0527 47.2858 44.4903 48.1039 44.9203 48.8574L43.2983 49.9509L44.9203 51.0444C44.4827 51.814 44.0527 52.624 43.6302 53.4745C38.3518 55.9004 32.6284 57.2182 26.8169 57.3464ZM57.3329 73.1253C57.519 83.7771 53.6363 96.2512 49.922 96.2437C46.2103 96.2362 42.3578 83.761 42.5615 73.1092C42.6847 67.309 43.9999 61.5961 46.4291 56.3258C47.2866 55.9044 48.0989 55.475 48.8608 55.0378L49.9547 56.6577L51.0486 55.0378C51.8609 55.467 52.6706 55.9044 53.4804 56.3258C55.9071 61.6017 57.2172 67.3205 57.3329 73.1253ZM73.8872 57.4029H73.075C67.271 57.2808 61.5551 55.9685 56.2792 53.5474C55.8567 52.6886 55.467 51.8705 54.9967 51.1172L56.6187 50.0237L54.9967 48.9303C55.4343 48.1607 55.8643 47.3506 56.2868 46.5001C61.5652 44.0835 67.2861 42.7793 73.0926 42.6687H73.9023C84.3862 42.6687 96.2782 46.4597 96.2782 50.0805C96.2782 53.7011 84.361 57.4029 73.8872 57.4029Z" fill="#131314"/>
<path id="Vector_3" d="M48.1474 49.6271C49.782 41.164 53.8281 33.3529 59.798 27.1328C66.2835 20.4584 75.8821 14.8288 80.8286 14.8288C81.4246 14.7765 82.0231 14.8564 82.5839 15.0629C83.1446 15.2695 83.6526 15.5974 84.0725 16.0233C84.49 16.4489 84.8119 16.962 85.008 17.5258C85.2067 18.0896 85.2771 18.6898 85.2142 19.2838C85.1664 24.2331 79.5385 33.8235 72.867 40.2145C66.6255 46.1655 58.8022 50.1929 50.3302 51.814L47.6143 52.3407L48.1474 49.6271Z" fill="#FD7D32"/>
<path id="Vector_4" d="M19.114 85.1449C18.523 85.1801 17.9321 85.0947 17.3738 84.8944C16.8155 84.6939 16.305 84.3824 15.8725 83.9789C15.4626 83.5372 15.1508 83.017 14.9496 82.4502C14.7484 81.8836 14.6655 81.2821 14.7032 80.6821C14.761 75.7329 20.3789 66.1504 27.0604 59.7594C33.2969 53.8054 41.1227 49.7778 49.5973 48.1599L52.3132 47.6335L51.7776 50.3471C50.143 58.8094 46.0968 66.62 40.1269 72.8411C33.6415 79.5158 24.0428 85.1449 19.0486 85.1449" fill="#01B2E0"/>
<path id="Vector_5" d="M80.7293 85.2035C75.7828 85.2035 66.1364 79.5323 59.7239 72.8577C53.759 66.6293 49.7254 58.8082 48.1135 50.3393L47.5879 47.6257L50.2937 48.1604C58.7834 49.7926 66.6167 53.8466 72.8482 59.8325C79.4795 66.2318 85.1149 75.8306 85.1551 80.7796C85.2155 81.3738 85.1451 81.974 84.9464 82.5374C84.7478 83.1007 84.4284 83.6133 84.0085 84.0381C83.5885 84.4633 83.078 84.7901 82.5172 84.9949C81.9564 85.2009 81.3554 85.2788 80.762 85.2261" fill="#6C2382"/>
<path id="Vector_6" d="M49.6153 51.8134C41.1407 50.1833 33.3225 46.1378 27.1011 40.1654C20.4623 33.7661 14.8268 24.1674 14.7865 19.2181C14.7262 18.6241 14.7966 18.0239 14.9953 17.4606C15.1939 16.8973 15.5133 16.3847 15.9333 15.9598C16.3532 15.5347 16.8637 15.2078 17.4245 15.0023C17.9853 14.797 18.5838 14.7179 19.1798 14.7714C24.1262 14.7714 33.7726 20.4415 40.1851 27.1078C46.15 33.34 50.1811 41.1636 51.7956 49.6343L52.3212 52.3398L49.6153 51.8134Z" fill="#ABC704"/>
<path id="Vector_7" d="M61.8479 49.9991C66.3845 47.8755 70.5438 45.0212 74.1549 41.5506C80.3235 35.6212 87.0126 25.4312 87.078 19.3076C87.1459 18.4669 87.0303 17.6211 86.7436 16.8284C86.4544 16.0355 85.9992 15.3141 85.4057 14.7131C84.8148 14.1118 84.0981 13.6455 83.311 13.3453C82.5214 13.045 81.6764 12.9181 80.834 12.9731C74.7056 12.9731 64.4506 19.6478 58.4581 25.8363C54.9777 29.4385 52.1135 33.587 49.9785 38.1162C47.8611 33.578 45.0069 29.4207 41.5316 25.8121C35.5491 19.6073 25.3167 12.9086 19.1808 12.9003C18.3384 12.8458 17.4934 12.9724 16.7038 13.2721C15.9142 13.5716 15.2 14.0372 14.6065 14.637C14.0131 15.2367 13.5554 15.9571 13.2637 16.7488C12.9745 17.5407 12.8563 18.3857 12.9217 19.2267C12.9695 25.3503 19.6511 35.5566 25.8046 41.4938C29.4081 44.9727 33.5599 47.8353 38.0939 49.9667C33.5549 52.0883 29.3981 54.9429 25.7869 58.4152C19.6184 64.3446 12.9217 74.5346 12.8639 80.6583C12.796 81.499 12.9091 82.3447 13.1983 83.1374C13.4875 83.9304 13.9427 84.6517 14.5361 85.2532C15.1271 85.8537 15.8413 86.3211 16.6309 86.6201C17.4205 86.9216 18.2655 87.0472 19.1079 86.9919C25.2362 86.9919 35.4912 80.3181 41.4838 74.1216C44.9516 70.5256 47.8033 66.3821 49.9232 61.8577C52.0481 66.3889 54.9048 70.5404 58.3776 74.1457C64.3601 80.3585 74.5925 87.0573 80.7284 87.0648C81.5708 87.1176 82.4157 86.9919 83.2028 86.6904C83.9925 86.3914 84.7066 85.9266 85.3001 85.3261C85.8936 84.7263 86.3513 84.0068 86.6405 83.2155C86.9322 82.4243 87.0504 81.5799 86.9875 80.7392C86.9297 74.6155 80.2581 64.4092 74.1046 58.472C70.5136 54.9934 66.3719 52.1308 61.8479 49.9991ZM61.1337 28.4202C67.3526 21.9968 76.4961 16.6832 80.8265 16.6912C81.5205 16.635 82.2096 16.8563 82.7402 17.3068C85.358 19.9312 79.2547 31.4822 71.5773 38.8694C67.3803 42.8913 62.3986 46.0046 56.9417 48.0147C56.044 47.7066 55.1588 47.4313 54.3088 47.2047L54.681 45.2928L52.7673 45.6654C52.5334 44.8149 52.2643 43.932 51.9575 43.033C53.9794 37.5835 57.1026 32.6091 61.1337 28.4202ZM28.3897 38.829C20.7198 31.4255 14.6065 19.8666 17.2671 17.242C17.7977 16.7915 18.4867 16.5701 19.1808 16.6264C23.5086 16.6264 32.6471 21.9644 38.8484 28.4041C42.8644 32.5878 45.9801 37.5501 48.0019 42.9843C47.6926 43.8916 47.416 44.7745 47.1897 45.6169L45.2684 45.2443L45.6406 47.1559C44.8309 47.3908 43.9155 47.6662 43.0077 47.9659C37.5583 45.9534 32.5842 42.8433 28.3897 38.829ZM38.8081 71.5537C32.5893 77.9771 23.4432 83.3233 19.1154 83.3233C18.4214 83.3796 17.7323 83.1583 17.2017 82.7075C14.5764 80.0751 20.6871 68.5243 28.3645 61.1449C32.5616 57.123 37.5432 54.0097 42.9977 51.9999C43.8979 52.3077 44.7831 52.575 45.633 52.8099L45.2533 54.7215L47.1746 54.3489C47.4084 55.1994 47.6775 56.0743 47.9843 56.9816C45.955 62.415 42.8317 67.3745 38.8081 71.5537ZM82.6748 82.7319C82.4057 82.9547 82.0964 83.1218 81.7619 83.2233C81.4275 83.3248 81.0754 83.3588 80.7284 83.3233C76.4006 83.3233 67.2621 77.9851 61.0608 71.5457C57.0448 67.362 53.9291 62.3997 51.9073 56.9652C52.2166 56.0579 52.4932 55.175 52.7195 54.3328L54.6332 54.7054L54.2585 52.7936C55.111 52.5587 55.9937 52.2833 56.9015 51.9835C62.3433 54.0132 67.3099 57.1368 71.4944 61.1612C79.2221 68.5484 85.3027 80.0831 82.6748 82.7319Z" fill="#131314"/>
<path id="Vector_8" d="M49.9248 62.5542C47.4453 62.5512 45.0236 61.8137 42.9641 60.4353C40.9045 59.0569 39.3027 57.0997 38.3546 54.8107C37.4091 52.5215 37.1652 50.0037 37.6505 47.5755C38.1358 45.1471 39.3328 42.9172 41.0856 41.168C42.8409 39.4185 45.0739 38.228 47.5056 37.7471C49.9374 37.2659 52.4571 37.5162 54.7455 38.4657C57.0364 39.4152 58.9903 41.0215 60.3659 43.0818C61.7414 45.1418 62.4757 47.563 62.4732 50.0396C62.4682 53.361 61.1429 56.5439 58.7892 58.8904C56.4379 61.2366 53.2493 62.5542 49.9248 62.5542Z" fill="#FFDE0D"/>
<path id="Vector_9" d="M49.9797 39.3714C52.0896 39.3729 54.1541 39.9998 55.9069 41.1729C57.6596 42.346 59.0277 44.0124 59.8324 45.9611C60.6396 47.9101 60.8483 50.0541 60.4334 52.1217C60.021 54.1895 59.0025 56.088 57.5063 57.5775C56.0125 59.0667 54.1114 60.08 52.0393 60.4888C49.9697 60.8976 47.8246 60.6838 45.8757 59.8742C43.9268 59.0647 42.262 57.6958 41.0927 55.9408C39.9234 54.1858 39.2997 52.1237 39.3023 50.0149C39.3073 47.1893 40.4339 44.4807 42.4356 42.485C44.4398 40.489 47.1532 39.3691 49.9797 39.3714ZM49.9797 35.6372C47.1306 35.6325 44.3417 36.4722 41.9703 38.0506C39.599 39.629 37.7481 41.8749 36.6542 44.5041C35.5603 47.1335 35.2712 50.028 35.8219 52.8214C36.3751 55.6149 37.7456 58.182 39.7574 60.1978C41.7717 62.2137 44.3367 63.5875 47.1305 64.1458C49.9269 64.7041 52.8239 64.4217 55.4568 63.334C58.0922 62.2466 60.3429 60.4031 61.9296 58.0365C63.5139 55.6699 64.3614 52.8868 64.3614 50.0393C64.3614 46.2252 62.8475 42.5669 60.1517 39.8669C57.456 37.1669 53.7971 35.6458 49.9797 35.6372Z" fill="#131314"/>
</g>
<defs>
<clipPath id="clip0_106489_7804">
<rect width="100" height="100" fill="white"/>
</clipPath>
</defs>
</svg>
