<svg width="58" height="59" viewBox="0 0 58 59" fill="none" xmlns="http://www.w3.org/2000/svg">
<g id="flower">
<path id="Vector" d="M34.0418 42.9933L34.0418 42.5245C33.9782 38.8962 33.1419 35.3217 31.5888 32.0446C34.8456 33.6135 38.3993 34.4625 42.0102 34.5336C47.3022 34.6367 53.4972 33.0315 55.508 31.0287C55.7789 30.8096 55.9976 30.5324 56.1477 30.2174C56.2979 29.9025 56.376 29.5571 56.376 29.2073C56.376 28.8575 56.2979 28.5121 56.1477 28.1972C55.9976 27.8808 55.7789 27.6036 55.508 27.3845C53.4787 25.3817 47.2928 23.7635 42.0102 23.852C38.4 23.9202 34.8458 24.7605 31.5842 26.3178C33.1446 23.0451 33.9889 19.4748 34.0604 15.8466L34.0604 15.3792C34.0604 9.53483 32.0497 1.38863 28.7544 1.38428C25.459 1.37992 23.4297 9.53047 23.4251 15.3691L23.4251 15.8379C23.4886 19.4647 24.3234 23.0363 25.8732 26.3134C22.6154 24.7474 19.0623 23.9013 15.452 23.8288C10.16 23.7257 3.96464 25.3309 1.95495 27.3337C1.68353 27.5528 1.46408 27.83 1.31393 28.145C1.16379 28.4599 1.08582 28.8053 1.08582 29.1551C1.08582 29.5048 1.16379 29.8502 1.31393 30.1652C1.46408 30.4816 1.68353 30.7588 1.95495 30.9779C3.98341 32.9807 10.1693 34.5989 15.452 34.5104C19.0628 34.4436 22.6176 33.6019 25.878 32.0403C24.3182 35.3144 23.4739 38.8861 23.4018 42.5158L23.4018 42.9831C23.4018 48.8276 25.4125 56.9781 28.7079 56.9824C32.0032 56.9868 34.0371 48.8363 34.0418 42.9933Z" fill="white"/>
<path id="Vector_2" d="M33.6543 52.385C34.6113 49.3474 35.1025 46.1806 35.1112 42.9936L35.1112 42.5262C35.0593 39.6396 34.5373 36.7791 33.5659 34.0622C36.266 35.0462 39.1093 35.5759 41.981 35.6296C46.8961 35.7225 53.7568 34.2915 56.27 31.817C56.6431 31.4963 56.9427 31.1001 57.1481 30.6531C57.3536 30.2061 57.46 29.7184 57.46 29.2265C57.46 28.7345 57.3536 28.2468 57.1481 27.7998C56.9427 27.3528 56.6431 26.9566 56.27 26.6373C53.7614 24.157 46.9054 22.7115 41.9903 22.7957C39.1184 22.8451 36.2741 23.369 33.5706 24.3443C34.5478 21.6289 35.0746 18.7712 35.1298 15.8846L35.1298 15.4173C35.125 12.2302 34.6401 9.06343 33.6915 6.02149C32.4721 2.27857 30.8152 0.342528 28.7578 0.342528C26.7007 0.342528 25.0343 2.24664 23.8103 6.01279C22.8551 9.05037 22.364 12.2171 22.3534 15.4028L22.3534 15.8715C22.4011 18.7567 22.9215 21.6144 23.894 24.3298C21.1927 23.3501 18.3501 22.8204 15.4789 22.7623C10.5638 22.6695 3.70247 24.1004 1.19036 26.5807C0.816433 26.9 0.517577 27.2977 0.311122 27.7447C0.106111 28.1917 -0.0007302 28.6779 -0.000730221 29.1698C-0.000730243 29.6633 0.106111 30.1495 0.311122 30.5965C0.517577 31.0435 0.816433 31.4412 1.19036 31.7604C3.69814 34.2393 10.5544 35.6862 15.4695 35.6021C18.342 35.5527 21.1867 35.0273 23.8894 34.0477C22.912 36.7646 22.3853 39.6236 22.3302 42.5117L22.3302 42.9805C22.3349 46.1661 22.8199 49.3343 23.7683 52.3748C24.9878 56.1177 26.6448 58.0552 28.7067 58.0552C30.7685 58.0552 32.4301 56.1511 33.6543 52.385ZM42.0323 24.9291C48.1527 24.8261 55.3206 27.0626 55.316 29.2061C55.3112 31.3483 48.1435 33.576 42.0229 33.4585C38.6932 33.3859 35.4139 32.6269 32.3883 31.2264C32.1463 30.7315 31.8996 30.2583 31.6482 29.8229L32.5791 29.196L31.6482 28.5647C31.8949 28.0973 32.1463 27.6286 32.3883 27.1612C35.4181 25.7665 38.7004 25.0118 42.0323 24.9436L42.0323 24.9291ZM24.5083 15.8193L24.5083 15.352C24.5083 9.30145 26.6867 2.44256 28.7672 2.44256C30.8477 2.44256 33.0073 9.3116 33.0027 15.3607L33.0027 15.8294C32.93 19.179 32.1743 22.4779 30.7825 25.5227C30.2892 25.7665 29.8191 26.0191 29.3862 26.2672L28.7578 25.3311L28.1295 26.2672C27.6873 26.0147 27.2219 25.7665 26.7331 25.5227C25.3392 22.4764 24.582 19.1733 24.5083 15.8193ZM15.4417 33.4309C9.32107 33.5383 2.15333 31.2975 2.15766 29.1539C2.162 27.0118 9.3303 24.7883 15.4509 24.9059C18.7838 24.977 22.0664 25.7361 25.0948 27.138C25.3369 27.6329 25.5836 28.1017 25.8348 28.5414L24.9041 29.1728L25.8348 29.8041C25.5883 30.2728 25.3369 30.7402 25.0948 31.2075C22.0632 32.608 18.7771 33.3641 15.4417 33.4309ZM24.4759 42.9849L24.4759 42.5161C24.546 39.1665 25.3001 35.8676 26.6913 32.8228C27.1847 32.579 27.6548 32.354 28.0877 32.0826L28.716 33.0187L29.3443 32.0826C29.7865 32.3352 30.252 32.5833 30.7407 32.8272C32.1293 35.8735 32.8787 39.1752 32.9422 42.5262L32.9422 42.9936C32.9422 49.0441 30.7639 55.9073 28.6833 55.9073C26.6029 55.9073 24.4759 49.0295 24.4759 42.9849Z" fill="#131314"/>
<path id="Vector_3" d="M28.9439 28.129C33.8069 29.0723 38.2952 31.4075 41.8693 34.8529C45.7045 38.5958 48.9393 44.1355 48.9393 46.9902C48.9693 47.3341 48.9234 47.6796 48.8048 48.0032C48.6861 48.3268 48.4977 48.62 48.253 48.8624C48.0084 49.1033 47.7136 49.2891 47.3896 49.4023C47.0656 49.5169 46.7207 49.5575 46.3794 49.5212C43.5355 49.4937 38.0248 46.2457 34.3525 42.3953C30.933 38.7932 28.6188 34.2782 27.6873 29.3887L27.3847 27.8213L28.9439 28.129Z" fill="#D9D9D9"/>
<path id="Vector_4" d="M8.53457 11.3735C8.51436 11.0324 8.56344 10.6913 8.67851 10.3691C8.79372 10.047 8.97274 9.75234 9.2046 9.50271C9.45841 9.26615 9.75727 9.08618 10.083 8.97008C10.4085 8.85397 10.7542 8.80609 11.0989 8.82786C13.9428 8.86124 19.4489 12.1034 23.1212 15.9596C26.5425 19.5588 28.8568 24.0753 29.7864 28.9662L30.0889 30.5336L28.5296 30.2245C23.6671 29.2811 19.1791 26.946 15.6044 23.5006C11.7691 19.7577 8.53457 14.218 8.53457 11.3357" fill="#D9D9D9"/>
<path id="Vector_5" d="M8.50132 46.9334C8.50132 44.0787 11.76 38.5115 15.5953 34.8107C19.1742 31.3682 23.6682 29.0403 28.5345 28.11L30.0938 27.8066L29.7865 29.3683C28.8487 34.2679 26.5192 38.7887 23.0796 42.385C19.4026 46.2121 13.8871 49.4645 11.0433 49.4877C10.7019 49.5226 10.357 49.4819 10.0333 49.3673C9.70959 49.2526 9.41506 49.0683 9.17093 48.8259C8.92665 48.5836 8.73882 48.289 8.62115 47.9653C8.50277 47.6417 8.45802 47.2948 8.48834 46.9523" fill="#6C2382"/>
<path id="Vector_6" d="M27.6875 28.9765C28.6242 24.0856 30.9488 19.5734 34.3805 15.9829C38.0576 12.1514 43.5731 8.89906 46.417 8.87584C46.7583 8.84101 47.1032 8.88166 47.4269 8.99631C47.7506 9.11097 48.0451 9.29528 48.2892 9.53765C48.5335 9.78002 48.7213 10.0746 48.8394 10.3983C48.9574 10.7219 49.0029 11.0673 48.9721 11.4113C48.9721 14.266 45.714 19.8332 41.8835 23.5341C38.3024 26.9766 33.8069 29.303 28.9397 30.2348L27.385 30.5381L27.6875 28.9765Z" fill="#D9D9D9"/>
<path id="Vector_7" d="M28.7294 36.0372C29.9496 38.6553 31.5897 41.0558 33.5839 43.1399C36.991 46.6999 42.8463 50.5604 46.3649 50.5981C46.848 50.6373 47.334 50.5706 47.7895 50.4051C48.2451 50.2382 48.6596 49.9755 49.005 49.633C49.3504 49.292 49.6184 48.8783 49.7909 48.4241C49.9635 47.9684 50.0364 47.4807 50.0048 46.9945C50.0048 43.4577 46.1695 37.5393 42.6135 34.0808C40.5436 32.0722 38.1599 30.4192 35.5574 29.187C38.1651 27.965 40.5539 26.3178 42.6274 24.312C46.1927 20.8594 50.0419 14.954 50.0466 11.4128C50.078 10.9266 50.0052 10.439 49.8329 9.98328C49.6609 9.52757 49.3933 9.1154 49.0487 8.77289C48.7041 8.43038 48.2902 8.16625 47.8352 7.9979C47.3802 7.831 46.8946 7.76278 46.4114 7.80052C42.8927 7.82809 37.0281 11.6842 33.6166 15.2356C31.6176 17.3153 29.9727 19.7114 28.748 22.3281C27.5289 19.7085 25.8887 17.3095 23.8934 15.2254C20.4863 11.6653 14.6311 7.80052 11.1124 7.76714C10.6294 7.72796 10.1434 7.79326 9.6879 7.96016C9.23226 8.12706 8.81775 8.38974 8.47212 8.73225C8.12707 9.07331 7.85854 9.48549 7.68673 9.9412C7.51348 10.3969 7.44129 10.8846 7.47305 11.3707C7.47305 14.9076 11.3079 20.826 14.8685 24.2845C16.9347 26.2858 19.3156 27.9316 21.9154 29.1551C19.3117 30.3814 16.9262 32.0301 14.8546 34.0344C11.2847 37.487 7.43552 43.3924 7.43119 46.9336C7.40087 47.4198 7.47306 47.9074 7.64631 48.3617C7.81811 48.8174 8.0852 49.2295 8.43025 49.5721C8.77487 49.9146 9.18836 50.1787 9.64299 50.3456C10.0976 50.514 10.5829 50.5822 11.0659 50.5459C14.5846 50.5125 20.4492 46.6622 23.8608 43.1108C25.8596 41.0384 27.5045 38.6481 28.7294 36.0372ZM41.1288 35.625C44.8197 39.2141 47.8729 44.491 47.8683 46.9902C47.9006 47.3908 47.7735 47.7884 47.5146 48.0946C46.0066 49.6055 39.3693 46.0831 35.1246 41.6523C32.8136 39.23 31.0246 36.355 29.8696 33.2057C30.0466 32.6875 30.2049 32.1767 30.3351 31.6862L31.4336 31.9009L31.2195 30.7965C31.7082 30.6615 32.2156 30.5062 32.7321 30.3292C35.8635 31.496 38.7218 33.2985 41.1288 35.625ZM35.1478 16.7275C39.4019 12.301 46.0437 8.77289 47.5518 10.3084C47.8107 10.6146 47.9379 11.0123 47.9056 11.4128C47.9056 13.9105 44.8383 19.1846 41.138 22.7635C38.7341 25.0812 35.8827 26.8794 32.7601 28.0463C32.2388 27.8677 31.7315 27.7081 31.2474 27.5775L31.4615 26.4687L30.3631 26.6835C30.2281 26.2162 30.0699 25.6879 29.8977 25.164C31.0541 22.019 32.8411 19.1483 35.1478 16.7275ZM16.344 22.7403C12.6531 19.1512 9.58106 13.8728 9.58106 11.3751C9.54872 10.9745 9.67591 10.5769 9.93492 10.2706C11.4475 8.75547 18.0847 12.2822 22.3249 16.713C24.6359 19.1352 26.4249 22.0103 27.5797 25.1582C27.4029 25.6777 27.2493 26.1886 27.1143 26.6791L26.0159 26.46L26.23 27.5688C25.7413 27.7038 25.2386 27.8591 24.7172 28.0361C21.5951 26.8649 18.7453 25.0624 16.344 22.7403ZM9.92092 48.0569C9.79286 47.9016 9.69685 47.7231 9.63852 47.5301C9.58019 47.337 9.5607 47.1339 9.58105 46.9336C9.58105 44.4359 12.6484 39.1618 16.3486 35.5829C18.7526 33.2652 21.6039 31.467 24.7266 30.3002C25.2479 30.4787 25.7553 30.6383 26.2392 30.7689L26.0251 31.8734L27.1236 31.6571C27.2586 32.1491 27.4169 32.6585 27.5891 33.1824C26.4229 36.3231 24.628 39.1894 22.3156 41.6044C18.0708 46.0643 11.4429 49.5735 9.92092 48.0569Z" fill="#131314"/>
<path id="Vector_8" d="M21.5158 29.1554C21.5176 27.7244 21.9413 26.3268 22.7333 25.1382C23.5254 23.9495 24.65 23.0251 25.9653 22.4779C27.2807 21.9322 28.7274 21.7915 30.1227 22.0716C31.518 22.3517 32.7994 23.0425 33.8045 24.054C34.8098 25.0671 35.4938 26.3558 35.7702 27.7592C36.0466 29.1626 35.9028 30.6168 35.3572 31.9375C34.8116 33.2597 33.8887 34.3873 32.7048 35.1812C31.5211 35.9751 30.1299 36.3988 28.7068 36.3974C26.7983 36.3945 24.9694 35.6297 23.6211 34.2712C22.2729 32.9143 21.5158 31.074 21.5158 29.1554Z" fill="#FFDE0D"/>
<path id="Vector_9" d="M34.8367 29.1873C34.8359 30.4049 34.4756 31.5964 33.8016 32.608C33.1275 33.6196 32.17 34.4091 31.0502 34.8735C29.9303 35.3394 28.6984 35.4598 27.5103 35.2204C26.3221 34.9823 25.2312 34.3946 24.3754 33.531C23.5197 32.669 22.9374 31.5718 22.7025 30.3759C22.4676 29.1815 22.5905 27.9435 23.0557 26.8187C23.5208 25.694 24.3074 24.7332 25.3158 24.0583C26.3243 23.3835 27.5092 23.0236 28.7209 23.025C30.3445 23.0279 31.9009 23.6781 33.0476 24.8333C34.1945 25.99 34.838 27.556 34.8367 29.1873ZM36.9824 29.1873C36.9852 27.5429 36.5027 25.9334 35.5957 24.5648C34.6887 23.1963 33.3982 22.1281 31.8875 21.4968C30.3766 20.8655 28.7134 20.6986 27.1082 21.0164C25.5031 21.3357 24.028 22.1267 22.8697 23.2877C21.7114 24.4502 20.922 25.9305 20.6012 27.5429C20.2804 29.1568 20.4426 30.8287 21.0676 32.3482C21.6925 33.8692 22.7518 35.1681 24.1116 36.0839C25.4715 36.9982 27.0707 37.4873 28.7069 37.4873C30.8985 37.4873 33.0006 36.6136 34.552 35.0578C36.1035 33.502 36.9775 31.3904 36.9824 29.1873Z" fill="#131314"/>
</g>
</svg>
