<?xml version="1.0" encoding="utf-8"?>
<!-- Generator: Adobe Illustrator 26.5.0, SVG Export Plug-In . SVG Version: 6.00 Build 0)  -->
<svg version="1.1" baseProfile="basic" id="Слой_1"
	 xmlns="http://www.w3.org/2000/svg" xmlns:xlink="http://www.w3.org/1999/xlink" x="0px" y="0px" viewBox="0 0 457.2 137.8"
	 xml:space="preserve">
<style type="text/css">
	.st0{fill-rule:evenodd;clip-rule:evenodd;fill:#FFFFFF;}
	.st1{fill-rule:evenodd;clip-rule:evenodd;fill:#221E1F;}
	.st2{fill-rule:evenodd;clip-rule:evenodd;fill:#A81635;}
	.st3{fill-rule:evenodd;clip-rule:evenodd;fill:#DCB30D;}
	.st4{fill-rule:evenodd;clip-rule:evenodd;fill:#0D95D4;}
	.st5{fill-rule:evenodd;clip-rule:evenodd;fill:#3C3C3B;}
</style>
<g>
	<g>
		<polygon class="st0" points="0,0 106,0 106,106 105.9,107.1 105.9,108.2 105.8,109.3 105.6,110.3 105.4,111.4 105.2,112.4 
			104.9,113.4 104.6,114.4 104.2,115.4 103.8,116.3 103.4,117.2 102.9,118.1 102.3,118.9 101.7,119.7 101.1,120.5 100.4,121.2 
			99.7,121.9 99,122.6 98.2,123.2 97.3,123.7 96.5,124.3 95.6,124.7 94.6,125.2 93.6,125.6 92.6,125.9 91.6,126.2 90.5,126.5 
			89.3,126.7 88.2,126.9 87,127 85.8,127.1 84.5,127.1 72.5,127.1 71.7,127.1 70.9,127.2 70.1,127.2 69.4,127.2 68.6,127.3 
			67.9,127.4 67.2,127.6 66.5,127.7 65.9,127.8 65.2,128 64.6,128.2 64,128.4 63.4,128.6 62.8,128.8 62.2,129 61.7,129.3 
			61.1,129.5 60.6,129.8 60.1,130.1 59.6,130.4 59.1,130.7 58.6,131 58.1,131.3 57.7,131.6 57.2,132 56.8,132.3 56.3,132.7 
			55.9,133.1 55.5,133.5 55.1,133.8 54.7,134.2 53,136.1 51.3,134.2 50.9,133.8 50.5,133.5 50.1,133.1 49.6,132.7 49.2,132.3 
			48.7,132 48.3,131.6 47.8,131.3 47.4,131 46.9,130.7 46.4,130.4 45.9,130.1 45.4,129.8 44.8,129.5 44.3,129.3 43.7,129 
			43.2,128.8 42.6,128.6 42,128.4 41.4,128.2 40.7,128 40.1,127.8 39.4,127.7 38.8,127.6 38,127.4 37.3,127.3 36.6,127.2 
			35.8,127.2 35.1,127.2 34.3,127.1 33.4,127.1 21.4,127.1 20.2,127.1 19,127 17.8,126.9 16.6,126.7 15.5,126.5 14.4,126.2 
			13.3,125.9 12.3,125.6 11.4,125.2 10.4,124.7 9.5,124.3 8.6,123.7 7.8,123.2 7,122.6 6.2,121.9 5.5,121.2 4.9,120.5 4.2,119.7 
			3.7,118.9 3.1,118.1 2.6,117.2 2.1,116.3 1.7,115.4 1.4,114.4 1,113.4 0.8,112.4 0.5,111.4 0.3,110.3 0.2,109.3 0.1,108.2 
			0,107.1 0,106 		"/>
		<polygon class="st1" points="1.3,1.4 104.7,1.4 104.7,106 104.7,107 104.6,108.1 104.5,109.1 104.4,110.1 104.2,111.1 104,112.1 
			103.7,113 103.4,113.9 103.1,114.8 102.7,115.7 102.3,116.5 101.8,117.3 101.3,118.1 100.8,118.8 100.2,119.5 99.6,120.2 
			98.9,120.9 98.2,121.5 97.5,122 96.7,122.6 95.9,123.1 95,123.5 94.1,123.9 93.2,124.3 92.3,124.6 91.3,124.9 90.2,125.2 
			89.1,125.4 88,125.5 86.9,125.7 85.7,125.7 84.5,125.7 72.5,125.7 71.7,125.7 70.8,125.8 70,125.8 69.3,125.9 68.5,126 
			67.7,126.1 67,126.2 66.3,126.3 65.6,126.5 64.9,126.7 64.3,126.8 63.6,127.1 63,127.3 62.4,127.5 61.7,127.7 61.2,128 
			60.6,128.3 60,128.6 59.5,128.9 58.9,129.2 58.4,129.5 57.9,129.8 57.4,130.2 56.9,130.5 56.5,130.9 56,131.3 55.5,131.6 
			55.1,132 54.7,132.4 54.2,132.8 53.8,133.3 53,134.2 52.1,133.3 51.7,132.8 51.3,132.4 50.9,132 50.4,131.6 50,131.3 49.5,130.9 
			49,130.5 48.5,130.2 48,129.8 47.5,129.5 47,129.2 46.5,128.9 45.9,128.6 45.4,128.3 44.8,128 44.2,127.7 43.6,127.5 43,127.3 
			42.4,127.1 41.7,126.8 41,126.7 40.4,126.5 39.7,126.3 38.9,126.2 38.2,126.1 37.5,126 36.7,125.9 35.9,125.8 35.1,125.8 
			34.3,125.7 33.4,125.7 21.4,125.7 20.2,125.7 19.1,125.7 17.9,125.5 16.8,125.4 15.7,125.2 14.7,124.9 13.7,124.6 12.7,124.3 
			11.8,123.9 10.9,123.5 10.1,123.1 9.3,122.6 8.5,122 7.8,121.5 7.1,120.9 6.4,120.2 5.8,119.5 5.2,118.8 4.7,118.1 4.2,117.3 
			3.7,116.5 3.3,115.7 2.9,114.8 2.6,113.9 2.3,113 2,112.1 1.8,111.1 1.6,110.1 1.5,109.1 1.3,108.1 1.3,107 1.3,106 		"/>
		<path class="st2" d="M1.9,2H53h51.1V106c0,11.2-6.7,19.1-19.5,19.1h-12c-9.3,0-15.2,3.5-19.5,8.1c-4.4-4.7-10.3-8.1-19.6-8.1h-12
			C8.6,125,1.9,117.2,1.9,106V2z"/>
		<path class="st1" d="M24.2,95.8c0.8-3.2,2.6-4.8,5.5-5.3c2.9-0.5,6-2.3,9.5-4c1.4-1.2,1.6-0.6,0.6,1.7l-1.6,2
			c-0.9,1.1-1,2.2,0.1,3.2c1.7,0.9,2.3,1.7,2.1,2.5c-1.8-0.5-3.4-0.3-4.8,1.1c-1-0.3-2.2-0.2-3.9,0.8c-0.9-0.5-1.9-0.6-3-0.2
			c-0.3-0.8-1.1-1-2.5-0.7C25.6,96.3,25,96,24.2,95.8 M44,95.8c-1.8-1.9-2-3.7,0-5.1c1.1-0.9,2.8-2.8,4.8-5.7
			c1.4-0.1,2.6-0.4,3.9-0.6c5.4-0.8,10.6-2,14.7-4.5c0.8-0.3,1.4-0.1,1.7,0.5l3.2,4.6l-0.9,0.4l2.4,2c-0.5,0.4-0.2,0.7,0.4,0.8
			c-0.3,0.5-0.1,1,0.3,0.9c0.2,0.6,0.6,1.6-0.6,0.3c-0.8-0.4-0.9,0-0.3,1.3l1.3,2.1c0.1,0.9,0.5,1.7,1.1,2.4l1.1,2.4
			c0,0.4,0.2,0.8,0.3,1c0.1,0.9,0.4,1.4,1.1,1.5c-0.7,1.4-1.6,2.8-3,3.6c-2.9,1.7-5.1,1-4.9-3.1c0.2-2.2,0.5-4.1,0.6-6.3
			c0.8-3.5,0.1-5.3-2.7-5.5c-1.4,0-2.5,0.1-3.4,0.7c-0.8,0.6-1.9,0.4-3.4-0.6c-2.9-2.4-5.1-3.6-6.6-3.6c1.4,1.7,1.8,3.5,0.7,5.2
			c1.2,0.6,1.2,1.1,0,1.7c-2.8,0.1-6-0.5-9.2-1.5c-1.1-0.2-1.3,0-0.6,0.6c2.5,1,3.8,2.6,3.7,4.8c-1.5,0-2.8,0.1-3.6,0.3
			C45.4,96.7,44.7,96.7,44,95.8 M71.4,112.7c-0.8,0.5-1,1-0.2,1.5c0.5,0.3,0.8,0.4,0.9,0.2C73.1,114.2,71.7,113.6,71.4,112.7
			 M46.1,110.4c-0.5,0.4-0.8,0.9-0.5,1.5l1,1c0.5-0.4,0.4-1.1-0.1-1.5C46.3,111.2,46.1,110.9,46.1,110.4 M33.7,104.9
			c0.8,0.4,0.8,1.2-0.2,1.6C32.8,106.2,32.8,105.5,33.7,104.9 M19.5,73.8c3.5,4.4,4.1,9.3,1.3,15c-1.1,2.8-0.9,4.6,0.5,5.4
			c0.4-1,0.7-2.4,0.9-3.9c0.3-2.4,1.7-2.1,3.5-4.1c2-2.2,1.4-4.5,1.3-8.2c-0.4-7.9,1.1-12.4,3.3-15C24.9,61.4,21.5,65.7,19.5,73.8
			 M23,8.8c-0.6,0.1-0.9,0.5-0.8,1.3l4.3,6.6c0.2,0.3,0.5,0.6,0.4,0.9c-0.3,0.9-0.5,1.5,0.2,2.2l1.4,1.5c0.2,1.1,0.4,2,0.7,2.3
			c-0.3,0.7,0.1,1.4,0.7,2.1c0.2,0.2,0.2,0.4,0.4,0.7l0.2,2.3c-2,1.8-3,3.2-3.2,4c-0.1,0.5-0.2,0.9,0.1,1.1l2.9-0.3
			c0.2,0.2,0.5,0.2,0.6,0.4c0.4,1.1-0.1,2.8-1.7,3c-3.6,0.9-6.1,2.2-5.1,4.8c1.3,1.8,0.6,3.4-1.6,4.9c-0.5,0.5-0.8,1.2-0.7,2.1
			c-0.6,0.6-1.1,1.5-1.6,2.5c-0.3,1-0.3,1.5,0.4,1.4c5-1.8,9.8-2.5,13.2,0.6c1.7,1.5,1.4,2.3,4.1,2.4c-0.3,1.2,0,1.9,1,2.1l0.2,1.4
			c-1.1,0.3-2.3,0.3-3.4,0.6c-1.2,0.3-2.3,0.8-3.4,0.8c-0.9-0.8-2-1.3-2.8-1.8c-4.5-3-8.2-3.2-11.4,0.9c-1.7,2.2-3.3,5.1-4.5,9.6
			c-0.2,0.8-0.8,1.1-2,0.3c-2.3-2.1-2.8-3.9-1.6-5.1c1.7-1.7,2.3-0.7,1.4,0.2l0.1,0.2c1.2,0,1.7,1,2.2,2c1.1-3,0.5-5-1-6.7l-0.4,0
			l0.1,2.6c-2.6-0.6-4,1.6-4.1,3.6c-0.1,1.9,0.7,3.6,3,5.1c1.3,0.5,1.7,2.1,0.7,3.7c-2.5,4-2.1,8.2,0.2,13.6l0.3-0.1
			c0.5-6,1.6-9,3.5-9.6c0.6-0.2,1.1-0.6,1.6-1.3c0.5-0.9,0.8-0.8,1.2,0.1c1.1,2.6,0.9,4.9-0.5,7.4c-3.2,5.6-3.3,9.9,1.2,13.3
			l0.1,0.4l-1.2,1.7c-0.4,0.7,0,1.5,1,2.5c0.8,1,1.2,2.6,1.4,4.6c-0.4,0.6-0.4,1.4-0.2,2.3c0.7,1,2.3,1.6,4.6,1.3
			c0.3,0,0.2-0.2,0.2-0.5c0.2-1.1-0.5-2-1.3-3.4c-2.2-2.2-2.7-4.3-2-6.3l0.3-0.6c1.8,0.7,4.1,1.5,6.2,1.8c-0.9,1.9-0.8,4.3,0,5.8
			c1.5,2.7,3,4,5.9,3.7c4-0.4,5.9-3.9,4.4-8.6c1.4-0.8,2.4-0.8,2.8,0.2c-0.1,2.1,0.9,1.5,0.9,3.6c-2.4,2.2-3.2,4.1-0.7,5.3
			c1.3,1.4,0.6,1.9-1.1,2.1c-1.8-0.5-3.1-0.4-3.4,1.2c-1.6,0.1-2.1,1.2-2.1,2.8c0.5-1.2,1.4-1.3,1.9-1c0.9,0,1.8,0.3,2.5-0.1
			c0.7-0.4,1.6-0.4,2.5,0c0.5,0,0.8,0.2,1.1,0.6c1.2,1.3,1-0.1,3.6,1.5c0.6,0.1,1.7,0,1.9,1.1l0.3-1c0.2-0.4,0.1-0.8-0.3-1.2
			c-0.8-1.1,0.5-1.1,2.8-0.6c1.2,0.6,2.3,0.9,3.2,0.7c1-1.1,1.3-0.4,1.5,1.1c0.7-2.2,0.3-3.3-1.8-3.4c0.4-1.2,0.5,0.6,1.3-0.9
			c0.6-0.3,1.2,0,1.9,0.7c0.1-1.1-0.4-1.7-1.7-2c-0.3-0.9-0.9-1-1.8-0.1c-3.7-1-4.1-3.5-2-3.9c1.1-0.3,1.6,1,2.4,1.3
			c0.7,0.3,1,0.2,2,0.3c1,0.1,1.9,0.3,2.5,0.7l0.7,0.3c0.4-0.3,0.8-0.2,1.3,0.2c0.5,0.9,1,1,1.6,0.3c1.4-1.3,3.6-1.3,3.5-0.5
			c-0.1,1.2,0.1,1.6,0.5,1.5c0.4,0.1,0.5,0.5,0.5,1.4c-1.4-0.1-2.4,0.2-2.4,1.3c-1.3,0.4-1.3,1.4-0.6,2.7c-0.2-2.5,1.8-0.4,3.8-1.8
			l1.4-0.1c0.1,0.7,0.8,1,2,1c0.5-0.2,1.1-0.2,1.5-0.3c2.4-0.7,4.3-0.5,5.7,1.6c0.3-0.7,0.3-1.3-0.1-2c1.7-1.2,3.4-0.7,2.4,1.2
			c1-0.5,1.9-3.2,0.7-3.2c0.5-1.6,2.7-0.3,2.1,0.9c0.9-0.5,1.1-1.3-0.1-2.3c-0.1-0.9-0.8-1.2-2-0.8c-0.7-1.3-1.6-1.3-2.7-0.2
			c-1.1,0.5-2.1,0.6-2.7-0.2c-0.6-1.1-0.5-1.6,0.4-1.2c0.4,0.2,0.6-0.4,1.1-1.5c0.2-0.4,0.6-0.8,0.9-1.5c1.3-0.2,2.3-1.4,3.6-3.8
			c0.9-0.5,1.3-2.4,1.4-5.4c0.4,0.2,0.9,0.1,1.5-0.4c-0.4,0-0.6-0.2-0.6-1.4l1.2,0c0.5-0.2,0.7-0.4,0.7-0.7c0-0.2-0.5-0.2-0.9-0.7
			c-0.1-0.7-0.5-1.5-1.2-2.2l-1.2-2.1c-0.8-2.8-1.8-4.4-3-3.4l-0.3-0.2c-0.9-1.1-1.6-2.6-2.1-4.2c0.1-2-1.9-2.1-2.9-0.2L74,82.6
			l-0.5,0.9l-3-4.8c0.3,0,0.9-0.4,1.2-0.4c3.8-0.4,7.5-1.5,11.3-3.8l2.8-0.9c1.2-0.5,1.6-0.1,2.2,0.6l2.7,3.1
			c0.6,0.6,0.6,1.2,0.2,1.8c-0.3,0.6,0.4,1.5,1.3,2.4c0.9,1,1,2.4,0.2,4.2c-0.4,1.1-0.3,1.9,0.3,2.3l1.9,1.4
			c1.2,1.1,1.9,0.8,1.8-1.2c-0.1-1-0.3-2-0.9-3c-0.6-1.2-1.1-2.4-1.1-3.6c-0.1-2.4-0.4-3.6-1.3-4.5c-1.1-1.1-2-2.4-2.7-3.7
			c-0.3-0.7-0.5-1.2-0.9-1.4c-0.1-2.5-1.8-3.7-2.8-3.1C86,69,85.1,69.1,84.2,69l0-0.6c1.2-0.7,3.3-3,5.4-5.6c0.8-1,1.2-0.6,1.9,0.2
			l3,3.4c-0.1,1.7,0.2,2.8,1.2,2.7c0.7,1.3,1.1,2.7,0.4,3.3c-0.7,0.6-1.2,1-1.2,1.9c0.1,1.3,1.5,2.7,3.1,3.3c0.2,0,0.4-0.1,0.5-0.3
			c0.4-1.2,0.5-2.5,0.1-3.9l-0.5-2c-0.1-0.8,0-1.4,0-2c0.1-1.6,0.2-2.3-1.3-3.5c-1.9-2.1-3.5-4.3-4.8-6.5c0.1-3-2.3-3.7-3.8-0.5
			l-2.9,2.2c-0.7,0.5-1.3-0.3-1.2-1.1c-0.3-3.9-2.8-7-5.5-10.1c-1.5-4.7-3.5-8.8-4.2-12.4c2.8,0.3,4.9,0.9,5.7,1.8
			c1.2,1.4,2.8,2.1,3.2,1.1c0.1-0.3-0.8-0.9-1.2-1.3c0.5,0,1.1,0.5,1.8,1.2c1.2,0,1.6-1,1.3-2.3c0.1-1.1,0.1-2-0.4-2.3l-1-0.7
			c-1.7-1.9-3.1-4-4.3-6.2c-0.1-0.2-0.2-0.4-0.2-0.7c0-0.9-0.2-1.7-1.1-2.4l0.4-0.2l-0.1-0.3l0.9,0.2l-0.9-1.5
			c-0.5-1.9-2.1-2.3-4.6-1.5c-0.4,0.1-0.8-0.3-1.2-0.9c-1.5-1.6-3.2-2.5-2.6-1.3c0.1,0.2,0.6,0.8,0,0.7l-2.7-0.5
			c-0.5-0.1-0.7,0.1-0.5,0.4c0.5,0.6,0.9,1.1,1.1,1.8l-3.4,0.2c-0.7,0-1.2,0.4-1.9,0.3c-1.8-1.7-4.1-0.4-6.5,1.5l-0.4-0.1l0-3h0.3
			l-0.3-1.9h0.2c0.2-3-0.3-4.9-1.4-6.2c-0.2-0.9,0.6-0.8,0.8-1c0.8-1,0.7-2.2,0.7-2.9c-0.1-1.3-0.5-1.7-1.1-1.3h-0.7
			c-0.7-0.1-1.3-0.4-1.6-0.8C52.2,7,51.5,7,50.7,7.5c-3.5,1-4.1,3.9-8.4,1.9C41.8,9.3,41.7,9.5,42,10c0.7,1.1,1.7,1.7,2.8,2.3
			c-0.4,0.3-1.2,0.4-2.4,0.2c0.7,1.1,2.1,1.6,4.3,1.5c0.8,0.5,1.8,0.3,2.8-0.1c0.6-0.4,0.7-0.1,0.3,0.7c-1.2,1-1.9,3-2.1,6.5
			c-0.4,0.7-0.7,1.5-0.8,2.4c-1.6-0.5-3-0.8-3.6-0.3l-0.6-0.1c-1.4-1.1-2.8-1.1-3.9-0.3l-2.5,2c-0.9,0.7-1.7,0.8-1.9-0.1l-1-2.4
			c0.1-1.7-0.5-2.5-1.6-2.6c-0.5-0.5-0.8-1-0.9-1.7l-0.7-1c0.2-0.9-0.1-1.2-0.7-1.2c-0.6,0-1.2-0.1-1.6-0.3L23,8.8z"/>
		<path class="st0" d="M92.9,86.4l0.5-1.1c0.3-0.4,0.4-0.4,0.6-0.1l1.2,1.2c-0.2,0.2-0.8,0.2-1.1,0.3l0.4,0.7l-0.4,0.2l-0.1,0.6
			C93.1,87.6,92.7,87,92.9,86.4 M93.9,82.6c0.1,0,0.3,0.4,0.3,1s-0.1,1-0.3,1c-0.2,0-0.3-0.4-0.3-1S93.8,82.6,93.9,82.6 M93.2,78.3
			c0.1-0.1,0.3,0.1,0.5,0.4c0.2,0.3,0.2,0.6,0.1,0.6c-0.1,0.1-0.3-0.1-0.5-0.4C93.2,78.7,93.1,78.4,93.2,78.3"/>
		<path class="st0" d="M96.3,73.2c-0.1-0.1-0.3-0.1-0.4,0.1c-0.5,0.7-0.7,1.2-0.3,1.6l1.1,0.9c0.3,0.3,0.7,0.1,0.5-0.2l-0.4-0.6
			c0.2,0.1,0.5,0.3,0.7,0.3c0.2,0,0.2-0.3,0-0.5c-0.4-0.4-0.5-0.5-0.3-0.8c0.1-0.1,0.1-0.2,0-0.3L96.3,73.2z M96.3,68.4
			c-0.5-0.6-0.4-1,0.3-0.9c-0.6-1,0-1.2,0.6-0.1c0.3,0.5,0.3,1.4,0.2,2.5c0,0.3-0.4,0.4-0.5,0C96.8,69.2,96.6,68.7,96.3,68.4
			 M96.7,72.5l0.2-1.2c0.1-0.3,0.1-0.2,0.3,0c0.4,0.5,0.7,1,0.8,1.9c0.1,0.4,0.1,0.6-0.2,0.6c-0.3,0-0.5-0.1-0.7-0.4
			C96.8,73.1,96.7,72.8,96.7,72.5"/>
		<path class="st0" d="M79.6,59.1c0-2.2,0.3-4,0.3-5.6c0-0.7,0.4-0.7,0.5,0.1c0.1,1.7-0.1,3.5-0.3,5.3C80,59.2,79.6,59.7,79.6,59.1
			 M82.4,67.8c0.1,0,0.2,0.1,0.2,0.2c0,0.1-0.1,0.2-0.2,0.2c-0.1,0-0.2-0.1-0.2-0.2C82.2,67.9,82.3,67.8,82.4,67.8 M77.6,60.1
			l0.2-0.2c0.1,0,0.1,0,0.2,0l0.7,1c0.1,0.1,0,0.2,0,0.2l-0.2,0.2c-0.1,0-0.2,0-0.2,0l-0.7-1C77.5,60.3,77.5,60.1,77.6,60.1
			 M84.6,65.7l0.3-2l-0.3,0.8c-0.3,0-0.4-0.3-0.4-1c0-0.7,0-1,0.4-0.8l0.2,0.7l0.2-0.5c0.3-0.2,0.4,0,0.3,0.7l-0.2,2.2
			C84.9,66,84.7,66.6,84.6,65.7 M89.7,59.3c-0.3-0.5-0.3-1,0-1.3c0.3-0.4,0.7-0.4,1.1-0.2c0.3,0.2,0.4,0.4,0.4,0.6l-0.6,0.2l0.8,0.2
			c0.4,0.4,0.1,1.1-0.3,0.5c-0.3-0.3-0.6-0.3-1-0.2C90.1,59.5,89.9,59.6,89.7,59.3 M82.7,62.9c0.1-0.1,0.3,0.1,0.4,0.4
			c0.1,0.3,0.2,0.6,0,0.6c-0.1,0.1-0.3-0.1-0.4-0.4C82.6,63.3,82.6,63,82.7,62.9 M78.2,62.5c0.1-0.1,0.3,0.1,0.4,0.4
			c0.1,0.3,0.2,0.6,0,0.6c-0.1,0.1-0.3-0.1-0.4-0.4C78.1,62.8,78.1,62.6,78.2,62.5 M79.5,60c0.4-0.1,0.8,0.3,0.9,0.9
			c0.1,0.6-0.1,1.2-0.5,1.2c-0.4,0.1-0.8-0.3-0.9-0.9C78.9,60.6,79.2,60,79.5,60 M80.2,63.4c-0.2-1,0.1-1.1,0.4-0.2
			c0.5,1.4,0.8,3.1,0.8,5.2c0,0.8-0.6,0.8-0.6,0.1C80.5,66.6,80.5,64.9,80.2,63.4 M85.8,65c0.1-1,0.3-2,0.6-3.1
			c0.1-0.4,0.3-0.5,0.6-0.3c0.9-1.5,0.7-0.7,0.3,0.5l0.2,0.2c1.1-2.2,0.7-0.4,0.6,0.5c-0.8,1.1-1.3,1.3-1.6,0.5l-0.2,1.3
			C86,65.4,85.9,65.5,85.8,65"/>
		<path class="st0" d="M19.9,101.5c-0.3,1.4-1.8,0.7-1-0.6c1.8-3.1,3.5-6.3,3.8-10.5c0.1-1.5,1-2.2,2.1-2.8c2.4-1.4,3.2-3.8,3.2-6.6
			c-0.5-11.9,2.5-17,7.2-19L35,62.3c-4.2,2.8-6,8.1-6,15.4c0,1.6-0.2,3.3,0,5.1l0.2-0.4c0.1-4.3,0.1-8,0.6-10.5
			c0.5-2.8,1.3-4.5,2.2-5.6c0.3-0.4,0.5-1,0.9-1.3c0.4-0.4,0.8-0.5,1.2-0.9l-0.1,0.4c-1.6,1.8-3,3.9-3.6,6.8
			c-0.7,3.3-0.7,7.1-0.5,11.1c0,0.5-0.2,1-0.3,1.4l0.2-0.1c0.3-0.6,0.4-1.4,0.4-2.3c-0.4-4.8,0-9.7,1.6-13.1
			c1.1-2.3,1.8-3.2,4.9-5.1l-0.1,0.4c-2.6,1.9-5.1,4.1-5.5,11.8l0.1-0.2c0.5-5.8,2.4-10.1,6-11.7c1.3-0.6,2.7-0.4,4.4-0.4l-0.3,0.3
			c-2.5-0.3-4.7,0.7-6.6,2.8l0.2,0.1c1.8-2,3.9-3.1,6.5-2.5l-0.2,0.4c-1.8-0.3-3.4,0.4-4.9,1.6l0,0.2c1.6-1.2,3.2-1.8,4.6-1.5
			c0.5,0.1,0.6,0.5,0.5,1.1l-0.3,2.9c0,2.8-0.2,5.5-0.8,8l-0.2,0.2l0.2-4.8l-1,6c-0.1,0.7-0.5,0.6-0.4-0.1c0.2-1.2,0.6-3,0.8-4.8
			c-0.3,0-0.4,0.2-0.5,0.5c-0.3,2.6-0.6,4.7-1.2,5.4c0.4-1.6,0.5-3.2,0.6-4.9l-0.3,0.3l-0.7,4.5c0.5,0.3-0.2,0.8-0.3,0.2l0.2-2.6
			l-0.2,0l-1,4l0.3-2.8l-0.8,2.8h-0.4l0.4-2.4l-1.4,4.3c-0.4,0.1-0.5,0-0.1-0.7l0.9-2.9l-0.3,0.1c-0.6,2.1-1,3.7-1.7,4.1l-0.2,0.1
			c1-1.9,1.2-2.9,1.2-3.8c-0.5,1.8-1.1,3.1-2.1,4.2c-0.1-0.2,0-0.7,0.6-1.8l0.5-1.5c-0.2-0.3-0.4-0.2-0.5,0.3
			c-0.3,1.3-0.7,2.2-1.3,3l0.6-2.6L32,80.8c-0.5,1.5-1,2.8-1.9,3.6l0.4,0.2c1.3-0.9,3.1-0.6,4.9-1.5c0.4-0.2,0.8-0.3,1-0.1l-0.4,1
			l-0.3-0.6c-0.2,0.8-0.5,1.5-0.9,1.8l-0.1-1.1c-0.8,1.8-1.3,2.8-1.3,2l0.1-1.1c-0.6,0.6-0.9,1.4-1.1,2.2c-0.3,0-0.4-0.7-0.3-1.5
			l-0.5,1.9c-0.5,0.1-0.5-0.4-0.3-1.6c-0.4,1-0.7,1.8-0.9,1.9c-0.2-0.3-0.2-0.8-0.1-1.5l-0.5,1c0,0.7-0.2,1-0.5,1
			c0.2-1.1,0.2-1.5,0-1.3l-0.6,1.7c-0.3,0.2-0.4-0.2-0.4-1.1c-0.5,0.3-0.4,1.5-0.8,1.9c-0.3-0.2-0.3-0.7-0.3-1.3
			c-0.2,0.9-0.5,1.4-0.8,1.5l-0.1-1.7c-0.1,0.8-0.4,1.5-0.6,1.9l-0.4-1.2l-0.2,1.2c-0.3,0.2-0.6-0.1-0.8-0.9c0,1.6-0.2,3-1.1,3.7
			c0.1,0.4-0.4,1.5-0.9,2.8l1.6-2.4c0.3-0.1,0.5,0.1,0.3,0.8l-1.6,2.8c-0.2,0.4-0.5,0.2-0.8,0c-0.3,1.5-0.9,2.4-1.5,3.4
			c0.6-0.5,1.1-1.5,1.6-2.8c0.1-0.4,0.5,0.1,0.4,0.9l-0.4,0.4L22,99l-0.5,0.1l0,0.9l-0.5,0.2C21.5,101.3,21,102,19.9,101.5"/>
		<polygon class="st0" points="29,62 30.9,61.7 30.8,62.1 		"/>
		<path class="st0" d="M11.4,78c0.2-1,0.9-1.5,1.5-2.7c0.4-0.7,0.6-0.2,0.5,0.4C12.5,77,11.9,77.6,11.4,78"/>
		<path class="st0" d="M31.2,61.1c-3.1-3-6.2-4.5-8.4-4c-4.3,1-6.4,5.4-7.7,9.4c0.7-1.4,1.4-2.3,2.1-2.5c-2.1,3.7-3.3,7.4-3.5,11.6
			c-0.1,0.5-0.4,1-0.8,1.4c-1.4,1.1-1.3,2-1.5,2.9c0.3-0.2,0.6-0.9,1-1.5c0.6-0.8,1.2-1.6,1.6-3c0.4-1.8,0.7-3.7,1-5
			c0.5-1.8,0.9-3,1.8-4.5c1.6-2.8,3.5-5.3,5.8-6.4l0,0.2C20.5,61,18.8,63,17,66.1c-0.4,0.8-0.7,1.5-1.1,2.6c-0.4,1-0.8,2.2-0.9,3.4
			c-0.3,2.8-0.9,4.6-1.7,5.7c-0.7,1.1-1.3,1.6-1.4,2.1c-0.1,0.3-0.3,0.8-0.2,1.3c1.7-3.5,2.5-3.2,3.2-5.6c1.1-3.8,0.4-7.6,5-13.1
			h0.3c-2.2,2.8-3.7,5.4-4.5,11c-0.1,0.9-0.3,2.3-0.7,3.1c-0.6,1.2-1.8,2.1-2.1,3.3l0.3,0c0.6-0.6,1.7-2.1,2.2-3.1
			c1.4-3,0.9-6.9,2.7-10c2.3-4.1,4.1-6.3,7-7.5l0.3-0.1c-3.9,2.2-4.6,3.9-6.3,6.4c-0.6,0.8-1,1.7-1.5,3.2c-0.4,1.3-0.7,3.4-1,5.1
			c-0.3,2.1-1,3.4-1.8,4.4c-0.5,0.6-0.8,0.9-1.1,1.4c-0.3,0.5-0.6,1.4-0.7,2l0.2-0.1c1.1-3.1,1.7-2.4,2.5-3.5
			c0.4-0.6,1.1-1.9,1.3-3.3c0.3-3,0.9-5.3,1.8-7.3c1-2.2,2.6-4.6,4.4-6.2c0.8-0.8,1.5-1.2,2.6-1.5l0.3,0c-1.3,0.9-2.2,1.2-3.2,2.2
			c-1.7,1.7-3.2,4.2-4,6.3c-0.8,2.1-1.2,4.3-1.5,6.6c0.1-0.3,0.2,0.2,0.3-0.1c0.9-5.4,2.7-9.3,5-11.7c1.3-1.4,2.7-2.5,4.2-2.8l0.9,0
			c-2.2,0.6-4.2,1.7-5.7,4.3l0.3,0c1.9-2.2,3.7-3.2,5.6-3.7l0.3,0c-1.3,0.5-2.5,1-3.2,1.7l0.1,0.3C26.6,61.9,28.7,61.4,31.2,61.1"/>
		<path class="st0" d="M11.8,84c-0.2-0.4-0.3-0.9-0.3-1.3c0-0.6,0.5-0.6,0.6-0.2C12.1,83.3,11.8,83.4,11.8,84"/>
		<path class="st0" d="M17.4,89.6l0.5-0.6c0.3-0.2,0.5-0.2,0.8-0.1C18.6,89.1,18.1,89.4,17.4,89.6"/>
		<path class="st0" d="M17,91.2l0.6-0.7c0.3-0.3,0.7-0.3,1-0.2C18.6,90.6,17.8,91,17,91.2"/>
		<path class="st0" d="M17,92l0.7-0.7c0.4-0.2,0.8-0.2,1.1-0.1C18.7,91.6,17.9,91.9,17,92"/>
		<path class="st0" d="M17.2,92.8l0.7-0.6c0.3-0.2,0.7-0.2,1-0.1C18.8,92.4,18.1,92.6,17.2,92.8"/>
		<path class="st0" d="M17.6,93.5L18,93c0.3-0.2,0.5-0.2,0.7-0.1C18.7,93.1,18.2,93.4,17.6,93.5"/>
		<path class="st0" d="M20,85.2l0.4-0.3c0.2-0.1,0.4,0,0.5,0.1C20.9,85.1,20.5,85.2,20,85.2"/>
		<path class="st0" d="M19.4,86.1l0.8-0.4c0.4-0.1,0.8,0,1,0.3C21,86.1,20.3,86.2,19.4,86.1"/>
		<path class="st0" d="M19.9,83.9l0.6-0.5c0.3-0.2,0.6-0.1,0.9,0C21.3,83.6,20.6,83.8,19.9,83.9"/>
		<path class="st0" d="M20.4,82.7l0.7-0.2c0.3,0,0.6,0.2,0.7,0.4C21.5,83,20.9,82.9,20.4,82.7"/>
		<path class="st0" d="M19,96.8l0.4-0.3c0.2-0.1,0.4,0,0.5,0.1C19.9,96.7,19.5,96.8,19,96.8"/>
		<path class="st0" d="M20.4,95.1l-1.1,0.2c-0.4,0.2-0.8,0.6-0.8,1C18.8,96.4,19.6,95.9,20.4,95.1"/>
		<path class="st0" d="M19.9,94.6l-0.8,0c-0.4,0.1-0.6,0.4-0.7,0.7C18.6,95.4,19.3,95.1,19.9,94.6"/>
		<path class="st0" d="M23.7,98.9l0.4-1.1c0.3-0.4,0.7-0.6,1.1-0.6C25.2,97.6,24.6,98.3,23.7,98.9"/>
		<path class="st0" d="M25.9,97.8l0.9-0.4c0.4,0,0.8,0.1,1,0.4l0,0c0,0.3-0.6,0.9-1.4,1.3l0.4-0.9c0.1-0.1,0.2-0.2,0.3-0.3h-0.3
			c-0.2,0.3-0.5,0.6-1,0.9l0.3-0.7c0-0.1,0.1-0.2,0.2-0.2C26.2,97.9,26,97.8,25.9,97.8"/>
		<path class="st0" d="M30.1,98c0.3-0.2,1.3,0.1,1.2,0.4c0,0.4-0.6,0.9-1.4,1.4l0.4-0.9c0.1-0.1,0.2-0.2,0.3-0.3h-0.3
			c-0.2,0.2-0.5,0.6-1,0.9l0.3-0.7c0.1-0.1,0.1-0.1,0.2-0.2c-0.1,0-0.2,0-0.3,0c-0.1,0.2-0.4,0.4-0.7,0.7l0.2-0.6
			C29.3,98.1,29.6,98.2,30.1,98"/>
		<path class="st0" d="M36.3,97.8c0-0.9,0.6-1.4,1.9-1.6c1.4-0.2,3.1,0.1,2.6,0.8c0,0-0.1,0-0.1,0l-0.3,0.6l-0.5,1.1l0.3-1.2
			l0.2-0.6c-0.2,0-0.4-0.2-0.6-0.2l-0.4,0.5l-0.7,0.9l0.6-1l0.3-0.5c-0.1,0-0.2,0-0.3-0.1l-0.4,0.5L37.9,98l0.6-1l0.2-0.4
			c-0.1,0-0.3,0-0.4,0L38.1,97l-0.7,1l0.5-1.1l0.1-0.3c-0.2,0-0.4,0.1-0.5,0.1l-0.3,0.9l0.2-0.8C36.9,97,36.5,97.3,36.3,97.8"/>
		<path class="st0" d="M31.8,98.5L31.8,98.5L31.8,98.5L31.8,98.5l1.3-0.9c0.8-0.4,1.9-0.6,1.7,0.2c0,0.1-0.1,0.2-0.3,0.2
			c0,0.3,0,0.6,0,0.9L34.2,98c-0.1,0-0.1,0-0.2,0c0,0.4,0,0.8,0,1.2l-0.5-1.2c-0.1,0-0.1,0-0.2,0c0,0.6,0,1.2,0,1.8l-0.7-1.5
			c0,0,0-0.1,0-0.1c-0.1,0.3-0.2,0.7-0.2,1l-0.2-1h0c-0.1,0.4-0.3,0.9-0.5,1.4l0-1.1C31.8,98.6,31.8,98.6,31.8,98.5
			C31.8,98.5,31.8,98.5,31.8,98.5"/>
		<path class="st0" d="M17.9,63.2c0.7-0.8,1.4-1.5,2.1-2.3C19.2,61.2,18.5,62,17.9,63.2"/>
		<path class="st0" d="M29.3,104.1c-0.2-0.5-0.4-1,0-2.2c0.4-1.1,0.9-1.4,1.2-1.4c0.3,0.4-0.1,1.2,0.1,2.3l-0.8-0.8l0.2,1.4
			l-0.6-0.6L29.3,104.1z"/>
		<path class="st0" d="M36.2,105.4c-0.1-0.2-0.3-0.3-0.3-0.3c-0.1,0,0,0.2,0.1,0.4c0.1,0.2,0.3,0.3,0.3,0.3
			C36.4,105.9,36.4,105.7,36.2,105.4"/>
		<path class="st0" d="M36.2,106.4c-0.2-0.3-0.4-0.5-0.5-0.4c-0.1,0.1,0,0.3,0.2,0.6c0.2,0.3,0.4,0.5,0.5,0.4
			C36.5,107,36.4,106.7,36.2,106.4"/>
		<path class="st0" d="M35.8,107.3c-0.1-0.3-0.3-0.4-0.3-0.4c-0.1,0,0,0.3,0.1,0.6c0.1,0.2,0.3,0.4,0.3,0.4
			C35.9,107.8,35.9,107.5,35.8,107.3"/>
		<path class="st0" d="M35.4,108.1c-0.1-0.4-0.3-0.7-0.4-0.7c-0.1,0-0.1,0.4,0,0.8c0.1,0.4,0.3,0.7,0.4,0.7
			C35.5,108.9,35.5,108.6,35.4,108.1"/>
		<path class="st0" d="M29.7,107.8c0.3,0.1,0.5,0.2,0.5,0.3c0,0.1-0.2,0.1-0.5,0.1c-0.3,0-0.5-0.2-0.4-0.2
			C29.2,107.8,29.4,107.8,29.7,107.8"/>
		<path class="st0" d="M29.5,107.1c0.3,0.1,0.6,0.2,0.6,0.3c0,0.1-0.3,0.1-0.6,0.1c-0.3-0.1-0.6-0.2-0.6-0.3
			C28.8,107.1,29.1,107.1,29.5,107.1"/>
		<path class="st0" d="M29.3,106.3c0.4,0.1,0.7,0.2,0.7,0.4c0,0.1-0.4,0.2-0.8,0.1c-0.4-0.1-0.7-0.2-0.7-0.4
			C28.5,106.3,28.9,106.2,29.3,106.3"/>
		<path class="st0" d="M41.9,97.4c-0.3-1,0.8-1.4,1.9-0.9c0.9,0.4,1.9,0.5,3.4,0.2c0.7-0.2,1.4-0.2,2.1-0.1c0.8,0.5,0.7,0.8-0.1,1
			c-1.5,1.6-2.7,3.2-2.9,4.8c-0.6-0.8,0.5-2.8,2.3-5.2c-1.1,0.9-2,2-2.9,3.3c0.2-0.8,0.8-2,1.7-3.3c-1.9,1.5-3.2,3.8-3,8
			c-0.7-2.5-0.3-4.9,1.3-7.3l-2.1,2.3l1.9-3.1l-1.1,0.4l0.1-0.5l-0.7,0.4v-0.5l-1,0.8l0.2-0.9C42.4,96.7,42.2,97,41.9,97.4"/>
		<path class="st0" d="M42.8,103.3c-0.1,0.7-0.1,1.3,0.4,2.1c0.1,0.1,0.3-0.1,0.2-0.4C43.1,104.6,42.9,104,42.8,103.3"/>
		<path class="st0" d="M45.2,103.6c0.1,0,0.2,0.3,0.2,0.7s-0.1,0.7-0.2,0.7c-0.1,0-0.2-0.3-0.2-0.7S45.1,103.6,45.2,103.6"/>
		<path class="st0" d="M47.4,100.9c0.1,0,0.1,0.3-0.1,0.6c-0.1,0.3-0.3,0.5-0.3,0.5c-0.1,0-0.1-0.3,0.1-0.6
			C47.2,101.1,47.3,100.9,47.4,100.9"/>
		<path class="st0" d="M47.9,99.7c0.1,0.1,0,0.3-0.1,0.5c-0.1,0.2-0.3,0.4-0.4,0.3c-0.1,0,0-0.3,0.2-0.5
			C47.7,99.8,47.9,99.7,47.9,99.7"/>
		<path class="st0" d="M66.1,101.7c0.8,0.3,0.9,1.5,0.5,3.1C66.6,103.6,66.5,102.6,66.1,101.7"/>
		<path class="st0" d="M61.9,108.2c-0.1-0.3-0.2-0.5-0.3-0.8c0.1,0.3,0.1,0.6,0.1,0.9L61.9,108.2z"/>
		<path class="st0" d="M52.4,92.3c0.1,0,0.3,0,0.4,0l0.4,0.7c-0.1,0-0.3-0.1-0.4-0.1L52.4,92.3z"/>
		<path class="st0" d="M51.6,96.9c0.1,0,0.2,0.3,0.3,0.5c0.1,0.3,0,0.4-0.1,0.4c-0.1-0.1-0.2-0.3-0.3-0.6
			C51.5,97.1,51.5,96.9,51.6,96.9"/>
		<path class="st0" d="M52.4,96.8c0.1,0,0.2,0.2,0.3,0.4c0.1,0.3,0.1,0.5,0.1,0.5c-0.1,0-0.2-0.2-0.3-0.4
			C52.3,97.1,52.3,96.8,52.4,96.8"/>
		<path class="st0" d="M53.2,96.7c0.1,0,0.3,0.3,0.3,0.7c0.1,0.3,0.1,0.5-0.1,0.5c-0.2,0-0.2-0.2-0.2-0.5
			C53.2,97.1,53.2,96.7,53.2,96.7"/>
		<path class="st0" d="M54.1,96.4c0.1,0,0.2,0.3,0.4,0.6c0.1,0.4,0.2,0.7,0.1,0.8c-0.1,0-0.3-0.2-0.4-0.6C54,96.8,54,96.4,54.1,96.4
			"/>
		<path class="st0" d="M54.9,96.4c0.1,0,0.3,0.3,0.4,0.8c0.1,0.4,0.1,0.8,0,0.8c-0.1,0-0.3-0.3-0.4-0.8
			C54.8,96.8,54.8,96.4,54.9,96.4"/>
		<path class="st0" d="M55.9,96.5c0.1,0,0.4,0.5,0.4,0.9c0.1,0.4,0.2,0.7-0.2,0.7c-0.3,0-0.2-0.2-0.3-0.6
			C55.8,97,55.8,96.5,55.9,96.5"/>
		<path class="st0" d="M56.5,96.3c0.1,0,0.3,0.3,0.4,0.8c0.1,0.5,0.1,0.9,0,0.9c-0.1,0-0.3-0.3-0.4-0.8
			C56.5,96.7,56.4,96.3,56.5,96.3"/>
		<path class="st0" d="M57.5,96.1c0.1,0,0.2,0.5,0.2,1c0,0.6-0.1,1.1-0.2,1.1c-0.1,0-0.3-0.5-0.3-1C57.3,96.5,57.4,96.1,57.5,96.1"
			/>
		<path class="st0" d="M58.4,96.4c0.1,0,0.2,0.4,0.2,0.9s-0.1,0.9-0.2,0.9c-0.1,0-0.2-0.4-0.2-0.9S58.2,96.4,58.4,96.4"/>
		<path class="st0" d="M59.2,96.1c0.1,0,0.2,0.5,0.2,1c0,0.6-0.1,1-0.2,1c-0.1,0-0.2-0.5-0.2-1C59,96.6,59.1,96.1,59.2,96.1"/>
		<path class="st0" d="M60.1,95.9c0.1,0,0.2,0.5,0.1,1.2c-0.1,0.6-0.2,1.1-0.3,1.1c-0.1,0-0.2-0.5-0.1-1.2
			C59.8,96.4,59.9,95.9,60.1,95.9"/>
		<path class="st0" d="M61.2,95.8c0.1,0,0.1,0.5,0.1,1.2c-0.1,0.6-0.3,1.1-0.4,1.1c-0.1,0-0.1-0.5,0-1.2
			C60.9,96.3,61.1,95.8,61.2,95.8"/>
		<path class="st0" d="M62.2,95.2c0.1,0,0.4,0.8,0.2,1.5c-0.1,0.8-0.3,1.4-0.5,1.3c-0.1,0-0.1-0.7,0-1.4
			C62.1,95.9,62,95.2,62.2,95.2"/>
		<path class="st0" d="M57.2,101.2c0,0,0.2,0.1,0.2,0.4c0.1,0.2,0.1,0.5,0.1,0.5c-0.1,0-0.2-0.2-0.3-0.4
			C57.2,101.4,57.2,101.2,57.2,101.2"/>
		<path class="st0" d="M57.9,100.9c0.1,0,0.2,0.3,0.3,0.6c0.1,0.3,0.1,0.4-0.1,0.5c-0.2,0.1-0.1-0.1-0.2-0.4
			C57.8,101.3,57.8,100.9,57.9,100.9"/>
		<path class="st0" d="M64.4,98.7V99c0.2-0.1,0.3-0.2,0.4-0.3c0.1-1,0.1-1.8,0-2.6C64.8,97.1,64.6,98,64.4,98.7"/>
		<path class="st0" d="M63.9,99.9c-0.3,1.3-0.3,1.8-0.8,2.2c0.2-0.9,0.1-1.4,0.1-1.6c-0.1,0-0.2,0.1-0.3,0.1v0.1
			c0.1,0.5,0.1,1.2-0.5,2.1c0-0.7,0.3-1.4,0.3-2.1c-0.1,0-0.2,0.1-0.4,0.1c0,0.1,0,0.7,0,0.8c0,0.3-0.3,1.1-0.3,1.1
			c0,0,0.2-1.5,0.1-1.8c-0.1,0-0.2,0.1-0.3,0.1c0,0.1,0,0.1,0,0.2c0,0.2-0.1,0.3-0.1,0.3c-0.1,0-0.1-0.1-0.1-0.3
			c0-0.1,0-0.1-0.1-0.2c-0.1,0-0.2,0-0.2,0.1v0.1c0,0.2,0,0.3,0,0.3c0,0-0.1-0.1-0.2-0.3c-0.1,0-0.2,0-0.3,0c0,0.3,0,0.4-0.2,0.5
			c-0.2,0.1-0.2-0.1-0.3-0.4c-0.1,0-0.3,0.1-0.4,0.1c0,0.2,0,0.4-0.1,0.4c0,0-0.2-0.1-0.3-0.3c-0.1,0-0.2,0-0.4,0c0,0.2,0,0.3,0,0.3
			c-0.1,0-0.2-0.1-0.2-0.3c0,0,0,0-0.1,0c0,0,0,0,0.1,0c0-0.1-0.1-0.2-0.1-0.3c-0.1-0.3-0.2-0.7-0.1-0.7c0.1-0.1,0.2,0.2,0.4,0.5
			c0,0.1,0.1,0.2,0.1,0.3c0.1,0,0.3-0.1,0.4-0.1c0-0.1,0-0.1-0.1-0.2c-0.1-0.4-0.1-0.8,0-0.8c0.1,0,0.2,0.3,0.3,0.7
			c0,0.1,0,0.2,0.1,0.3c0.1,0,0.3-0.1,0.4-0.1c-0.1-0.3-0.1-0.4-0.1-0.5c0-0.2,0-0.3,0.1-0.3c0.1,0,0.3,0.3,0.4,0.7
			c0.1,0,0.1,0,0.2-0.1c0,0,0-0.1,0-0.1c-0.1-0.3-0.1-0.4-0.1-0.6c0-0.2,0-0.3,0-0.3c0.1,0,0.3,0.4,0.4,0.7c0,0.1,0,0.1,0,0.2
			c0.1,0,0.2-0.1,0.3-0.1c0,0,0-0.1,0-0.1c0-0.3,0-0.5,0-0.7c0-0.2,0.1-0.3,0.1-0.3c0.1,0,0.1,0.1,0.1,0.3c0.1,0.2,0.1,0.4,0.1,0.7
			v0c0.1,0,0.2-0.1,0.3-0.1c0-0.2,0-0.3,0-0.4c0-0.2,0-0.3,0.1-0.3c0.1,0,0.1,0.3,0.2,0.6c0.1-0.1,0.3-0.1,0.4-0.2
			c0-0.2,0-0.4,0-0.6c0-0.2,0-0.3,0.1-0.4c0,0,0.1,0.1,0.1,0.2c0,0.1,0.1,0.3,0.1,0.5c0.1-0.1,0.2-0.1,0.3-0.2v0c0-0.3,0-0.6,0-0.8
			c0-0.2,0.1-0.4,0.1-0.4c0,0,0.1,0.1,0.1,0.3c0,0.2,0,0.5,0,0.8v0c0.1,0,0.2-0.1,0.3-0.1c0.4-1.4,0.8-3.4,0.8-5.2
			c-0.1-0.2-0.2-0.4-0.3-0.6c-0.1,2-0.2,3.7-0.8,4.8c0.3-1.6,0.4-3.4,0-5.3c0,0,0,0-0.1,0h-0.1c0.1,2.1,0.1,3.9-0.5,5.1
			c0.2-1.7,0.1-3.6-0.5-5.6c-0.1-0.1-0.2-0.1-0.3-0.1c0.4,0.4,0.3,2.1,0.1,2.3c-0.3-1,0-1.3-0.9-2c-0.1,0-0.2,0-0.3,0
			c0.5,0.5,0.5,1.3,0.4,1.9c-0.2-0.6-0.6-1.3-1-1.7c-0.1,0-0.3,0-0.4,0c0.6,0.7,0.6,0.9,0.5,1.6c-0.3-0.7-1.2-1.2-1.6-1.4
			c-0.2,0-0.2,0-0.4,0c0.5,0.3,1.2,1.2,0.9,1.5c-0.3-0.4-1.1-0.8-1.3-1.4c-0.2,0-0.1,0.1-0.3,0.1c0.1,0.3,0,0.5,0.1,0.9
			c-0.5-0.1-0.7-0.1-1.2-0.8c-0.1,0-0.3-0.1-0.3,0c0.1,0.2,0.2,0.5,0.3,0.7c-0.1-0.2-1.1-0.7-1.2-0.9c0-0.1,0.2,0-0.4-0.1
			c0,0.1,0.4,1,0.4,1.1c-0.1-0.1-0.8-1-0.9-1.1c-0.2,0-0.5,0-0.7-0.1l-0.4-0.8c2.2,0.1,4.6,0.1,7.5-0.5l2.7-0.6
			c0.9-0.3,1.5,0.2,1.7,1.7l0.1,1.7c0.6,0.9,0.8,2,0.3,3.5c0.3,1.1,0.8,2.1,1.7,2.9c0.8,0.8,0.9,1.9-0.1,3.4c-0.8,2.3-2,3.7-3,5.3
			c0,0-0.1,0.1-0.1,0.2c0,0.1-0.1,0.1-0.1,0.2c0-0.1,0.1-0.2,0.1-0.2c0-0.3-0.1-0.5-0.1-0.8c0.1,0.2,0.2,0.4,0.2,0.5
			c0.1-0.2,0.3-0.5,0.4-0.8c-0.1-0.2-0.1-0.5-0.2-0.8c0.1,0.2,0.2,0.4,0.3,0.5c0.1-0.2,0.2-0.4,0.3-0.6c-0.1-0.3-0.1-0.6-0.2-0.9
			c0.1,0.2,0.2,0.4,0.4,0.6c0.1-0.3,0.3-0.5,0.4-0.8c0-0.3-0.1-0.5-0.2-0.8c0.1,0.2,0.2,0.3,0.3,0.5c0.2-0.4,0.2-0.8,0.3-1.1l-5,3.4
			c0.4-0.4,0.9-0.8,1.4-1.2l-0.1,0.1c0-0.3-0.1-0.7-0.1-1c0.1,0.3,0.2,0.6,0.3,0.9c0.1-0.1,0.2-0.2,0.4-0.3c0-0.4-0.1-0.8-0.2-1.3
			c0.2,0.4,0.3,0.7,0.4,1c0.1-0.1,0.3-0.3,0.4-0.4c0-0.5-0.1-1.1-0.2-1.7c0.3,0.5,0.4,1,0.5,1.4c0.1-0.1,0.3-0.3,0.4-0.4
			c0-0.7-0.1-1.6-0.2-2.3c0.3,0.7,0.6,1.4,0.6,2c0.1-0.1,0.2-0.2,0.2-0.2c0-0.8-0.1-1.7-0.2-2.6c0.4,0.8,0.6,1.6,0.6,2.2
			c0,0,0.1-0.1,0.1-0.1c0-0.9-0.1-2-0.3-3c0.5,1,0.7,1.9,0.6,2.6c0.1-0.1,0.2-0.2,0.3-0.3c0-1.5-0.5-2.9-0.9-4.3
			c-0.2,0.7-0.2,1-0.4,0.9c0.1-0.8,0.1-1.2-0.1-1.3c-0.1,1.2-0.4,1.9-0.7,2.2l0.2-1.9L63.9,99.9z"/>
		<path class="st0" d="M59.6,103.1L59.6,103.1c0,0.3,0,0.6-0.2,0.6c-0.2,0-0.2-0.3-0.1-0.6H59.6z"/>
		<path class="st0" d="M60.1,102.6c0.1,0,0.1,0.1,0.1,0.5c0,0.4,0,0.7-0.2,0.6c-0.3,0-0.2-0.4-0.1-0.7C60,102.7,60,102.6,60.1,102.6
			"/>
		<path class="st0" d="M60.8,102.7L60.8,102.7c0,0.6,0,1-0.2,0.9c-0.2,0-0.2-0.5-0.1-0.9H60.8z"/>
		<path class="st0" d="M60.7,101.9c0.1,0,0.1,0.1,0.1,0.3h-0.2C60.6,102,60.6,101.9,60.7,101.9"/>
		<path class="st0" d="M61.4,101.8c0.1,0,0.2,0.2,0.2,0.7c0,0.5,0,0.9-0.3,0.8c-0.3,0-0.2-0.4-0.1-0.9
			C61.2,102,61.2,101.8,61.4,101.8"/>
		<path class="st0" d="M58,86.8c1.2,0.3,2.5,1.4,3.7,2.6c0.2,0.4,0.1,0.4-0.2,0.3C60.7,89.4,59.4,87.8,58,86.8"/>
		<path class="st0" d="M62.7,90.2c0.2,0.2,0.4,0.3,0.3,0.4c-0.1,0.1-0.3,0-0.5-0.1c-0.2-0.2-0.4-0.3-0.3-0.4
			C62.2,90,62.4,90,62.7,90.2"/>
		<path class="st0" d="M50.5,92.1c0.4,0.1,0.9,0.1,1.3,0.2l0.3,0.5c0,0,0,0,0,0c-0.1,0,0.4,1.7-0.4-0.1c-0.1-0.2-0.4-0.1-0.6-0.2
			C50.8,92.3,50.9,92.3,50.5,92.1"/>
		<path class="st0" d="M44.4,114.8c0.2,0,0.5,0.1,0.5,0.2c0,0.1-0.2,0.2-0.4,0.2c-0.2,0-0.5-0.1-0.5-0.2
			C44,114.9,44.1,114.8,44.4,114.8"/>
		<path class="st0" d="M45.1,116.1c0.4-0.1,0.8-0.1,0.8,0c0.1,0.1-0.2,0.3-0.6,0.4c-0.4,0.1-0.8,0.1-0.9,0
			C44.4,116.3,44.7,116.2,45.1,116.1"/>
		<path class="st0" d="M45.4,116.5c0.4-0.1,0.9-0.1,1,0c0.1,0.1-0.2,0.3-0.7,0.4c-0.5,0.1-0.9,0.1-1,0
			C44.7,116.8,44.9,116.6,45.4,116.5"/>
		<path class="st0" d="M46,116.9c0.3-0.1,0.6-0.1,0.6,0c0,0.1-0.1,0.2-0.5,0.3c-0.3,0.1-0.6,0.1-0.6,0C45.5,117.1,45.7,117,46,116.9
			"/>
		<path class="st0" d="M46.4,117.4c0.2,0,0.5,0.1,0.5,0.2c0,0.1-0.1,0.2-0.4,0.2c-0.2,0-0.5-0.1-0.5-0.2
			C46,117.5,46.2,117.4,46.4,117.4"/>
		<path class="st0" d="M51.6,115.3c0.4-0.2,0.7-0.2,0.8,0c0.1,0.2-0.2,0.5-0.6,0.6c-0.4,0.2-0.7,0.2-0.8,0
			C50.9,115.7,51.2,115.5,51.6,115.3"/>
		<path class="st0" d="M50.9,114.8c0.3-0.1,0.6-0.1,0.6,0c0.1,0.1-0.2,0.4-0.4,0.5c-0.3,0.1-0.6,0.1-0.6,0
			C50.4,115.1,50.6,114.9,50.9,114.8"/>
		<path class="st0" d="M50.3,113.9c0.2-0.1,0.4-0.1,0.5,0c0,0.1-0.1,0.3-0.3,0.4c-0.2,0.1-0.5,0.1-0.5,0
			C49.9,114.1,50,114,50.3,113.9"/>
		<path class="st0" d="M43.2,109.5c-0.1-0.3-0.3-0.3-0.4,0c-0.1,0.4,0,0.8,0.4,1c0.4,0.2,0.5-0.2,0.3-0.3
			C43.3,110,43.3,109.8,43.2,109.5"/>
		<path class="st0" d="M42.6,109.1c0.1-0.3-0.2-0.5-0.4-0.2c-0.3,0.4-0.3,0.9,0,1.3c0.3,0.4,0.6,0,0.5-0.2
			C42.5,109.7,42.5,109.5,42.6,109.1"/>
		<path class="st0" d="M76.4,85.7c-0.3,0.4-0.4,2.2,1.1,4.4c0.5,0.8-0.1,1.3,0.7,1.4c0.3-0.1,0.5-0.3,0.6-0.8l-0.5-0.2l0.7,0
			l-0.7-0.5c0.2-0.1,0.8,0.1,0.8-0.2c0-0.3-0.7-0.4-1.1-0.5l0.8-0.2c0-0.2-0.5-0.5-1.2-0.7l0.8-0.2l-0.9-0.6l0.7-0.2L77,86.7
			l0.6-0.3l-0.6-0.2l0.6-0.3C77,85.6,76.8,85.1,76.4,85.7"/>
		<path class="st0" d="M75.2,87c-0.3-0.7-0.3-1.3-0.2-1.8c0.4-0.9,0.7-1.2,1-1.2c0.6,0.7-0.4,1.1-0.6,1.6
			C75.3,85.8,75.2,86.1,75.2,87"/>
		<path class="st0" d="M75,83.8c0.3-0.3,0.5-0.4,0.6-0.4c0.1,0.1,0,0.4-0.3,0.7c-0.3,0.3-0.5,0.5-0.6,0.4
			C74.6,84.4,74.7,84.1,75,83.8"/>
		<path class="st0" d="M74.7,87.1c0.2,0,0.3,0.2,0.3,0.3c0,0.2-0.1,0.3-0.3,0.3c-0.2,0-0.3-0.2-0.3-0.3
			C74.4,87.3,74.5,87.1,74.7,87.1"/>
		<path class="st0" d="M75.4,88.1c0.2,0.1,0.2,0.3,0.1,0.6c-0.1,0.3-0.3,0.4-0.5,0.3c-0.2,0-0.2-0.3-0.1-0.6
			C75,88.2,75.2,88.1,75.4,88.1"/>
		<path class="st0" d="M76,89.3c0.2,0.1,0.3,0.4,0.1,0.7c-0.2,0.3-0.5,0.4-0.8,0.4c-0.2-0.1-0.3-0.4-0.1-0.7
			C75.4,89.4,75.8,89.2,76,89.3"/>
		<path class="st0" d="M76.8,90.5c0.1,0.2,0,0.4-0.2,0.5c-0.2,0.1-0.5,0-0.6-0.1c-0.1-0.2,0-0.4,0.2-0.5
			C76.4,90.3,76.6,90.3,76.8,90.5"/>
		<path class="st0" d="M80.3,91.1c0.1-0.2,0.1-0.4-0.1-0.5c-0.2-0.1-0.4,0-0.5-0.3c-0.2-0.6,0.1-0.9,0.6-1.1c0.4,0,0.5,0.2,0.4,0.4
			l-0.3,0.2c0.4,0.2,0.7,0.3,0.8,0.6c-0.2,0-0.4,0.1-0.4,0.3c0.8-0.2,0.8,1.3,0,1c-0.5-0.1-0.7,0.1-0.5,0.9c0.2,1.1,0.9,1.3,0.8,0.2
			c-0.1-0.5,1.6-0.6,1.7,0.5l-0.6-0.3c0.2,0.9,0.8,0.5,0.9,1.2l-0.5,0.1c0.6,0.5,1.1,1,1.3,1.7c-0.7-0.1-0.7-0.9-1.4-0.9
			c0.8,1.2,1.8,1,2.3,2.2c-0.6,0-1.5-0.6-2.4-1.5c0.8,1.3,1.4,2.3,1.2,2.8c-1.2-0.6-1.5-2.5-1.9-3.1c0,1,0.7,1.5,0.4,2.6
			c-0.5-0.6-0.7-1.6-0.7-3.2c0.5,0.1,0.7-0.3,0.7-1.2c-0.1-1-0.5-0.9-0.4,0c0,0.7-0.4,0.9-1.7,0c-0.2,0.2,0.1,0.5,0.8,1l-0.1,0.8
			l0.4-0.7l0.2,2.2c-0.1,0.5-0.2,0.5-0.3-0.1l-0.1-1.1c0,0.8-0.1,1.1-0.4,1.1l-0.2-2l-0.6,0.7l-0.1-1.1L79.1,95l0-1.4
			c-0.3,0.3-0.7,0.1-1.1-0.6c0.6,0.2,0.9,0.1,1.3-0.2C79,91.7,79.4,91.2,80.3,91.1"/>
		<path class="st0" d="M68.7,97.5c0-0.5,0.1-0.7-0.3-1.3c-0.2-0.2-0.3-0.3-0.3,0C68.3,96.6,68.6,97,68.7,97.5"/>
		<path class="st0" d="M68,94.3c0.6,0.4,0.9,0.4,1.2,1.4c0.1,0.4,0,0.6-0.2,0.3C68.6,95.5,68.4,94.8,68,94.3"/>
		<path class="st0" d="M68,92.3c0.8,0.6,1.2,0.7,1.5,2.2c0.1,0.5,0,0.9-0.3,0.4C68.8,94.1,68.6,93.1,68,92.3"/>
		<path class="st0" d="M68.5,90.8c0.9,0.3,1.6,1.5,1.6,2.6c0,0.6-0.2,0.9-0.4,0.4C69.5,93,69.1,91.5,68.5,90.8"/>
		<path class="st0" d="M68.8,90c0.8,0.4,1.4,1,1.7,1.9c0.1,0.5,0,0.8-0.4,0.4C70,91.5,69.4,90.7,68.8,90"/>
		<path class="st0" d="M74.5,115.9c0.2-0.5,1-1.1,1.8-0.7c0.4,0.2,0.4,0.7,0.3,1c-0.2-0.3-0.5-0.6-0.7-0.2
			C75.3,115.4,75,115.7,74.5,115.9"/>
		<path class="st0" d="M71.9,116.1c0.2,0,0.3,0.1,0.3,0.3c0,0.2-0.1,0.3-0.3,0.3c-0.2,0-0.3-0.1-0.3-0.3
			C71.6,116.2,71.8,116.1,71.9,116.1"/>
		<path class="st0" d="M70.2,116.1c0.1,0,0.3,0.2,0.3,0.4c0.1,0.3,0.1,0.5-0.1,0.6c-0.1,0-0.3-0.2-0.3-0.4
			C70.1,116.4,70.1,116.1,70.2,116.1"/>
		<path class="st0" d="M70.8,116c0.1,0,0.2,0.1,0.2,0.3c0.1,0.2,0,0.3,0,0.4c-0.1,0-0.2-0.1-0.2-0.3C70.7,116.2,70.7,116,70.8,116"
			/>
		<path class="st0" d="M70.9,109.3c0,0-0.1,0.1-0.1,0.1c-0.2,0.2-0.4,0.3-0.5,0.3c-0.1-0.1,0-0.3,0.2-0.5c0.1-0.1,0.1-0.2,0.2-0.2
			c0,0-0.1-0.1-0.1-0.2c0,0-0.1,0.1-0.1,0.1c-0.2,0.3-0.4,0.4-0.5,0.3c-0.1-0.1,0-0.4,0.2-0.6c0-0.1,0.1-0.1,0.2-0.2
			c0,0-0.1-0.1-0.1-0.1c-0.2,0.3-0.4,0.4-0.5,0.3c-0.1-0.1,0-0.4,0.2-0.6c0,0,0.1-0.1,0.1-0.1c-0.1-0.1-0.1-0.1-0.1-0.2
			c-0.1,0.1-0.2,0.2-0.3,0.1c-0.1-0.1,0-0.3,0.1-0.5c-0.1-0.2-0.1-0.4,0-0.5c0.3-0.3,0.4,0.1,0.7,0.8c0.1,0.3,0,0.4,0.1,0.6
			c0.1,0.2,0.4,0.3,0.5,0.4c0.3,0.6,0.3,1,0.2,1.1C71.1,109.8,71.2,109.7,70.9,109.3"/>
		<path class="st0" d="M71,109.8c0.1,0.1,0,0.4-0.2,0.7c-0.2,0.3-0.5,0.5-0.6,0.4c-0.1-0.1,0-0.4,0.2-0.7
			C70.6,109.9,70.8,109.7,71,109.8"/>
		<path class="st0" d="M76.9,106.7c0.1,0,0,0.3-0.1,0.6c-0.1,0.3-0.3,0.5-0.4,0.5c-0.1,0,0-0.3,0.1-0.6
			C76.7,106.9,76.8,106.7,76.9,106.7"/>
		<path class="st0" d="M76.2,106.4c0.1,0,0.1,0.5-0.1,0.9c-0.2,0.4-0.5,0.8-0.6,0.7c-0.1-0.1-0.1-0.5,0.1-0.9
			C75.8,106.7,76,106.3,76.2,106.4"/>
		<path class="st0" d="M74.5,105.6c0.1,0.1,0,0.4-0.1,0.8c-0.1,0.4-0.3,0.6-0.4,0.6c-0.1,0-0.1-0.4,0.1-0.7
			C74.2,105.9,74.4,105.6,74.5,105.6"/>
		<path class="st0" d="M27.5,17.2c0.2-0.8,0.6-1.1,1.1-1.2l1.1,0.2c0.4,0.3,0.3,0.4-0.1,0.5c-0.9-0.2-1.4,0-1.6,0.7
			C27.6,17.9,27.5,17.9,27.5,17.2"/>
		<path class="st0" d="M30.9,19.3c0.1,0,0.2,0.1,0.2,0.3c0,0.2-0.1,0.3-0.2,0.3c-0.1,0-0.2-0.1-0.2-0.3
			C30.6,19.5,30.8,19.3,30.9,19.3"/>
		<path class="st0" d="M27.4,18.3c-0.4,0.4-0.3,1,0.3,1.6l0.8,1c0.7,0.5,1,0.4,0.9-0.4c-0.1-0.5,0-0.7,0.5-0.7
			c0.3-0.1,0.5-0.2,0.6-0.5c0.1-0.4,0.1-0.6-0.2-0.7c-0.6,0.4-1.2,0.7-1.6,0.8c0.6-0.4,1-0.8,1.1-1c0.2-0.1,0.4-0.2,0.7-0.1
			c0-0.2-0.1-0.5-0.5-0.6c-0.7,0-1.3,0.5-2,1.3c0.4-0.9,1-1.4,1.9-1.4c0.1-0.2,0-0.5-0.2-0.7c-0.5-0.1-1.1,0.1-1.5,0.5L27.4,18.3z"
			/>
		<path class="st0" d="M31.3,24.8c1.6,1.7,2.9,3.6,4,5.9v1.9l-0.6-2.2c0,1.5,0,2.5-0.2,2.2l-0.5-3.2l-0.4,1.4L33.5,29
			c-0.3-0.2-0.3,1-0.3,2.7c-0.4-0.5-0.4-1.8-0.3-3.3l-0.5,1.5c-0.3-0.8-0.1-1.8,0-2.9c-0.3-0.2-0.5,0.3-0.6,1.8
			c-0.3-1-0.3-1.9-0.1-2.9l-0.3,0.8L31.3,24.8z"/>
		<path class="st0" d="M43.1,10c0.6,0.4,1.3,0.5,2,0.5l0,0.4c1.2,0,2.4-0.6,3.6-1.5c-0.1-0.1-0.3-0.1-0.5,0
			c-0.9,0.5-0.8,0.2,0.9-0.8c0.3-0.1,0.5,0.1,0.8-0.1L51,8.4c-0.9,0.8-1.7,1.7-2.7,2.4c-1.3,0.8-2.6,1.1-3.7,0.7
			c-0.7-0.3-1.3-0.8-1.8-1.2C42.6,10,42.5,9.9,43.1,10"/>
		<path class="st0" d="M49.9,10.3c0.1,0,0.2,0.1,0.2,0.2c0,0.1-0.1,0.2-0.2,0.2c-0.1,0-0.2-0.1-0.2-0.2
			C49.6,10.4,49.7,10.3,49.9,10.3"/>
		<path class="st0" d="M51.3,13.4c0.1-0.1,0.2-0.2,0.3-0.1c0.1,0.1,0.1,0.2,0,0.3c-0.1,0.1-0.2,0.2-0.3,0.1
			C51.2,13.7,51.2,13.6,51.3,13.4"/>
		<path class="st0" d="M54.7,12c0.2-0.1,0.3-0.1,0.4,0c0,0.1,0,0.3-0.2,0.4c-0.2,0.1-0.3,0.1-0.4,0C54.5,12.3,54.5,12.1,54.7,12"/>
		<path class="st0" d="M54,11.5c0.1-0.1,0.2-0.2,0.3-0.1c0.1,0.1,0,0.2-0.1,0.4c-0.1,0.1-0.2,0.1-0.3,0.1
			C53.8,11.7,53.9,11.6,54,11.5"/>
		<path class="st0" d="M48.7,12.6c0.1-0.1,0.3,0,0.3,0.1c0,0.1-0.1,0.2-0.2,0.3c-0.1,0.1-0.3,0-0.3-0.1
			C48.4,12.7,48.5,12.6,48.7,12.6"/>
		<path class="st0" d="M50.6,16.4c0.2-0.1,0.4-0.1,0.5,0c0.1,0.1-0.1,0.3-0.3,0.4c-0.2,0.1-0.4,0.1-0.5,0
			C50.2,16.7,50.3,16.5,50.6,16.4"/>
		<path class="st0" d="M44.4,12.9c0.5,0,1.3-0.2,2.2-0.8l1.1-0.5c0.6-0.3,0.6-0.2,0.2,0.2c-0.5,0.5-1.1,0.8-1.6,1.2
			c-0.4,0.3-1.1,0.7-2.1,0.4C43.7,13.2,43.9,12.9,44.4,12.9"/>
		<path class="st0" d="M47.7,12.4c0.6-0.7,1-0.8,1.9-1.2c0.8-0.4,1.6-0.5,2.4-0.5c0.6-0.6,1.1,0.2,0.5,0.8c-0.2,0.2-0.5,0.3-0.7,0.5
			c-0.6,0.5-1.3,0.7-2,0.9c-0.9,0.3-1,0.2-0.2-0.4c0.2-0.2,0.4-0.4,0.7-0.5c0.5-0.3,1.1-0.4,1.6-0.5c-0.8-0.6-2.4,0.3-4,1.2
			C47.5,12.9,47.4,12.8,47.7,12.4"/>
		<path class="st0" d="M52.1,9.6c0.3-0.1,0.6-0.1,1,0c0.7,0.2,0.9,0.6,1,1c-0.1,0.4-0.3,0.7-0.6,0.8c-0.1-0.8-0.4-1.3-0.9-1.5
			c-0.2,0-0.3-0.1-0.5-0.1V9.6z"/>
		<path class="st0" d="M51.4,9.8c0.2-0.1,0.2-0.1,0.4-0.2v0.3c-0.2,0-0.2,0-0.4,0.1C51.2,10.1,51,9.9,51.4,9.8"/>
		<path class="st0" d="M50.5,9.3C51,8.9,51.5,8.5,52,8.5c0.6-0.1,1.2-0.1,1.8,0c1.2,0.4,0.7,0.9,0,0.5c-0.5-0.3-1.1-0.3-1.7,0
			c-0.1,0.5-0.9,0.1-1.4,0.4C50.4,9.7,50.3,9.6,50.5,9.3"/>
		<path class="st0" d="M54.1,9.5c0.4,0,0.6,0,0.7,0.4c0.1,0.5,0,0.8-0.3,1.1C54.6,9.9,54.1,10,54.1,9.5"/>
		<path class="st0" d="M55.1,9.2c0.1,0.2,0.2,0.6,0,1.3l-0.4,0.8c-0.1,0.4,0,0.5,0.3,0.3c0.4-0.2,0.5-0.6,0.5-1.1
			c0-0.8,0-1.1,0.3-1.4C55.4,8.3,55,8.4,55.1,9.2"/>
		<path class="st0" d="M52,13.8c0,0.5,1.1,0.6,1.3,0.1c0.2-0.6-0.2-1.1-0.1-1.7C52.5,12.3,52,12.9,52,13.8"/>
		<path class="st0" d="M51.7,15.2c0.2-0.5,0.6-0.6,1.2-0.6c0.5,0,0.7,0.1,0.7,0.6c0,0.4,0,1-0.1,1.4C53.4,17,53.4,17,52.9,17
			c-0.5,0-0.7-0.3-1.3,0.1C51.9,16.2,51.5,15.8,51.7,15.2"/>
		<path class="st0" d="M53.8,13.1c-0.2-0.4,0-0.6,0.3-0.3c0.3,0.3,0.5,0.6,0.5,1c0,0.4-0.4,0.7-0.6,0.4
			C53.8,13.9,54.1,13.6,53.8,13.1"/>
		<path class="st0" d="M54.1,15.1c-0.2-0.5,0.1-0.6,0.6-0.3c0.4,0.3,0.5,0.6,0.3,0.8c0.4,0.4,0.4,1,0.1,1.7
			c-0.3-0.3-0.5-0.1-0.8-0.4c-0.1-0.2-0.2-0.1-0.1-0.9C54.2,15.7,54.2,15.4,54.1,15.1"/>
		<path class="st0" d="M54.7,19.4c0.2,0,0.4,0.1,0.4,0.3c0,0.1-0.2,0.2-0.4,0.2c-0.2,0-0.4-0.2-0.4-0.3
			C54.4,19.5,54.5,19.4,54.7,19.4"/>
		<path class="st0" d="M51.7,18.9c0.2,0,0.4,0.2,0.4,0.4c0,0.2-0.2,0.3-0.4,0.2c-0.2,0-0.4-0.2-0.4-0.3C51.3,19,51.5,18.9,51.7,18.9
			"/>
		<path class="st0" d="M55.4,18.4c-0.3-0.5-1-0.9-2.1-1c-0.7-0.1-1.6,0.1-2.6,0.3c-0.5,0.7-0.7,1.6-0.6,2.9l0.4,0.1l-0.4,0.3h0.5
			l-0.3,0.5l0.3,0.1l-0.2,0.7l0.3,0.2l-0.2,0.4l0.4,0l-0.1,0.4l0.3,0.1l0,0.4l0.3,0.1c0.2,0.3,0.5,0.6,0.9,0.9
			c0.3,0.2,0.6,0.2,0.9,0.1c0.6-0.5,0.7-0.9,1.2-1.4c0.1-0.1,0.2-0.4,0.2-0.9c0.3-0.1,0.4-0.4,0.4-0.7l0.2-0.4l0-1.3
			c-0.3,0.1-0.5,0.1-0.7,0.1l-0.7-0.3l-0.2,1.6c0,0.3-0.2,0.8-0.5,0.6l-0.8-0.4c-0.2-0.1-0.2-0.4,0.1-0.5l0.3-0.1v-1.4
			c-0.5,0.1-1,0.2-1.5-0.2c-0.2-0.1-0.4-0.1-0.6-0.1c0.1-0.3,0.3-0.6,0.6-0.7l-0.3-0.5c0.1,0,0.3,0.1,0.4,0c0.7-0.1,1-0.2,1.2,0.1
			c0.2,0.2,0.3,0.4,0.5,0.5l0.1-0.4c0.2-0.4,0.5-0.5,0.9-0.4l-0.1,1l1.6-0.5L55.4,18.4z M51.8,22.7c0.5-0.1,0.9-0.1,1.4,0
			c0.8,0.2,0.8,0.5,0.1,1c-0.4,0-0.9,0-1.4-0.1C52,23.2,52.2,23.1,51.8,22.7 M52.4,23c0.2-0.2,0.5-0.2,0.8,0c0.2,0.1,0.1,0.3,0,0.3
			c-0.2,0.1-0.4,0.1-0.5,0C52.5,23.2,52.5,23.1,52.4,23"/>
		<path class="st0" d="M52.5,21.4c0.1,0,0.1,0.1,0.1,0.1c0,0.1-0.1,0.1-0.1,0.1c-0.1,0-0.1,0-0.1-0.1C52.4,21.5,52.5,21.4,52.5,21.4
			"/>
		<path class="st0" d="M53.3,19c0-0.1,0-0.3,0-0.4c0.3-0.2,0.4-0.4,0.4-0.1c0,0.2,0,0.4,0,0.5H53.3z"/>
		<path class="st0" d="M53.1,21.5c0-0.6,0.1-1.3,0.2-2.1h0.4c0,0.6-0.1,1.2-0.3,2.2C53.2,21.9,53.1,21.7,53.1,21.5"/>
		<path class="st0" d="M49.3,17.9c0-0.4,0.3-0.3,0.4,0c0.1,0.7,0,1.3-0.4,1.7c-0.2,0.2-0.6,0-0.4-0.3C49.3,18.8,49.4,18.4,49.3,17.9
			"/>
		<path class="st0" d="M49,20.9c-0.1-0.5,0.2-0.7,0.3-0.1c0.3,1.4,0.9,2.8,2.2,4.1c0.5,0.5,0,0.9-0.5,0.4
			C49.7,24.1,49.3,22.5,49,20.9"/>
		<path class="st0" d="M53.8,25.2c0-0.4,0.1-0.8,0.6-1.2c0.3-0.2,0.3,0.2,0.2,0.3C54.3,24.7,54.1,24.7,53.8,25.2"/>
		<path class="st0" d="M41.2,31c0-0.3,0.1-0.6,0.3-0.8c-0.1-0.1-0.2-0.2-0.3-0.3c-0.3,0.6-0.6,1.1-1.1,1.8c0.3-1.1,0.7-1.9,1.4-2.8
			c-0.1,0.4-0.2,0.7-0.3,1c0.1,0.1,0.2,0.2,0.3,0.3c0.1-0.1,0.2-0.2,0.3-0.3c0,0.2,0,0.3-0.1,0.4c0,0,0,0,0,0l-0.1,0.1c0,0,0,0,0,0
			C41.6,30.6,41.5,30.8,41.2,31"/>
		<path class="st0" d="M40.6,32c0-0.3,0.1-0.5,0.4-0.7C40.9,31.6,40.9,31.7,40.6,32"/>
		<path class="st0" d="M43.2,32.4c0-0.2,0.1-0.4,0.1-0.6h0l0.1-0.1c0-0.1,0.1-0.1,0.1-0.2l0,0c0.1-0.1,0.2-0.2,0.3-0.4
			C43.8,31.7,43.7,32,43.2,32.4"/>
		<path class="st0" d="M43.1,33.9c-0.1-0.5,0-0.9,0.6-1.2C43.7,33.5,43.6,33.7,43.1,33.9"/>
		<path class="st0" d="M44.3,33.4c0.5-1.2,0.5-1.8,0.4-3.4C45.2,31.5,45.1,31.9,44.3,33.4"/>
		<path class="st0" d="M52.2,38.2c0.2-1.1,0.3-2.2,0.3-3.3c-0.1,0-0.2,0.1-0.2,0.1c-0.1,0.6-0.2,1.3-0.5,2.1c0.2-0.7,0.2-1.4,0.2-2
			c-0.1,0-0.2,0.1-0.3,0.1c-0.1,0.5-0.2,1-0.4,1.7c0.1-0.5,0.2-1.1,0.2-1.6c-0.2,0-0.3,0.1-0.5,0.1c0,0.7-0.1,1.4-0.3,2.4
			c0-0.8-0.1-1.6-0.1-2.3c-0.1,0-0.3,0-0.4,0c0,0.8-0.1,1.6-0.3,2.7c0-0.9-0.1-1.8-0.1-2.7c-0.2,0-0.3,0-0.5-0.1
			c0,0.8-0.1,1.7-0.3,2.8c0-1-0.1-1.9-0.1-2.9c-0.2,0-0.3-0.1-0.4-0.1c0,0.8-0.2,1.5-0.4,2.6c0-0.9,0-1.8,0-2.7
			c-0.1,0-0.3-0.1-0.4-0.2c-0.1,1-0.1,2-0.2,3.1c-0.1-1.3-0.2-2.3-0.1-3.2c-0.1-0.1-0.3-0.1-0.4-0.2c-0.2,1.2-0.4,2.4-0.2,3.6
			c-0.4-1.6-0.4-2.6,0-3.7c-0.1-0.1-0.2-0.1-0.3-0.2c-0.2,0.4-0.4,0.9-0.7,1.4c0.2-0.5,0.3-1,0.4-1.5c-0.1-0.1-0.3-0.2-0.5-0.3
			c-0.1,0.7-0.4,1.4-0.9,2.3c0.6-1.6,0.7-3.2,0.7-5.2c0.2,0.8,0.2,1.4,0.2,2c0.2,0.1,0.4,0.1,0.5,0.2c0.1-0.8,0.1-1.7,0.1-2.7
			c0.2,1.2,0.3,2,0.2,2.8c0.2,0.1,0.3,0.1,0.5,0.2c0.1-0.1,0.1-0.3,0.2-0.4c-0.1,0.2-0.1,0.3-0.1,0.5c0.1,0,0.2,0.1,0.3,0.1
			c0.1-0.3,0.1-0.7,0.3-1.1c0,0.4,0,0.8,0,1.2c0.1,0,0.3,0.1,0.4,0.1c0-0.3,0-0.6,0-0.9c0.1,0.4,0.1,0.6,0.1,0.9
			c0.2,0,0.3,0,0.5,0.1c0-0.4,0-0.8,0-1.2c0.1,0.4,0.2,0.8,0.3,1.2c0.2,0,0.4,0,0.6,0c0-0.4,0-0.8,0-1.3c0.1,0.5,0.2,0.9,0.3,1.3
			c0.2,0,0.3,0,0.5,0c0-0.6,0-1.2,0-1.9c0.2,0.7,0.3,1.3,0.3,1.8c0.1,0,0.3,0,0.4-0.1c0-0.4-0.1-0.9-0.2-1.3
			c0.2,0.5,0.3,0.9,0.4,1.3c0.1,0,0.2,0,0.3-0.1c0-0.5-0.1-1-0.2-1.5c0.2,0.5,0.3,1,0.5,1.4c0.1,0,0.2,0,0.3-0.1
			c-0.1-0.8-0.2-1.5-0.3-2.4C53.2,33.8,53.2,35.2,52.2,38.2"/>
		<path class="st0" d="M53.5,34.7l0.2,0.5l0.7-0.7c0.2-0.2,0.4-0.2,0.5,0.2l0.1-0.9c0.2-0.1,0.4,0,0.6,0.2c0.1-0.2,0.1-0.5,0.1-0.8
			l0.1-1.1c-0.4-0.7-0.7-1.1-1.1-1.2c0.2,0.5,0.2,1,0.1,1.5c-0.1-0.7-0.4-1.2-0.9-1.4c0.2,0.4,0.3,0.8,0.2,1.2
			c-0.1-0.2-0.3-0.3-0.5-0.5l0.1,0.6l-0.3,0.2L53.5,34.7z"/>
		<path class="st0" d="M58,31c0,0.2,0,0.3-0.1,0.3c-0.1,0-0.2-0.1-0.4-0.3H58z"/>
		<path class="st0" d="M57.7,30.2L57.7,30.2c0.1,0.2,0.2,0.4,0.2,0.6h-0.6c-0.1-0.2-0.2-0.3-0.3-0.5c0,0,0-0.1,0-0.1H57.7z"/>
		<path class="st0" d="M56.8,29.1c0.1,0,0.4,0.3,0.7,0.8h-0.6C56.7,29.5,56.7,29.1,56.8,29.1"/>
		<path class="st0" d="M56.5,31c0.1,0,0.2,0.2,0.4,0.5c0.2,0.3,0.2,0.6,0.2,0.6c-0.1,0-0.3-0.2-0.4-0.5C56.5,31.3,56.5,31,56.5,31"
			/>
		<path class="st0" d="M55.6,30.7c0.1,0,0.3,0.2,0.5,0.6c0.2,0.4,0.3,0.7,0.2,0.8c-0.1,0.1-0.3-0.2-0.5-0.6
			C55.6,31.1,55.5,30.8,55.6,30.7"/>
		<path class="st0" d="M40,28.7c0.1,0.1,0.2,0.2,0.3,0.3c0.1-0.1,0.1-0.2,0.2-0.3c-0.1,0.3-0.1,0.5-0.4,0.7c0-0.2,0.1-0.3,0.1-0.4
			C40.2,28.9,40.1,28.8,40,28.7"/>
		<polygon class="st0" points="35.6,81.3 35.4,81.9 35.3,81.8 35.4,81.3 		"/>
		<path class="st0" d="M20.6,104.4c0.6-0.3,0.8,0,1,0.8c0.5,0.5,0.8,1,0.9,1.4c1.1,0.9,0.9,1.4-0.6,1.3c-0.5-0.2-0.7-0.5-0.8-1.3
			L20.6,104.4z"/>
		<path class="st0" d="M20.9,108.4c-0.4,0.6-0.3,1.4,0.2,2c0.3,0.4,0.6,0.5,1,0.5l-0.2-0.6l0.6,0.4c0-0.3-0.2-0.6-0.8-1.1l0.8,0.2
			c0-0.4-0.4-0.8-0.9-1.1h0.5C21.7,108,21.2,107.8,20.9,108.4"/>
		<path class="st0" d="M22.8,108.7c0.2,0,0.3,0.2,0.4,0.5c0,0.3-0.1,0.6-0.2,0.6c-0.2,0-0.3-0.2-0.4-0.5
			C22.5,109,22.6,108.7,22.8,108.7"/>
		<path class="st0" d="M32.6,72.9c0-1.7,0.7-3.3,1.6-4.9C33.5,69.6,33,71.2,32.6,72.9"/>
		<path class="st0" d="M36.1,63.1c-0.6,0.3-0.6-0.2-0.2-0.6c0.9-0.8,2-1.2,3.1-1.2h2c0.8,0,0.7,0.8-0.1,0.8l-1.5,0
			C38.2,62.1,37.1,62.5,36.1,63.1"/>
		<path class="st0" d="M40.5,62.3c0.5,0,1,0.1,1,0.2c0,0.1-0.4,0.2-1,0.2c-0.5,0-1-0.1-1-0.2C39.5,62.4,39.9,62.3,40.5,62.3"/>
		<path class="st0" d="M44.4,51.2c0-0.1-0.3,0.3-0.6,0.7c-0.3,0.4-0.5,0.8-0.5,0.9c0,0,0.3-0.3,0.7-0.7
			C44.3,51.7,44.5,51.3,44.4,51.2"/>
		<path class="st0" d="M41.1,54.9c-0.3,0.4-0.2,0.7,0.3,0.9c1.9,0.6,3.8-0.1,5.7-1.2l2.4-1.2c0.4-0.6,0.4-0.7-0.2-0.5l-1.2,0.6
			l0.3-1c-0.6,0.5-1.1,1.1-1.3,1.6l-0.2-0.5c-0.3,0.3-0.5,0.6-0.6,1.1L46,54.1c-0.3,0.1-0.4,0.3-0.6,0.7l0.1-0.7
			c-0.2-0.2-0.5,0.2-0.9,1l0.2-0.8c-0.2-0.1-0.4,0.2-0.8,1l0.8-2.5c-0.4,0.1-0.9,1-1.5,2.6c-0.3,0.1-0.3,0-0.3-0.3l0.9-1.8
			c-0.4,0-0.9,0.7-1.5,1.9l0.7-2.1l-1.3,1.8v-0.7C41.6,54.2,41.3,54.5,41.1,54.9"/>
		<path class="st0" d="M41.3,88.9c-0.2-0.2,0.2-0.4,0.3-0.3l0.6,0.6c0.1,0.2-0.2,0.4-0.3,0.3L41.3,88.9z"/>
		<path class="st0" d="M41.8,88.5c-0.1-0.2,0.1-0.4,0.3-0.3l0.5,0.5c0.1,0.2-0.2,0.4-0.3,0.3L41.8,88.5z"/>
		<path class="st0" d="M42,88c-0.2-0.2,0.2-0.4,0.3-0.3l0.6,0.6c0.2,0.2-0.2,0.4-0.3,0.3L42,88z"/>
		<path class="st0" d="M42.3,87.3c-0.2-0.3,0.2-0.7,0.4-0.5l0.9,0.9c0.3,0.3-0.3,0.7-0.5,0.5L42.3,87.3z"/>
		<path class="st0" d="M43.2,86.4c-0.3-0.3,0.1-0.7,0.3-0.5l1.1,1c0.3,0.3-0.2,0.8-0.4,0.6L43.2,86.4z"/>
		<path class="st0" d="M43.8,85.9c-0.3-0.3,0.1-0.6,0.3-0.4l0.9,0.9c0.3,0.2-0.1,0.6-0.3,0.5L43.8,85.9z"/>
		<path class="st0" d="M44.7,85.6c-0.2-0.2,0.1-0.5,0.2-0.4l0.8,0.7c0.2,0.2-0.1,0.5-0.3,0.4L44.7,85.6z"/>
		<path class="st0" d="M40.8,79.7c0-0.3-0.4-0.2-0.4,0l-0.1,1c0,0.2,0.4,0.1,0.4-0.1L40.8,79.7z"/>
		<path class="st0" d="M39.5,81c-0.1-0.4-0.5-0.2-0.4,0.1l0.1,0.8c0,0.4,0.5,0.2,0.5-0.1L39.5,81z"/>
		<path class="st0" d="M38.1,82c0-0.4-0.3-0.3-0.3,0l0,0.7c0,0.4,0.3,0.2,0.3,0V82z"/>
		<path class="st0" d="M39.9,80.7c0.1,0,0.2,0.1,0.2,0.3c0,0.2-0.1,0.3-0.2,0.3c-0.1,0-0.2-0.1-0.2-0.3
			C39.8,80.8,39.8,80.7,39.9,80.7"/>
		<path class="st0" d="M38.5,81.6c0.1,0,0.2,0.1,0.2,0.3c0,0.2-0.1,0.3-0.2,0.3c-0.1,0-0.2-0.1-0.2-0.3
			C38.3,81.8,38.4,81.6,38.5,81.6"/>
		<path class="st0" d="M37.3,82.5c0-0.3-0.4-0.3-0.4-0.1l0,0.6c0,0.3,0.5,0.3,0.5,0.1L37.3,82.5z"/>
		<path class="st0" d="M47.9,43c0.1,0,0.2,0.2,0.2,0.4c0,0.2-0.1,0.4-0.2,0.4c-0.1,0-0.2-0.2-0.2-0.4C47.7,43.1,47.7,43,47.9,43"/>
		<path class="st0" d="M48.5,44c-0.1,0-0.2-0.3-0.2-0.6c0-0.4,0.1-0.6,0.2-0.6c0.1,0,0.2,0.3,0.2,0.6C48.6,43.7,48.5,44,48.5,44"/>
		<path class="st0" d="M49.4,43.7c0.2,0,0.4,0.1,0.4,0.2c0,0.1-0.2,0.2-0.4,0.2c-0.2,0-0.4-0.1-0.4-0.2C49,43.8,49.1,43.7,49.4,43.7
			"/>
		<path class="st0" d="M49.9,44.6c0.1,0,0.2,0.1,0.2,0.2c0,0.1-0.1,0.2-0.2,0.2c-0.1,0-0.2-0.1-0.2-0.2
			C49.7,44.7,49.8,44.6,49.9,44.6"/>
		<path class="st0" d="M50.6,44.6h1.8c0.6,0,0.7,0.3,0.3,0.9c0.2,1-1,1.7-1,0c-0.1-0.3-0.5-0.5-1.2-0.5
			C50.3,44.9,50.3,44.6,50.6,44.6"/>
		<path class="st0" d="M47.8,56.8c0.1,0,0.2,0.1,0.2,0.3c0,0.2-0.1,0.3-0.2,0.3c-0.1,0-0.2-0.1-0.2-0.3C47.6,57,47.7,56.8,47.8,56.8
			"/>
		<path class="st0" d="M47,57.1c0.2,0,0.3,0.2,0.3,0.3c0,0.2-0.1,0.4-0.3,0.4c-0.2,0-0.3-0.2-0.3-0.4C46.7,57.3,46.8,57.1,47,57.1"
			/>
		<path class="st0" d="M48,57.7c0.7-0.5,1.3-0.8,1.4-0.6c0.1,0.2-0.4,0.7-1,1.2c-0.7,0.5-1.3,0.8-1.4,0.6
			C46.9,58.7,47.3,58.2,48,57.7"/>
		<path class="st0" d="M50.3,56c0.4-0.4,0.8-0.6,0.8-0.5c0.1,0.1-0.2,0.4-0.6,0.8c-0.4,0.3-0.8,0.6-0.8,0.5
			C49.7,56.8,49.9,56.4,50.3,56"/>
		<path class="st0" d="M48.8,60.1c0.1-0.4,0.3-0.8,0.5-1.1l-0.1,0c0.1-0.7,0.5-1.1,1.1-1.4l0.1,0.1c0.2-0.2,0.5-0.4,0.7-0.5
			c-0.1,0.3-0.2,0.5-0.4,0.7l0.1,0.1c0.3-0.4,0.7-0.7,1.2-0.8c-0.2,0.4-0.6,0.7-0.9,1l0.3,0.2c0.5-0.4,1-0.7,1.4-1
			c-0.3,0.4-0.7,0.8-1.1,1.2l0.3,0.2c0.5-0.4,1-0.6,1.5-0.7c-0.2,0.2-0.5,0.4-0.7,0.6c0.3,0,0.7,0,1.2-0.1c-0.6,0.3-1,0.4-1.5,0.6
			l0.4,0.3c0.5-0.3,1-0.4,1.5-0.5c-0.4,0.2-0.7,0.4-1.1,0.7l0.3,0.2c0.4-0.2,1-0.4,1.4-0.3c-0.4,0.2-0.7,0.3-1.1,0.6l0.2,0.1
			c0.4-0.2,0.9-0.3,1.3-0.3c-0.3,0.2-0.7,0.3-1,0.5l0.3,0.2c0.4-0.2,0.8-0.2,1.1-0.1c-0.3,0.1-0.6,0.2-0.9,0.3l1,0.7l-0.2,0.2
			l-1.5-0.6c-0.1,0-0.2,0.1-0.2,0.1c0,0,0.1-0.1,0.1-0.1l-0.4-0.1c-0.2,0.1-0.4,0.2-0.7,0.4c0.1-0.2,0.2-0.3,0.4-0.5l-0.4-0.2
			c-0.2,0.1-0.5,0.3-0.7,0.4c0.1-0.2,0.3-0.4,0.4-0.5l-0.4-0.2c-0.3,0.2-0.6,0.4-0.8,0.6c0.1-0.2,0.3-0.5,0.5-0.7l-0.5-0.2
			c-0.2,0.2-0.5,0.5-0.7,0.7c0.1-0.3,0.2-0.6,0.4-0.8l-0.4-0.2c-0.3,0.3-0.5,0.5-0.8,0.8c0.1-0.3,0.3-0.6,0.5-0.9l-0.8-0.3
			C49.5,59.5,49.2,59.8,48.8,60.1"/>
		<path class="st0" d="M43.4,61.6c-0.6,1.4-1.2,3.5-1.7,7.7c-0.2,1.9-0.4,3.8,0,5.7c0.2,1,0.6,1.4,1.1,1.3l7.2-1.3
			c0.5-0.1,1-0.6,0.8-1.1l-0.3-0.7l-0.2,0.9l-0.4-0.7l-0.3,0.8l-0.4-1.1l-0.4,1.3l-0.4-1l-0.3,1l-0.2-0.9l-0.3,1.1l-0.3-1l-0.3,1.2
			L46.5,74l-0.3,0.9l-0.3-0.7l-0.2,0.7l-0.4-0.5c-0.3-0.2-0.7-0.2-1,0l-0.2,0.2L44,74.3c-0.6-0.2-1.1-0.3-1.6-0.4l0.7-0.3
			c0-0.3-0.2-0.4-0.7-0.3l0.7-0.6l-0.8-0.2L43,72c0-0.2-0.2-0.5-0.8-0.7L43,71l0-0.2l-0.8-0.1l0.8-0.4c0.1-0.2-0.1-0.4-0.7-0.6
			l0.7-0.2c0-0.2-0.1-0.5-0.6-0.7l0.6-0.2l-0.6-0.5l0.8-0.3c0-0.2-0.1-0.4-0.6-0.6l0.8-0.4c0-0.2-0.2-0.4-0.7-0.6l0.8-0.3l-0.6-0.4
			l0.7-0.3L43,65.1l0.7-0.4c0.1-0.2-0.1-0.3-0.6-0.4l0.7-0.3l0-0.3l-0.7,0.1l0.4-0.3L43,63.2l1-0.3l0.1-0.2l-0.7-0.2l0.6-0.4
			C43.9,61.8,43.7,61.6,43.4,61.6 M44.5,62.7l0.2-0.1c-0.6,3.7-0.9,7.3-0.5,10.5c-0.2-5,0.3-10.3,1.2-11.2l0.1,0.4
			c-1,4-1.1,7.5-0.4,10.7c-0.4-5.5,0-8.6,0.8-10.3v0.5c-0.7,3.8-0.7,6.9-0.1,9.4l0.2-0.2c-0.4-4-0.2-7.1,0.4-10.2l0.3,0.1
			c-0.7,4-0.7,7.2-0.2,10l0.2-0.2c-0.4-4.2-0.3-7.1,0.3-9.6l0.3,0c-0.5,4-0.5,7.1-0.1,9.7l0.2,0c-0.4-4.3-0.2-7.5,0.3-9.7l0.2,0.2
			c-0.4,3.5-0.3,6.5,0,9.4l0.2-0.1c-0.1-3.8-0.3-6.7,0.2-9l0.2-0.3c-0.4,2.8-0.3,5.9,0.1,9.3h0.2c-0.3-4.1-0.2-7.2,0.1-9.7l0.2,0.2
			C49,66,49,69,49.2,72.3l0.2-0.1c-0.2-4.5,0-7.6,0.4-9.4c0.4-0.1,0.4,0.4,0,0.9c-0.2,2.8-0.3,5.5,0,8.4l0.3,0
			c-0.3-4.3,0-6.9,0.4-9.3c0.3-0.2,0.5,0.1,0.2,0.7c-0.4,3-0.6,5.2-0.3,8.6h0.4c0.4,0.1,0.4,0.3,0,0.5c-2.4,0.5-4.7,1-6.9,1.1
			c-0.4,0.1-0.6-0.2-0.6-0.9C43.3,69.2,43.7,65.9,44.5,62.7 M52.5,64.9l0.3-1.6c0.3-0.2,0.5-0.1,0.4,0.3L52.6,65L52.5,64.9z
			 M52,63.2c-0.3,2.6-0.4,4.2-0.6,6.9l0.2,0.4c0-3,0.4-5,0.8-7.2C52.5,62.9,52.1,62.8,52,63.2 M51.2,63.2c0.1-0.2,0.4-0.2,0.3,0.1
			c-0.4,2.3-0.7,4.9-0.7,8l-0.1,0C50.6,68.3,50.7,65.7,51.2,63.2 M41.2,80.3c0-0.9,0-1.7,0.3-2.7c0.1-0.3,0.5-0.6,1-0.6l6.5-1
			c0.3-0.1,0.4,0.1,0.3,0.6c-0.1,0.7-0.2,1.3-0.5,1.8c-0.3,0.2-0.3-0.7-0.3-2c-0.5,1.2-0.3,2.5-1.1,2.8c-0.3-0.6,0.2-1.7,0.3-2.5
			c-0.7,0.8-0.5,1.6-1.1,2.6c-0.2,0-0.2-0.9-0.1-2.3c-0.3,1.1-0.6,1.9-0.9,2.3c-0.2-0.3-0.2-1.1-0.1-1.9c-0.3,1.4-0.6,2.3-0.9,2.4
			c-0.1-0.8,0-1.5,0-2.3l-0.1-0.1c-0.2,1.3-0.4,2.1-0.7,2.5c-0.3-0.8-0.3-1.6,0.1-2.4l-0.3,0c-0.2,0.7-0.3,1.2-0.6,1.4
			c-0.4-0.1-0.6-0.5-0.6-1.3C42.2,79,41.7,79.8,41.2,80.3"/>
		<path class="st0" d="M53.4,65.5c-0.4,0.3-0.5,0.7,0.2,0.6c-0.5,0.5-0.6,0.9-0.2,1c-0.9,1.3-0.9,1.7,0,1.1
			c-1.1,1.5-0.9,1.7-0.2,1.4c-0.9,1.2-0.8,1.4-0.5,1.4c-0.6,0.9-0.6,1.4,0,1.3c-0.5,0.2-0.8,0.6-1,1.5c-0.2,0.9-2.3,1.8-0.5,2.6
			c0.5,0.3,1,1.1,1.3,2.5c0.1,0.7,0.4,0.8,1,0.5c0.5-0.2,0.9-0.2,1.4-0.3c1,0.1,1-1,0-1.2c0.1-0.4-0.2-0.6-0.8-0.4
			c0.4-0.8-0.1-0.5-0.3-0.7c0.3-0.2,0.2-0.5-0.5-0.1l-0.1-0.2c0.5-0.2,0.6-0.4,0.6-0.7l-1.3,0.4c0.4-0.3,0.5-0.6,0.5-0.9l-0.9,0.2
			c0.9-0.7,1.4-1.2,1.3-1.5l-1,0.3c0.7-0.6,1.2-1.1,1.1-1.4l-0.9,0.4c0-0.3,0.4-0.6,1.1-0.9c0.5-0.3,0.9-0.7,0.8-1.3l-1.3,0.7
			c1.1-1.1,1.9-2,2.2-2.6C55.5,69,54.5,69.7,53,71l0-0.3c1.3-1,2.4-2.1,3.2-3.4l-2.6,2.2l2.3-3c-0.2-0.3-0.8,0.1-2.1,1.5l0.1-0.3
			l1.2-1.4c0.9-0.6,1.5-1.4,1.9-2.2c0.3-0.7-0.6,0.2-1.8,1.5c-0.3,0.3-0.6,0.5-1,0.8l3-3.4l0.1-0.4C56.9,62.2,55,64.6,53.4,65.5
			 M49.9,78.4c-0.5-0.4,0.1-1.2,0.5-0.8l1.4,1.2c0.4,0.4,0,1-0.3,0.8L49.9,78.4z M50.5,77.4c-0.5-0.4,0.1-1.1,0.4-0.8l0.8,0.8
			c0.4,0.4,0.1,0.8-0.3,0.6L50.5,77.4z M53.6,80.5c-0.4-0.2-0.6,0.1-0.3,0.3c0.7,0.6,1.3,1,2,1.4c0.7,0.4,1.5,0.4,2.2,0.5
			c0.5,0,0.8-0.3,0.1-0.5C56.4,81.8,55.1,81.4,53.6,80.5 M54,80.5c-0.2-0.3-0.2-0.6,0.1-0.8l1.8-0.2c0.3,0,0.6,0.2,0.9,0.6l0.8,1
			c0.4,0.5,0.1,0.8-0.3,0.7C56.2,81.5,55.1,81.1,54,80.5"/>
		<path class="st0" d="M55.8,75.5c0.3-0.6,0.7-1,1.3-1.2c1.7-0.3,3.3-0.6,4.9-1.3c0.5-0.4,0.6-0.3,0.6,0.3c-0.2,1.6-0.3,3-0.7,3.4
			l0-2.8l-0.2,0c-0.2,1.4-0.3,2.4-0.7,2.9l0.1-2.6l-0.2,0l-0.6,2.6l0.2-2.3c0-0.3-0.1-0.3-0.2-0.2c-0.3,2.6-0.8,3.7-1.2,4.1
			c0.5-1.7,0.5-2.8,0.4-3.8l-0.1-0.1c-0.1,1.4-0.3,2.6-0.8,3.7c-0.5-0.8,0.5-2.2,0.2-3.5h-0.1l-0.9,3.3c-0.3,0-0.2-0.5,0.1-1.3
			l0.1-1.8l-0.2,0.1c-0.2,1-0.5,1.7-0.8,2.4l0.1-2.5l-0.6,1.8l0.1-1.4L55.8,75.5z M62.9,73.5c0-0.6,0.6-0.4,0.4,0.2L63,74.4l-0.2,0
			L62.9,73.5z M62.8,75.6c0.1,0,0.1,0.2,0.1,0.4c0,0.2,0,0.4-0.1,0.4c0,0-0.1-0.2-0.1-0.4C62.7,75.8,62.7,75.6,62.8,75.6 M63,74.8
			c0.1,0,0.2,0.1,0.2,0.2c0,0.1-0.1,0.2-0.2,0.2c-0.1,0-0.2-0.1-0.2-0.2C62.8,74.9,62.9,74.8,63,74.8 M63,71.7
			c0.1,0,0.2,0.2,0.3,0.5c0.1,0.3,0,0.5-0.1,0.5c-0.1,0-0.2-0.2-0.3-0.4C62.9,72,62.9,71.7,63,71.7 M62.2,70.1
			c0.5,0.5,0.5,0.9,0.5,1.3c-0.1,0.5-0.4,0.9-0.4,0.5c0-0.5,0-1-0.3-1.6C61.7,70.1,62,69.9,62.2,70.1 M58.7,69.2
			c0-0.5,0.4-0.1,0.4,0.2L59,70.3c-0.1,0.1-0.2,0-0.3-0.3L58.7,69.2z M57,71.9c-0.4,0.3-0.4,0.5,0.1,0.6l0.2,0v0
			c0,0.2,0.1,0.4,0.2,0.4c0.1,0,0.2-0.2,0.2-0.4c0,0,0-0.1,0-0.1l0.5-0.1v1c-0.2,0-0.3,0.1-0.5,0.1c0-0.1-0.1-0.2-0.2-0.2
			c-0.1,0-0.2,0.1-0.2,0.2c0,0,0,0.1,0,0.1c-0.1,0.1,0,0.1,0.2,0.2l3.2-0.8c0.9,0,1.2-0.8,0.9-2.1c0.1-0.4,0.1-0.6-0.3-0.5l-0.7-0.1
			l0.4-0.3c0.5-0.3,0.6-0.5,0.1-0.5l-1-0.2l0.8-0.2c0.3-0.1,0.3-0.4,0-0.5l-0.9-0.1l0.6-0.2c0.4-0.4,0.2-0.6-0.6-0.7
			c0.3-0.4,0.2-0.6-0.1-0.7c-0.2-0.4-0.6-0.6-0.4,0.1l0.2,3.5c0.1,0.3-0.1,0.6-0.5,0.8L57,71.9z M58.9,70.6c0.1,0,0.2,0.1,0.2,0.3
			c0,0.2-0.1,0.3-0.2,0.3c-0.1,0-0.2-0.1-0.2-0.3C58.6,70.7,58.7,70.6,58.9,70.6 M60.8,71.7c0.1,0,0.1,0.1,0.1,0.1
			c0,0.1,0,0.1-0.1,0.1c0,0-0.1-0.1-0.1-0.1C60.7,71.7,60.7,71.7,60.8,71.7 M60.6,71c0.2-0.1,0.4,0,0.4,0.1c0,0.1-0.1,0.2-0.3,0.3
			c-0.2,0-0.4,0-0.4-0.1C60.3,71.2,60.4,71,60.6,71 M58.4,73.3C58.4,73.3,58.4,73.2,58.4,73.3l0.1-1l-0.2,0.1L58.4,73.3z M58.9,73.1
			c0.1,0,0.2-0.1,0.3-0.1v-0.9l-0.4,0.1L58.9,73.1z M59.5,72.8c0,0,0.1,0,0.1-0.1v-0.9L59.4,72L59.5,72.8z M59.9,72.7
			c0,0,0.1,0,0.2-0.1c0.4-0.4,0.4-0.6-0.1-0.7l-0.1,0V72.7z"/>
		<path class="st0" d="M67.4,23.2c-4-0.4-5.9,1-7,2.5c-0.9,1.2-1.4,2.6-1.5,4.3c0.1,0.2,0.5-0.3,1.1-1.2l-0.4-0.1
			c0.1-0.3,0.2-0.6,0.4-0.9c0.1-0.2,0.1-0.4,0.3-0.6c0.3-0.2,0.5-0.5,0.5-0.6h-0.4c1.1-1.5,2.7-1.9,4.4-1.8c0.4,0,0.9,0.1,1.3,0.2
			c0.2,0.1,0.5-0.1,0.6-0.2c0.1-0.1,0.2-0.3,0-0.3c-1.6-0.2-3.1-0.1-4.6,0.3c1.1-0.8,2.7-0.9,5-0.7C68.2,24,68.3,23.3,67.4,23.2
			 M60.4,51.2c0.2,0.1,0.2,0.4,0.1,0.8c-0.1,0.3-0.3,0.6-0.5,0.5c-0.2-0.1-0.2-0.4-0.1-0.8C60,51.3,60.2,51.1,60.4,51.2 M56.9,52.7
			c0.1,0,0.1,0.2,0.1,0.5c0,0.3-0.1,0.5-0.1,0.5c-0.1,0-0.1-0.2-0.1-0.5C56.8,52.9,56.8,52.7,56.9,52.7 M57.2,54.5
			c0.1-1,0.6-1.9,1.3-2.4c0.7-0.5,0.8-0.4,0.3,0.3c-0.5,0.7-0.8,1.5-1.2,2.3C57.5,55,57.1,55.3,57.2,54.5 M59.2,50.5
			c-0.7,0.2-1.2,0.7-1.5,1.4c-0.3,0.6-0.2,0.7,0.3,0.2c0.4-0.5,1-0.8,1.5-1.2C59.6,50.7,59.8,50.3,59.2,50.5 M55.1,54
			c-0.4,0.5-0.3,0.6,0.3,0.4c0.9-1.5,1.6-2.5,2.1-2.8l1.7-1.6c1.2-0.3,2-1.8,2.2-4.3l-0.1-0.3c-0.6,1.7-1.4,3-2.3,3.7
			c-0.9,0.7-1.6,1.5-2.3,2.5c-0.3,0.4-0.3,0.7-0.5,1.1C55.8,53.1,55.3,53.6,55.1,54 M54.7,52.9c-0.3,0.6,0,0.8,0.3,0.3
			c1.1-1.7,1.9-2.8,3-3.9c1.1-0.9,2.6-2.5,3.2-4.6c0.4-1.3,0-1.6-0.3-0.9c-0.6,1.9-1.4,3.6-2.5,4.6C57.1,49.6,55.7,50.9,54.7,52.9
			 M54.5,51.2c-0.2,0.4-0.3,0.8-0.1,1.1c0.9-0.4,0.6-1.9,2.9-3.2c0.3-0.4,0.2-0.6-0.3-0.4l-2.1,1.7c0.7-1.3,1.4-2.3,2.5-2.5
			c0.7-0.1,1.3-0.4,1.9-1.1c0.2-0.6,0.2-0.8-0.3-0.5c-1.3,0.9-2.4,1.3-3.4,2.2c-1,0.8-1.6,1.9-1.8,3.1L54.5,51.2z M54.4,48.2
			c0.4-0.9,1.5-1.4,2.9-2c1-0.4,1.9-1.1,2.6-2.1c0.8-0.5,0.6,0,0.4,0.5c-0.3,0.5-0.5,0.7-0.9,1c-0.6,0.5-1.4,1-2.1,1.3
			c-0.8,0.3-1.6,0.8-2.3,1.8C54.4,49.1,54.3,48.9,54.4,48.2 M56.7,45.2c0.7-0.5,1.3-0.9,1.8-1.7c0.7-1.1,1-1.1,0.8,0
			c-0.2,0.9-0.8,1.8-2,2.3C56.3,46.2,56,45.6,56.7,45.2 M59.7,42.8l0.3-1.9c0.1-0.8,0.3-1.4,0.7-2l0.5-1.6c0.2-0.6,0.4-0.6,0.4,0.2
			l-0.4,1c0.3,0.2,0.1,0.5-0.1,0.8c0,0.3,0,0.8-0.4,0.9c-0.1,1.4-0.3,2.6-0.6,2.9C59.7,43.9,59.5,43.8,59.7,42.8 M57.4,42.5l0.8-2
			c0.2-0.7,0.6-1.1,1-1.2l1.1-1.1c0.3-0.3,0.4,0.1,0.3,0.4l-0.8,1.3c-0.1,1.1-0.6,2.1-1.5,3.2c-0.2,0.2-0.5,0.2-0.3-0.1l0.9-2
			l-1.2,1.7C57.3,43.2,57.3,42.9,57.4,42.5 M56,43.4c0.4-1.3,0.6-2,1-2.4c0.5-0.5,0.7-0.5,0.3,0.2c-0.2,0.5-0.6,1.3-0.6,2.5
			C56.8,44.8,55.6,44.5,56,43.4 M55.9,41.6c0.1,0.4,0.1,0.3,0.3,0l0.4-1.3c0.5-0.5,1.2-1,1.8-1.8c0.3,0.4,0.9,0.1,1.7-1.2
			c1-0.5,1.5-1.4,1.8-2.4c0.2-0.9,0.1-1-0.5-0.5c-0.7,1.1-1.3,1.6-1.6,2.3c-0.9,0.3-1.7,1.4-2.7,2c-0.3,0.2-0.4,0.5-0.4,1
			C56.3,40,56,40.5,55.9,41.6 M56,39.1c0.1-0.2,0.3-0.2,0.4-0.1c0.1,0.1,0.1,0.3-0.1,0.5c-0.1,0.2-0.3,0.2-0.4,0.2
			C55.9,39.5,55.9,39.3,56,39.1 M61.4,30.2c0.7-0.9,1.5-1.5,2.3-1.9c0.9-0.4,0.8,0.4,0.2,0.4c-0.4,0-1.1,0.5-2.2,2
			C61.4,31,61,30.7,61.4,30.2 M55,40.8c-0.1-1.9,0.2-3,1.1-3.6c2.2-1.5,3-3.6,3.7-3.5c0.7-1.4,1.8-2.8,3.2-4.1
			c1-0.7,1.2-0.5,0.6,0.6c-1.4,2.1-2.8,4.7-4.1,5.4c-0.6,0-1,0.4-1.4,1l0.9-0.5c0.4-0.1,0.4,0.1,0.2,0.4c-0.7,0.4-1.9,2.5-2.2,1.2
			c-0.5,1-1.3,0.8-1.4,1.8l-0.1,1.3C55.4,41.2,55.2,41.2,55,40.8 M63.7,27.1c0.4,0,0.6,0.2,0.3,0.6c-1.1,0.5-2.1,1.4-3.1,2.6
			c0.1,0.5-0.1,0.9-0.5,1.2c0,0.8-0.5,1.1-1.2,1.2l-1,1.5c0.2,0.3-0.2,0.9-0.9,1.8c-0.5,0.6-0.7,0.4-0.6-0.5
			c0.6-1.7,1.7-4.2,2.2-4.2c0.3,0,0.3-0.1,0.4-0.7c0.1-0.4,0.4-0.3,0.4,0c0,0.4,0.1,0.4,0.3,0.2C61,28.6,62.3,27.5,63.7,27.1
			 M60.4,27.6c0.9-1.1,2.3-1.9,5.2-1.8c0.6,0,0.5,0.7,0,0.6c-0.5,0-0.9,0.2-1.4,0.3c-0.6,0.1-1.1,0.2-1.6,0.5
			c-1,0.6-1.8,1.5-2.6,2.8c-0.3,0.2-0.3,0.1-0.2-0.3c0.9-1.9,2.1-2.9,3.3-3l0.1-0.1c-0.7-0.2-1.5,0.2-2.7,1.4
			C60.3,28.2,60.3,28.1,60.4,27.6 M61.5,26c1.1-0.7,2.3-1.1,3.7-0.9c0.9,0.1,0.9,0.7,0.4,0.6c-1.3-0.2-2.6-0.1-4,0.6
			C61.1,26.5,61.2,26.2,61.5,26"/>
		<path class="st0" d="M68.2,21.7c-0.3-0.5,0-0.8,0.5-0.7c1.5,0.3,2.8,0.5,3.6,1.2c0.5,0.4,0.1,0.7-0.3,0.5l-1-0.6
			c0,0.5-0.3,0.3-0.9-0.2c-0.4,0.4-0.9,0.2-1.4-0.4l0.3,1.1c0.1,0.2-0.1,0.2-0.2,0L68.2,21.7z M70.3,22.6c-0.2,0.1,0.1,0.5,0.2,0.7
			c0.2,0.2,0.4,0.1,0.4-0.2C70.8,22.7,70.5,22.4,70.3,22.6"/>
		<path class="st0" d="M73.4,23.9c-0.1-0.1-0.4-0.2,0-0.4c-0.5-0.3-0.3-0.7,0.1-0.8c1.3-0.1,2.3-0.8,3.8,0.1l0.7,0.8
			c0.5,1.1,0.1,1.6-0.5,0.8c-0.3-0.4,0-0.9-0.8-1.2c0.4,0.7,0.7,1.5,0.7,2.5c1.1,1.1,0.1,1.4-0.2,0.7l-0.5-2.2
			c0.1,1.1,0.2,1.8,0,1.9c-0.4,0-0.2-0.7-0.3-1.6c-0.1-0.4-0.2-1-0.4-1.1c-0.8-0.3-1.6,0-2.2,0c1-0.1,1.8,0,2,0.3
			c0.4,0.5,0.4,1.1,0.3,1.6c-0.3,0.4-0.4,0.3-0.4-0.2l-0.1-0.7c-0.1-0.4-0.5-0.4-1-0.4C74.1,24,73.8,24.1,73.4,23.9"/>
		<path class="st0" d="M59.9,63c1.5,2.8,3.3,5.4,5.4,7.9c0.2,0.3,0.1-0.6,0.2-0.2c0.5,1,1.1,1.9,1.4,2.3c0.3-0.3-0.6-1.2-0.8-2.2
			l2.8,3.5c0.2-0.5-1.4-2.5-2.7-4.3l0.2-0.2l3.1,4.4l0.2-0.1c-0.5-1.5-1.9-3.3-2.9-4.9l0.1-0.4c0.6,0.8,1.3,2,2,3
			c0.9,1.4,1.7,2.7,2,2.7c1.2,0.3-2.8-4.1-4.6-7.8l0-0.2c2.1,3.5,4,6.7,6.1,8.2c0.3,0.2,0.4-0.2,0.2-0.4c-1.9-2.4-4.1-5.1-5.5-7.4
			l0.1-0.2c2,2.6,3.1,5.6,7,8.1c0.3,0.2,0.4,0.4,0.6,0.2c0.9-0.7-3.3-1.8-6.6-7.7l0.1-0.4c1.2,1.8,1.4,2.3,2.5,3.6
			c1.5,1.8,4,3.9,4.4,3.6c0.4-0.3-3.5-3.2-5.6-6.7l0.1-0.1c1.6,2.5,4,5.5,7.3,7.3c0.5,0.3,0.3,0.2,0.9,0.2c1.5,0.1-3.4-2.6-5.9-5.6
			l0-0.2c0.7,0.6,1.6,1.6,2.7,2.4c1.2,0.9,2.4,1.8,3.5,2.4c0.9,0.5,1.7,0.9,2,0.7c0.9-0.5-3.4-2.1-4.4-3.3c0.6,0.4,1.3,0.6,1.8,0.9
			c1.8,1,3.1,1.6,3.4,1.3c0.2-0.3-0.8-0.8-2.4-1.5c-0.2-0.2,0-0.3,0.4-0.2c1.9,0.8,3.1,1.4,3.3,1.3c0.6-0.2-0.4-0.7-1.6-1.5
			c1.5,0.7,2.7,1.3,3.4,1.1c0.2-0.1-0.8-0.7-1.8-1.6c1.3,0.9,4.4,2.1,1.5-0.2l0.2-0.1c1.1,0.9,2.5,1.3,0.8-0.3h0.2
			c1,0.9,1.5,1.5,0.8-0.3c1,1.6,1.9,2.1,0.7-0.1l1.5,1.3c-0.5,0.2-0.5,0.4,0,0.7c1.3,0.9,1.4,0.7,1.1,0c0.2-1.4-0.3-2.4-1.2-2.9
			c-0.9-0.7-0.9,0.1,0.2,2c-0.5-0.4-0.8-0.8-1-1.2c-0.2-0.4-0.6-0.7-1.2-0.7c-2.3,0.1-4.5,0.5-6.6,0.9c-1.6,0.2-2.9,0-3.5-0.4
			c-0.6-0.5-0.8-0.8-0.5-1.3c0.2-0.5,0-0.8-0.3-1l-1.5-3.4c0.2,0.4,0.4,0.6,0.6,0.9c0.6,1.1,1,2,1.2,1.9c-0.2-0.7-1-2.4-1.7-4.2
			c1.2,2.3,2.3,4.3,2.6,4c-0.2-0.9-1.1-2.6-2.1-4.4c0.3,0.3,0.4,0.4,0.6,0.7c0.4,0.5,0.7,1,0.9,0.9c-0.8-1.7-1.6-2.9-2.5-3.2
			c-1.4-0.5-2.2-0.7-2,0.2l-0.7-0.8L69.9,60c-0.2,0.1,0.1,0.5,0.6,1.4l-0.1,0.1l-0.9-1.4c-0.2-0.1-0.5-0.3-0.6,0l0.4,0.9l-0.9-1.1
			c-0.4-0.3-0.9-0.4-0.9-0.1l1.4,2.4c-0.2-0.4-0.6-0.7-1-1.2c-0.5-0.8-0.9-1.4-1.6-1.5c-0.6-0.1,0.6,1,1.5,3.3l-2.1-3.3
			c-0.2-0.2-1-0.3-1.1,0l2.4,3.8c-1.1-1.3-2.2-2.5-2.9-3.8c-0.2-0.2-0.3-0.2-0.4-0.2c-0.1,0-0.2,0-0.3,0.1l2.9,4.2
			c-0.6-0.6-1.2-1.2-1.6-1.8c-0.6-0.9-1.2-1.5-1.7-2.4c-0.2-0.2-0.6-0.2-0.6-0.1c-0.2,0.4,2.2,3.1,3.3,4.7c-1.5-1.5-2.7-3-3.8-4.7
			c-0.5-0.3-0.8-0.3-1,0c-0.2,0.3,3,3.6,4.2,5.6c-1.6-1.9-3.2-3.7-4.5-5.6c-0.2-0.2-0.8-0.3-0.8,0c0,0.5,2.7,3.2,4.9,6.5
			c-1.6-1.9-3.5-4.4-4.4-4.9c-0.4-0.1,1,1.8,4.1,5.6c-1.5-1.5-3-3.2-4.3-4.9c-0.4,0.4,1.3,2.7,3.8,5.6l-3.9-4.4
			C59.7,62.4,59.6,62.5,59.9,63 M76.4,62c-0.3-0.5,0.2-0.8,0.5-0.1c0.8,1.4,1.5,2.6,2.1,4c0.3,0.6-0.1,0.8-0.4,0.2
			C78,64.5,77.2,63.3,76.4,62 M74.9,61.5c-0.3-0.4,0.4-0.7,0.9,0.1c1.1,1.7,2.1,3.3,2.8,5.1c0.5,1.1,0,1.3-0.4,0.4
			C77.3,64.9,76.1,63.2,74.9,61.5"/>
		<path class="st0" d="M68,26.1c-0.1,0.9,0.4,2.1,1.4,2.9c0-0.2-0.4-0.9-0.7-1.6C68.3,26.8,68.1,26.2,68,26.1 M71,58.7
			c-0.1-1.5-0.9-2.6-2.4-3.9c0.1,0.4,1,1.2,1.6,2.3C70.7,58.3,70.7,58.5,71,58.7 M70.9,57.2c-0.2-0.2-0.3-0.8-0.8-1.6
			c-0.5-0.9-1.3-1.8-1.4-2C70,54.5,70.8,55.9,70.9,57.2 M70.7,55.2c-0.2-0.2-0.3-0.6-0.6-1.2c-0.4-0.7-1-1.3-1.1-1.5
			C70,53.1,70.7,54.2,70.7,55.2 M70.5,53.1c0-0.7-0.5-1.4-1.2-1.8c0,0.1,0.4,0.6,0.7,1C70.3,52.8,70.4,53,70.5,53.1 M69.8,24.4
			c-0.2,0.9,0,2.2,0.8,3.2c0-0.2-0.3-1-0.4-1.7C70,25.2,69.9,24.6,69.8,24.4 M61.2,58.1c-0.7,0.1-0.9-0.1-0.9-0.9
			C60.6,57.6,60.9,57.8,61.2,58.1 M60.3,56.8c0.5,0.6,1,0.9,1.4,1.4c0.3,0.1,0.5,0.1,0.7-0.1c-0.8-0.9-1.5-1.4-2.3-2.3
			C60.2,56.1,60.2,56.5,60.3,56.8 M60.1,55.3c1,1.1,1.8,1.8,2.7,2.8c0.3,0.2,0.5,0.1,0.6,0c-1.1-1.5-2.1-2.7-3.3-4.2
			C60.1,54.5,60,54.9,60.1,55.3 M60.2,53.6c1.3,1.6,2.5,2.9,3.8,4.7c0.4,0.2,0.7,0.2,0.8,0c-1.3-1.8-2.9-3.7-4.3-5.6
			c-0.1,0.3-0.2,0.5-0.2,0.7C60.3,53.5,60.3,53.5,60.2,53.6 M60.6,52.4c1.6,2,3.1,3.9,4.9,6.1c0.3,0.2,0.5,0.2,0.7,0.1
			c-0.2-0.2-1.3-1.8-1.5-2c-1.4-1.9-2.2-2.9-3.8-5C60.8,51.8,60.7,52.1,60.6,52.4 M60.9,51.2c1.7,2.1,2.4,3.1,4.2,5.5
			c0.2,0.3,1.2,1.4,1.4,1.7c0.2,0.5,1,0.6,0.7,0.2c-0.3-0.4,0-0.1-0.5-0.8c-1.5-2.1-4.1-5.4-5.7-7.5C61,50.6,61,50.9,60.9,51.2
			 M61.1,50c0.1-0.3,0.1-0.6,0.1-0.9c1.5,2,4.3,5.7,6,7.9c0.8,1.1,0.8,1.1,1.3,1.7c0,0.3-0.2,0.1-0.5,0c-0.4-0.5-0.4-0.4-0.8-1.1
			C65.1,55.1,62.9,52.1,61.1,50 M61.3,48.9c0.1-0.4,0.1-0.8,0.1-1.2c1.6,2.6,3.8,5.4,6.3,7.9c-0.2-1-3.3-3.9-5.2-6.6
			c-0.4-0.7-0.7-1.4-1-2c0-0.3,0-0.6,0.1-0.9c1.3,2.8,3.4,5.5,6.3,8.3c-0.3-1-3.3-3.6-4.9-6.4c-0.6-1.1-1-2-1.3-2.7
			c0-0.2,0-0.3,0-0.5c1.3,2.8,3.6,5.8,6.3,8.3c-0.3-1-3.4-3.7-4.9-6.4c-0.6-1.1-1-2-1.3-2.8c0-0.2,0-0.3,0-0.5
			c1.2,2.8,4,6.4,6.6,8.8c-0.3-0.9-3.8-4.2-5.2-6.8c-0.7-1.2-1.1-2.1-1.3-2.9c0-0.2,0-0.5,0-0.7c1,2.8,3.8,6.4,6.4,8.7
			c-0.3-0.9-3.6-3.9-5-6.3c-0.7-1.3-1.1-2.3-1.4-3.1c0-0.2,0-0.6,0-0.8c0.9,2.8,3.5,6.2,6.2,8.4c-0.2-0.8-3.4-3.5-4.7-5.8
			c-0.8-1.5-1.2-2.5-1.5-3.3c0-0.3,0-0.6,0.1-0.8c0.8,2.7,3.2,6,5.9,8.3c-0.2-0.8-3.1-3.2-4.3-5.4c-0.9-1.7-1.2-2.8-1.5-3.5V38
			c0-0.4,0.1-0.7,0.1-1c0.5,2.7,2.9,6.2,5.6,8.7c-0.2-0.7-2.9-3.2-4-5.2c-1-1.9-1.3-3.1-1.6-3.7c0.8-7.6,3.8-12,8.1-12.8l0.1,0.1
			c-0.2,0.9,0,2,0.5,3.1c0.1-0.2-0.2-1.3-0.2-2.2v-0.8l0.4,0.1c0,1,0.4,2,0.8,2.1c-0.4-0.6-0.4-1.3-0.4-1.9l0.5,0.2
			c0,1.1,0.4,2.3,0.8,2.3c-0.4-0.6-0.4-1.4-0.4-2.1l0.1,0c0.1,0.4,0.2,0.8,0.4,1.1c0.2-0.3,0.1-0.8,0-1.4c0.5-0.3,1.1-0.3,1.8,0.2
			c0.2,0.3,0.2,0.5-0.2,0.4h-0.3l0.8,0.4c0,0.1,0.2,0.2-0.2,0.3l-0.3,0.2l1,0.1c0.4,0.1,0.3,0.2,0.2,0.4l-0.3,0.3
			c0.8,0,1.8,0.2,2.9,0.8c0,0.4-0.5,0.4-1.3-0.1c0.2,0.5,1,0.6,0.9,0.9c-0.1,0.6-1.2,0-1.8,0.8l1.3,0.1c0.3,0.2,0.2,0.4-0.3,0.4
			c0.7,0.9,1.2,1.1,1.4,0.5c0.2-0.5,0.4-0.5,0.6,0c0.8,0.5,0.9,0.6,0.5,0.7L79,31.1l0.9,0.2c0.2,0.1,0.2,0.3,0.1,0.4
			c-0.6,0.1-0.7,0.3,0.5,0.3c0.5,0.3,0.7,0.5,0.5,0.7c-1,0.1-1,0.2,0.2,0.3c0.3,0.2,0.4,0.3,0.3,0.5c-0.6,0.2-0.6,0.3,0.2,0.3
			c0.1,0.2,0.2,0.3,0,0.4c-0.7,0.2-0.6,0.3,0.3,0.3c0.1,0.4,0.6,0.3,0.8,0.8c0.8-0.2,1.1,0.4,0.4,0.4L83.4,36c1.1,0,1.6,0.4,1.5,1.1
			c-0.1,0.3-1.6-0.6-0.9,1.9l0.2,0.3c0.4,0.1,0-1.2,0.7-1c0.2,0,0.2,0.4,0.1,1c-0.1,0.6-0.5,0.8-1,0.5C83.3,39.4,83,39,83,38.6
			l0.1-0.8c-0.5,0.1-0.6-0.3-0.7-0.9c0-0.1-0.2-0.1-0.2-0.2c-0.8-0.2-1.3,0.1-1.5,0.8c-0.1,0.2-0.3,0-0.3-0.2c0-0.2-0.3,0.1-0.5,0
			c-0.1,0-0.1-0.4-0.2-0.3c-0.1,0-0.1,0.2-0.3,0.1c-0.1,0-0.1-0.4-0.4-0.1c-0.2,0.2-0.2,0.2-0.3-0.1c0.1-0.3,0.2-0.8-0.3-0.1
			c-0.2,0.2-0.3,0.2-0.3-0.1c-0.3-0.9-0.5-1-0.6-0.2c-0.1,0.3-0.3,0.3-0.3-0.1C77,35.1,76.9,35,77,36.4c-0.1,0.6-0.2,0.5-0.5-0.1
			c-0.3-1.1-0.5,0.1-0.7-0.4c-0.3-0.6-0.1-1.5-0.7-1.8l0.3,1.8c0,0.3-0.4,0.3-0.4-0.1c-0.2-1.2-0.9-3.3-0.8-2.6l0.5,2.5
			c0,0.2-0.5,0.1-0.6-0.2l-0.6-3.2c-0.2-0.8-0.2,1.7,0.2,2.8c0,0.1-0.4,0.1-0.3-0.1c0-0.2-0.4-3.2-0.6-3.1c-0.3,0.4,0.6,3.4-0.2,2.9
			c-0.1,0-0.3-3-0.4-3.1c-0.1,0,0,2.9-0.1,2.8c-0.8-1,0-3.8-0.5-4c-0.1,0-0.4,3.4-0.4,3.3c0.3,2.7,2.3,2.8,2.1,3.6L72,36.6
			c0.4,0.8,0.9,1.6,1.4,2.5c-0.4,0.1,0.1,0.8,0.3,1.1c-0.5-0.1-0.4,0.2,0.5,1.1c0.2,0.2,0.3,0.3,0.2,0.5c-1-0.2-1.1-0.2,0.5,1.2
			c-1-0.2-1.1-0.1,0.1,0.8c0.2,0.2,0.4,0.5,0.5,0.8c0,0.2-0.1,0.1-0.2,0.1c-0.2-0.1-0.5-0.3-0.6-0.3c-0.3-0.1-0.1,0.3,1.3,1.4
			c0.3,0.3,0.5,0.6,0.2,0.7c-1.6-1.1-1.5-0.8,0.3,0.9c0.4,0.7,0.5,1,0.3,1.2c-1.4-1.3-2.4-2.2,0.1,0.5c0.4,0.5,0.5,0.8,0.2,0.9
			c-2.6-2.1-1.2-0.7,0.5,1.2c0.1,0.1,0,0.2-0.1,0.2c-2.4-1.9-2.5-1.4,0,1.4c0.1,0.2,0.3,0.5,0.2,0.7c-0.1,0.1-0.2,0-0.3-0.1
			c-1.8-1.7-1.6-1.4,0.4,1.5c0.3,0.5,0.5,0.9,0,0.7c-2.2-2.7-2.9-3.3,0,0.8c0.3,0.5,0.3,0.8-0.1,0.6c-2-2.9-2-2.6-0.1,0.6
			c0.1,0.4,0.1,0.4,0,0.4c-1.8-2.4-2.3-2.9-0.1,0.5c0.3,0.6,0.2,0.7-0.1,0.4c-2.2-2.9-2.2-2.6-0.1,0.5c0.2,0.3,0.3,0.6-0.1,0.4
			c-2.5-3.1-2.5-3-0.1,0.4c0,0.8,0,0.8-0.4,0.4c-0.2-0.3-0.3-0.6-0.5-0.9c-1.6-2.1-1.8-1.9,0.1,0.7c-0.2,0.3-0.4,0.2-0.7,0
			C73.9,58,73.8,58,75,60.1L74.1,60c-0.2-0.3-0.3-0.5-0.5-0.7c-1.5-1.5-2-1.7-0.5,0.3c0.1,0.1-0.1,0.1,0,0.2l-1.7-0.3
			c-0.2,0-0.5-0.1-0.7-0.4c-0.7-1.3-1.1-1.9-2.4-3.1c0.1,0.4,1,1.3,1.7,2.6c0.2,0.8-0.7,0.4-0.9,0.3c-0.5-0.8-0.7-0.9-1.5-1.8
			C65.5,54.2,63.2,51.1,61.3,48.9 M67.1,26.9c0.2,0.1,0.4,0.8,0.7,1.6c0.4,0.8,1,1.6,1,1.9C67.7,29.4,67.1,28,67.1,26.9 M66.4,27.8
			c0.2,0.2,0.4,0.9,0.8,1.8c0.5,0.9,1.2,1.9,1.3,2.2C67.2,30.6,66.4,29,66.4,27.8 M65.7,28.7c0.2,0.2,0.4,1,0.9,2
			c0.5,1.1,1.5,2.1,1.5,2.5C66.7,31.9,65.8,30.1,65.7,28.7 M65.1,29.6c0.1,1.6,1.1,3.6,2.8,5c-0.1-0.4-1.2-1.6-1.8-2.8
			C65.6,30.7,65.4,29.9,65.1,29.6 M64.6,30.6c0.1,1.8,1.3,3.9,3.2,5.5c-0.1-0.4-1.4-1.8-2-3.1C65,31.8,64.9,30.9,64.6,30.6
			 M64.1,31.6c0.1,2,1.5,4.3,3.5,6.1c-0.1-0.5-1.5-1.9-2.3-3.4C64.6,32.9,64.4,31.9,64.1,31.6 M63.7,32.6c0.2,2.1,1.7,4.7,3.9,6.6
			c-0.1-0.5-1.7-2.1-2.6-3.7C64.2,34,64,33,63.7,32.6 M63.3,33.6c0.2,2.3,1.8,5.1,4.2,7.1c-0.2-0.6-1.9-2.3-2.8-4
			C63.8,35.1,63.6,34,63.3,33.6 M62.9,34.6c0.2,2.5,2,5.4,4.6,7.6c-0.2-0.6-2.1-2.4-3.1-4.3C63.4,36.2,63.3,35.1,62.9,34.6
			 M62.5,35.6c0.3,2.6,2.4,6,5.1,8.3c-0.2-0.7-2.4-2.8-3.5-4.8C63.1,37.3,62.9,36.1,62.5,35.6 M68.9,25.3c0.1,0,0.3,0.6,0.5,1.2
			c0.2,0.6,0.5,1.1,0.5,1.3C69.2,27.1,68.8,26.1,68.9,25.3 M81.6,39.1c-0.5-0.6-0.9,0.1-0.1,0.8c0.6,0.6,1.3,0.4,1.1,0.2L81.6,39.1z
			 M77.6,32.7c-0.1,0,0.1,0.6,0.1,0.9c0,0.3,0.1,0.6,0.3,0.8c0.2,0.2,0.3,0.3,0.2,0.2c-0.2-0.6-0.4-1.1-0.4-1.6
			C77.8,32.8,77.7,32.7,77.6,32.7 M76.9,31.9c-0.1,0,0.1,0.7,0.1,1.1c0,0.3,0.1,0.7,0.3,1c0.2,0.3,0.3,0.4,0.3,0.3
			c-0.2-0.7-0.4-1.3-0.4-1.9C77.1,32,77,31.9,76.9,31.9 M76.3,31.1c-0.1-0.1,0,0.8,0,1.2c0,0.4,0.1,0.8,0.3,1.1
			c0.2,0.4,0.3,0.4,0.3,0.3c-0.2-0.8-0.4-1.5-0.4-2.1C76.4,31.2,76.4,31.1,76.3,31.1 M75.6,30.3c-0.1-0.1,0,0.9,0,1.4
			c0,0.4,0,0.9,0.3,1.3c0.2,0.4,0.3,0.5,0.3,0.3c-0.2-0.9-0.4-1.7-0.3-2.4C75.8,30.5,75.7,30.4,75.6,30.3 M74.9,29.5
			c-0.1-0.1,0,1,0,1.5c0,0.5,0,1,0.3,1.5c0.2,0.4,0.3,0.6,0.3,0.4c-0.1-1-0.3-1.9-0.3-2.8C75.1,29.7,75,29.6,74.9,29.5 M74.2,28.7
			c-0.1-0.1,0,1.1-0.1,1.7c-0.1,0.6,0,1.1,0.2,1.6c0.2,0.5,0.3,0.6,0.3,0.4c-0.1-1.1-0.3-2.1-0.3-3.1C74.4,29,74.3,28.8,74.2,28.7
			 M73.5,28.7c-0.1-0.1,0,0.9-0.1,1.4c-0.1,0.4,0,0.8,0.2,1.3c0.2,0.4,0.3,0.5,0.2,0.4c-0.1-0.9-0.2-1.7-0.2-2.5
			C73.7,28.9,73.6,28.8,73.5,28.7 M73,28.7c0-0.1-0.1,0.7-0.1,1.1c-0.1,0.3,0,0.7,0.1,1c0.1,0.3,0.2,0.4,0.2,0.3
			c0-0.7-0.1-1.4-0.1-1.9C73.1,28.9,73.1,28.8,73,28.7"/>
		<path class="st3" d="M23,9.9c1.4,1.9,2.8,3.8,4.4,5.9c0,0.4-0.1,0.6-0.5,0.6c-1.6-2.5-2.8-4.4-4-6.3C22.6,9.7,22.9,9.7,23,9.9
			 M30.4,23.3c0.1,0.4-0.1,0.6-0.4,0.2c-0.6-0.8-0.5-1.8,0.2-2.7c0.7-0.9,1.7-0.9,2.5-0.3c0.5,0.4,0.4,0.5-0.2,0.5
			C30.7,21.1,30.1,22,30.4,23.3 M32,22.5c-0.6-0.3-0.9,0.1-0.7,0.9C41,38.1,55.7,59.7,73,85.1l-0.1,0.4l1.5,0.9l-0.5-2.1l-0.3,0.2
			C60.3,64.4,44.8,40.7,32,22.5"/>
		<path class="st4" d="M55.6,26.4c0-0.4,1.3-1.3,2.9-2.5c0.7-0.7,1.4-0.9,2-0.9c0.2,0.1,0.5,0.1,0.8,0.1c0.4,0.3,0.3,0.4-0.2,0.6
			c-0.2-0.2-0.4-0.2-0.6-0.1c-0.4,0.1-0.4,0.4-0.7,0.5l-0.2-0.3c-0.6,0.4-1,1.6-1.4,2.2l-0.1-0.6c-0.3,0-0.5,0.7-0.9,1.1
			c0-0.4,0-0.6-0.2-0.6C56.3,26.3,55.7,26.6,55.6,26.4 M36.3,53.8c0.5,0,0.8,0.2,0.8,0.3c0,0.2-0.4,0.3-0.8,0.3
			c-0.5,0-0.8-0.2-0.8-0.3C35.5,54,35.8,53.8,36.3,53.8 M39.6,53.1c0.3-0.4,0.6-0.7,0.7-0.6c0.1,0.1,0,0.6-0.3,1.1
			c-0.3,0.4-0.6,0.7-0.7,0.6C39.2,54,39.4,53.5,39.6,53.1 M38.5,53.7c0.2-0.4,0.5-0.6,0.6-0.5c0.1,0.1,0,0.5-0.2,0.8
			c-0.2,0.4-0.5,0.6-0.6,0.5C38.2,54.4,38.3,54.1,38.5,53.7 M37.6,53.9c0.2-0.3,0.4-0.5,0.4-0.4c0.1,0.1,0,0.4-0.2,0.7
			c-0.2,0.3-0.4,0.5-0.4,0.4C37.3,54.5,37.4,54.2,37.6,53.9 M21.4,50.2l-0.2,0.6c0.3,0.1,0.5-0.3,0.7-0.5l-0.2,1
			c0.3,0.1,1-0.7,1.4-1.1l-0.3,0.9c0.4,0,0.7-0.7,1-1l-0.2,1c0.6,0,0.9-0.8,1.3-1.2l-0.1,0.9c0.4-0.1,0.7-0.7,1.1-1l0.2,0.7
			c0.4,0.1,0.6-0.5,0.8-0.7l0.1,0.7l0.7-0.8l0.2,0.6l0.8-0.3l0.2,0.4l0.7-0.4l-0.1,0.8l0.9-0.5l0.1,0.6l0.7-0.4l0,0.7l0.8-0.2l0,0.6
			l1.2-0.5L33,52l1-0.6L33.9,52l1.1-0.5l-0.6,1.1c0.7,0.1,1-0.5,1.4-0.8l-0.3,1c0.7-0.2,1.4-0.7,2-1.6c0.2,0.3,0.1,0.7-0.5,1.6
			c0.8-0.4,1.2-1,1.5-1.6l-0.2,1.1c0.5-0.1,0.9-0.5,1.4-1.2l0,1c0.4-0.3,0.7-0.7,0.9-1.2c0.5,0.2,1-0.1,1.2-0.9
			c0.3-0.8,0.1-1-0.5-0.8c-2.1,1.6-4.8,2-8.9,0.7c-2.6-0.8-5.3-0.9-8-1C23,48.8,21.9,49,21.4,50.2 M27.6,39c0.2-0.4,0.6-0.7,1-1
			l0.1,0.4l1.2-0.4l0.1,0.4l1.2-0.7c-0.7,1-0.8,1.4-0.6,1.4c0.2,0,1.1-1.2,1.4-0.8c-0.6,1,0,0.7,1-0.2c0.3,0.1-0.4,0.8-0.3,0.9
			c0.1,0.1,0.5-0.2,1.3-0.7c0.2-0.2,0.6-0.7,0.8-0.4c0,0.3-0.3,0.5-0.4,0.7c-0.8,1-0.6,0.8,0.8-0.1c0.2-0.1,0.5-0.4,0.7-0.3
			c-1,1.3-0.6,1.1,0.8,0.2c0.2-0.1,0.4-0.5,0.7-0.2c-1.7,1.6-1.4,1.8,0.8,0.7C37.1,40,37.3,40,39,39c0.1-0.1,0.3,0,0.5-0.1
			c-0.7,0.8-0.8,1.4-0.5,1.2c0.5-0.3,1.2-0.6,1.6-0.5c-0.7,0.7-0.6,1,0.2,0.9c0.3,0.1,0,0.5-0.8,1.1c-0.1,0.3-0.3,0-0.4-0.6
			c-0.1,0.4-0.2,0.4-0.4,0.2l-0.2,1.4l-0.3,0v-0.8c-0.2-0.3-0.3-0.3-0.5,0l-0.2,1l-0.4-0.3c-0.1,0.4-0.3,0.7-0.6,1
			c-0.3-0.4-0.5-0.4-0.6,0.1c-0.2,0-0.3-0.1-0.5-0.1c-0.1,0.5-0.3,0.6-0.5,0.3c-0.4,0.2-0.7,0.5-1.1,0.9L33.9,44
			c-0.3,0.5-0.6,0.8-0.8,0.7l-0.3-0.4l-0.6,0.9l-0.9,0.2c0,0.3,0.3,0.3,0.9,0.2c0.7-0.1,2.3-0.5,3.2-0.8c1-0.3,2-0.5,3.2-1
			c1-0.5,2-1.3,3.1-1.8c0.3,0.2,0,0.7-2,2.4l-1-0.3l0.5,0.8c-0.2,0.3-0.4,0.4-0.7,0.3l-0.9-0.5l0.3,1c-0.6,0-0.9-0.8-1.5-0.5
			l0.3,0.8l-1.3-0.4l0.2,0.9l-1.1-0.5l-0.3,0.5c-0.3,0-0.5,0.1-0.6,0.2c2.6,0.5,5.4-0.5,8.3-2c0.1,0,0.2,0.1,0.2,0.3
			c-0.2,1.2-1.1,2.4-2.4,3.3l0.4-1.7c-0.9,0.4-1.8,2.5-2.6,2.7l0.8-2.2l-2.3,2c-0.2-0.2,0.1-0.8,0.6-1.6c-0.7,0-1.8,1.8-2,1.7
			c-0.5-0.3,0.4-0.8,0.6-1.2c-0.6-0.1-1,0.6-1.6,0.9c-0.1-0.3,0.3-0.7,0.9-1.2L32.8,49c0-0.4,0.7-0.7,0.9-1.2
			c-0.9,0.6-1.6,1.1-1.9,1l0.6-1l-1.7,0.9l1-1.1L30,48.4l0.4-1l-1.2,0.9l0.6-1.1c-0.7,0.5-1.2,0.9-1.6,0.9c0.4-0.5,0.6-0.9,0.6-1.1
			c-0.6,0.5-1.2,0.9-1.4,0.8l0.2-0.9c-0.5,0.5-1,0.9-1.6,1.1l0.6-1.1c0.1-0.2,0-0.3-0.2-0.2l-1.3,1.1c0.3-0.6,0.5-1,0.2-1.1
			l-0.9,0.6l0.1-0.6l-1,1.2c-0.1-0.1,0-0.4,0.2-0.9L22.5,48c0.6-1.3,1.6-2.1,2.9-2.5c1.6-0.5,2.8-0.6,3.7-0.8
			c1.7-0.3,2.8-0.4,4.1-1.1c0.6-0.3,1.3-0.6,2.1-1.3c0.4-0.3,0.2-0.4-0.2-0.4l-1.7,0.1l0-0.8l-0.6,1l-0.2-1L32,43l-0.2-1.9l-0.4,2.1
			l-0.2-2.1l-0.7,2.4L30.1,41l-0.4,2.6l-0.5-2.6L29,43.5l-0.5-2.5l-0.2,2.4L27.7,41l0,2.5l-0.7-2.4l-0.1,2.1l-0.5-2.1l-0.2,1.8
			l-0.4-1.7l-0.2,1.9c-0.7-1.5-1-2.7-0.5-3.3C25.6,39,26.6,38.8,27.6,39 M33.1,33.2c0.1,0,0.3,0.2,0.4,0.6c0.1,0.3,0.1,0.7,0,0.7
			c-0.1,0-0.3-0.2-0.4-0.6C33.1,33.6,33.1,33.3,33.1,33.2 M28.2,32.6c0.7-1.2,1.3-1.6,1.7-0.6c0.4-1.7,1-1.8,1.7-0.4
			c0.9,0,1.1,1.5,1,3.7l-0.8-2.5v1.6C31.1,31.7,27.4,33.3,28.2,32.6 M44.3,23.5c1.1,0.1,2.1,0.6,3.2,1.2c0.1,0.1,0.1,0.2-0.1,0.2
			c-0.4-0.4-0.7-0.5-1-0.5c0.1,0.5,0,0.7-0.2,0.6c-0.4-0.7-0.7-0.9-1-0.7c-0.1,0.1-0.1,0.1-0.2,0.1c-0.3-0.7-0.5-0.7-0.6-0.4
			C44,23.7,44,23.5,44.3,23.5 M38.8,23.8c-0.2,0.1-0.2,0.2-0.1,0.3c0.3-0.3,0.7-0.4,1.1,0.1c0-0.7,0.3-0.6,0.8,0.2
			c-0.2-0.8,0-1.1,0.8,0.2c0-0.7,0.1-0.8,0.6,0.4c0.2,0.2,0.3,0.2,0.3,0.1c-0.3-1.2-0.1-1.2,0.5,0.1c0.2,0.2,0.3,0.3,0.3,0.1
			c0-0.8,0.3-0.7,1,0.4c0.2,0.3,0.3,0.4,0.3,0.1c-0.1-0.7,0.2-0.6,0.8,0.2c0.5-0.1,1.2,0.3,2,1.2c0.1,0.2,0.2,0.2,0.3,0.1
			c-0.5-0.9,0.1-0.6,0.8,0C49,27.2,49,27,48.7,27c-1.6-0.7-3-1.3-4-2.1c-1.1-0.9-1.6-0.6-2.9-1.5C40.7,22.7,39.7,23,38.8,23.8
			 M36.4,25.5c-0.6,0.2-0.6,0.5,0,0.6c0.2,0,0.4,0,0.6,0c0.3-0.1,0.5,0,0.6,0.3c0.2,0.6,0.6,0.8,0.8,0.6c0.2-0.1-0.9-1-0.4-1h0.3
			c0.8,0.8,1.6,1.3,1.5,1.1l-0.3-1c-0.1-0.3,0.3-0.2,0.6,0.1l1.1,1.1c0.2,0.2,0-0.2-0.2-0.8c-0.1-0.3,0.2-0.2,0.4,0
			c0.7,0.7,1.5,1.9,1.5,1.5v-0.5c0-0.2,0.2-0.2,0.4,0c0.4,0.5,0.9,1,0.9,0.8L44,27.8c-0.1-0.2,0.1-0.3,0.4,0l1.2,1.1
			c0.2,0.2,0.4,0.1,0.3-0.1l-0.2-0.3c-0.1-0.2,0-0.3,0.3-0.1l1,0.8c0.2,0.1,0.2-0.1-0.1-0.5h0.6c0.1,0.3,0.3,0.4,0.9,0.7
			c0.1,0.1,0.2-0.1,0.5-0.2l1.4-0.5c0.5-0.2,0.4-0.4,0-0.4c-2,0.6-4.1-0.6-6.4-1.9C40.8,24.7,38.5,24.8,36.4,25.5 M56.4,26.7
			c0.1,0.1,0,0.3-0.2,0.4c-0.1,0.2-0.3,0.2-0.4,0.1c-0.1-0.1,0-0.3,0.1-0.4C56.1,26.7,56.3,26.6,56.4,26.7 M57.9,27.1
			c-0.3-0.3-0.5,0.4,0.1,0.2l0.8-0.8c0.4-0.7,0.2,0.2,0.4,0.1c0.3-0.1,0.7-1,0.6-1.4l0.7-0.4c0.4-0.4,0.3-0.5-0.2-0.5
			c-0.7,0.5-1.3,1.1-1.8,1.9L57.9,27.1z"/>
	</g>
	<g>
		<path class="st5" d="M140.7,26l-4.4-7.8l-2.2,2.7V26h-3.4V8.8h3.4v7.5l6.1-7.5h4.1l-5.7,6.8l6.1,10.4H140.7L140.7,26z M155.5,17.1
			c0-0.7,0-1.3,0-1.8c0-0.5-0.1-0.9-0.1-1.2c-0.1-0.3-0.2-0.6-0.3-0.8c-0.1-0.2-0.3-0.4-0.4-0.6c-0.5-0.6-1.2-0.9-2.2-0.9
			c-0.4,0-0.8,0.1-1.2,0.2c-0.4,0.2-0.7,0.4-1,0.7c-0.4,0.4-0.6,1-0.7,1.8c-0.1,0.8-0.1,1.7-0.1,2.8c0,0.5,0,1.1,0,1.6
			c0,0.5,0,1,0.1,1.4c0,0.4,0.1,0.8,0.2,1.2c0.1,0.4,0.3,0.7,0.5,0.9c0.6,0.6,1.3,0.9,2.2,0.9c0.9,0,1.6-0.3,2.2-0.9
			c0.2-0.2,0.3-0.4,0.4-0.6c0.1-0.2,0.2-0.5,0.3-0.9c0.1-0.4,0.1-0.9,0.1-1.4C155.5,18.7,155.5,18,155.5,17.1L155.5,17.1z
			 M158.9,17.4c0,0.6,0,1.2,0,1.8c0,0.6-0.1,1.2-0.2,1.8c-0.1,0.6-0.3,1.2-0.5,1.7c-0.2,0.5-0.6,1.1-1,1.5c-1.2,1.3-2.8,1.9-4.6,1.9
			c-1.9,0-3.4-0.6-4.7-1.9c-0.5-0.5-0.8-1-1-1.5c-0.2-0.6-0.4-1.1-0.5-1.7c-0.1-0.6-0.1-1.2-0.2-1.8c0-0.6,0-1.1,0-1.6v-0.9
			c0-0.9,0-1.6,0.1-2.2c0-0.6,0.1-1.2,0.3-1.6c0.1-0.5,0.3-0.9,0.5-1.3c0.2-0.4,0.5-0.7,0.8-1.1c1.2-1.3,2.8-1.9,4.7-1.9
			c1.9,0,3.4,0.6,4.6,1.9c0.6,0.6,1,1.4,1.3,2.2c0.3,0.9,0.4,2,0.4,3.4V17.4L158.9,17.4z M174.5,26V16l-3.3,6.5H169l-3.3-6.5v10
			h-3.4V8.8h3.3l4.5,9.3l4.5-9.3h3.3V26H174.5L174.5,26z M191.6,26V15L184.9,26h-3V8.8h3.4v11l6.7-11h3V26H191.6L191.6,26z
			 M205.6,11.8V26h-3.4V11.8h-4.5v-3h12.4v3H205.6L205.6,11.8z M212.8,26V8.8h11.3v3h-8v4h6.8v3h-6.8V23h8v3H212.8L212.8,26z
			 M234,11.8V26h-3.4V11.8h-4.5v-3h12.4v3H234L234,11.8z M139.4,46.2c0-0.7,0-1.3,0-1.8c0-0.5-0.1-0.9-0.1-1.2
			c-0.1-0.3-0.2-0.6-0.3-0.8c-0.1-0.2-0.3-0.4-0.4-0.6c-0.5-0.6-1.2-0.9-2.2-0.9c-0.4,0-0.8,0.1-1.2,0.2c-0.4,0.2-0.7,0.4-1,0.7
			c-0.4,0.4-0.6,1-0.7,1.8c-0.1,0.8-0.1,1.7-0.1,2.8c0,0.5,0,1.1,0,1.6c0,0.5,0,1,0.1,1.4c0,0.4,0.1,0.8,0.2,1.2
			c0.1,0.4,0.3,0.7,0.5,0.9c0.6,0.6,1.3,0.9,2.2,0.9c0.9,0,1.6-0.3,2.2-0.9c0.2-0.2,0.3-0.4,0.4-0.6c0.1-0.2,0.2-0.5,0.3-0.9
			c0.1-0.4,0.1-0.9,0.1-1.4C139.4,47.8,139.4,47.1,139.4,46.2L139.4,46.2z M142.8,46.5c0,0.6,0,1.2,0,1.8c0,0.6-0.1,1.2-0.2,1.8
			c-0.1,0.6-0.3,1.2-0.5,1.7c-0.2,0.5-0.6,1.1-1,1.5c-1.2,1.3-2.8,1.9-4.6,1.9c-1.9,0-3.4-0.6-4.7-1.9c-0.5-0.5-0.8-1-1-1.5
			c-0.2-0.6-0.4-1.1-0.5-1.7c-0.1-0.6-0.1-1.2-0.2-1.8c0-0.6,0-1.1,0-1.6v-0.9c0-0.9,0-1.6,0.1-2.2c0-0.6,0.1-1.2,0.3-1.6
			c0.1-0.5,0.3-0.9,0.5-1.3c0.2-0.4,0.5-0.7,0.8-1.1c1.2-1.3,2.8-1.9,4.7-1.9c1.9,0,3.4,0.6,4.6,1.9c0.6,0.6,1,1.4,1.3,2.2
			c0.3,0.9,0.4,2,0.4,3.4V46.5L142.8,46.5z M155.3,49.8c0-0.7-0.2-1.3-0.6-1.7c-0.4-0.4-1-0.7-1.8-0.7h-3.4v4.7h3.4
			c0.8,0,1.3-0.2,1.8-0.6C155.1,51.1,155.3,50.5,155.3,49.8L155.3,49.8z M158.7,49.8c0,0.8-0.1,1.5-0.4,2.2
			c-0.3,0.7-0.6,1.2-1.1,1.7c-0.5,0.5-1.1,0.8-1.8,1.1c-0.7,0.3-1.5,0.4-2.3,0.4h-6.9V37.9h11.4v3h-8v3.5h3.5c0.9,0,1.6,0.1,2.3,0.4
			c0.7,0.3,1.3,0.6,1.8,1.1c0.5,0.5,0.9,1,1.1,1.7C158.6,48.3,158.7,49,158.7,49.8L158.7,49.8z M180.7,59v-3.8H162V37.9h3.4v14.2
			h4.9V37.9h3.4v14.2h4.9V37.9h3.4v14.2h2V59H180.7L180.7,59z M186.6,55.1V37.9h11.3v3h-8v4h6.8v3h-6.8v4.2h8v3H186.6L186.6,55.1z
			 M211.7,53.3c-0.2,0.2-0.5,0.4-0.6,0.6c-0.2,0.2-0.4,0.3-0.5,0.4c-0.2,0.1-0.3,0.2-0.5,0.3c-0.2,0.1-0.4,0.2-0.6,0.3
			c-0.4,0.1-0.8,0.3-1.2,0.3c-0.4,0.1-0.9,0.1-1.3,0.1c-1.9,0-3.5-0.6-4.7-1.9c-0.4-0.4-0.7-0.9-1-1.4c-0.2-0.5-0.4-1-0.5-1.6
			c-0.1-0.6-0.2-1.2-0.2-1.8c0-0.6,0-1.3,0-2.1v-0.7c0-0.9,0-1.6,0.1-2.2c0-0.6,0.1-1.2,0.3-1.6c0.1-0.5,0.3-0.9,0.5-1.3
			c0.2-0.4,0.5-0.7,0.8-1.1c1.2-1.3,2.8-1.9,4.7-1.9c1,0,1.8,0.2,2.5,0.5c0.4,0.2,0.8,0.4,1.1,0.6c0.3,0.2,0.7,0.5,1.2,1l-2.2,2.2
			c-0.5-0.5-0.9-0.8-1.2-1c-0.4-0.2-0.8-0.3-1.3-0.3c-0.9,0-1.6,0.3-2.2,0.9c-0.2,0.2-0.4,0.5-0.5,0.9c-0.1,0.3-0.2,0.7-0.3,1.1
			c-0.1,0.4-0.1,0.8-0.1,1.2c0,0.4,0,0.8,0,1.2V47c0,0.7,0,1.3,0,1.7c0,0.5,0.1,0.9,0.1,1.2c0.1,0.3,0.1,0.6,0.3,0.8
			c0.1,0.2,0.2,0.4,0.4,0.6c0.5,0.6,1.2,0.9,2.2,0.9c0.5,0,0.9-0.1,1.3-0.3c0.4-0.2,0.8-0.5,1.2-1L211.7,53.3L211.7,53.3z
			 M221.4,40.9v14.2H218V40.9h-4.5v-3h12.4v3H221.4L221.4,40.9z M235.5,52.1c0.7,0,1.2-0.2,1.6-0.6c0.4-0.4,0.6-0.9,0.6-1.6
			c0-0.7-0.2-1.2-0.6-1.5c-0.4-0.4-1-0.6-1.6-0.6h-3.5v4.2H235.5L235.5,52.1z M235.2,44.9c0.7,0,1.2-0.2,1.6-0.5
			c0.4-0.4,0.6-0.8,0.6-1.5c0-0.6-0.2-1.1-0.6-1.5c-0.4-0.4-0.9-0.5-1.6-0.5h-3.3v4H235.2L235.2,44.9z M238.7,46.3
			c0.3,0.2,0.6,0.3,0.8,0.5c0.2,0.1,0.4,0.3,0.5,0.5c0.4,0.4,0.6,0.8,0.8,1.3c0.2,0.5,0.3,1,0.3,1.6c0,0.8-0.1,1.4-0.4,2
			c-0.2,0.6-0.6,1.1-1.1,1.5c-0.5,0.4-1,0.8-1.7,1c-0.7,0.2-1.4,0.4-2.2,0.4h-7.2V37.9h6.9c0.8,0,1.5,0.1,2.2,0.3
			c0.7,0.2,1.2,0.5,1.7,1c0.5,0.4,0.8,0.9,1.1,1.5c0.3,0.6,0.4,1.2,0.4,2C240.8,44.3,240.1,45.5,238.7,46.3L238.7,46.3z M244.5,55.1
			V37.9h11.3v3h-8v4h6.8v3h-6.8v4.2h8v3H244.5L244.5,55.1z M268.3,55.1v-7.2h-5.8v7.2h-3.4V37.9h3.4v7h5.8v-7h3.4v17.2H268.3
			L268.3,55.1z M284.9,55.1v-7.2H279v7.2h-3.4V37.9h3.4v7h5.8v-7h3.4v17.2H284.9L284.9,55.1z M301.2,49.8c0-0.7-0.2-1.3-0.7-1.7
			c-0.4-0.4-1.1-0.7-1.8-0.7h-3.1v4.7h3.1c0.8,0,1.4-0.2,1.8-0.6C301,51.1,301.2,50.5,301.2,49.8L301.2,49.8z M304.6,49.8
			c0,0.8-0.1,1.5-0.4,2.2c-0.3,0.7-0.6,1.2-1.1,1.7c-0.5,0.5-1.1,0.8-1.8,1.1c-0.7,0.3-1.4,0.4-2.3,0.4h-6.8V37.9h3.4v6.5h3.4
			c0.8,0,1.6,0.1,2.3,0.4c0.7,0.3,1.3,0.6,1.8,1.1c0.5,0.5,0.9,1,1.1,1.7C304.5,48.3,304.6,49,304.6,49.8L304.6,49.8z M306.5,55.1
			V37.9h3.4v17.2H306.5L306.5,55.1z M322.5,55.1l-3.3-6l-3.3,6H312l5.3-8.8l-5-8.4h3.8l3,5.6l3-5.6h3.8l-5,8.4l5.4,8.8H322.5
			L322.5,55.1z M344.6,53.3c-0.2,0.2-0.5,0.4-0.6,0.6c-0.2,0.2-0.4,0.3-0.5,0.4c-0.2,0.1-0.3,0.2-0.5,0.3c-0.2,0.1-0.4,0.2-0.6,0.3
			c-0.4,0.1-0.8,0.3-1.2,0.3c-0.4,0.1-0.9,0.1-1.3,0.1c-1.9,0-3.5-0.6-4.7-1.9c-0.4-0.4-0.7-0.9-1-1.4c-0.2-0.5-0.4-1-0.5-1.6
			c-0.1-0.6-0.2-1.2-0.2-1.8c0-0.6,0-1.3,0-2.1v-0.7c0-0.9,0-1.6,0.1-2.2c0-0.6,0.1-1.2,0.3-1.6c0.1-0.5,0.3-0.9,0.5-1.3
			c0.2-0.4,0.5-0.7,0.8-1.1c1.2-1.3,2.8-1.9,4.7-1.9c1,0,1.8,0.2,2.5,0.5c0.4,0.2,0.8,0.4,1.1,0.6c0.3,0.2,0.7,0.5,1.2,1l-2.2,2.2
			c-0.5-0.5-0.9-0.8-1.2-1c-0.4-0.2-0.8-0.3-1.3-0.3c-0.9,0-1.6,0.3-2.2,0.9c-0.2,0.2-0.4,0.5-0.5,0.9c-0.1,0.3-0.2,0.7-0.3,1.1
			c-0.1,0.4-0.1,0.8-0.1,1.2c0,0.4,0,0.8,0,1.2V47c0,0.7,0,1.3,0,1.7c0,0.5,0.1,0.9,0.1,1.2c0.1,0.3,0.1,0.6,0.3,0.8
			c0.1,0.2,0.2,0.4,0.4,0.6c0.5,0.6,1.2,0.9,2.2,0.9c0.5,0,0.9-0.1,1.3-0.3c0.4-0.2,0.8-0.5,1.2-1L344.6,53.3L344.6,53.3z
			 M354.5,52.1c0.7,0,1.2-0.2,1.6-0.6c0.4-0.4,0.6-0.9,0.6-1.6c0-0.7-0.2-1.2-0.6-1.5c-0.4-0.4-1-0.6-1.6-0.6H351v4.2H354.5
			L354.5,52.1z M354.3,44.9c0.7,0,1.2-0.2,1.6-0.5c0.4-0.4,0.6-0.8,0.6-1.5c0-0.6-0.2-1.1-0.6-1.5c-0.4-0.4-0.9-0.5-1.6-0.5H351v4
			H354.3L354.3,44.9z M357.7,46.3c0.3,0.2,0.6,0.3,0.8,0.5c0.2,0.1,0.4,0.3,0.5,0.5c0.4,0.4,0.6,0.8,0.8,1.3c0.2,0.5,0.3,1,0.3,1.6
			c0,0.8-0.1,1.4-0.4,2c-0.2,0.6-0.6,1.1-1.1,1.5c-0.5,0.4-1,0.8-1.7,1c-0.7,0.2-1.4,0.4-2.2,0.4h-7.2V37.9h6.9
			c0.8,0,1.5,0.1,2.2,0.3c0.7,0.2,1.2,0.5,1.7,1c0.5,0.4,0.8,0.9,1.1,1.5c0.2,0.6,0.4,1.2,0.4,2C359.9,44.3,359.1,45.5,357.7,46.3
			L357.7,46.3z M371.9,40.9h-3.1c-0.8,0-1.4,0.2-1.8,0.6c-0.5,0.4-0.7,1-0.7,1.7c0,0.7,0.2,1.3,0.7,1.7c0.5,0.4,1.1,0.6,1.8,0.6h3.1
			V40.9L371.9,40.9z M371.9,55.1v-6.5h-2.6l-3,6.5h-4l3.6-7.2c-0.9-0.4-1.6-1-2.2-1.8c-0.5-0.8-0.8-1.8-0.8-2.9
			c0-0.8,0.1-1.5,0.4-2.2c0.3-0.7,0.7-1.2,1.2-1.7c0.5-0.5,1.1-0.8,1.8-1.1c0.7-0.3,1.5-0.4,2.3-0.4h6.7v17.2H371.9L371.9,55.1z
			 M390.1,50.2c0,0.8-0.2,1.5-0.5,2.1c-0.3,0.6-0.7,1.2-1.3,1.6c-0.5,0.4-1.2,0.8-1.9,1c-0.7,0.2-1.5,0.4-2.3,0.4
			c-0.6,0-1.2,0-1.8-0.1c-0.6-0.1-1.1-0.2-1.6-0.4c-0.5-0.2-1-0.4-1.5-0.7c-0.5-0.3-1-0.7-1.4-1.1l2.2-2.2c0.6,0.5,1.2,0.9,1.9,1.1
			c0.7,0.2,1.4,0.3,2.2,0.3c0.4,0,0.7,0,1.1-0.1c0.3-0.1,0.6-0.2,0.9-0.4c0.3-0.2,0.4-0.4,0.6-0.7c0.1-0.3,0.2-0.6,0.2-0.9
			c0-0.8-0.2-1.3-0.7-1.8c-0.5-0.4-1.1-0.6-1.9-0.6H382v-2.8h2.2c0.7,0,1.3-0.2,1.7-0.6c0.4-0.4,0.6-0.9,0.6-1.6
			c0-0.7-0.2-1.2-0.7-1.5c-0.5-0.4-1.1-0.5-1.7-0.5c-0.7,0-1.3,0.1-1.9,0.3c-0.6,0.2-1.2,0.5-1.7,0.9l-2.1-2.1
			c0.8-0.7,1.7-1.2,2.7-1.5c1-0.3,2-0.5,3.1-0.5c0.8,0,1.5,0.1,2.2,0.3c0.7,0.2,1.3,0.5,1.8,1c0.5,0.4,0.9,0.9,1.2,1.5
			c0.3,0.6,0.4,1.2,0.4,2c0,0.8-0.2,1.6-0.6,2.2c-0.4,0.6-1,1.1-1.6,1.5c0.8,0.3,1.4,0.8,1.8,1.5C389.9,48.4,390.1,49.2,390.1,50.2
			L390.1,50.2z M393.5,55.1V37.9h11.3v3h-8v4h6.8v3h-6.8v4.2h8v3H393.5L393.5,55.1z M417.8,55.1v-11l-6.7,11h-3V37.9h3.4v11l6.7-11
			h3v17.2H417.8L417.8,55.1z M418.6,33.4c-0.1,1.1-0.5,2-1.2,2.6c-0.6,0.6-1.6,0.9-2.8,0.9c-1.2,0-2.1-0.3-2.8-0.9
			c-0.6-0.6-1-1.5-1.1-2.6h2.1c0.1,0.4,0.3,0.8,0.6,1c0.3,0.2,0.7,0.4,1.3,0.4c0.5,0,1-0.1,1.2-0.4c0.3-0.2,0.5-0.6,0.5-1H418.6
			L418.6,33.4z M140.4,84.2V73.2l-6.7,11.1h-3V67h3.4v11l6.7-11h3v17.2H140.4L140.4,84.2z M165.6,84.2v-10l-3.3,6.5H160l-3.3-6.5v10
			h-3.4V67h3.3l4.5,9.3l4.5-9.3h3.3v17.2H165.6L165.6,84.2z M181.7,75.3c0-0.7,0-1.3,0-1.8c0-0.5-0.1-0.9-0.1-1.2
			c-0.1-0.3-0.2-0.6-0.3-0.8c-0.1-0.2-0.2-0.4-0.4-0.6c-0.5-0.6-1.2-0.9-2.2-0.9c-0.4,0-0.8,0.1-1.2,0.2c-0.4,0.2-0.7,0.4-1,0.7
			c-0.4,0.4-0.6,1-0.7,1.8c-0.1,0.8-0.1,1.7-0.1,2.8c0,0.5,0,1.1,0,1.6s0,1,0.1,1.4c0,0.4,0.1,0.8,0.2,1.2c0.1,0.4,0.3,0.7,0.5,0.9
			c0.6,0.6,1.3,0.9,2.2,0.9c0.9,0,1.6-0.3,2.2-0.9c0.2-0.2,0.3-0.4,0.4-0.6c0.1-0.2,0.2-0.5,0.3-0.9c0.1-0.4,0.1-0.9,0.1-1.4
			C181.7,76.9,181.7,76.2,181.7,75.3L181.7,75.3z M185.1,75.6c0,0.6,0,1.2,0,1.8c0,0.6-0.1,1.2-0.2,1.8c-0.1,0.6-0.3,1.2-0.5,1.7
			c-0.2,0.5-0.6,1.1-1,1.5c-1.2,1.3-2.8,1.9-4.6,1.9c-1.9,0-3.4-0.6-4.7-1.9c-0.5-0.5-0.8-1-1-1.5c-0.2-0.6-0.4-1.1-0.5-1.7
			c-0.1-0.6-0.1-1.2-0.2-1.8c0-0.6,0-1.1,0-1.6v-0.9c0-0.9,0-1.6,0.1-2.2c0-0.6,0.1-1.2,0.3-1.6c0.1-0.5,0.3-0.9,0.5-1.3
			c0.2-0.4,0.5-0.7,0.8-1.1c1.2-1.3,2.8-1.9,4.7-1.9c1.9,0,3.4,0.6,4.6,1.9c0.6,0.6,1,1.4,1.3,2.2c0.3,0.9,0.4,2,0.4,3.4V75.6
			L185.1,75.6z M197.7,84.2V70h-3.9l-0.2,7.2c-0.1,2.4-0.5,4.2-1.4,5.3c-0.9,1.1-2.2,1.7-3.9,1.7h-1.5v-3h0.6c0.4,0,0.7-0.1,1.1-0.2
			c0.3-0.1,0.6-0.3,0.9-0.7c0.3-0.3,0.5-0.7,0.6-1.3c0.1-0.5,0.2-1.2,0.3-2l0.3-10.1h10.6v17.2H197.7L197.7,84.2z M213.9,75.3
			c0-0.7,0-1.3,0-1.8c0-0.5-0.1-0.9-0.1-1.2c-0.1-0.3-0.2-0.6-0.3-0.8c-0.1-0.2-0.2-0.4-0.4-0.6c-0.5-0.6-1.2-0.9-2.2-0.9
			c-0.4,0-0.8,0.1-1.2,0.2c-0.4,0.2-0.7,0.4-1,0.7c-0.4,0.4-0.6,1-0.7,1.8c-0.1,0.8-0.1,1.7-0.1,2.8c0,0.5,0,1.1,0,1.6s0,1,0.1,1.4
			c0,0.4,0.1,0.8,0.2,1.2c0.1,0.4,0.3,0.7,0.5,0.9c0.6,0.6,1.3,0.9,2.2,0.9c0.9,0,1.6-0.3,2.2-0.9c0.2-0.2,0.3-0.4,0.4-0.6
			c0.1-0.2,0.2-0.5,0.3-0.9c0.1-0.4,0.1-0.9,0.1-1.4C213.9,76.9,213.9,76.2,213.9,75.3L213.9,75.3z M217.2,75.6c0,0.6,0,1.2,0,1.8
			c0,0.6-0.1,1.2-0.2,1.8c-0.1,0.6-0.3,1.2-0.5,1.7c-0.2,0.5-0.6,1.1-1,1.5c-1.2,1.3-2.8,1.9-4.6,1.9c-1.9,0-3.4-0.6-4.7-1.9
			c-0.5-0.5-0.8-1-1-1.5c-0.2-0.6-0.4-1.1-0.5-1.7c-0.1-0.6-0.1-1.2-0.2-1.8c0-0.6,0-1.1,0-1.6v-0.9c0-0.9,0-1.6,0.1-2.2
			c0-0.6,0.1-1.2,0.3-1.6c0.1-0.5,0.3-0.9,0.5-1.3c0.2-0.4,0.5-0.7,0.8-1.1c1.2-1.3,2.8-1.9,4.7-1.9c1.9,0,3.4,0.6,4.6,1.9
			c0.6,0.6,1,1.4,1.3,2.2c0.3,0.9,0.4,2,0.4,3.4V75.6L217.2,75.6z M229.8,70h-3.7v0.6c0,1.3,0,2.4-0.1,3.4c-0.1,1-0.2,1.9-0.4,2.7
			c-0.2,0.8-0.3,1.6-0.6,2.3c-0.2,0.7-0.5,1.5-0.7,2.2h5.5V70L229.8,70z M231.9,88.1v-3.8h-9.5v3.8h-3.2v-6.8h1.7
			c0.3-0.9,0.6-1.7,0.9-2.6c0.2-0.9,0.5-1.9,0.6-2.9c0.2-1,0.3-2.2,0.4-3.5c0.1-1.3,0.1-2.8,0.1-4.4V67h10.3v14.2h2v6.8H231.9
			L231.9,88.1z M242.2,63.8c0,0.5-0.2,0.9-0.5,1.2c-0.3,0.3-0.7,0.5-1.1,0.5c-0.5,0-0.8-0.2-1.1-0.5c-0.3-0.3-0.5-0.7-0.5-1.1
			c0-0.5,0.2-0.8,0.5-1.1c0.3-0.3,0.7-0.5,1.1-0.5c0.4,0,0.8,0.2,1.1,0.5C242.1,63,242.2,63.4,242.2,63.8L242.2,63.8z M247.7,63.8
			c0,0.5-0.2,0.9-0.5,1.2c-0.3,0.3-0.7,0.5-1.1,0.5c-0.5,0-0.8-0.2-1.1-0.5c-0.3-0.3-0.5-0.7-0.5-1.1c0-0.5,0.2-0.8,0.5-1.1
			c0.3-0.3,0.7-0.5,1.1-0.5c0.4,0,0.8,0.2,1.1,0.5C247.5,63,247.7,63.4,247.7,63.8L247.7,63.8z M237.8,84.2V67h11.3v3h-8v4h6.8v3
			h-6.8v4.2h8v3H237.8L237.8,84.2z M269.3,84.2l-3.9-7.6l-1.8,2.3v5.2h-3.3V79l-1.8-2.3l-3.9,7.6h-3.9l5.6-10.2l-5.1-7h4l5.1,7.6V67
			h3.3v7.6l5.1-7.6h4l-5.1,7l5.6,10.2H269.3L269.3,84.2z M284.5,84.2V77h-5.8v7.2h-3.4V67h3.4v7h5.8v-7h3.4v17.2H284.5L284.5,84.2z
			 M300.7,75.3c0-0.7,0-1.3,0-1.8c0-0.5-0.1-0.9-0.1-1.2c-0.1-0.3-0.2-0.6-0.3-0.8c-0.1-0.2-0.2-0.4-0.4-0.6
			c-0.5-0.6-1.2-0.9-2.2-0.9c-0.4,0-0.8,0.1-1.2,0.2c-0.4,0.2-0.7,0.4-1,0.7c-0.4,0.4-0.6,1-0.7,1.8c-0.1,0.8-0.1,1.7-0.1,2.8
			c0,0.5,0,1.1,0,1.6s0,1,0.1,1.4c0,0.4,0.1,0.8,0.2,1.2c0.1,0.4,0.3,0.7,0.5,0.9c0.6,0.6,1.3,0.9,2.2,0.9c0.9,0,1.6-0.3,2.2-0.9
			c0.2-0.2,0.3-0.4,0.4-0.6c0.1-0.2,0.2-0.5,0.3-0.9c0.1-0.4,0.1-0.9,0.1-1.4C300.7,76.9,300.7,76.2,300.7,75.3L300.7,75.3z
			 M304,75.6c0,0.6,0,1.2,0,1.8c0,0.6-0.1,1.2-0.2,1.8c-0.1,0.6-0.3,1.2-0.5,1.7c-0.2,0.5-0.6,1.1-1,1.5c-1.2,1.3-2.8,1.9-4.6,1.9
			c-1.9,0-3.4-0.6-4.7-1.9c-0.5-0.5-0.8-1-1-1.5c-0.2-0.6-0.4-1.1-0.5-1.7c-0.1-0.6-0.1-1.2-0.2-1.8c0-0.6,0-1.1,0-1.6v-0.9
			c0-0.9,0-1.6,0.1-2.2c0-0.6,0.1-1.2,0.3-1.6c0.1-0.5,0.3-0.9,0.5-1.3c0.2-0.4,0.5-0.7,0.8-1.1c1.2-1.3,2.8-1.9,4.7-1.9
			c1.9,0,3.4,0.6,4.6,1.9c0.6,0.6,1,1.4,1.3,2.2c0.3,0.9,0.4,2,0.4,3.4V75.6L304,75.6z M317.2,84.2V73.2l-6.7,11.1h-3V67h3.4v11
			l6.7-11h3v17.2H317.2L317.2,84.2z M318,62.5c-0.1,1.1-0.5,2-1.2,2.6c-0.6,0.6-1.6,0.9-2.8,0.9c-1.2,0-2.1-0.3-2.8-0.9
			c-0.6-0.6-1-1.5-1.1-2.6h2.1c0.1,0.4,0.3,0.8,0.6,1c0.3,0.2,0.7,0.4,1.3,0.4c0.5,0,1-0.1,1.2-0.4c0.3-0.2,0.5-0.6,0.5-1H318
			L318,62.5z M339.3,84.2V70h-5.8v14.2h-3.4V67h12.5v17.2H339.3L339.3,84.2z M355.5,75.3c0-0.7,0-1.3,0-1.8c0-0.5-0.1-0.9-0.1-1.2
			c-0.1-0.3-0.2-0.6-0.3-0.8c-0.1-0.2-0.3-0.4-0.4-0.6c-0.5-0.6-1.2-0.9-2.2-0.9c-0.4,0-0.8,0.1-1.2,0.2c-0.4,0.2-0.7,0.4-1,0.7
			c-0.4,0.4-0.6,1-0.7,1.8c-0.1,0.8-0.1,1.7-0.1,2.8c0,0.5,0,1.1,0,1.6s0,1,0.1,1.4c0,0.4,0.1,0.8,0.2,1.2c0.1,0.4,0.3,0.7,0.5,0.9
			c0.6,0.6,1.3,0.9,2.2,0.9c0.9,0,1.6-0.3,2.2-0.9c0.2-0.2,0.3-0.4,0.4-0.6c0.1-0.2,0.2-0.5,0.3-0.9c0.1-0.4,0.1-0.9,0.1-1.4
			C355.5,76.9,355.5,76.2,355.5,75.3L355.5,75.3z M358.8,75.6c0,0.6,0,1.2,0,1.8c0,0.6-0.1,1.2-0.2,1.8c-0.1,0.6-0.3,1.2-0.5,1.7
			c-0.2,0.5-0.6,1.1-1,1.5c-1.2,1.3-2.8,1.9-4.6,1.9c-1.9,0-3.4-0.6-4.7-1.9c-0.5-0.5-0.8-1-1-1.5c-0.2-0.6-0.4-1.1-0.5-1.7
			c-0.1-0.6-0.1-1.2-0.2-1.8c0-0.6,0-1.1,0-1.6v-0.9c0-0.9,0-1.6,0.1-2.2c0-0.6,0.1-1.2,0.3-1.6c0.1-0.5,0.3-0.9,0.5-1.3
			c0.2-0.4,0.5-0.7,0.8-1.1c1.2-1.3,2.8-1.9,4.7-1.9c1.9,0,3.4,0.6,4.6,1.9c0.6,0.6,1,1.4,1.3,2.2c0.3,0.9,0.4,2,0.4,3.4V75.6
			L358.8,75.6z M371.5,84.2V70h-3.9l-0.2,7.2c-0.1,2.4-0.5,4.2-1.4,5.3c-0.9,1.1-2.2,1.7-3.9,1.7h-1.5v-3h0.6c0.4,0,0.7-0.1,1.1-0.2
			c0.3-0.1,0.6-0.3,0.9-0.7c0.3-0.3,0.5-0.7,0.6-1.3c0.1-0.5,0.2-1.2,0.3-2l0.3-10.1h10.6v17.2H371.5L371.5,84.2z M388.6,84.2V73.2
			l-6.7,11.1h-3V67h3.4v11l6.7-11h3v17.2H388.6L388.6,84.2z M402.5,70v14.2h-3.4V70h-4.5v-3H407v3H402.5L402.5,70z M419.4,84.2V73.2
			l-6.7,11.1h-3V67h3.4v11l6.7-11h3v17.2H419.4L419.4,84.2z M436.8,84.2l-4.4-7.8l-2.2,2.7v5.2h-3.4V67h3.4v7.5l6.1-7.5h4.1
			l-5.7,6.8l6.1,10.4H436.8L436.8,84.2z M452.6,84.2V73.2l-6.7,11.1h-3V67h3.4v11l6.7-11h3v17.2H452.6L452.6,84.2z M134.1,99.1v14.2
			h-3.4V96.1h10.8v3H134.1L134.1,99.1z M153,104.4c0-0.7,0-1.3,0-1.8c0-0.5-0.1-0.9-0.1-1.2c-0.1-0.3-0.2-0.6-0.3-0.8
			c-0.1-0.2-0.3-0.4-0.4-0.6c-0.5-0.6-1.2-0.9-2.2-0.9c-0.4,0-0.8,0.1-1.2,0.2c-0.4,0.2-0.7,0.4-1,0.7c-0.4,0.4-0.6,1-0.7,1.8
			c-0.1,0.8-0.1,1.7-0.1,2.8c0,0.5,0,1.1,0,1.6c0,0.5,0,1,0.1,1.4c0,0.4,0.1,0.8,0.2,1.2c0.1,0.4,0.3,0.7,0.5,0.9
			c0.6,0.6,1.3,0.9,2.2,0.9c0.9,0,1.6-0.3,2.2-0.9c0.2-0.2,0.3-0.4,0.4-0.6c0.1-0.2,0.2-0.5,0.3-0.9c0.1-0.4,0.1-0.9,0.1-1.4
			C153,106,153,105.3,153,104.4L153,104.4z M156.4,104.7c0,0.6,0,1.2,0,1.8c0,0.6-0.1,1.2-0.2,1.8c-0.1,0.6-0.3,1.2-0.5,1.7
			c-0.2,0.5-0.6,1.1-1,1.5c-1.2,1.3-2.8,1.9-4.6,1.9c-1.9,0-3.4-0.6-4.7-1.9c-0.5-0.5-0.8-1-1-1.5c-0.2-0.6-0.4-1.1-0.5-1.7
			c-0.1-0.6-0.1-1.2-0.2-1.8c0-0.6,0-1.1,0-1.6V104c0-0.9,0-1.6,0.1-2.2c0-0.6,0.1-1.2,0.3-1.6c0.1-0.5,0.3-0.9,0.5-1.3
			c0.2-0.4,0.5-0.7,0.8-1.1c1.2-1.3,2.8-1.9,4.7-1.9c1.9,0,3.4,0.6,4.6,1.9c0.6,0.6,1,1.4,1.3,2.2c0.3,0.9,0.4,2,0.4,3.4V104.7z"/>
		<path class="st5" d="M166.3,103.8c0.8,0,1.4-0.2,1.8-0.6c0.5-0.4,0.7-1,0.7-1.7c0-0.7-0.2-1.3-0.7-1.7c-0.5-0.4-1.1-0.6-1.8-0.6
			h-3.1v4.7H166.3L166.3,103.8z M166.5,96.1c0.8,0,1.6,0.1,2.3,0.4c0.7,0.3,1.3,0.6,1.8,1.1c0.5,0.5,0.9,1,1.2,1.7
			c0.3,0.7,0.4,1.4,0.4,2.2c0,0.8-0.1,1.5-0.4,2.2c-0.3,0.7-0.7,1.2-1.2,1.7c-0.5,0.5-1.1,0.8-1.8,1.1c-0.7,0.3-1.5,0.4-2.3,0.4
			h-3.3v6.5h-3.4V96.1H166.5L166.5,96.1z M183.8,104.4c0-0.7,0-1.3,0-1.8c0-0.5-0.1-0.9-0.1-1.2c-0.1-0.3-0.2-0.6-0.3-0.8
			c-0.1-0.2-0.3-0.4-0.4-0.6c-0.5-0.6-1.2-0.9-2.2-0.9c-0.4,0-0.8,0.1-1.2,0.2c-0.4,0.2-0.7,0.4-1,0.7c-0.4,0.4-0.6,1-0.7,1.8
			c-0.1,0.8-0.1,1.7-0.1,2.8c0,0.5,0,1.1,0,1.6c0,0.5,0,1,0.1,1.4c0,0.4,0.1,0.8,0.2,1.2c0.1,0.4,0.3,0.7,0.5,0.9
			c0.6,0.6,1.3,0.9,2.2,0.9c0.9,0,1.6-0.3,2.2-0.9c0.2-0.2,0.3-0.4,0.4-0.6c0.1-0.2,0.2-0.5,0.3-0.9c0.1-0.4,0.1-0.9,0.1-1.4
			C183.7,106,183.8,105.3,183.8,104.4L183.8,104.4z M187.1,104.7c0,0.6,0,1.2,0,1.8c0,0.6-0.1,1.2-0.2,1.8c-0.1,0.6-0.3,1.2-0.5,1.7
			c-0.2,0.5-0.6,1.1-1,1.5c-1.2,1.3-2.8,1.9-4.6,1.9c-1.9,0-3.4-0.6-4.7-1.9c-0.5-0.5-0.8-1-1-1.5c-0.2-0.6-0.4-1.1-0.5-1.7
			c-0.1-0.6-0.1-1.2-0.2-1.8c0-0.6,0-1.1,0-1.6V104c0-0.9,0-1.6,0.1-2.2c0-0.6,0.1-1.2,0.3-1.6c0.1-0.5,0.3-0.9,0.5-1.3
			c0.2-0.4,0.5-0.7,0.8-1.1c1.2-1.3,2.8-1.9,4.7-1.9c1.9,0,3.4,0.6,4.6,1.9c0.6,0.6,1,1.4,1.3,2.2c0.3,0.9,0.4,2,0.4,3.4V104.7
			L187.1,104.7z M199.7,99.1H196v0.6c0,1.3,0,2.4-0.1,3.4c-0.1,1-0.2,1.9-0.4,2.7c-0.2,0.8-0.3,1.6-0.6,2.3
			c-0.2,0.7-0.5,1.5-0.7,2.2h5.5V99.1L199.7,99.1z M201.8,117.2v-3.8h-9.5v3.8H189v-6.8h1.7c0.3-0.9,0.6-1.7,0.9-2.6
			c0.2-0.9,0.5-1.9,0.6-2.9c0.2-1,0.3-2.2,0.4-3.5c0.1-1.3,0.1-2.8,0.1-4.4v-0.8h10.3v14.2h2v6.8H201.8L201.8,117.2z M213.5,101.2
			l-2.2,6.3h4.3L213.5,101.2L213.5,101.2z M217.5,113.3l-1-3h-6.1l-1,3h-3.5l6.3-17.2h2.6l6.3,17.2H217.5L217.5,113.3z M241,113.3
			v-10l-3.3,6.5h-2.3l-3.3-6.5v10h-3.4V96.1h3.3l4.5,9.3l4.5-9.3h3.3v17.2H241L241,113.3z M257.1,104.4c0-0.7,0-1.3,0-1.8
			c0-0.5-0.1-0.9-0.1-1.2c-0.1-0.3-0.2-0.6-0.3-0.8c-0.1-0.2-0.2-0.4-0.4-0.6c-0.5-0.6-1.2-0.9-2.2-0.9c-0.4,0-0.8,0.1-1.2,0.2
			c-0.4,0.2-0.7,0.4-1,0.7c-0.4,0.4-0.6,1-0.7,1.8c-0.1,0.8-0.1,1.7-0.1,2.8c0,0.5,0,1.1,0,1.6c0,0.5,0,1,0.1,1.4
			c0,0.4,0.1,0.8,0.2,1.2c0.1,0.4,0.3,0.7,0.5,0.9c0.6,0.6,1.3,0.9,2.2,0.9c0.9,0,1.6-0.3,2.2-0.9c0.2-0.2,0.3-0.4,0.4-0.6
			c0.1-0.2,0.2-0.5,0.3-0.9c0.1-0.4,0.1-0.9,0.1-1.4C257.1,106,257.1,105.3,257.1,104.4L257.1,104.4z M260.5,104.7
			c0,0.6,0,1.2,0,1.8c0,0.6-0.1,1.2-0.2,1.8c-0.1,0.6-0.3,1.2-0.5,1.7c-0.2,0.5-0.6,1.1-1,1.5c-1.2,1.3-2.8,1.9-4.6,1.9
			c-1.9,0-3.4-0.6-4.7-1.9c-0.5-0.5-0.8-1-1-1.5c-0.2-0.6-0.4-1.1-0.5-1.7c-0.1-0.6-0.1-1.2-0.2-1.8c0-0.6,0-1.1,0-1.6V104
			c0-0.9,0-1.6,0.1-2.2c0-0.6,0.1-1.2,0.3-1.6c0.1-0.5,0.3-0.9,0.5-1.3c0.2-0.4,0.5-0.7,0.8-1.1c1.2-1.3,2.8-1.9,4.7-1.9
			c1.9,0,3.4,0.6,4.6,1.9c0.6,0.6,1,1.4,1.3,2.2c0.3,0.9,0.4,2,0.4,3.4V104.7L260.5,104.7z M274.5,111.5c-0.2,0.2-0.5,0.4-0.6,0.6
			c-0.2,0.2-0.4,0.3-0.5,0.4c-0.2,0.1-0.3,0.2-0.5,0.3c-0.2,0.1-0.4,0.2-0.6,0.3c-0.4,0.1-0.8,0.3-1.2,0.3c-0.4,0.1-0.9,0.1-1.3,0.1
			c-1.9,0-3.5-0.6-4.7-1.9c-0.4-0.4-0.7-0.9-1-1.4c-0.2-0.5-0.4-1-0.5-1.6c-0.1-0.6-0.2-1.2-0.2-1.8c0-0.6,0-1.3,0-2.1V104
			c0-0.9,0-1.6,0.1-2.2c0-0.6,0.1-1.2,0.3-1.6c0.1-0.5,0.3-0.9,0.5-1.3c0.2-0.4,0.5-0.7,0.8-1.1c1.2-1.3,2.8-1.9,4.7-1.9
			c1,0,1.8,0.2,2.5,0.5c0.4,0.2,0.8,0.4,1.1,0.6c0.3,0.2,0.7,0.5,1.2,1l-2.2,2.2c-0.5-0.5-0.9-0.8-1.2-1c-0.4-0.2-0.8-0.3-1.3-0.3
			c-0.9,0-1.6,0.3-2.2,0.9c-0.2,0.2-0.4,0.5-0.5,0.9c-0.1,0.3-0.2,0.7-0.3,1.1c-0.1,0.4-0.1,0.8-0.1,1.2c0,0.4,0,0.8,0,1.2v0.9
			c0,0.7,0,1.3,0,1.7c0,0.5,0.1,0.9,0.1,1.2c0.1,0.3,0.1,0.6,0.3,0.8c0.1,0.2,0.2,0.4,0.4,0.6c0.5,0.6,1.2,0.9,2.2,0.9
			c0.5,0,0.9-0.1,1.3-0.3c0.4-0.2,0.8-0.5,1.2-1L274.5,111.5L274.5,111.5z M287.5,113.3l-4.4-7.8l-2.2,2.7v5.2h-3.4V96.1h3.4v7.5
			l6.1-7.5h4.1l-5.7,6.8l6.1,10.4H287.5L287.5,113.3z M300.5,110.4c0.7,0,1.2-0.2,1.6-0.6c0.4-0.4,0.6-0.9,0.6-1.6
			c0-0.7-0.2-1.2-0.6-1.5c-0.4-0.4-1-0.6-1.6-0.6H297v4.2H300.5L300.5,110.4z M300.3,103.1c0.7,0,1.2-0.2,1.6-0.5
			c0.4-0.4,0.6-0.8,0.6-1.5c0-0.6-0.2-1.1-0.6-1.5c-0.4-0.4-0.9-0.5-1.6-0.5H297v4H300.3L300.3,103.1z M303.7,104.5
			c0.3,0.2,0.6,0.3,0.8,0.5c0.2,0.1,0.4,0.3,0.5,0.5c0.4,0.4,0.6,0.8,0.8,1.3c0.2,0.5,0.3,1,0.3,1.6c0,0.8-0.1,1.4-0.4,2
			c-0.2,0.6-0.6,1.1-1.1,1.5c-0.5,0.4-1,0.8-1.7,1c-0.7,0.2-1.4,0.4-2.2,0.4h-7.2V96.1h6.9c0.8,0,1.5,0.1,2.2,0.3
			c0.7,0.2,1.2,0.5,1.7,1c0.5,0.4,0.8,0.9,1.1,1.5c0.2,0.6,0.4,1.2,0.4,2C305.8,102.5,305.1,103.7,303.7,104.5L303.7,104.5z
			 M318.5,108c0-0.7-0.2-1.3-0.7-1.7c-0.4-0.4-1.1-0.7-1.8-0.7h-3.1v4.7h3.1c0.8,0,1.4-0.2,1.8-0.6
			C318.3,109.3,318.5,108.7,318.5,108L318.5,108z M321.9,108c0,0.8-0.1,1.5-0.4,2.2c-0.3,0.7-0.6,1.2-1.1,1.7
			c-0.5,0.5-1.1,0.8-1.8,1.1c-0.7,0.3-1.4,0.4-2.3,0.4h-6.8V96.1h3.4v6.5h3.4c0.8,0,1.6,0.1,2.3,0.4c0.7,0.3,1.3,0.6,1.8,1.1
			c0.5,0.5,0.9,1,1.1,1.7C321.7,106.5,321.9,107.2,321.9,108L321.9,108z M323.7,113.3V96.1h3.4v17.2H323.7z"/>
	</g>
</g>
</svg>
