<svg width="220" height="220" viewBox="0 0 220 220" fill="none" xmlns="http://www.w3.org/2000/svg">
<path fill-rule="evenodd" clip-rule="evenodd" d="M49.3204 125.967V98.9863H44.6875L64.3093 77.4562L68.1251 81.4536V125.694H49.3204V125.967ZM54.2259 98.7137H59.511V107.85H54.2259V98.7137Z" fill="#1EA190"/>
<path fill-rule="evenodd" clip-rule="evenodd" d="M102.464 74.4179V125.695H72.2138V74.1868H67.5809L87.2027 52.6567L108.153 74.4179H102.464ZM90.3662 96.262H95.6507V105.398H90.3662V96.262ZM77.3919 86.9963H82.677V96.1319H77.3919V86.9963ZM90.3662 75.5497H95.6507V84.6861H90.3662V75.5497Z" fill="#1EA190"/>
<path fill-rule="evenodd" clip-rule="evenodd" d="M124.539 50.7488L124.267 125.695H106.552V78.5053H112.069H117.741L94.2881 54.0349V50.7488H89.6545L109.277 29.2188L129.99 50.7488H124.539ZM103.265 51.8399H108.549V60.9764H103.265V51.8399ZM113.365 85.3595H118.65V94.496H113.365V85.3595Z" fill="#1EA190"/>
<path fill-rule="evenodd" clip-rule="evenodd" d="M150.702 74.459L131.079 52.9289L128.354 55.8147V125.695H145.796V74.459H150.702ZM133.97 80.1816H139.255V89.3179H133.97V80.1816ZM133.97 97.8966H139.255V107.033H133.97V97.8966Z" fill="#1EA190"/>
<path fill-rule="evenodd" clip-rule="evenodd" d="M168.961 125.967V98.9863H173.594L153.972 77.4562L149.885 81.7374V125.694H168.961V125.967ZM160.24 99.5308H165.525V108.667H160.24V99.5308ZM152.257 109.2H157.541V118.336H152.257V109.2Z" fill="#1EA190"/>
<path fill-rule="evenodd" clip-rule="evenodd" d="M50.7146 152.131H54.0184V149.252L55.2358 147.897L58.1917 152.131H62.0173L57.496 145.694L62.0173 140.782H58.1917L54.1923 145.356V140.782H50.8886V152.131H50.7146ZM69.3199 152.301C72.9716 152.301 75.5796 149.59 75.5796 146.372C75.5796 142.984 72.9716 140.444 69.3199 140.444C65.6679 140.444 63.0604 143.153 63.0604 146.372C63.0604 149.59 65.8427 152.301 69.3199 152.301ZM69.3199 149.421C67.5807 149.421 66.364 148.066 66.364 146.372C66.364 144.678 67.5807 143.323 69.3199 143.323C71.0593 143.323 72.2753 144.678 72.2753 146.372C72.4498 148.066 71.2322 149.421 69.3199 149.421ZM78.0132 152.131H84.1003C86.8818 152.131 88.621 150.945 88.621 148.913C88.621 147.388 87.7518 146.542 86.3599 146.033C87.4031 145.525 88.0992 144.847 88.0992 143.492C88.0992 142.645 87.7518 142.137 87.4031 141.629C86.7087 140.952 85.6656 140.613 84.2737 140.613H78.0132V152.131ZM81.1434 149.59V147.558H83.5785C84.6216 147.558 85.1434 147.897 85.1434 148.574C85.1434 149.252 84.6216 149.59 83.5785 149.59H81.1434ZM81.1434 145.186V143.153H83.2296C84.2737 143.153 84.6216 143.492 84.6216 144.17C84.6216 144.847 84.1003 145.186 83.0572 145.186H81.1434ZM96.2716 152.301C99.9231 152.301 102.531 149.59 102.531 146.372C102.531 142.984 99.9231 140.444 96.2716 140.444C92.6195 140.444 90.0116 143.153 90.0116 146.372C90.0116 149.59 92.7944 152.301 96.2716 152.301ZM96.4456 149.421C94.7067 149.421 93.4902 148.066 93.4902 146.372C93.4902 144.678 94.7067 143.323 96.4456 143.323C98.1839 143.323 99.401 144.678 99.401 146.372C99.401 148.066 98.1839 149.421 96.4456 149.421ZM104.965 152.131H108.269V148.913H109.834C112.79 148.913 114.876 147.558 114.876 144.847C114.876 142.307 112.964 140.782 110.009 140.782H104.965V152.131ZM108.095 146.372V143.323H109.66C110.878 143.323 111.573 143.831 111.573 144.847C111.573 145.694 110.878 146.372 109.66 146.372H108.095ZM116.79 152.131H120.093V149.252L121.311 147.897L124.266 152.131H128.092L123.571 145.694L128.092 140.782H124.266L120.267 145.356V140.782H116.963V152.131H116.79ZM129.483 152.131H132.438L136.96 145.694V152.131H140.09V140.782H137.133L132.612 147.219V140.782H129.483V152.131ZM142.871 152.131H146.175V147.727H150.349V152.131H153.653V140.782H150.349V145.017H146.175V140.782H142.871V152.131ZM156.087 152.131H159.39V143.492H164.606V140.782H156.261V152.131H156.087ZM165.998 148.235H173.473V145.525H165.998V148.235ZM62.1907 172.796L62.5386 167.715H61.1476V159.076H57.8438V167.715H53.8448V159.076H50.5412V170.425H59.2348V172.796H62.1907ZM64.1035 170.594H73.6673V167.884H67.4076V166.021H72.9716V163.48H67.4076V161.786H73.6673V159.076H64.1035V170.594ZM79.2311 170.594V166.19H83.4046V170.594H86.7087V159.245H83.2296V163.48H79.0571V159.245H75.7539V170.594H79.2311ZM95.4025 170.594V161.956H98.8797V159.245H88.4462V161.956H91.9253V170.594H95.4025ZM100.792 170.594H104.096V167.376H105.661C108.617 167.376 110.703 166.021 110.703 163.311C110.703 160.77 108.791 159.245 105.835 159.245H100.792V170.594ZM104.096 164.835V161.786H105.661C106.879 161.786 107.573 162.295 107.573 163.311C107.573 164.158 106.879 164.835 105.661 164.835H104.096ZM50.7146 188.887H54.0184V184.484H58.1917V188.887H61.4955V177.538H58.1917V181.773H54.0184V177.538H50.7146V188.887ZM63.9296 188.887H67.2332V186.008L68.4507 184.654L71.4067 188.887H75.2326L70.7104 182.45L75.2326 177.538H71.4067L67.4076 182.114V177.538H64.1035V188.887H63.9296ZM82.7083 189.228C86.3599 189.228 88.9685 186.517 88.9685 183.298C88.9685 179.91 86.3599 177.37 82.7083 177.37C79.0572 177.37 76.4488 180.08 76.4488 183.298C76.4488 186.517 79.0572 189.228 82.7083 189.228ZM82.7083 186.347C80.9705 186.347 79.7529 184.993 79.7529 183.298C79.7529 181.605 80.9705 180.249 82.7083 180.249C84.4477 180.249 85.6656 181.605 85.6656 183.298C85.6656 184.993 84.4477 186.347 82.7083 186.347Z" fill="#1EA190"/>
</svg>
