<svg width="116" height="146" viewBox="0 0 116 146" fill="none" xmlns="http://www.w3.org/2000/svg">
<g id="koworkingcenter" clip-path="url(#clip0_106824_2763)">
<path id="Vector" fill-rule="evenodd" clip-rule="evenodd" d="M4.16904 87.4189V63.0543H0L17.6572 43.6118L21.091 47.2217V87.1728H4.16904V87.4189ZM8.58338 62.8081H13.3394V71.0586H8.58338V62.8081Z" fill="#1EA190"/>
<path id="Vector_2" fill-rule="evenodd" clip-rule="evenodd" d="M51.9922 40.868V87.1735H24.7704V40.6593H20.6013L38.2585 21.2168L57.1112 40.868H51.9922ZM41.1053 60.5941H45.8607V68.8445H41.1053V60.5941ZM29.43 52.2267H34.186V60.4766H29.43V52.2267ZM41.1053 41.8901H45.8607V50.1406H41.1053V41.8901Z" fill="#1EA190"/>
<path id="Vector_3" fill-rule="evenodd" clip-rule="evenodd" d="M71.8563 19.4942L71.6116 87.1735H55.6703V44.5593H60.6351H65.7394L44.6345 22.4617V19.4942H40.4648L58.1227 0.0517578L76.7619 19.4942H71.8563ZM52.7126 20.4795H57.468V28.7301H52.7126V20.4795ZM61.8011 50.7489H66.5571V58.9995H61.8011V50.7489Z" fill="#1EA190"/>
<path id="Vector_4" fill-rule="evenodd" clip-rule="evenodd" d="M95.4002 40.9054L77.7423 21.4629L75.2898 24.0689V87.1735H90.9858V40.9054H95.4002ZM80.3437 46.0731H85.0997V54.3235H80.3437V46.0731ZM80.3437 62.0703H85.0997V70.321H80.3437V62.0703Z" fill="#1EA190"/>
<path id="Vector_5" fill-rule="evenodd" clip-rule="evenodd" d="M111.831 87.4189V63.0543H116L98.3428 43.6118L94.6646 47.4779V87.1728H111.831V87.4189ZM103.983 63.546H108.739V71.7965H103.983V63.546ZM96.7993 72.2775H101.554V80.5281H96.7993V72.2775Z" fill="#1EA190"/>
<path id="Vector_6" fill-rule="evenodd" clip-rule="evenodd" d="M5.42364 111.046H8.39664V108.445L9.49214 107.222L12.1521 111.046H15.5947L11.526 105.233L15.5947 100.797H12.1521L8.55316 104.927V100.797H5.58016V111.046H5.42364ZM22.1662 111.199C25.4522 111.199 27.7991 108.751 27.7991 105.845C27.7991 102.786 25.4522 100.492 22.1662 100.492C18.8798 100.492 16.5333 102.938 16.5333 105.845C16.5333 108.751 19.0371 111.199 22.1662 111.199ZM22.1662 108.598C20.6011 108.598 19.5062 107.374 19.5062 105.845C19.5062 104.316 20.6011 103.092 22.1662 103.092C23.7314 103.092 24.8256 104.316 24.8256 105.845C24.9826 107.374 23.887 108.598 22.1662 108.598ZM29.989 111.046H35.4667C37.9697 111.046 39.5348 109.975 39.5348 108.139C39.5348 106.763 38.7526 105.998 37.5001 105.539C38.4388 105.08 39.0652 104.468 39.0652 103.244C39.0652 102.479 38.7526 102.021 38.4388 101.562C37.8139 100.95 36.8753 100.644 35.6228 100.644H29.989V111.046ZM32.8058 108.751V106.916H34.9971C35.9358 106.916 36.4054 107.222 36.4054 107.833C36.4054 108.445 35.9358 108.751 34.9971 108.751H32.8058ZM32.8058 104.774V102.938H34.6832C35.6228 102.938 35.9358 103.244 35.9358 103.856C35.9358 104.468 35.4667 104.774 34.528 104.774H32.8058ZM46.4194 111.199C49.7053 111.199 52.0522 108.751 52.0522 105.845C52.0522 102.786 49.7053 100.492 46.4194 100.492C43.1329 100.492 40.7862 102.938 40.7862 105.845C40.7862 108.751 43.2904 111.199 46.4194 111.199ZM46.576 108.598C45.0112 108.598 43.9165 107.374 43.9165 105.845C43.9165 104.316 45.0112 103.092 46.576 103.092C48.1403 103.092 49.2355 104.316 49.2355 105.845C49.2355 107.374 48.1403 108.598 46.576 108.598ZM54.2422 111.046H57.2156V108.139H58.6239C61.2838 108.139 63.1615 106.916 63.1615 104.468C63.1615 102.174 61.4407 100.797 58.7812 100.797H54.2422V111.046ZM57.0591 105.845V103.092H58.4674C59.563 103.092 60.1889 103.551 60.1889 104.468C60.1889 105.233 59.563 105.845 58.4674 105.845H57.0591ZM64.8837 111.046H67.8558V108.445L68.9517 107.222L71.6112 111.046H75.0538L70.9856 105.233L75.0538 100.797H71.6112L68.0123 104.927V100.797H65.0388V111.046H64.8837ZM76.3055 111.046H78.965L83.0344 105.233V111.046H85.8505V100.797H83.1897L79.1215 106.61V100.797H76.3055V111.046ZM88.3534 111.046H91.3268V107.068H95.0824V111.046H98.0557V100.797H95.0824V104.621H91.3268V100.797H88.3534V111.046ZM100.246 111.046H103.218V103.244H107.912V100.797H100.403V111.046H100.246ZM109.165 107.527H115.892V105.08H109.165V107.527ZM15.7507 129.707L16.0638 125.118H14.8121V117.317H11.8391V125.118H8.24043V117.317H5.26758V127.565H13.0908V129.707H15.7507ZM17.472 127.719H26.0783V125.272H20.4453V123.588H25.4522V121.294H20.4453V119.765H26.0783V117.317H17.472V127.719ZM31.085 127.719V123.741H34.8406V127.719H37.8139V117.47H34.6832V121.294H30.9285V117.47H27.9559V127.719H31.085ZM45.6373 127.719V119.918H48.7663V117.47H39.3775V119.918H42.5082V127.719H45.6373ZM50.4872 127.719H53.4605V124.813H54.8687C57.5287 124.813 59.406 123.588 59.406 121.141C59.406 118.847 57.6852 117.47 55.0257 117.47H50.4872V127.719ZM53.4605 122.518V119.765H54.8687C55.9644 119.765 56.5895 120.224 56.5895 121.141C56.5895 121.906 55.9644 122.518 54.8687 122.518H53.4605ZM5.42364 144.238H8.39664V140.261H12.1521V144.238H15.1251V133.989H12.1521V137.814H8.39664V133.989H5.42364V144.238ZM17.3155 144.238H20.2883V141.638L21.384 140.415L24.044 144.238H27.4868L23.4174 138.425L27.4868 133.989H24.044L20.4453 138.121V133.989H17.472V144.238H17.3155ZM34.2141 144.545C37.5001 144.545 39.8475 142.097 39.8475 139.19C39.8475 136.131 37.5001 133.837 34.2141 133.837C30.9285 133.837 28.5813 136.285 28.5813 139.19C28.5813 142.097 30.9285 144.545 34.2141 144.545ZM34.2141 141.944C32.6502 141.944 31.5546 140.721 31.5546 139.19C31.5546 137.662 32.6502 136.437 34.2141 136.437C35.7793 136.437 36.8753 137.662 36.8753 139.19C36.8753 140.721 35.7793 141.944 34.2141 141.944Z" fill="#1EA190"/>
</g>
<defs>
<clipPath id="clip0_106824_2763">
<rect width="116" height="145.897" fill="white" transform="translate(0 0.0517578)"/>
</clipPath>
</defs>
</svg>
