<?xml version="1.0" encoding="UTF-8"?>
<svg id="_Слой_2" data-name="Слой 2" xmlns="http://www.w3.org/2000/svg" viewBox="0 0 902.33 365.91">
  <defs>
    <style>
      .cls-1 {
        fill: #ef7d3c;
      }

      .cls-2, .cls-3, .cls-4 {
        fill: #fff;
      }

      .cls-5 {
        fill: #6c2382;
      }

      .cls-6 {
        fill: #abc711;
      }

      .cls-3 {
        stroke: #1d1d1b;
        stroke-miterlimit: 10;
        stroke-width: 2px;
      }

      .cls-7 {
        fill: #08b1df;
      }

      .cls-7, .cls-4, .cls-8 {
        fill-rule: evenodd;
      }
    </style>
  </defs>
  <g id="_Слой_1-2" data-name="Слой 1">
    <rect class="cls-3" x="281.18" y="66.41" width="620.15" height="241.85" rx="48.57" ry="48.57"/>
    <g>
      <circle class="cls-2" cx="182.82" cy="180.09" r="179.59"/>
      <g>
        <path class="cls-1" d="M677.81,94.48l-4.5,5.52c-3.17,3.89-5.83,7.97-7.67,11.14l-.41-.1c.2-3.68,.2-7.36,.2-10.94v-5.62h-22.29v71.57h22.29v-7.05c0-4.91,0-10.73-.1-13.5l.41-.1c1.84,3.58,3.68,6.65,7.26,11.86l6.03,8.79h26.79l-26.28-38.85,26.28-32.72h-28.01Zm-56.64,45.39c-2.45,2.86-6.03,5.42-11.55,5.42-7.57,0-13.7-6.54-13.7-14.52s5.52-14.52,14.11-14.52c4.6,0,8.28,1.94,11.14,5.32l12.68-19.22c-6.44-5.62-14.11-8.89-24.33-8.89-20.55,0-36.29,16.46-36.29,37.21s15.74,37.42,36.5,37.42c11.25,0,17.89-3.89,24.23-9.2l-12.78-19.02Zm-105-9.1c0-8.28,6.13-14.52,14.11-14.52s14.21,6.24,14.21,14.52-6.24,14.52-14.21,14.52-14.11-6.24-14.11-14.52Zm-22.7,0c0,20.75,16.05,37.32,36.81,37.32s36.81-16.56,36.81-37.32-16.05-37.32-36.81-37.32-36.81,16.56-36.81,37.32Zm-27.5-36.29l-18.3,25.66h-.41l-18.3-25.66h-18.3v71.57h22.7v-10.53c0-5.62-.2-12.88-.82-17.69l.41-.1c1.53,2.86,4.7,7.67,7.57,11.66l6.44,9.1h1.02l6.65-9.41c2.86-3.99,5.73-8.38,7.36-11.35l.41,.1c-.72,6.13-.82,12.47-.82,18.61v9.61h22.7V94.48h-18.3Z"/>
        <path class="cls-5" d="M748.12,204.7h-1.48c-.38,0-.76,.1-1.14,.28-.38,.18-.71,.43-.99,.74-.28,.31-.53,.69-.74,1.14-.2,.46-.31,.94-.31,1.47,0,1.02,.31,1.88,.94,2.59,.61,.71,1.37,1.07,2.29,1.07h1.43v-7.3Zm10.6,24.94h-10.6v-8.64h-.43l-5.31,8.64h-12.36l7.12-11.52c-1.53-1.12-2.7-2.47-3.46-4.07-.79-1.6-1.17-3.53-1.17-5.8s.46-4.27,1.37-5.9c.92-1.63,2.03-2.95,3.41-3.99,1.35-1.02,2.8-1.75,4.3-2.21,1.53-.46,2.9-.69,4.12-.69h13.04v34.17h-.03Zm-49.09-10.88h4.55l-2.29-6.64-2.26,6.64Zm6.2-23.31l13.2,34.2h-11.14s-1.12-3.23-1.12-3.23h-9.76s-1.12,3.23-1.12,3.23h-10.88s13.04-34.19,13.04-34.19h7.78Zm-34.63,21.66h-5.67v12.56h-10.86v-34.22h10.86v12.56h5.67s0-12.56,0-12.56h10.86s0,34.19,0,34.19h-10.86s0-12.53,0-12.53Zm-49.68,12.53v-6.99c0-.59,0-1.12,.03-1.6,.02-.48,.02-.89,.02-1.22l-.2-.05c-.46,.84-.94,1.7-1.45,2.54-.51,.84-1.17,1.88-2.03,3.13l-2.87,4.2h-12.79s12.56-18.56,12.56-18.56l-12.56-15.64h13.37l2.16,2.64c.74,.94,1.42,1.88,2.06,2.8,.61,.94,1.14,1.78,1.6,2.52l.2-.05c-.08-.89-.1-1.75-.1-2.64v-5.29h10.45v5.29c0,.89-.02,1.75-.1,2.64l.2,.05c.46-.74,.99-1.58,1.6-2.52,.61-.92,1.3-1.86,2.06-2.8l2.16-2.64h13.37s-12.56,15.63-12.56,15.63l12.56,18.56h-12.79l-2.87-4.2c-.84-1.25-1.53-2.29-2.03-3.13-.51-.84-.99-1.7-1.45-2.54l-.2,.05c0,.33,0,.74,.02,1.22,.02,.48,.02,1.02,.02,1.6v6.99h-10.45Zm-40.98-34.2h18.28v9.18h-7.45v3.46h6.94v8.9h-6.94v3.46h7.91v9.18h-18.76v-34.17h.03Zm-21.74,17.64l-2.44,7.27h5.24l-2.8-7.27Zm-16.81,16.55v-9.28h3.51l9.28-24.92h7.73l10.07,24.92h3.56v9.28h-34.15Zm-26.29-16.83c0,.97,.18,1.88,.51,2.75,.33,.84,.81,1.58,1.42,2.19,.61,.61,1.32,1.12,2.16,1.48,.84,.36,1.73,.53,2.67,.53s1.83-.18,2.67-.53c.84-.36,1.55-.84,2.16-1.48,.61-.61,1.09-1.35,1.45-2.19,.36-.84,.53-1.75,.53-2.75s-.18-1.88-.53-2.75c-.36-.84-.84-1.58-1.45-2.19-.61-.61-1.32-1.12-2.16-1.47-.84-.36-1.73-.53-2.67-.53s-1.83,.18-2.67,.53c-.84,.36-1.55,.84-2.16,1.47-.61,.61-1.07,1.35-1.42,2.19-.33,.84-.51,1.75-.51,2.75m-10.83,0c0-2.47,.46-4.81,1.35-6.97,.89-2.16,2.14-4.04,3.71-5.67,1.58-1.6,3.43-2.87,5.59-3.81,2.16-.92,4.48-1.4,6.94-1.4s4.78,.46,6.94,1.4c2.16,.94,4.02,2.21,5.59,3.81s2.82,3.51,3.71,5.67c.89,2.16,1.35,4.48,1.35,6.97s-.46,4.81-1.35,6.97c-.89,2.16-2.14,4.04-3.71,5.67-1.58,1.6-3.43,2.87-5.59,3.81-2.16,.94-4.47,1.4-6.94,1.4s-4.78-.46-6.94-1.4c-2.16-.92-4.02-2.19-5.59-3.81-1.58-1.6-2.82-3.51-3.71-5.67-.91-2.19-1.35-4.5-1.35-6.97m-12.71-17.36l13.2,34.2h-11.24s-6-16.55-6-16.55l-5.95,16.55h-10.93l13.09-34.2h7.83Zm-44.8,17.36c0,.97,.18,1.88,.51,2.75,.33,.84,.81,1.58,1.42,2.19,.61,.61,1.32,1.12,2.16,1.48,.84,.36,1.73,.53,2.67,.53s1.83-.18,2.67-.53c.84-.36,1.55-.84,2.16-1.48,.61-.61,1.09-1.35,1.45-2.19,.36-.84,.53-1.75,.53-2.75s-.18-1.88-.53-2.75c-.36-.84-.84-1.58-1.45-2.19-.61-.61-1.32-1.12-2.16-1.47-.84-.36-1.73-.53-2.67-.53s-1.83,.18-2.67,.53c-.84,.36-1.55,.84-2.16,1.47-.61,.61-1.07,1.35-1.42,2.19-.33,.84-.51,1.75-.51,2.75m-10.83,0c0-2.47,.46-4.81,1.35-6.97,.89-2.16,2.14-4.04,3.71-5.67,1.58-1.6,3.43-2.87,5.59-3.81,2.14-.92,4.45-1.4,6.94-1.4s4.78,.46,6.94,1.4c2.16,.94,4.02,2.21,5.59,3.81,1.58,1.6,2.82,3.51,3.71,5.67,.89,2.16,1.35,4.48,1.35,6.97s-.46,4.81-1.35,6.97c-.89,2.16-2.14,4.04-3.71,5.67-1.58,1.6-3.43,2.87-5.59,3.81-2.16,.94-4.48,1.4-6.94,1.4s-4.78-.46-6.94-1.4c-2.16-.92-4.02-2.19-5.59-3.81-1.58-1.6-2.82-3.51-3.71-5.67-.91-2.19-1.35-4.5-1.35-6.97m-3.92-17.36v34.2h-10.86s0-4.6,0-4.6c0-1.47,.03-2.95,.08-4.45,.05-1.5,.15-2.97,.33-4.45l-.2-.05c-.38,.71-.92,1.55-1.53,2.54-.64,.97-1.3,1.93-1.98,2.87l-3.18,4.5h-.48s-3.08-4.35-3.08-4.35c-.69-.94-1.37-1.93-2.06-2.97-.69-1.04-1.2-1.91-1.55-2.59l-.2,.05c.13,1.14,.23,2.49,.31,4.07,.08,1.58,.1,3.03,.1,4.37v5.03h-10.86v-34.17h8.75l8.75,12.25h.2l8.75-12.25h8.72Zm148.07-8.94h8.24v5.87h-8.24v-5.87Zm10.18,0h8.24v5.87h-8.24v-5.87Z"/>
        <path class="cls-6" d="M829.35,268.01l-8.54,12.79h-7.96v-34.2h10.86s0,12.79,0,12.79l8.54-12.79h7.96v34.2h-10.86s0-12.79,0-12.79Zm-32.72,0l-8.54,12.79h-7.96v-34.2h10.86s0,12.79,0,12.79l8.54-12.79h7.96v34.2h-10.86s0-12.79,0-12.79Zm-20.42,9.38c-.74,.66-1.53,1.25-2.31,1.78-.79,.53-1.65,.99-2.59,1.4-.94,.38-1.93,.69-3.03,.92-1.09,.2-2.31,.33-3.64,.33-2.47,0-4.78-.46-6.92-1.4-2.14-.94-3.99-2.19-5.54-3.81-1.58-1.6-2.8-3.51-3.66-5.7-.89-2.19-1.32-4.5-1.32-6.99s.43-4.81,1.32-6.97c.89-2.16,2.11-4.04,3.66-5.64,1.55-1.6,3.41-2.85,5.52-3.79,2.11-.92,4.4-1.4,6.84-1.4s4.6,.36,6.48,1.09c1.88,.74,3.59,1.78,5.16,3.15l-6.05,9.18c-.69-.81-1.48-1.45-2.34-1.88-.89-.43-1.88-.66-2.98-.66s-1.98,.18-2.8,.53c-.84,.36-1.55,.86-2.14,1.5-.59,.63-1.04,1.37-1.35,2.21-.3,.84-.46,1.75-.46,2.7s.18,1.83,.51,2.7c.33,.84,.81,1.58,1.4,2.21,.59,.64,1.27,1.14,2.09,1.5,.79,.36,1.65,.53,2.57,.53,1.32,0,2.44-.25,3.33-.79,.89-.51,1.6-1.12,2.19-1.81l6.05,9.1Zm-29.03,0c-.74,.66-1.53,1.25-2.31,1.78-.79,.53-1.65,.99-2.59,1.4-.94,.38-1.93,.69-3.03,.92-1.09,.2-2.31,.33-3.64,.33-2.47,0-4.78-.46-6.92-1.4-2.14-.94-3.99-2.19-5.54-3.81-1.55-1.6-2.8-3.51-3.66-5.7-.89-2.19-1.32-4.5-1.32-6.99s.43-4.81,1.32-6.97c.89-2.16,2.11-4.04,3.66-5.64,1.55-1.6,3.41-2.85,5.52-3.79,2.11-.92,4.4-1.4,6.84-1.4s4.6,.36,6.48,1.09c1.88,.74,3.59,1.78,5.16,3.15l-6.05,9.18c-.69-.81-1.47-1.45-2.34-1.88-.89-.43-1.88-.66-2.97-.66s-1.98,.18-2.8,.53c-.84,.36-1.53,.86-2.14,1.5-.59,.63-1.04,1.37-1.35,2.21-.3,.84-.46,1.75-.46,2.7s.18,1.83,.51,2.7c.33,.84,.81,1.58,1.4,2.21,.59,.64,1.27,1.14,2.09,1.5,.79,.36,1.65,.53,2.57,.53,1.35,0,2.44-.25,3.33-.79,.89-.51,1.6-1.12,2.21-1.81l6.03,9.1Zm-55.78-13.45c0,.97,.18,1.88,.51,2.75,.33,.84,.81,1.58,1.42,2.19,.61,.61,1.32,1.12,2.16,1.48,.84,.36,1.73,.53,2.67,.53s1.83-.18,2.67-.53c.84-.36,1.55-.84,2.16-1.48,.61-.61,1.09-1.35,1.45-2.19,.36-.84,.53-1.75,.53-2.75s-.18-1.88-.53-2.75c-.36-.84-.84-1.58-1.45-2.19-.61-.61-1.32-1.12-2.16-1.48-.84-.36-1.73-.53-2.67-.53s-1.83,.18-2.67,.53c-.84,.36-1.55,.84-2.16,1.48-.61,.61-1.07,1.35-1.42,2.19-.33,.86-.51,1.78-.51,2.75m-10.83,0c0-2.47,.46-4.81,1.35-6.97,.89-2.16,2.14-4.04,3.71-5.67,1.58-1.6,3.43-2.87,5.59-3.81,2.14-.92,4.45-1.4,6.94-1.4s4.78,.46,6.94,1.4c2.16,.94,4.02,2.19,5.59,3.81,1.58,1.6,2.82,3.51,3.71,5.67,.89,2.16,1.35,4.48,1.35,6.97s-.46,4.81-1.35,6.97c-.89,2.16-2.14,4.04-3.71,5.67-1.58,1.6-3.43,2.87-5.59,3.81-2.14,.94-4.45,1.4-6.94,1.4s-4.78-.46-6.94-1.4c-2.16-.94-4.02-2.19-5.59-3.81-1.58-1.6-2.82-3.51-3.71-5.67-.91-2.16-1.35-4.5-1.35-6.97m-17.85-.84h1.17c.92,0,1.68-.36,2.29-1.07,.61-.71,.94-1.58,.94-2.59,0-.51-.1-1.02-.28-1.48-.2-.46-.43-.84-.74-1.14-.31-.31-.64-.56-.99-.74-.38-.18-.76-.28-1.14-.28h-1.22l-.02,7.3Zm-10.83-16.5h12.15c1.48,0,3.03,.23,4.68,.69,1.65,.46,3.18,1.2,4.58,2.21,1.4,1.02,2.57,2.36,3.46,3.99,.92,1.63,1.37,3.61,1.37,5.9s-.38,4.22-1.17,5.87c-.79,1.63-1.86,2.98-3.23,4.02-1.37,1.04-3,1.81-4.86,2.29-1.88,.48-3.92,.74-6.13,.74v8.49h-10.86s0-34.19,0-34.19Zm-36.48,23.31h4.55l-2.29-6.64-2.26,6.64Zm6.2-23.31l13.2,34.2h-11.14s-1.12-3.23-1.12-3.23h-9.76l-1.12,3.23h-10.88l13.04-34.2s7.78,0,7.78,0Zm-42.89,24.92h5.67v-24.92h10.83s0,24.91,0,24.91h3.56v9.28h-30.92v-34.2h10.86s0,24.92,0,24.92Zm-27.08-3.51l-8.54,12.79h-7.96v-34.2h10.86s0,12.79,0,12.79l8.54-12.79h7.96v34.2h-10.86s0-12.79,0-12.79Zm-32.62-21.41l13.2,34.2h-11.24s-6-16.55-6-16.55l-5.95,16.55h-10.93l13.09-34.2s7.83,0,7.83,0Zm-44.8,17.34c0,.97,.18,1.88,.51,2.75,.33,.84,.81,1.58,1.42,2.19,.61,.61,1.32,1.12,2.16,1.48,.84,.36,1.73,.53,2.67,.53s1.83-.18,2.67-.53c.84-.36,1.55-.84,2.16-1.48,.61-.61,1.09-1.35,1.45-2.19,.36-.84,.53-1.75,.53-2.75s-.18-1.88-.53-2.75c-.36-.84-.84-1.58-1.45-2.19-.61-.61-1.32-1.12-2.16-1.48-.84-.36-1.73-.53-2.67-.53s-1.83,.18-2.67,.53c-.84,.36-1.55,.84-2.16,1.48-.61,.61-1.07,1.35-1.42,2.19-.33,.86-.51,1.78-.51,2.75m-10.83,0c0-2.47,.46-4.81,1.35-6.97,.89-2.16,2.14-4.04,3.71-5.67,1.58-1.6,3.43-2.87,5.59-3.81,2.16-.92,4.47-1.4,6.94-1.4s4.78,.46,6.94,1.4c2.16,.94,4.02,2.19,5.59,3.81,1.58,1.6,2.82,3.51,3.71,5.67,.89,2.16,1.35,4.48,1.35,6.97s-.46,4.81-1.35,6.97c-.89,2.16-2.14,4.04-3.71,5.67-1.58,1.6-3.43,2.87-5.59,3.81-2.16,.94-4.48,1.4-6.94,1.4s-4.78-.46-6.94-1.4c-2.16-.94-4.02-2.19-5.59-3.81-1.58-1.6-2.82-3.51-3.71-5.67-.92-2.16-1.35-4.5-1.35-6.97m-25.96-17.34h24.71v9.28h-6.94v24.92h-10.86v-24.92h-6.94l.03-9.28Zm-2.44,30.79c-.74,.66-1.53,1.25-2.31,1.78-.79,.53-1.65,.99-2.59,1.4-.92,.38-1.93,.69-3.03,.92-1.09,.2-2.31,.33-3.64,.33-2.47,0-4.78-.46-6.92-1.4-2.14-.94-3.99-2.19-5.54-3.81-1.55-1.6-2.8-3.51-3.66-5.7-.89-2.19-1.32-4.5-1.32-6.99s.43-4.81,1.32-6.97c.89-2.16,2.11-4.04,3.66-5.64,1.55-1.6,3.41-2.85,5.52-3.79,2.11-.92,4.4-1.4,6.84-1.4s4.6,.36,6.48,1.09c1.88,.74,3.58,1.78,5.16,3.15l-6.05,9.18c-.69-.81-1.48-1.45-2.34-1.88-.89-.43-1.88-.66-2.98-.66s-1.98,.18-2.8,.53c-.84,.36-1.53,.86-2.14,1.5-.59,.63-1.04,1.37-1.35,2.21-.3,.84-.46,1.75-.46,2.7s.18,1.83,.51,2.7c.33,.84,.81,1.58,1.4,2.21,.58,.64,1.27,1.14,2.09,1.5,.79,.36,1.65,.53,2.57,.53,1.32,0,2.44-.25,3.33-.79,.89-.51,1.6-1.12,2.19-1.81l6.05,9.1Z"/>
        <path class="cls-1" d="M735.99,112.07h2.76c2.25,0,5.32,1.33,5.32,4.7,0,2.96-2.45,4.91-5.21,4.91h-2.86v-9.61Zm0,24.84h2.76c3.37,0,7.05,1.94,7.05,6.03s-3.78,5.83-6.95,5.83h-2.86v-11.86Zm-21.98,29.14h32.51c9.2,0,21.67-6.75,21.67-21.98,0-10.63-4.91-14.11-8.59-16.15v-.41c2.35-1.74,5.62-5.01,5.62-12.88,0-13.09-9.71-20.14-28.73-20.14h-22.49v71.57Z"/>
        <path class="cls-1" d="M805.63,129.34l4.81,13.9h-9.51l4.7-13.9Zm-8.08-34.86l-27.3,71.57h22.8l2.35-6.75h20.45l2.35,6.75h23.31l-27.6-71.57h-16.36Z"/>
      </g>
    </g>
    <path class="cls-4" d="M181.35,272.19c6.38,0,9.74-.81,9.74-4.83,0-5.21-6-6.41-9.69-6.41l-.05,11.24Zm106.15-193.78c-26.75-26.75-63.71-43.3-104.55-43.3s-77.8,16.55-104.55,43.3c-26.75,26.75-43.3,63.71-43.3,104.54s16.55,77.8,43.3,104.55c21.61,21.61,49.91,36.56,81.49,41.52l7.42-46.96h19.68c12.1,0,17.62-6.3,17.62-14.41,0-3.38-.92-6.71-3.25-9.48,26.19-6.92,46.98-27.03,54.81-52.73l24.86-.05c-.13-4.3-.18-7.78-.18-10.91l-20.8-.08,.05-4.53,18.03-.31v-10.3l-18.03,.05v-4.17l20.77-.05v-9.79l47.62-8.57,.02,.1c-5.44-30.36-20.11-57.51-41.03-78.43Zm-122.95,251.27c-.31-.03-.61-.08-.92-.13,.31,.05,.61,.08,.92,.13Zm-1.83-.25c-.33-.05-.66-.1-.97-.13,.3,.05,.64,.08,.97,.13ZM212.85,5.85h0c37.63,6.31,71.26,24.31,97.1,50.11,24.99,24.99,42.66,57.33,49.48,93.51l-12.51,2.26c-6.53-34.3-23.39-64.76-47.21-88.07-23.8-23.29-54.56-39.48-88.93-45.28l-.56,3.31c2.52,.43,5.03,.92,7.5,1.45,30.64,6.66,58.04,21.81,79.63,42.92,23.36,22.86,39.87,52.68,46.27,86.26l-12.15,2.19c-5.77-30.36-20.62-57.48-41.62-78.46-21.74-21.74-50.03-36.87-81.69-42.18v-.02l-3.31-.51c-7.14-1.04-14.47-1.58-21.92-1.58-41.75,0-79.55,16.93-106.91,44.29-27.36,27.35-44.26,65.16-44.26,106.91,0,8.57,.71,16.98,2.09,25.17h0l.59,3.28c5.77,30.36,20.62,57.48,41.62,78.46,21.74,21.74,50.06,36.89,81.69,42.2l-1.93,12.2c-33.71-5.67-63.89-21.53-87.26-44.39-22.86-22.37-39.15-51.41-45.87-84.1-.15-.71-.28-1.45-.43-2.16l-3.28,.59c6.53,34.3,23.39,64.76,47.21,88.07,23.85,23.31,54.64,39.51,89.09,45.31l-1.98,12.53c-37.7-6.25-71.47-24.28-97.35-50.16-24.99-24.99-42.66-57.33-49.48-93.51l-.59-3.28c-1.65-9.81-2.54-19.91-2.54-30.2,0-49.6,20.11-94.5,52.6-126.99,2.97-3,6.08-5.87,9.28-8.64l.13-.1,.03-.02,.15-.13,.15-.13,.02-.03,.13-.1c.38-.33,.74-.64,1.12-.94,.48-.41,.99-.81,1.48-1.25,.56-.46,1.12-.94,1.7-1.4,1.45-1.17,2.92-2.31,4.4-3.43l.02-.02,.46-.36C105.05,16.78,142.42,3.36,182.92,3.36c8.95,0,17.75,.66,26.34,1.93l3.31,.51,.18,.03,.1,.02Zm-51.92,323.32c-.33-.05-.66-.1-.99-.15,.33,.05,.66,.1,.99,.15Z"/>
    <path class="cls-7" d="M280.86,165.31l47.62-8.57c1.53,8.52,2.31,17.26,2.31,26.21,0,40.83-16.55,77.8-43.3,104.55-26.75,26.75-63.71,43.3-104.55,43.3-7.83,0-15.53-.61-23.06-1.78l7.4-46.96h19.68c12.1,0,17.62-6.31,17.62-14.42,0-3.38-.92-6.71-3.25-9.48,26.19-6.92,46.98-27.03,54.81-52.73l24.86-.05c-.13-4.3-.18-7.78-.18-10.91l-20.8-.08,.05-4.53,18.03-.31v-10.3l-18.03,.05v-4.17l20.77-.05v-9.79Zm-99.51,106.88l.05-11.21c3.69,0,9.69,1.2,9.69,6.41-.03,4.02-3.36,4.8-9.74,4.8Zm178.66-119.44l-27.94,5.03c1.37,8.19,2.09,16.6,2.09,25.17,0,41.75-16.93,79.55-44.29,106.91-27.36,27.36-65.16,44.29-106.91,44.29-7.45,0-14.77-.53-21.92-1.58l-4.42,28.04c8.59,1.27,17.39,1.93,26.34,1.93,49.6,0,94.5-20.11,126.99-52.6,32.49-32.49,52.6-77.39,52.6-126.99,0-10.3-.86-20.39-2.54-30.21Z"/>
    <path class="cls-8" d="M218.01,350.07c1.68,1.04,3.51,1.35,5.54,.92,2.01-.43,3.56-1.45,4.65-3.1,1.09-1.63,1.45-3.41,1.04-5.29-.41-1.88-1.45-3.36-3.13-4.4-1.68-1.04-3.51-1.35-5.52-.92-2.01,.43-3.56,1.45-4.68,3.1-1.09,1.63-1.45,3.38-1.04,5.29,.41,1.88,1.45,3.36,3.13,4.4m-12.99-3.59l-5.26-5.31-2.59,.28,1.53,13.35,2.87-.33-1.02-8.87,4.93,4.96,3.71-5.95,1.02,8.9,2.87-.33-1.53-13.35-2.54,.28-3.99,6.38Zm112.1-67.42l-1.96-7.22,1.53-2.06,10.86,8.01-1.73,2.31-7.25-5.34,1.86,6.74-6.99,.2,7.2,5.31-1.73,2.31-10.86-8.01,1.55-2.09,7.52-.18Zm32.49-64.88l.36-2.47c.08-.56-.02-1.07-.36-1.5-.31-.43-.74-.69-1.27-.76-.53-.08-1.02,.05-1.45,.38-.43,.33-.69,.79-.76,1.35l-.36,2.47,3.84,.53Zm2.95-2.19c.2-1.37-.08-2.57-.81-3.59-.74-1.02-1.73-1.63-3.03-1.81-1.27-.18-2.42,.13-3.41,.92-.99,.79-1.58,1.86-1.78,3.23l-.36,2.57-4.4-.61-.41,2.85,13.37,1.86,.81-5.41Zm-12.1-11.01l-.41,2.85,13.37,1.86,.41-2.85-13.37-1.86Zm-1.53,21.94l-.66,2.59,2.82,.69,.66-2.59c.13-.46,.08-.86-.1-1.2-.2-.33-.51-.56-.92-.66-.43-.1-.79-.05-1.12,.15-.36,.23-.56,.56-.69,1.02Zm7.78,4.7l.74-2.98c.13-.51,.08-.97-.18-1.4-.23-.41-.59-.69-1.07-.81-.48-.13-.92-.05-1.32,.2-.41,.25-.69,.64-.81,1.14l-.74,2.98,3.38,.86Zm3.13-2.54c.33-1.3,.2-2.44-.33-3.46-.53-1.02-1.35-1.65-2.39-1.91-.41-.1-.84-.13-1.25-.05-.41,.05-.74,.15-1.02,.31-.25,.13-.51,.31-.76,.51-.23,.2-.38,.36-.46,.43-.08,.08-.13,.15-.15,.2l-.05-.18c-.05-.1-.1-.25-.23-.43-.1-.18-.25-.38-.43-.59-.18-.2-.41-.38-.69-.56-.28-.18-.61-.31-.97-.38-.92-.23-1.83-.05-2.72,.56-.89,.61-1.48,1.5-1.78,2.67l-1.4,5.59,13.12,3.25,1.5-5.98Zm-17.8,12.53l-.97,2.72,12.76,4.45,.97-2.72-3.64-1.27-1.25-2.26,6.76-1.81,1.12-3.18-9.25,2.47-3.64-6.53-1.12,3.18,3.81,6.92-5.57-1.96Zm-4.27,10.02c.28-.66,.61-1.25,1.04-1.75,.43-.51,.84-.92,1.25-1.2,.41-.28,.79-.51,1.14-.71,.36-.18,.66-.31,.89-.38l.33-.1,.99,2.39c-.05,.03-.15,.03-.25,.05-.1,.02-.31,.1-.61,.23-.28,.13-.56,.28-.81,.46-.25,.18-.53,.46-.84,.79-.31,.36-.53,.74-.71,1.14-.48,1.17-.51,2.29-.05,3.38,.46,1.09,1.27,1.91,2.44,2.39,1.17,.48,2.31,.51,3.41,.05,1.12-.46,1.91-1.27,2.39-2.42,.18-.46,.31-.92,.36-1.37,.05-.46,.05-.86-.02-1.22-.05-.33-.13-.66-.2-.94-.08-.28-.18-.48-.25-.64l-.13-.2,2.36-.89c.05,.08,.1,.18,.18,.33,.08,.15,.18,.43,.33,.89,.15,.43,.25,.89,.33,1.37,.08,.46,.05,1.04-.03,1.7-.08,.69-.25,1.35-.51,1.98-.79,1.88-2.11,3.23-3.92,3.99-1.83,.76-3.64,.79-5.42,.05-1.78-.74-3.05-2.03-3.76-3.86-.74-1.78-.71-3.63,.08-5.52Zm1.07,24.38c-1.88,.61-3.69,.43-5.39-.46-1.7-.92-2.85-2.31-3.41-4.2-.56-1.88-.36-3.74,.64-5.54,.97-1.81,2.39-3,4.27-3.61,1.88-.61,3.66-.46,5.39,.46,1.7,.92,2.85,2.31,3.41,4.2,.56,1.88,.36,3.74-.61,5.54-.99,1.8-2.41,3-4.3,3.61Zm-6.18-5.67c-.36-1.14-.25-2.24,.31-3.31,.56-1.07,1.42-1.75,2.57-2.11,1.14-.33,2.29-.23,3.38,.36,1.09,.59,1.83,1.45,2.19,2.59,.36,1.14,.25,2.24-.31,3.31-.56,1.07-1.42,1.75-2.57,2.11-1.14,.33-2.29,.23-3.38-.36-1.09-.59-1.83-1.45-2.19-2.59Zm-19.12,36.51l-2.75-2.7,1.88-1.91c.41-.41,.89-.61,1.42-.64,.53,0,.99,.18,1.37,.56,.38,.38,.59,.84,.56,1.37,0,.53-.2,1.02-.61,1.42l-1.88,1.88Zm3.81-.15l-3.99,4.02-9.61-9.43,2.03-2.06,3.15,3.1,1.96-1.98c.97-.99,2.09-1.5,3.36-1.53,1.27-.03,2.34,.38,3.28,1.3,.92,.89,1.35,1.98,1.32,3.23-.03,1.25-.53,2.37-1.5,3.36Zm-17.24,9.76l-1.7-.23,.64,6.94-2.59,2.14-.89-9.48-7.42-1.12,2.59-2.14,6.97,.99-3.33-3.99,2.24-1.83,3.33,3.99,.33-6.99,2.59-2.14-.31,7.48,9.2,2.64-2.59,2.14-6.74-1.93-.1,1.7,2.9,3.48-2.24,1.83-2.87-3.48Zm-12.56,11.8l5.92-4.12,1.5,2.11-8.31,5.77-7.73-11.01,8.16-5.67,1.5,2.14-5.77,4.02,1.55,2.21,4.5-3.13,1.5,2.11-4.5,3.13,1.68,2.44Zm-14.92,1.3l-.74-1.35,3.13-1.7,4.02,7.22-4.98,2.75,.1-.33c.05-.2,.08-.51,.08-.92s-.02-.86-.08-1.4c-.05-.53-.2-1.17-.48-1.93-.28-.79-.61-1.55-1.04-2.34Zm-1.81,8.67l.69-.38c.03-.08,.05-.18,.08-.31,.02-.15,.05-.46,.08-.92,.02-.46,0-.94-.05-1.45-.05-.51-.23-1.14-.48-1.91-.25-.76-.61-1.55-1.04-2.34l-2.01-3.61,8.19-4.5,5.26,9.51,1.45-.79,2.62,4.7-2.54,1.4-1.35-2.44-7.09,3.89,1.35,2.44-2.54,1.4-2.59-4.7Zm-12.03,6.46c-1.86-.69-3.18-1.93-3.94-3.69-.79-1.78-.79-3.56-.05-5.39,.74-1.83,2.06-3.13,3.94-3.97,1.88-.81,3.74-.89,5.59-.2,1.86,.69,3.15,1.91,3.94,3.69,.79,1.78,.81,3.56,.05,5.39-.74,1.83-2.06,3.15-3.94,3.97-1.86,.81-3.74,.89-5.59,.2Zm-1.32-8.26c.43-1.12,1.2-1.91,2.31-2.39,1.12-.48,2.21-.51,3.33-.05,1.12,.43,1.93,1.25,2.44,2.36,.51,1.14,.53,2.26,.1,3.38-.43,1.12-1.2,1.91-2.29,2.39-1.12,.48-2.21,.51-3.33,.05-1.12-.43-1.93-1.22-2.42-2.36-.53-1.14-.56-2.26-.15-3.38Zm-7.17-.69l-9.28,2.95,1.27,3.97c.56,1.75,.89,3.13,1.02,4.17,.1,1.04,.08,1.73-.13,2.11-.2,.38-.53,.66-1.02,.81-.31,.1-.64,.13-.97,.1l.84,2.62h.25c.15,0,.36,0,.66-.02,.31-.02,.59-.1,.84-.18,.66-.2,1.2-.53,1.6-.94,.41-.43,.69-1.02,.86-1.81,.18-.79,.18-1.81-.03-3.1-.2-1.3-.59-2.82-1.17-4.63l-.48-1.47,3.76-1.2,3.33,10.32,2.75-.89-4.12-12.81Zm-21.92,9.97c-.64,1.02-.84,2.11-.59,3.33,.25,1.22,.89,2.14,1.91,2.8,.99,.66,2.09,.86,3.28,.61,1.2-.25,2.09-.89,2.75-1.88,.64-1.02,.84-2.11,.59-3.33-.25-1.22-.89-2.16-1.91-2.8-1.02-.66-2.09-.86-3.28-.61-1.2,.25-2.11,.89-2.75,1.88Zm50.87-213.03l-5.7-17.14-6.08,17.14h-14.54l14.16-40.12h12.56l14.67,40.12h-15.08Zm-164.44,35.42c11.75,0,21.25,9.51,21.25,21.25s-9.51,21.25-21.25,21.25-21.25-9.51-21.25-21.25,9.51-21.25,21.25-21.25Zm0,3.51c4.91,0,9.33,1.98,12.56,5.19,3.2,3.2,5.19,7.65,5.19,12.56s-1.98,9.33-5.19,12.56c-3.2,3.2-7.65,5.19-12.56,5.19s-9.33-1.98-12.56-5.19c-3.2-3.2-5.19-7.65-5.19-12.56s1.98-9.33,5.19-12.56c3.23-3.2,7.65-5.19,12.56-5.19Zm0,14.29c.97,0,1.83,.38,2.44,1.02,.64,.64,1.02,1.5,1.02,2.44s-.38,1.83-1.02,2.44c-.64,.64-1.5,1.02-2.44,1.02s-1.83-.38-2.44-1.02c-.63-.64-1.02-1.5-1.02-2.44s.38-1.83,1.02-2.44c.61-.64,1.48-1.02,2.44-1.02Zm0-7.35c2.98,0,5.7,1.22,7.65,3.18,1.96,1.96,3.18,4.65,3.18,7.65s-1.22,5.7-3.18,7.65c-1.96,1.96-4.65,3.18-7.65,3.18s-5.7-1.22-7.65-3.18c-1.96-1.96-3.18-4.65-3.18-7.65s1.22-5.7,3.18-7.65c1.96-1.98,4.65-3.18,7.65-3.18Zm5.11,5.69c1.32,1.32,2.11,3.13,2.11,5.11s-.81,3.81-2.11,5.11c-1.32,1.32-3.13,2.11-5.11,2.11s-3.81-.81-5.11-2.11c-1.32-1.32-2.11-3.13-2.11-5.11s.81-3.81,2.11-5.11c1.32-1.32,3.13-2.11,5.11-2.11,2.01-.02,3.81,.79,5.11,2.11Zm4.91-4.91c2.57,2.57,4.14,6.1,4.14,10.02s-1.58,7.45-4.14,10.02c-2.57,2.57-6.1,4.14-10.02,4.14s-7.45-1.58-10.02-4.14-4.14-6.1-4.14-10.02,1.58-7.45,4.14-10.02c2.57-2.57,6.1-4.14,10.02-4.14s7.45,1.58,10.02,4.14Zm67.86-87.97c11.75,0,21.25,9.51,21.25,21.25s-9.51,21.25-21.25,21.25-21.25-9.51-21.25-21.25,9.53-21.25,21.25-21.25Zm0,17.77c.97,0,1.83,.38,2.44,1.02,.64,.64,1.02,1.5,1.02,2.44s-.38,1.83-1.02,2.44c-.64,.64-1.5,1.02-2.44,1.02s-1.83-.38-2.44-1.02c-.63-.64-1.02-1.5-1.02-2.44s.38-1.83,1.02-2.44c.61-.61,1.5-1.02,2.44-1.02Zm0-14.26c4.91,0,9.33,1.98,12.56,5.19,3.2,3.2,5.19,7.65,5.19,12.56s-1.98,9.33-5.19,12.56c-3.2,3.2-7.65,5.19-12.56,5.19s-9.33-1.98-12.56-5.19c-3.2-3.2-5.19-7.65-5.19-12.56s1.98-9.33,5.19-12.56c3.23-3.2,7.65-5.19,12.56-5.19Zm10.02,7.73c2.57,2.57,4.14,6.1,4.14,10.02s-1.58,7.45-4.14,10.02c-2.57,2.57-6.1,4.14-10.02,4.14s-7.45-1.58-10.02-4.14c-2.57-2.57-4.14-6.1-4.14-10.02s1.58-7.45,4.14-10.02,6.1-4.14,10.02-4.14c3.92-.02,7.45,1.58,10.02,4.14Zm-10.02-.81c2.98,0,5.7,1.22,7.65,3.18,1.96,1.96,3.18,4.65,3.18,7.65s-1.22,5.7-3.18,7.65c-1.96,1.96-4.65,3.18-7.65,3.18s-5.7-1.22-7.65-3.18c-1.96-1.96-3.18-4.65-3.18-7.65s1.22-5.7,3.18-7.65c1.96-1.96,4.68-3.18,7.65-3.18Zm5.14,5.7c1.32,1.32,2.11,3.13,2.11,5.11s-.81,3.81-2.11,5.11c-1.32,1.32-3.13,2.11-5.11,2.11s-3.81-.81-5.11-2.11c-1.32-1.32-2.11-3.13-2.11-5.11s.81-3.81,2.11-5.11c1.32-1.32,3.13-2.11,5.11-2.11s3.79,.81,5.11,2.11Zm-20.52,178.58v-40.4h13.91v9.25c18.15,.81,23.42,8.54,23.42,16.73s-5.54,14.42-17.62,14.42h-19.7Zm14.03-9.87l.05-11.21c3.69,0,9.69,1.2,9.69,6.41-.03,3.99-3.36,4.8-9.74,4.8ZM93.97,109.15v19.63h-12.05v-40.15l12.1-.18,11.36,12.38,10.17-12.28,12.18,.08v40.15h-12.05v-19.63l-10.3,12.33-11.42-12.33Zm148.45,152.93c0-3,.53-5.8,1.63-8.42,1.09-2.62,2.57-4.91,4.47-6.84,1.91-1.96,4.17-3.48,6.76-4.6,2.59-1.12,5.39-1.68,8.39-1.68s5.77,.56,8.39,1.68c2.59,1.12,4.86,2.64,6.76,4.6,1.91,1.96,3.41,4.22,4.48,6.84,1.09,2.62,1.63,5.42,1.63,8.42s-.53,5.8-1.63,8.42c-1.09,2.62-2.57,4.91-4.48,6.84-1.91,1.96-4.17,3.48-6.76,4.6-2.59,1.12-5.39,1.68-8.39,1.68s-5.8-.56-8.39-1.68c-2.59-1.12-4.86-2.67-6.76-4.6-1.91-1.96-3.41-4.22-4.47-6.84-1.07-2.62-1.63-5.42-1.63-8.42Zm21.25-17.62c4.88,0,9.28,1.98,12.48,5.16,3.2,3.2,5.16,7.6,5.16,12.48s-1.98,9.28-5.16,12.48c-3.2,3.2-7.6,5.16-12.48,5.16s-9.28-1.98-12.48-5.16c-3.2-3.18-5.16-7.6-5.16-12.48s1.98-9.28,5.16-12.48c3.2-3.2,7.63-5.16,12.48-5.16Zm10.09,7.53c2.59,2.59,4.17,6.15,4.17,10.09s-1.6,7.53-4.17,10.09c-2.59,2.59-6.15,4.2-10.09,4.2s-7.53-1.6-10.09-4.2c-2.59-2.59-4.17-6.15-4.17-10.09s1.6-7.53,4.17-10.09c2.59-2.59,6.15-4.2,10.09-4.2,3.94,.03,7.52,1.63,10.09,4.2Zm-.05,10.09l-7.53,4.35-7.53,4.35v-17.39l7.53,4.35,7.53,4.35Zm7.14-67.6c0,3.1,.05,6.59,.18,10.91l-34.7,.08,.05-40.22,34.5,.08v9.79l-20.77,.05v4.17l18.03-.05v10.3l-18.03,.31-.05,4.53,20.8,.08Zm-150.56,47.62l-15.25,19.98,15.25,19.98h-14.16l-4.45-5.21v5.42h-13.73v-5.42l-4.45,5.21h-14.16l14.36-19.98-14.36-19.98h14.16l4.45,5.21v-5.42h13.73v5.42l4.45-5.21h14.16Zm75.43-36.31l-45.53,.08,.05-11.21h5.52l10.55-29.85h12.84l10.93,29.9h5.44c-.03,3.18,.03,6.74,.2,11.09Zm-28.2-11.36l5.44-15.36,5.11,15.38-10.55-.02Zm182.47-41.67c1.65,9.81,2.54,19.91,2.54,30.2,0,49.6-20.11,94.48-52.6,126.99-32.49,32.49-77.39,52.6-126.99,52.6-8.95,0-17.75-.66-26.34-1.93l4.42-28.04c7.14,1.04,14.47,1.58,21.92,1.58,41.75,0,79.55-16.93,106.91-44.29,27.36-27.36,44.29-65.16,44.29-106.91,0-8.57-.71-16.98-2.09-25.17l27.94-5.03ZM182.95,0c50.52,0,96.26,20.47,129.36,53.59,33.1,33.1,53.59,78.84,53.59,129.36s-20.47,96.26-53.59,129.36c-33.1,33.1-78.84,53.59-129.36,53.59s-96.26-20.47-129.36-53.59C20.49,279.21,0,233.47,0,182.95S20.47,86.7,53.59,53.59C86.7,20.49,132.43,0,182.95,0Zm13.68,19.98c37.88,3.18,73.37,19.3,100.73,46.04,23.36,22.86,39.87,52.68,46.27,86.26l-12.15,2.19c-5.77-30.36-20.62-57.48-41.62-78.46-21.74-21.74-50.06-36.87-81.69-42.2l-3.31-.51c-7.14-1.04-14.47-1.58-21.92-1.58-41.75,0-79.55,16.93-106.91,44.29-27.38,27.38-44.29,65.19-44.29,106.93,0,8.57,.71,16.98,2.09,25.17l.59,3.28c5.77,30.36,20.62,57.48,41.62,78.46,21.74,21.74,50.06,36.89,81.69,42.2l-1.93,12.2c-33.71-5.67-63.89-21.53-87.26-44.39-22.88-22.37-39.2-51.46-45.87-84.21-1.14-5.67-2.01-11.57-2.54-17.34-.48-5.06-.71-10.2-.71-15.38,0-45.15,18.31-86.04,47.9-115.63,29.59-29.59,70.48-47.9,115.63-47.9,4.58,0,9.13,.18,13.68,.56ZM16.7,198.67c.59,6.08,1.5,11.8,2.7,17.64,6.81,33.43,23.47,63.1,46.81,85.93,23.85,23.31,54.64,39.54,89.09,45.31l-1.98,12.53c-37.7-6.25-71.47-24.28-97.35-50.16-24.99-24.99-42.66-57.33-49.48-93.51l-.59-3.28c-1.65-9.81-2.54-19.91-2.54-30.2,0-49.6,20.11-94.5,52.6-126.99,3.51-3.51,7.2-6.89,10.98-10.12,.48-.41,.99-.81,1.47-1.25,.38-.33,.79-.64,1.17-.97l.02-.03h.02l.02-.02,.02-.02,.03-.02,.02-.03,.02-.03,.02-.02,.02-.02,.02-.02,.02-.03,.03-.02,.02-.02,.02-.03,.02-.02,.02-.03,.02-.02,.02-.02,.02-.02,.03-.02c.51-.41,.99-.81,1.5-1.2l.02-.03c.46-.36,.89-.71,1.35-1.04l.13-.1c.43-.33,.89-.69,1.32-1.02l.15-.1,.41-.31C105.02,16.71,142.39,3.29,182.89,3.29c8.95,0,17.75,.66,26.34,1.93l3.31,.51,.23,.05h.02c37.63,6.31,71.26,24.31,97.1,50.11,24.99,24.99,42.66,57.33,49.48,93.51l-12.51,2.26c-6.53-34.3-23.39-64.76-47.21-88.07-22.25-21.76-50.57-37.32-82.25-44.01-6.86-1.45-13.45-2.49-20.54-3.1-4.65-.38-9.31-.59-13.96-.59-46.12,0-87.87,18.69-118.1,48.92-30.14,30.27-48.83,72.02-48.83,118.14,0,5.21,.23,10.45,.74,15.71ZM287.5,78.41c-26.75-26.75-63.71-43.3-104.55-43.3s-77.8,16.55-104.55,43.3c-26.75,26.75-43.3,63.71-43.3,104.54s16.55,77.8,43.3,104.55c26.75,26.75,63.71,43.3,104.55,43.3s77.8-16.55,104.55-43.3c26.75-26.75,43.3-63.71,43.3-104.55,0-40.83-16.55-77.8-43.3-104.54Z"/>
    <path class="cls-8" d="M268.83,311.58c.59,0,1.07,.48,1.07,1.07s-.48,1.07-1.07,1.07-1.07-.48-1.07-1.07,.48-1.07,1.07-1.07"/>
    <path class="cls-8" d="M271.67,309.51c.59,0,1.07,.48,1.07,1.07s-.48,1.07-1.07,1.07-1.07-.48-1.07-1.07,.48-1.07,1.07-1.07"/>
    <path class="cls-8" d="M265.64,154.22h6.93v5.87h-6.93v-5.87Zm-10.93,0h6.93v5.87h-6.93v-5.87Z"/>
    <path class="cls-8" d="M265.64,154.22h6.93v5.87h-6.93v-5.87Zm-10.93,0h6.93v5.87h-6.93v-5.87Z"/>
  </g>
</svg>