<svg width="61" height="37" viewBox="0 0 61 37" fill="none" xmlns="http://www.w3.org/2000/svg">
<g id="&#208;&#187;&#208;&#190;&#208;&#179;&#208;&#190;" clip-path="url(#clip0_106610_5172)">
<g id="flower">
<path id="Vector" d="M56.9247 28.6134H56.8144C55.9605 28.6287 55.1192 28.8298 54.3479 29.2033C54.7172 28.4201 54.917 27.5656 54.9337 26.6972C54.958 25.4247 54.5802 23.9349 54.1088 23.4514C54.0572 23.3863 53.992 23.3337 53.9179 23.2976C53.8438 23.2615 53.7625 23.2427 53.6801 23.2427C53.5978 23.2427 53.5165 23.2615 53.4424 23.2976C53.3679 23.3337 53.3027 23.3863 53.2511 23.4514C52.7798 23.9394 52.3989 25.4269 52.4197 26.6972C52.4358 27.5654 52.6336 28.4201 53.0001 29.2044C52.2298 28.8291 51.3896 28.6261 50.5356 28.6089H50.4256C49.0501 28.6089 47.1329 29.0924 47.1318 29.8849C47.1308 30.6773 49.0491 31.1653 50.4232 31.1664H50.5336C51.3872 31.1511 52.2278 30.9504 52.999 30.5777C52.6305 31.3611 52.4313 32.2155 52.4143 33.0837C52.39 34.3563 52.7678 35.8461 53.2392 36.3294C53.2907 36.3946 53.356 36.4474 53.4301 36.4835C53.5042 36.5196 53.5855 36.5384 53.6678 36.5384C53.7502 36.5384 53.8315 36.5196 53.9056 36.4835C53.98 36.4474 54.0453 36.3946 54.0969 36.3294C54.5682 35.8416 54.9491 34.3541 54.9283 33.0837C54.9125 32.2154 54.7144 31.3606 54.3469 30.5766C55.1175 30.9516 55.9581 31.1547 56.8124 31.172H56.9224C58.2979 31.172 60.2161 30.6885 60.2172 29.8961C60.2182 29.1036 58.2999 28.6145 56.9247 28.6134Z" fill="white"/>
<path id="Vector_2" d="M59.1352 28.7065C58.4203 28.4764 57.675 28.3583 56.9249 28.3562H56.8149C56.1355 28.3686 55.4623 28.4942 54.8228 28.7278C55.0544 28.0785 55.1791 27.3947 55.1917 26.7042C55.2136 25.5222 54.8768 23.8724 54.2944 23.2681C54.2189 23.1784 54.1257 23.1063 54.0205 23.0569C53.9153 23.0075 53.8005 22.9819 53.6847 22.9819C53.5689 22.9819 53.4541 23.0075 53.3489 23.0569C53.2437 23.1063 53.1505 23.1784 53.0753 23.2681C52.4916 23.8713 52.1514 25.52 52.1712 26.7019C52.1828 27.3925 52.3061 28.0765 52.5357 28.7266C51.8966 28.4916 51.224 28.365 50.5446 28.3517H50.4346C49.6845 28.3528 48.9392 28.4695 48.2233 28.6976C47.3424 28.9908 46.8867 29.3892 46.8867 29.884C46.8867 30.3787 47.3349 30.7794 48.2212 31.0737C48.9362 31.3034 49.6815 31.4215 50.4312 31.424H50.5416C51.2206 31.4126 51.8932 31.2874 52.5322 31.0536C52.3017 31.7032 52.177 32.3867 52.1633 33.0772C52.1415 34.2591 52.4783 35.909 53.062 36.5131C53.1372 36.6031 53.2308 36.6749 53.336 36.7246C53.4412 36.7739 53.5556 36.7996 53.6714 36.7996C53.7875 36.7996 53.9019 36.7739 54.0072 36.7246C54.1124 36.6749 54.2059 36.6031 54.2811 36.5131C54.8645 35.9101 55.2051 34.2613 55.1852 33.0794C55.1736 32.3887 55.05 31.7046 54.8194 31.0547C55.4588 31.2897 56.1317 31.4164 56.8115 31.4296H56.9218C57.6716 31.4285 58.4172 31.3119 59.1328 31.0838C60.0137 30.7905 60.4697 30.3921 60.4697 29.8962C60.4697 29.4004 60.0216 29.0009 59.1352 28.7065ZM52.6733 26.6918C52.6491 25.22 53.1754 23.4964 53.6799 23.4975C54.1841 23.4986 54.7084 25.2223 54.6807 26.6941C54.6637 27.4948 54.485 28.2834 54.1554 29.0109C54.0389 29.0691 53.9276 29.1285 53.8251 29.1889L53.6775 28.9651L53.529 29.1889C53.419 29.1296 53.3086 29.0691 53.1986 29.0109C52.8704 28.2824 52.6928 27.4931 52.6767 26.6918H52.6733ZM50.5293 30.9058H50.4193C48.9952 30.9058 47.381 30.382 47.381 29.8817C47.381 29.3814 48.9976 28.8621 50.4213 28.8632H50.5316C51.32 28.8807 52.0964 29.0624 52.813 29.3971C52.8704 29.5157 52.9298 29.6287 52.9882 29.7329L52.7679 29.884L52.9882 30.0351C52.9288 30.1414 52.8704 30.2533 52.813 30.3708C52.096 30.706 51.3186 30.8881 50.5293 30.9058ZM54.6742 33.0861C54.6995 34.5579 54.1721 36.2816 53.6676 36.2805C53.1635 36.2795 52.6402 34.5557 52.6678 33.0839C52.6846 32.2824 52.8632 31.4931 53.1932 30.7648C53.3097 30.7066 53.42 30.6473 53.5235 30.5869L53.6721 30.8107L53.8207 30.5869C53.931 30.6462 54.041 30.7066 54.151 30.7648C54.4806 31.4938 54.6585 32.284 54.6742 33.0861ZM56.9228 30.9137H56.8125C56.0241 30.8968 55.2477 30.7154 54.5311 30.3809C54.4737 30.2622 54.4208 30.1492 54.3569 30.0451L54.5772 29.894L54.3569 29.7429C54.4164 29.6366 54.4748 29.5247 54.5322 29.4071C55.2491 29.0732 56.0262 28.893 56.8149 28.8777H56.9249C58.3489 28.8777 59.9642 29.4016 59.9642 29.9019C59.9642 30.4022 58.3455 30.9137 56.9228 30.9137Z" fill="#131314"/>
<path id="Vector_3" d="M53.4269 29.8388C53.6489 28.6694 54.1985 27.5901 55.0094 26.7306C55.8903 25.8084 57.1941 25.0305 57.866 25.0305C57.9469 25.0232 58.0282 25.0343 58.1044 25.0628C58.1806 25.0914 58.2496 25.1367 58.3066 25.1955C58.3633 25.2543 58.407 25.3252 58.4337 25.4031C58.4607 25.481 58.4702 25.564 58.4617 25.646C58.4552 26.3299 57.6908 27.6551 56.7846 28.5382C55.9368 29.3605 54.8742 29.917 53.7234 30.141L53.3545 30.2137L53.4269 29.8388Z" fill="#FD7D32"/>
<path id="Vector_4" d="M49.4831 34.7467C49.4029 34.7515 49.3226 34.7397 49.2468 34.712C49.1709 34.6843 49.1016 34.6413 49.0428 34.5855C48.9872 34.5245 48.9448 34.4526 48.9175 34.3743C48.8902 34.296 48.8789 34.2129 48.884 34.13C48.8919 33.4461 49.6549 32.1221 50.5625 31.239C51.4096 30.4163 52.4726 29.8598 53.6237 29.6362L53.9926 29.5635L53.9198 29.9384C53.6978 31.1077 53.1482 32.187 52.3373 33.0466C51.4564 33.9688 50.1526 34.7467 49.4743 34.7467" fill="#01B2E0"/>
<path id="Vector_5" d="M57.8522 34.7549C57.1803 34.7549 55.87 33.9712 54.999 33.049C54.1888 32.1883 53.6409 31.1076 53.422 29.9375L53.3506 29.5625L53.7181 29.6364C54.8713 29.8619 55.9353 30.4221 56.7817 31.2492C57.6824 32.1334 58.4479 33.4597 58.4533 34.1436C58.4615 34.2257 58.452 34.3086 58.425 34.3865C58.398 34.4643 58.3546 34.5351 58.2976 34.5938C58.2405 34.6526 58.1712 34.6977 58.095 34.726C58.0189 34.7545 57.9372 34.7653 57.8566 34.758" fill="#6C2382"/>
<path id="Vector_6" d="M53.6252 30.1411C52.4741 29.9158 51.4122 29.3568 50.5671 28.5316C49.6654 27.6474 48.8999 26.3211 48.8944 25.6372C48.8862 25.5551 48.8958 25.4722 48.9228 25.3943C48.9498 25.3165 48.9932 25.2457 49.0502 25.187C49.1072 25.1282 49.1766 25.0831 49.2528 25.0547C49.3289 25.0263 49.4102 25.0154 49.4912 25.0228C50.163 25.0228 51.4733 25.8062 52.3443 26.7274C53.1545 27.5885 53.7021 28.6695 53.9214 29.84L53.9928 30.2138L53.6252 30.1411Z" fill="#ABC704"/>
<path id="Vector_7" d="M55.287 29.8911C55.9032 29.5976 56.4681 29.2032 56.9586 28.7237C57.7965 27.9044 58.7051 26.4964 58.714 25.6502C58.7232 25.5341 58.7075 25.4172 58.6685 25.3077C58.6293 25.1981 58.5674 25.0984 58.4868 25.0154C58.4066 24.9323 58.3092 24.8679 58.2023 24.8264C58.095 24.7849 57.9803 24.7674 57.8658 24.775C57.0334 24.775 55.6405 25.6972 54.8265 26.5523C54.3538 27.0501 53.9647 27.6233 53.6747 28.2491C53.3871 27.6221 52.9994 27.0476 52.5274 26.549C51.7148 25.6916 50.3249 24.766 49.4915 24.7649C49.3771 24.7574 49.2623 24.7749 49.155 24.8163C49.0478 24.8577 48.9508 24.922 48.8702 25.0049C48.7896 25.0877 48.7274 25.1873 48.6878 25.2967C48.6485 25.4061 48.6324 25.5228 48.6413 25.639C48.6478 26.4852 49.5554 27.8955 50.3912 28.7158C50.8807 29.1965 51.4446 29.5921 52.0605 29.8866C51.4439 30.1797 50.8793 30.5742 50.3888 31.054C49.5509 31.8733 48.6413 33.2813 48.6335 34.1274C48.6242 34.2436 48.6396 34.3605 48.6789 34.47C48.7182 34.5796 48.78 34.6792 48.8606 34.7623C48.9409 34.8453 49.0379 34.9099 49.1451 34.9512C49.2524 34.9929 49.3672 35.0102 49.4816 35.0026C50.314 35.0026 51.7069 34.0804 52.5209 33.2242C52.9919 32.7273 53.3793 32.1548 53.6672 31.5296C53.9559 32.1557 54.3439 32.7294 54.8156 33.2275C55.6282 34.086 57.0181 35.0116 57.8515 35.0127C57.9659 35.02 58.0807 35.0026 58.1876 34.9609C58.2949 34.9196 58.3919 34.8554 58.4725 34.7724C58.5531 34.6895 58.6153 34.5901 58.6545 34.4808C58.6942 34.3715 58.7102 34.2548 58.7017 34.1386C58.6938 33.2925 57.7876 31.8822 56.9518 31.0618C56.464 30.5812 55.9015 30.1856 55.287 29.8911ZM55.19 26.9094C56.0347 26.0218 57.2766 25.2876 57.8648 25.2887C57.9591 25.2809 58.0527 25.3115 58.1248 25.3738C58.4803 25.7364 57.6513 27.3325 56.6085 28.3532C56.0384 28.9089 55.3618 29.3391 54.6206 29.6169C54.4986 29.5743 54.3784 29.5363 54.2629 29.5049L54.3135 29.2408L54.0535 29.2923C54.0218 29.1747 53.9852 29.0527 53.9436 28.9285C54.2182 28.1755 54.6424 27.4882 55.19 26.9094ZM50.7423 28.3476C49.7005 27.3246 48.8702 25.7275 49.2315 25.3648C49.3036 25.3026 49.3972 25.272 49.4915 25.2798C50.0793 25.2798 51.3206 26.0173 52.1629 26.9071C52.7084 27.4852 53.1316 28.1709 53.4063 28.9218C53.3642 29.0471 53.3267 29.1691 53.2959 29.2856L53.035 29.2341L53.0855 29.4982C52.9755 29.5307 52.8512 29.5687 52.7279 29.6101C51.9877 29.332 51.3121 28.9023 50.7423 28.3476ZM52.1575 32.8694C51.3128 33.757 50.0705 34.4957 49.4826 34.4957C49.3883 34.5035 49.2947 34.4729 49.2227 34.4106C48.8661 34.0469 49.6961 32.4508 50.7389 31.4311C51.309 30.8754 51.9857 30.4452 52.7265 30.1675C52.8488 30.2101 52.969 30.247 53.0845 30.2795L53.0329 30.5436L53.2939 30.4921C53.3256 30.6096 53.3622 30.7305 53.4039 30.8559C53.1282 31.6066 52.704 32.2919 52.1575 32.8694ZM58.1159 34.414C58.0793 34.4448 58.0373 34.4678 57.9919 34.4819C57.9464 34.4959 57.8986 34.5006 57.8515 34.4957C57.2636 34.4957 56.0224 33.7581 55.18 32.8683C54.6346 32.2902 54.2113 31.6045 53.9367 30.8536C53.9787 30.7283 54.0163 30.6063 54.0471 30.4899L54.307 30.5414L54.2561 30.2772C54.3719 30.2447 54.4918 30.2067 54.6151 30.1653C55.3542 30.4457 56.0289 30.8773 56.5972 31.4334C57.6469 32.4541 58.4728 34.048 58.1159 34.414Z" fill="#131314"/>
<path id="Vector_8" d="M53.668 31.6253C53.3312 31.6248 53.0023 31.523 52.7226 31.3325C52.4428 31.142 52.2252 30.8716 52.0965 30.5553C51.968 30.239 51.9349 29.8911 52.0008 29.5556C52.0667 29.22 52.2293 28.9119 52.4674 28.6702C52.7058 28.4285 53.0091 28.264 53.3394 28.1975C53.6697 28.131 54.012 28.1656 54.3228 28.2968C54.634 28.428 54.8994 28.65 55.0862 28.9346C55.2731 29.2193 55.3728 29.5538 55.3725 29.896C55.3718 30.355 55.1918 30.7948 54.8721 31.119C54.5527 31.4432 54.1196 31.6253 53.668 31.6253Z" fill="#FFDE0D"/>
<path id="Vector_9" d="M53.6758 28.4217C53.9624 28.4219 54.2428 28.5086 54.4809 28.6707C54.719 28.8328 54.9048 29.063 55.0141 29.3323C55.1238 29.6016 55.1521 29.8978 55.0958 30.1835C55.0397 30.4693 54.9014 30.7316 54.6982 30.9374C54.4953 31.1432 54.237 31.2832 53.9556 31.3397C53.6745 31.3961 53.3831 31.3666 53.1184 31.2547C52.8537 31.1429 52.6275 30.9537 52.4687 30.7112C52.3099 30.4687 52.2252 30.1838 52.2255 29.8924C52.2262 29.502 52.3792 29.1277 52.6511 28.852C52.9234 28.5762 53.2919 28.4214 53.6758 28.4217ZM53.6758 27.9058C53.2888 27.9051 52.91 28.0211 52.5879 28.2392C52.2658 28.4573 52.0144 28.7677 51.8658 29.131C51.7173 29.4943 51.678 29.8942 51.7528 30.2802C51.8279 30.6662 52.0141 31.0209 52.2873 31.2995C52.5609 31.578 52.9093 31.7678 53.2888 31.845C53.6687 31.9221 54.0622 31.8831 54.4198 31.7328C54.7777 31.5825 55.0835 31.3278 55.299 31.0008C55.5142 30.6738 55.6293 30.2892 55.6293 29.8958C55.6293 29.3688 55.4237 28.8633 55.0575 28.4902C54.6913 28.1171 54.1943 27.9069 53.6758 27.9058Z" fill="#131314"/>
</g>
<g id="letters">
<path id="Vector_10" d="M54.7159 8.47119H51.4912L47.9629 17.6535H51.8801V18.7964H55.7716L56.9195 21.9017H59.7199L54.7159 8.47119ZM51.3232 15.9177L53.0163 11.2779L54.7159 15.9177H51.3232Z" fill="white"/>
<path id="Vector_11" d="M50.7611 18.7941V23.0434H47.9628V21.9039H36.3555V8.47891L39.1535 8.47559L39.1665 18.7919L44.08 18.7941L44.0673 8.47891H46.8847V18.7941H50.7611Z" fill="white"/>
<path id="Vector_12" d="M46.8773 23.043H36.3555V25.9183H40.2219V36.4714H43.0246V25.9183H46.8773V25.5886V23.043Z" fill="white"/>
<path id="Vector_13" d="M34.5659 23.043H25.2599H24.2647H23.7197L24.4877 29.7439L23.7197 36.4614H24.2647H25.2599V36.4714H35.2474V36.4614V33.9113V33.5949H26.7614L26.9789 31.077H34.1877V30.9011V30.7816V28.7061V28.5867V28.4373H26.9811L26.7624 25.9183H35.2474V25.593V23.043H34.5659Z" fill="white"/>
<path id="Vector_14" d="M31.5672 8.479L26.5266 18.001V8.479H23.7197V21.904H27.2406L32.4482 11.9749V21.904H35.2484V8.479H31.5672Z" fill="white"/>
</g>
<path id="Vector_15" d="M22.6254 8.48335V36.8004H19.7623V11.3979H14.3081V31.5847C14.3081 31.6194 14.3081 31.6563 14.3081 31.6966V31.7313C14.2872 32.5484 14.0769 34.5496 12.5782 35.8144L12.5672 35.8245C12.0397 36.2664 11.2303 36.6987 10.0532 36.7792C9.93091 36.7858 9.80538 36.7914 9.67436 36.7914C9.33176 36.7858 8.99114 36.7372 8.66016 36.6469V33.7538C8.73062 33.7706 8.79781 33.7874 8.86496 33.7997C8.86975 33.8001 8.87453 33.8001 8.87931 33.7997C9.72829 33.9709 10.3538 33.8959 10.7403 33.5758C11.1808 33.2054 11.3592 32.4812 11.4153 31.9731C11.4157 31.9712 11.4157 31.9693 11.4153 31.9675C11.431 31.8356 11.439 31.7029 11.4395 31.5701C11.4395 31.5556 11.4395 31.5421 11.4395 31.5298V31.4884V31.4638L11.455 11.1113V10.2226L16.3002 9.40559L16.3343 9.4C17.0417 9.25189 17.7048 8.93673 18.2702 8.47998H22.6254V8.48335Z" fill="white"/>
<g id="sto">
<path id="Vector_16" d="M14.4491 0.0541693L3.83701 1.84497C2.76521 2.02624 1.80808 2.63266 1.17601 3.53093C0.543937 4.42922 0.288661 5.54584 0.466292 6.63536C0.83629 8.89513 2.95827 10.4408 5.4987 10.0603L16.1097 8.26948C17.7846 7.93369 19.2096 6.1675 19.2184 4.17748C19.2197 3.94272 19.2009 3.7083 19.1622 3.47684C18.9806 2.3893 18.3831 1.41896 17.5 0.777685C16.617 0.136413 15.5202 -0.12369 14.4491 0.0541693Z" fill="#FFDE0D"/>
<path id="Vector_17" d="M6.68852 4.45731C6.61755 4.26445 6.50462 4.09034 6.35819 3.94803C6.15147 3.7507 5.89683 3.6128 5.62039 3.54847C5.30351 3.47268 4.97458 3.46506 4.65466 3.52607C4.33355 3.57364 4.02483 3.68508 3.74618 3.85402C3.51404 3.99254 3.32657 4.19672 3.20659 4.44161C3.09382 4.68589 3.06028 4.96023 3.11079 5.22509C3.14161 5.44885 3.22844 5.66083 3.36296 5.8407C3.49975 6.00686 3.68228 6.12768 3.88711 6.18767C4.15904 6.26565 4.44213 6.29554 4.72403 6.27606L5.50255 6.24586C5.64987 6.23715 5.79767 6.24576 5.94304 6.27159C6.03397 6.28631 6.11864 6.32797 6.18641 6.39136C6.24554 6.45667 6.28393 6.53857 6.2965 6.6264C6.31915 6.74281 6.29537 6.86359 6.23044 6.96219C6.15475 7.07471 6.04995 7.1638 5.9276 7.21962C5.76921 7.29694 5.60034 7.34975 5.42658 7.3763C5.24142 7.4122 5.05123 7.4122 4.86606 7.3763C4.71249 7.34756 4.56855 7.27979 4.44763 7.17932C4.38236 7.12401 4.32784 7.05683 4.28685 6.98122L3.40591 7.19049C3.47498 7.39186 3.58791 7.57475 3.73627 7.7255C3.95003 7.93772 4.21642 8.08705 4.5071 8.15756C4.84386 8.23776 5.19339 8.24574 5.53339 8.18106C5.86581 8.13107 6.1845 8.01181 6.4694 7.83072C6.71131 7.67706 6.90563 7.45709 7.02989 7.19612C7.14634 6.93785 7.18097 6.64921 7.12902 6.37012C7.10142 6.15171 7.01872 5.94427 6.88896 5.76794C6.75599 5.61219 6.57785 5.50328 6.38022 5.4568C6.09504 5.38868 5.80149 5.36379 5.50917 5.38292L4.69978 5.40305C4.56479 5.40993 4.42946 5.40017 4.29676 5.37396C4.21161 5.35917 4.13226 5.32039 4.0677 5.26203C4.01373 5.20159 3.97917 5.12583 3.96861 5.0449C3.94767 4.93599 3.96854 4.82302 4.02699 4.72929C4.09663 4.62388 4.19337 4.53987 4.30667 4.4864C4.45242 4.41322 4.60845 4.3634 4.76919 4.33864C4.9408 4.30615 5.11667 4.30427 5.28893 4.33305C5.42843 4.35451 5.5601 4.41235 5.67105 4.50095C5.75528 4.56903 5.8196 4.65923 5.85714 4.76175L6.68852 4.45731Z" fill="#131314"/>
<path id="Vector_18" d="M11.2953 3.43202L11.1467 2.53662L7.2793 3.1981L7.42904 4.09351L8.93217 3.83608L9.52791 7.42662L10.3857 7.28001L9.79109 3.68946L11.2953 3.43202Z" fill="#131314"/>
<path id="Vector_19" d="M16.4079 4.02094C16.3466 3.59554 16.182 3.19241 15.9289 2.84795C15.6955 2.53414 15.3782 2.2952 15.0149 2.15961C14.6271 2.02824 14.2134 1.99557 13.8103 2.06445C13.4071 2.13333 13.0267 2.30167 12.7024 2.55471C12.402 2.80306 12.179 3.13472 12.0604 3.50944C11.9411 3.92154 11.9157 4.35593 11.9863 4.77949C12.0569 5.20308 12.2216 5.60469 12.4679 5.95388C12.7006 6.26836 13.0181 6.50749 13.3819 6.6422C13.7696 6.77437 14.1834 6.80745 14.5867 6.73854C14.99 6.66966 15.3704 6.50086 15.6943 6.24711C15.9948 5.99853 16.2181 5.66698 16.3374 5.29241C16.465 4.88121 16.4892 4.44408 16.4079 4.02094ZM15.5027 4.95662C15.4341 5.18311 15.2998 5.38323 15.1173 5.53081C14.916 5.68319 14.6819 5.78477 14.4343 5.8272C14.1868 5.86962 13.9329 5.85167 13.6935 5.77481C13.4733 5.69527 13.2816 5.55067 13.1429 5.35955C12.9955 5.14013 12.8967 4.89076 12.8533 4.62874C12.81 4.36669 12.8231 4.09822 12.8918 3.84183C12.9612 3.61606 13.095 3.41624 13.2761 3.26767C13.4782 3.11582 13.7126 3.01458 13.9604 2.97218C14.2082 2.92978 14.4624 2.94743 14.7022 3.02368C14.9226 3.1027 15.1145 3.24741 15.2528 3.43892C15.3995 3.65866 15.4979 3.908 15.5413 4.16991C15.5846 4.43182 15.5718 4.70016 15.5038 4.95662H15.5027Z" fill="#131314"/>
</g>
</g>
<defs>
<clipPath id="clip0_106610_5172">
<rect width="60.4585" height="36.8008" fill="white" transform="translate(0.270508)"/>
</clipPath>
</defs>
</svg>
