<svg id="Layer_1" data-name="Layer 1" xmlns="http://www.w3.org/2000/svg" viewBox="0 0 1080 1080"><defs><style>.cls-1{fill:#fff;}</style></defs><title>черный логотип без фона</title><path d="M294.49,351.26l-170.32,28.3a66,66,0,0,0-55,64.58,65.1,65.1,0,0,0,.89,11.06c5.93,35.67,40,60,80.76,54.08L321.14,481c26.86-5.31,49.73-33.19,49.88-64.61a64,64,0,0,0-.9-11.05A65.94,65.94,0,0,0,294.49,351.26Z"/><path class="cls-1" d="M169.85,420.29a21.31,21.31,0,0,0-5.25-8A25.6,25.6,0,0,0,152.77,406a37.49,37.49,0,0,0-15.47-.35,39.88,39.88,0,0,0-14.57,5.16,22.31,22.31,0,0,0-8.65,9.27,20.15,20.15,0,0,0-1.53,12.35,20.77,20.77,0,0,0,4,9.7,17.15,17.15,0,0,0,8.42,5.48A39.66,39.66,0,0,0,138.4,449l12.48-.47a31.34,31.34,0,0,1,7,.4,7.52,7.52,0,0,1,3.9,1.9,6.89,6.89,0,0,1,1.68,3.7,7.16,7.16,0,0,1-1.06,5.22,11.89,11.89,0,0,1-4.85,4.07,28.43,28.43,0,0,1-8,2.47,24.15,24.15,0,0,1-9,0,14.93,14.93,0,0,1-6.72-3.1,11.57,11.57,0,0,1-2.58-3.13l-14.06,3.3a22.54,22.54,0,0,0,5.36,8.44,26.44,26.44,0,0,0,12.4,6.8,39.94,39.94,0,0,0,16.46.38,39,39,0,0,0,15-5.53,24.16,24.16,0,0,0,9-10,21.6,21.6,0,0,0,1.59-13,20,20,0,0,0-3.85-9.49A15.42,15.42,0,0,0,165,436a48.12,48.12,0,0,0-14-1.17l-13,.33a26.91,26.91,0,0,1-6.46-.46,7.4,7.4,0,0,1-3.68-1.81,6.35,6.35,0,0,1-1.59-3.42,6.84,6.84,0,0,1,.95-5,11,11,0,0,1,4.48-3.84,25.61,25.61,0,0,1,7.42-2.33,24.1,24.1,0,0,1,8.33-.08,13.29,13.29,0,0,1,6.13,2.66,9.55,9.55,0,0,1,3,4.11Z"/><path class="cls-1" d="M243.69,404.12,241.3,390l-62,10.44,2.39,14.16,24.12-4.07,9.53,56.65,13.75-2.32-9.53-56.64Z"/><path class="cls-1" d="M325.66,413.41A40.76,40.76,0,0,0,318,394.9,32.4,32.4,0,0,0,303.31,384a40,40,0,0,0-37,6.24A32,32,0,0,0,256,405.33a44.63,44.63,0,0,0,6.47,38.51,32.21,32.21,0,0,0,14.67,10.85,40,40,0,0,0,37-6.23,32.34,32.34,0,0,0,10.3-15A40.69,40.69,0,0,0,325.66,413.41Zm-14.51,14.75a18.61,18.61,0,0,1-6.18,9.06,25.44,25.44,0,0,1-22.84,3.84,18.71,18.71,0,0,1-8.79-6.55,28.88,28.88,0,0,1-4-23.93,18.85,18.85,0,0,1,6.16-9.06,25.54,25.54,0,0,1,22.85-3.84,18.53,18.53,0,0,1,8.8,6.55,29.18,29.18,0,0,1,4,23.93Z"/><line class="cls-1" x1="174.8" y1="419.28" x2="161.53" y2="423.96"/><path d="M548.91,466.86,466.23,619V466.86H420.17V681.31h57.77L563.37,522.7V681.31H609.3V466.86Z"/><path d="M928.75,466.73H875.84L817.93,613.46h46.55V631.7H946l18.85,49.61h45.94Zm-55.67,119,27.77-74.11,27.88,74.11Z"/><path d="M800.27,631.65V466.86H754l.21,164.79-80.62,0-.21-164.78-45.91,0V681.31H800.27v48.32h46v-98Z"/><path d="M367.41,467c-14.14,15.29-22.44,24.87-43.76,28.51l-77.31,13-.25,88.63v.4l0,.64c0,.2,0,.42,0,.65a51.48,51.48,0,0,1-.37,6.28.13.13,0,0,1,0,.06c-.91,8-3.73,19.48-10.86,25.33-6.2,5.07-16.21,6.25-29.85,3.54l-.24,0q-1.6-.32-3.27-.72V679a67.22,67.22,0,0,0,16.28,2.27c2.08,0,4.11-.07,6.07-.19h0c18.89-1.27,31.88-8.09,40.36-15.08l.17-.15c24.05-20,27.42-51.57,27.76-64.47v-.53c0-.66,0-1.25,0-1.8V513H356v168.3h46V467Z"/></svg>