<svg width="280" height="114" viewBox="0 0 280 114" fill="none" xmlns="http://www.w3.org/2000/svg">
<path d="M67.0012 0.700151L16.355 9.14118C11.8068 9.91217 7.67476 12.2654 4.68402 15.7878C1.69327 19.3103 0.0349927 23.7768 0.000244614 28.4034C-0.00529436 29.5086 0.0832435 30.6122 0.264894 31.7023C2.02823 42.3416 12.1593 49.5985 24.2796 47.8327L74.9258 39.3976C82.9129 37.8138 89.7135 29.4981 89.7581 20.1265C89.7641 19.0221 89.6745 17.9194 89.4905 16.8306C88.6263 11.7074 85.7761 7.13531 81.5624 4.11301C77.3486 1.09072 72.1138 -0.136224 67.0012 0.700151Z" fill="black"/>
<path d="M29.9373 21.2904C29.604 20.3866 29.0701 19.5706 28.3762 18.9043C27.3904 17.9767 26.1762 17.3292 24.8584 17.0281C23.3489 16.6728 21.7822 16.6373 20.2583 16.9237C18.7278 17.1484 17.256 17.6713 15.9257 18.4628C14.8198 19.1156 13.9263 20.076 13.3536 21.2278C12.8183 22.3767 12.659 23.6661 12.8986 24.9114C13.0417 25.962 13.4513 26.9582 14.0881 27.8046C14.7413 28.5879 15.6133 29.1572 16.5918 29.4391C17.8896 29.8053 19.2403 29.9455 20.5854 29.8537L24.2964 29.7135C24.9925 29.6751 25.6907 29.7151 26.3779 29.8328C26.8116 29.9034 27.2149 30.1005 27.5376 30.3996C27.811 30.7087 27.985 31.0933 28.0372 31.5032C28.1356 32.0435 28.0227 32.6011 27.722 33.0601C27.3595 33.5881 26.8611 34.0076 26.2798 34.2741C25.5274 34.6361 24.7258 34.8843 23.9009 35.0108C23.0167 35.179 22.1089 35.179 21.2247 35.0108C20.4918 34.8757 19.8046 34.5577 19.2264 34.0862C18.9179 33.8227 18.6582 33.5067 18.4592 33.1526L14.2784 34.1369C14.6151 35.0851 15.1598 35.9454 15.8722 36.6543C16.8949 37.6536 18.1696 38.3548 19.5595 38.6825C21.1654 39.0608 22.8323 39.0994 24.454 38.7959C26.0384 38.5609 27.5571 37.9993 28.9144 37.1464C30.07 36.4264 30.9981 35.3921 31.5906 34.1637C32.1445 32.9515 32.3097 31.5967 32.0634 30.2862C31.9332 29.259 31.5386 28.2835 30.9186 27.4556C30.287 26.7179 29.4385 26.2 28.4951 25.9762C27.1319 25.6562 25.7293 25.5387 24.3321 25.6272L20.4664 25.7257C19.8229 25.7577 19.1779 25.7116 18.5455 25.5885C18.1373 25.5155 17.758 25.3284 17.4512 25.0486C17.1942 24.7645 17.0294 24.4087 16.9784 24.0285C16.8778 23.5135 16.979 22.9793 17.2609 22.5372C17.5927 22.0408 18.0533 21.6448 18.5931 21.3918C19.289 21.0488 20.033 20.8145 20.7995 20.6968C21.6175 20.5447 22.4557 20.5367 23.2765 20.673C23.9415 20.7774 24.5689 21.0505 25.0993 21.4664C25.5017 21.7866 25.81 22.2102 25.9913 22.6923L29.9373 21.2904Z" fill="white"/>
<path d="M51.895 16.4667L51.1843 12.2551L32.748 15.3691L33.4587 19.5926L40.631 18.3786L43.4649 35.2756L47.5536 34.5836L44.7197 17.6896L51.895 16.4667Z" fill="white"/>
<path d="M76.2695 19.2377C75.98 17.236 75.1971 15.3383 73.9918 13.7167C72.8772 12.2346 71.3607 11.1059 69.6236 10.4656C67.7777 9.84972 65.8095 9.69736 63.8913 10.0218C61.9732 10.3463 60.1636 11.1378 58.6213 12.3268C57.1849 13.4962 56.1195 15.0603 55.5555 16.8277C54.9873 18.7633 54.8653 20.8032 55.1986 22.7931C55.5319 24.783 56.3118 26.6709 57.4794 28.314C58.5921 29.792 60.107 30.9158 61.8417 31.5502C63.6873 32.1665 65.6553 32.3194 67.5735 31.9954C69.4917 31.6714 71.3013 30.8805 72.844 29.692C74.2707 28.5254 75.3337 26.9726 75.9067 25.218C76.524 23.2863 76.6487 21.2302 76.2695 19.2377ZM71.9548 23.6372C71.6268 24.7026 70.9864 25.6443 70.1172 26.3395C69.1562 27.0559 68.0395 27.5333 66.8588 27.7324C65.6781 27.9315 64.4671 27.8466 63.3255 27.4848C62.2793 27.11 61.369 26.4295 60.7117 25.5312C60.0092 24.4992 59.5389 23.3263 59.3335 22.0937C59.1281 20.8612 59.1925 19.5986 59.5223 18.3936C59.8527 17.3308 60.4902 16.3903 61.354 15.6913C62.3164 14.9766 63.4335 14.5003 64.6144 14.3012C65.7952 14.1022 67.0063 14.186 68.1487 14.5459C69.1975 14.9173 70.1097 15.5984 70.7654 16.4996C71.4625 17.5341 71.9295 18.7069 72.1348 19.9385C72.34 21.17 72.2786 22.4315 71.9548 23.6372Z" fill="white"/>
<path d="M142.656 35.1797L118.07 80.5584V35.1797H104.374V99.1436H121.552L146.955 51.8351V99.1436H160.613V35.1797H142.656Z" fill="black"/>
<path d="M255.605 35.1414H239.871L222.651 78.9065H236.493V84.3469H260.734L266.339 99.1441H280L255.605 35.1414ZM239.051 70.6354L247.308 48.5307L255.599 70.6354H239.051Z" fill="black"/>
<path d="M217.399 84.3315V35.1797H203.64L203.702 84.3315H179.729L179.667 35.1827H166.015V99.1436H217.399V113.556H231.077V84.3256L217.399 84.3315Z" fill="black"/>
<path d="M88.6854 35.2214C84.4808 39.782 82.0127 42.6394 75.673 43.7251L52.6842 47.6026L52.6098 74.0383V74.1576V74.3484C52.6098 74.4081 52.6098 74.4737 52.6098 74.5423C52.6113 75.1684 52.5745 75.7939 52.4998 76.4155C52.5012 76.4213 52.5012 76.4275 52.4998 76.4333C52.2292 78.8195 51.3907 82.2436 49.2705 83.9885C47.4269 85.5008 44.4503 85.8527 40.3943 85.0444H40.323C40.0058 84.9808 39.6816 84.9092 39.3506 84.8296V98.4546C40.9306 98.8781 42.5564 99.1055 44.1916 99.1317C44.8101 99.1317 45.4137 99.1108 45.9966 99.075C51.6137 98.6962 55.4764 96.662 57.998 94.5771L58.0485 94.5323C65.2 88.567 66.2021 79.1506 66.3032 75.3029V75.1448C66.3032 74.948 66.3032 74.772 66.3032 74.6079V48.9418H85.2926V99.1406H98.9711V35.2214H88.6854Z" fill="black"/>
</svg>
