<svg width="133" height="80" viewBox="0 0 133 80" fill="none" xmlns="http://www.w3.org/2000/svg">
<g id="Group 1325">
<g id="Group 1324">
<path id="Vector" d="M121.37 18.4468H114.088L106.12 38.6378H114.966V41.1507H123.754L126.347 47.9791H132.671L121.37 18.4468ZM113.708 34.821L117.532 24.6185L121.37 34.821H113.708Z" fill="white"/>
<path id="Vector_2" d="M112.429 41.1361V50.4799H106.11V47.9743H79.897V18.4541L86.2162 18.4468L86.2454 41.1312L97.3416 41.1361L97.3124 18.4541H103.675V41.1361H112.429Z" fill="white"/>
<path id="Vector_3" d="M103.658 50.4483H79.897V56.7707H88.6291V79.9757H94.9579V56.7707H103.658V56.0458V50.4483Z" fill="white"/>
<path id="Vector_4" d="M75.8655 50.4483H54.8503H52.6028H51.3721L53.1063 65.1828L51.3721 79.9538H52.6028H54.8503V79.9757H77.4052V79.9538V74.3466V73.6509H58.2409L58.7323 68.1142H75.0118V67.7274V67.4646V62.901V62.6383V62.3099H58.7371L58.2434 56.7707H77.4052V56.0556V50.4483H75.8655Z" fill="white"/>
<path id="Vector_5" d="M124.817 62.2004H124.574C122.687 62.2336 120.829 62.6707 119.125 63.4824C119.941 61.7802 120.382 59.9229 120.419 58.0357C120.473 55.2698 119.639 52.0319 118.597 50.981C118.484 50.8394 118.339 50.7252 118.175 50.6467C118.011 50.5681 117.832 50.5274 117.65 50.5274C117.468 50.5274 117.289 50.5681 117.125 50.6467C116.961 50.7252 116.817 50.8394 116.703 50.981C115.662 52.0417 114.82 55.2747 114.866 58.0357C114.902 59.9225 115.339 61.7802 116.148 63.4848C114.447 62.6693 112.591 62.228 110.705 62.1907H110.461C107.423 62.1907 103.189 63.2416 103.186 64.9639C103.184 66.6862 107.421 67.7468 110.457 67.7493H110.7C112.586 67.716 114.442 67.2797 116.146 66.4697C115.332 68.1724 114.892 70.0295 114.854 71.9164C114.801 74.6823 115.635 77.9201 116.676 78.971C116.79 79.1127 116.934 79.2269 117.098 79.3054C117.262 79.3839 117.442 79.4247 117.623 79.4247C117.805 79.4247 117.985 79.3839 118.149 79.3054C118.312 79.2269 118.457 79.1127 118.571 78.971C119.612 77.9104 120.453 74.6774 120.407 71.9164C120.372 70.0292 119.934 68.1713 119.123 66.4672C120.825 67.2825 122.682 67.7238 124.569 67.7614H124.812C127.85 67.7614 132.087 66.7105 132.09 64.9882C132.092 63.2659 127.855 62.2028 124.817 62.2004Z" fill="white"/>
<path id="Vector_6" d="M129.714 62.3445C128.135 61.8444 126.489 61.5876 124.833 61.5831H124.589C123.088 61.6102 121.602 61.883 120.189 62.3908C120.701 60.9795 120.976 59.4935 121.004 57.9925C121.053 55.4237 120.309 51.8379 119.022 50.5243C118.856 50.3294 118.649 50.1728 118.417 50.0654C118.185 49.958 117.932 49.9024 117.676 49.9024C117.419 49.9024 117.166 49.958 116.934 50.0654C116.702 50.1728 116.495 50.3294 116.329 50.5243C115.04 51.8355 114.289 55.4188 114.332 57.9877C114.358 59.4887 114.63 60.9753 115.137 62.3883C113.726 61.8775 112.24 61.6022 110.74 61.5734H110.497C108.84 61.5759 107.193 61.8293 105.612 62.3251C103.667 62.9624 102.66 63.8284 102.66 64.9037C102.66 65.9789 103.65 66.8498 105.608 67.4896C107.187 67.9887 108.833 68.2455 110.489 68.251H110.732C112.233 68.2261 113.718 67.954 115.13 67.4458C114.621 68.8577 114.346 70.3433 114.315 71.844C114.267 74.4129 115.011 77.9986 116.3 79.3122C116.466 79.5072 116.672 79.6638 116.905 79.7712C117.137 79.8785 117.39 79.9341 117.646 79.9341C117.902 79.9341 118.155 79.8785 118.388 79.7712C118.62 79.6638 118.827 79.5072 118.993 79.3122C120.282 78.001 121.033 74.4177 120.99 71.8489C120.964 70.3476 120.691 68.8608 120.182 67.4482C121.594 67.959 123.081 68.2343 124.582 68.2632H124.825C126.482 68.2607 128.129 68.0072 129.709 67.5115C131.655 66.8741 132.662 66.0081 132.662 64.9304C132.662 63.8528 131.672 62.9843 129.714 62.3445ZM115.441 57.9658C115.388 54.7669 116.551 51.0206 117.665 51.023C118.779 51.0254 119.936 54.7717 119.876 57.9706C119.838 59.7109 119.443 61.4249 118.715 63.0062C118.458 63.1327 118.212 63.2616 117.986 63.393L117.66 62.9065L117.331 63.393C117.088 63.2641 116.845 63.1327 116.602 63.0062C115.877 61.4227 115.484 59.7071 115.449 57.9658H115.441ZM110.706 67.1247H110.462C107.317 67.1247 103.752 65.9862 103.752 64.8988C103.752 63.8114 107.322 62.6827 110.467 62.6851H110.711C112.452 62.7231 114.167 63.118 115.75 63.8455C115.877 64.1033 116.008 64.349 116.137 64.5753L115.651 64.9037L116.137 65.2321C116.006 65.4632 115.877 65.7064 115.75 65.9619C114.166 66.6905 112.449 67.0862 110.706 67.1247ZM119.861 71.8635C119.917 75.0624 118.752 78.8087 117.638 78.8062C116.524 78.8038 115.368 75.0575 115.429 71.8586C115.466 70.1167 115.861 68.401 116.589 66.8182C116.847 66.6917 117.091 66.5627 117.319 66.4314L117.648 66.9179L117.976 66.4314C118.219 66.5603 118.462 66.6917 118.706 66.8182C119.433 68.4027 119.827 70.1202 119.861 71.8635ZM124.828 67.1417H124.585C122.843 67.105 121.128 66.7109 119.545 65.9838C119.418 65.7259 119.302 65.4802 119.16 65.254L119.647 64.9256L119.16 64.5972C119.292 64.3661 119.421 64.1228 119.547 63.8674C121.131 63.1416 122.847 62.7499 124.589 62.7167H124.833C127.978 62.7167 131.546 63.8552 131.546 64.9426C131.546 66.03 127.97 67.1417 124.828 67.1417Z" fill="#282828"/>
<path id="Vector_7" d="M117.095 64.8326C117.585 62.2911 118.799 59.9452 120.591 58.0772C122.536 56.0727 125.416 54.382 126.9 54.382C127.079 54.3663 127.258 54.3904 127.427 54.4524C127.595 54.5144 127.748 54.6129 127.873 54.7407C127.999 54.8686 128.095 55.0227 128.154 55.192C128.213 55.3613 128.234 55.5416 128.216 55.72C128.201 57.2063 126.513 60.0866 124.511 62.0059C122.639 63.7931 120.292 65.0026 117.75 65.4895L116.935 65.6476L117.095 64.8326Z" fill="#FD7D32"/>
<path id="Vector_8" d="M108.382 75.5555C108.204 75.5659 108.027 75.5403 107.859 75.4801C107.692 75.4199 107.539 75.3263 107.409 75.2052C107.286 75.0724 107.192 74.9163 107.132 74.7461C107.072 74.5759 107.047 74.3952 107.059 74.2151C107.076 72.7287 108.761 69.8509 110.765 67.9316C112.637 66.1435 114.985 64.9338 117.527 64.448L118.342 64.2899L118.182 65.1048C117.691 67.6462 116.477 69.9919 114.686 71.8603C112.741 73.8648 109.861 75.5555 108.362 75.5555" fill="#01B2E0"/>
<path id="Vector_9" d="M126.878 75.5749C125.394 75.5749 122.5 73.8721 120.576 71.8676C118.786 69.997 117.577 67.6482 117.093 65.1048L116.935 64.2899L117.747 64.4504C120.294 64.9406 122.644 66.1582 124.514 67.9559C126.504 69.8777 128.194 72.7603 128.206 74.2467C128.224 74.4251 128.203 74.6054 128.144 74.7746C128.084 74.9437 127.988 75.0977 127.862 75.2253C127.736 75.3529 127.583 75.4511 127.415 75.5128C127.246 75.5745 127.066 75.5982 126.888 75.5822" fill="#701487"/>
<path id="Vector_10" d="M117.531 65.5067C114.989 65.0171 112.643 63.8022 110.776 62.0085C108.784 60.0867 107.094 57.2041 107.082 55.7177C107.063 55.5393 107.085 55.359 107.144 55.1899C107.204 55.0207 107.3 54.8668 107.426 54.7391C107.552 54.6115 107.705 54.5133 107.873 54.4516C108.041 54.3899 108.221 54.3662 108.4 54.3822C109.884 54.3822 112.778 56.0851 114.702 58.0871C116.491 59.9588 117.701 62.3083 118.185 64.8523L118.343 65.6648L117.531 65.5067Z" fill="#ABC704"/>
<path id="Vector_11" d="M121.212 64.9505C122.573 64.3127 123.82 63.4555 124.904 62.4132C126.755 60.6325 128.762 57.5723 128.781 55.7332C128.801 55.4807 128.767 55.2267 128.681 54.9886C128.594 54.7505 128.458 54.5338 128.28 54.3533C128.102 54.1728 127.888 54.0327 127.651 53.9426C127.414 53.8524 127.161 53.8143 126.908 53.8308C125.069 53.8308 121.992 55.8353 120.195 57.6939C119.151 58.7757 118.291 60.0216 117.651 61.3818C117.015 60.0189 116.159 58.7704 115.116 57.6866C113.321 55.8232 110.252 53.8114 108.41 53.809C108.158 53.7925 107.904 53.8306 107.668 53.9206C107.431 54.0106 107.216 54.1504 107.038 54.3305C106.86 54.5106 106.723 54.7269 106.636 54.9647C106.548 55.2025 106.513 55.4563 106.533 55.7088C106.547 57.5479 108.551 60.6131 110.398 62.3962C111.479 63.4409 112.725 64.3006 114.085 64.9407C112.723 65.5779 111.476 66.4352 110.393 67.478C108.542 69.2587 106.533 72.3189 106.516 74.158C106.495 74.4105 106.529 74.6645 106.616 74.9026C106.702 75.1407 106.839 75.3574 107.017 75.5379C107.194 75.7184 107.409 75.8585 107.646 75.9486C107.882 76.0388 108.136 76.0769 108.388 76.0603C110.227 76.0603 113.304 74.0558 115.102 72.1949C116.143 71.115 116.998 69.8706 117.634 68.5119C118.271 69.8727 119.129 71.1194 120.171 72.2022C121.966 74.068 125.035 76.0798 126.876 76.0822C127.129 76.0982 127.382 76.0599 127.619 75.9698C127.855 75.8797 128.07 75.7398 128.248 75.5598C128.426 75.3797 128.563 75.1636 128.65 74.926C128.738 74.6884 128.773 74.4348 128.754 74.1823C128.737 72.3433 126.735 69.2781 124.889 67.495C123.812 66.4504 122.569 65.5906 121.212 64.9505ZM120.998 58.4699C122.863 56.5408 125.607 54.945 126.906 54.9474C127.114 54.9305 127.32 54.997 127.48 55.1323C128.265 55.9205 126.434 59.3894 124.13 61.608C122.871 62.8159 121.377 63.7509 119.74 64.3545C119.47 64.262 119.205 64.1793 118.95 64.1112L119.061 63.5371L118.487 63.649C118.417 63.3936 118.337 63.1284 118.244 62.8584C118.851 61.2218 119.788 59.7279 120.998 58.4699ZM111.173 61.5958C108.872 59.3724 107.039 55.901 107.836 55.1129C107.996 54.9776 108.202 54.911 108.41 54.928C109.709 54.928 112.45 56.5311 114.311 58.465C115.516 59.7215 116.451 61.2118 117.057 62.8438C116.965 63.1163 116.882 63.3814 116.814 63.6344L116.238 63.5225L116.349 64.0966C116.106 64.1672 115.831 64.2499 115.559 64.3399C113.925 63.7354 112.432 62.8014 111.173 61.5958ZM114.299 71.4237C112.433 73.3528 109.69 74.9584 108.391 74.9584C108.183 74.9753 107.976 74.9088 107.817 74.7735C107.029 73.9829 108.863 70.5139 111.166 68.2978C112.425 67.0899 113.92 66.1549 115.556 65.5513C115.826 65.6438 116.092 65.724 116.347 65.7946L116.233 66.3687L116.809 66.2568C116.88 66.5122 116.96 66.7749 117.052 67.0474C116.444 68.6792 115.506 70.1686 114.299 71.4237ZM127.46 74.7808C127.38 74.8477 127.286 74.8979 127.186 74.9284C127.086 74.9589 126.981 74.969 126.876 74.9584C125.578 74.9584 122.836 73.3552 120.976 71.4213C119.771 70.1649 118.836 68.6746 118.23 67.0425C118.322 66.7701 118.405 66.5049 118.473 66.2519L119.047 66.3638L118.935 65.7897C119.19 65.7192 119.455 65.6365 119.728 65.5465C121.36 66.1559 122.851 67.094 124.106 68.3026C126.424 70.5212 128.248 73.9853 127.46 74.7808Z" fill="#282828"/>
<path id="Vector_12" d="M117.627 68.7682C116.884 68.7673 116.157 68.5458 115.539 68.1319C114.921 67.718 114.44 67.1301 114.156 66.4427C113.873 65.7552 113.799 64.9991 113.945 64.2698C114.091 63.5405 114.449 62.8709 114.976 62.3455C115.502 61.8201 116.172 61.4626 116.902 61.3181C117.631 61.1737 118.387 61.2488 119.074 61.534C119.761 61.8191 120.348 62.3016 120.76 62.9202C121.173 63.5389 121.393 64.2661 121.392 65.0098C121.391 66.0073 120.993 66.9632 120.287 67.6679C119.581 68.3725 118.625 68.7682 117.627 68.7682Z" fill="#FFDE0D"/>
<path id="Vector_13" d="M117.655 61.743C118.288 61.7435 118.907 61.9317 119.433 62.284C119.959 62.6363 120.369 63.1367 120.611 63.722C120.853 64.3073 120.916 64.9512 120.791 65.5722C120.667 66.1931 120.362 66.7633 119.913 67.2106C119.465 67.6579 118.894 67.9622 118.273 68.0849C117.652 68.2077 117.008 68.1435 116.424 67.9004C115.839 67.6572 115.34 67.2462 114.989 66.7191C114.638 66.1921 114.451 65.5727 114.452 64.9395C114.453 64.0908 114.791 63.2774 115.392 62.678C115.992 62.0787 116.807 61.7423 117.655 61.743ZM117.655 60.6215C116.8 60.6201 115.964 60.8723 115.252 61.3463C114.54 61.8203 113.985 62.4948 113.657 63.2844C113.329 64.0741 113.242 64.9433 113.407 65.7823C113.573 66.6213 113.984 67.3922 114.588 67.9976C115.192 68.603 115.962 69.0156 116.8 69.1832C117.639 69.3509 118.508 69.2661 119.298 68.9395C120.089 68.6129 120.764 68.0592 121.24 67.3485C121.715 66.6378 121.969 65.8019 121.97 64.9468C121.97 63.8013 121.516 62.7027 120.707 61.8918C119.898 61.0809 118.8 60.6241 117.655 60.6215Z" fill="#282828"/>
<path id="Vector_14" d="M69.0939 18.4468L57.7107 39.3846V18.4468H51.3721V47.967H59.3233L71.0836 26.134V47.967H77.4076V18.4468H69.0939Z" fill="white"/>
<path id="Vector_15" d="M49.0634 18.4541V80H42.7393V24.7887H30.6921V68.6639C30.6921 68.7393 30.6921 68.8196 30.6921 68.9071V68.9826C30.6458 70.7584 30.1813 75.108 26.8709 77.8568L26.8466 77.8787C25.6815 78.8396 23.8937 79.7786 21.2936 79.9538C21.0236 79.9684 20.7463 79.9805 20.4569 79.9805C19.7001 79.9681 18.9478 79.8627 18.2167 79.6667V73.3783C18.3724 73.4148 18.5207 73.4513 18.6691 73.4781C18.6796 73.479 18.6902 73.479 18.7007 73.4781C20.5761 73.8503 21.9576 73.6873 22.8114 72.9916C23.7843 72.1864 24.1783 70.6124 24.3024 69.508C24.3033 69.504 24.3033 69.4999 24.3024 69.4958C24.3369 69.2093 24.3548 68.9209 24.3559 68.6323C24.3559 68.6006 24.3559 68.5714 24.3559 68.5447V68.4547V68.4012L24.3899 24.166V22.2345L35.0921 20.4586L35.1675 20.4465C36.7299 20.1246 38.1947 19.4396 39.4435 18.4468H49.0634V18.4541Z" fill="white"/>
<path id="Vector_16" d="M31.0074 0.118796L7.56716 4.01102C5.19973 4.40501 3.08559 5.72305 1.68947 7.67542C0.293339 9.6278 -0.270519 12.0547 0.121836 14.4227C0.939094 19.3342 5.62617 22.6937 11.2375 21.8666L34.6753 17.9744C38.3749 17.2446 41.5223 13.4059 41.5418 9.08065C41.5447 8.5704 41.5032 8.06086 41.4177 7.55782C41.0167 5.19411 39.6968 3.08511 37.7463 1.69133C35.7959 0.29755 33.3732 -0.267774 31.0074 0.118796Z" fill="#FFDE0D"/>
<path id="Vector_17" d="M13.8715 9.68372C13.7147 9.26454 13.4653 8.88617 13.1418 8.57687C12.6852 8.14796 12.1228 7.84823 11.5122 7.70841C10.8123 7.5437 10.0857 7.52713 9.37902 7.65976C8.66979 7.76309 7.98789 8.0053 7.37236 8.37253C6.85963 8.6736 6.44553 9.11734 6.18053 9.64966C5.93144 10.1805 5.85734 10.7768 5.96892 11.3525C6.037 11.8388 6.22879 12.2995 6.52592 12.6905C6.82806 13.0516 7.23124 13.3143 7.6837 13.4446C8.28433 13.6141 8.90962 13.6791 9.53226 13.6368L11.2519 13.5711C11.5773 13.5521 11.9038 13.5709 12.2248 13.627C12.4257 13.659 12.6127 13.7496 12.7624 13.8873C12.893 14.0293 12.9778 14.2073 13.0056 14.3982C13.0556 14.6512 13.0031 14.9137 12.8597 15.128C12.6925 15.3725 12.461 15.5662 12.1908 15.6875C11.8409 15.8556 11.4679 15.9704 11.0841 16.0281C10.6751 16.1061 10.255 16.1061 9.84603 16.0281C9.50677 15.9656 9.18882 15.8183 8.92175 15.5999C8.77762 15.4797 8.65719 15.3337 8.56663 15.1693L6.62078 15.6242C6.77336 16.0618 7.02279 16.4593 7.35047 16.787C7.82264 17.2483 8.41108 17.5728 9.0531 17.726C9.79698 17.9004 10.569 17.9178 11.32 17.7771C12.0543 17.6685 12.7582 17.4093 13.3875 17.0157C13.9218 16.6818 14.351 16.2036 14.6255 15.6364C14.8827 15.0751 14.9592 14.4478 14.8444 13.8411C14.7835 13.3664 14.6008 12.9156 14.3142 12.5323C14.0205 12.1938 13.6271 11.9571 13.1905 11.8561C12.5606 11.708 11.9122 11.6539 11.2665 11.6955L9.47875 11.7393C9.18054 11.7542 8.88163 11.733 8.58852 11.6761C8.40044 11.6439 8.22515 11.5596 8.0826 11.4328C7.96339 11.3014 7.88703 11.1368 7.86369 10.9609C7.81744 10.7241 7.86356 10.4786 7.9926 10.2749C8.14646 10.0458 8.36013 9.86319 8.61041 9.74697C8.93235 9.58791 9.27695 9.47959 9.63199 9.42586C10.0111 9.35521 10.3995 9.35109 10.78 9.4137C11.0882 9.4603 11.379 9.58603 11.6241 9.77859C11.8101 9.9266 11.9522 10.1226 12.0351 10.3454L13.8715 9.68372Z" fill="#282828"/>
<path id="Vector_18" d="M24.0437 7.48861L23.7154 5.5425L15.1731 6.98019L15.5039 8.9263L18.824 8.36679L20.1399 16.1707L22.0346 15.852L20.7212 8.04812L24.0437 7.48861Z" fill="#282828"/>
<path id="Vector_19" d="M35.3338 8.69872C35.1984 7.77418 34.8347 6.89796 34.2757 6.14931C33.7602 5.46726 33.0594 4.94792 32.2569 4.65323C31.4002 4.3677 30.4865 4.29668 29.596 4.4464C28.7055 4.59611 27.8653 4.96198 27.149 5.51195C26.4854 6.05173 25.9928 6.77259 25.731 7.587C25.4674 8.48274 25.4114 9.4268 25.5673 10.3474C25.7233 11.268 26.087 12.141 26.6309 12.8999C27.145 13.5834 27.8463 14.1031 28.6498 14.396C29.5062 14.6832 30.4202 14.7551 31.311 14.6054C32.2019 14.4556 33.0421 14.0888 33.7576 13.5372C34.4212 12.9969 34.9145 12.2763 35.1781 11.4622C35.4599 10.5685 35.5134 9.61843 35.3338 8.69872ZM33.3344 10.7324C33.1828 11.2247 32.8861 11.6596 32.4831 11.9804C32.0383 12.3116 31.5213 12.5324 30.9745 12.6246C30.4277 12.7168 29.8668 12.6777 29.3381 12.5107C28.8518 12.3378 28.4283 12.0235 28.1219 11.6082C27.7963 11.1312 27.5781 10.5893 27.4823 10.0198C27.3866 9.45023 27.4156 8.86671 27.5674 8.30949C27.7208 7.81873 28.0162 7.38445 28.4163 7.06155C28.8625 6.7315 29.3804 6.51146 29.9277 6.41931C30.475 6.32716 31.0364 6.36551 31.5661 6.53123C32.053 6.703 32.4768 7.0175 32.7823 7.43374C33.1064 7.91135 33.3238 8.45328 33.4195 9.02254C33.5152 9.59181 33.487 10.175 33.3368 10.7324H33.3344Z" fill="#282828"/>
</g>
</g>
</svg>
