<?xml version="1.0" encoding="UTF-8"?>
<svg id="_Слой_2" data-name="Слой 2" xmlns="http://www.w3.org/2000/svg" viewBox="0 0 320.66 139.41">
  <defs>
    <style>
      .cls-1 {
        fill: #ef7d3c;
      }

      .cls-2 {
        fill: #6c2382;
      }

      .cls-3 {
        fill: #08b1df;
      }

      .cls-4 {
        fill: #abc711;
      }

      .cls-4, .cls-5 {
        fill-rule: evenodd;
      }
    </style>
  </defs>
  <g id="_Слой_1-2" data-name="Слой 1">
    <g>
      <g>
        <path class="cls-4" d="M107.01,62.98l18.14-3.26c.58,3.25,.88,6.58,.88,9.99,0,15.56-6.31,29.64-16.5,39.83-10.19,10.19-24.27,16.5-39.83,16.5-2.98,0-5.92-.23-8.79-.68l2.82-17.89h7.5c4.61,0,6.71-2.4,6.71-5.49,0-1.29-.35-2.56-1.24-3.61,9.98-2.63,17.9-10.3,20.88-20.09l9.47-.02c-.05-1.64-.07-2.96-.07-4.16l-7.92-.03,.02-1.72,6.87-.12v-3.92l-6.87,.02v-1.59l7.91-.02v-3.73Zm-37.91,40.72l.02-4.27c1.4,0,3.69,.46,3.69,2.44,0,1.53-1.28,1.83-3.71,1.83Zm68.07-45.51l-10.65,1.92c.52,3.12,.79,6.33,.79,9.59,0,15.91-6.45,30.31-16.87,40.73-10.42,10.42-24.83,16.87-40.73,16.87-2.84,0-5.63-.2-8.35-.6l-1.69,10.68c3.27,.48,6.63,.74,10.04,.74,18.9,0,36-7.66,48.38-20.04,12.38-12.38,20.04-29.49,20.04-48.38,0-3.92-.33-7.77-.97-11.51Z"/>
        <path class="cls-5" d="M83.06,133.37c.64,.4,1.34,.51,2.11,.35,.77-.16,1.36-.55,1.77-1.18,.42-.62,.55-1.3,.4-2.01-.16-.72-.55-1.28-1.19-1.68-.64-.4-1.34-.51-2.1-.35-.77,.17-1.36,.55-1.78,1.18-.42,.62-.55,1.29-.4,2.01,.15,.72,.55,1.28,1.19,1.68m-4.95-1.37l-2.01-2.02-.99,.11,.58,5.09,1.09-.13-.39-3.38,1.88,1.89,1.41-2.27,.39,3.39,1.09-.13-.58-5.09-.97,.11-1.52,2.43Zm42.71-25.69l-.75-2.75,.58-.78,4.14,3.05-.66,.88-2.76-2.03,.71,2.57-2.66,.08,2.74,2.02-.66,.88-4.14-3.05,.59-.79,2.87-.07Zm12.38-24.72l.14-.94c.03-.21,0-.41-.14-.57-.12-.16-.28-.26-.48-.29-.2-.03-.39,.02-.55,.15-.16,.13-.26,.3-.29,.51l-.14,.94,1.46,.2Zm1.12-.83c.08-.52-.03-.98-.31-1.37-.28-.39-.66-.62-1.15-.69-.48-.07-.92,.05-1.3,.35-.38,.3-.6,.71-.68,1.23l-.14,.98-1.68-.23-.15,1.08,5.09,.71,.31-2.06Zm-4.61-4.19l-.15,1.08,5.1,.71,.15-1.08-5.1-.71Zm-.58,8.36l-.25,.99,1.08,.26,.25-.99c.05-.17,.03-.33-.04-.46-.08-.13-.19-.21-.35-.25-.16-.04-.3-.02-.43,.06-.14,.09-.21,.21-.26,.39Zm2.96,1.79l.28-1.13c.05-.19,.03-.37-.07-.53-.09-.16-.22-.26-.41-.31-.18-.05-.35-.02-.5,.08-.15,.1-.26,.24-.31,.44l-.28,1.13,1.29,.33Zm1.19-.97c.13-.49,.08-.93-.13-1.32-.2-.39-.51-.63-.91-.73-.15-.04-.32-.05-.47-.02-.15,.02-.28,.06-.39,.12-.1,.05-.19,.12-.29,.19-.09,.08-.15,.14-.17,.16-.03,.03-.05,.06-.06,.08l-.02-.07s-.04-.1-.09-.16c-.04-.07-.1-.15-.16-.22-.07-.08-.15-.15-.26-.21-.11-.07-.23-.12-.37-.15-.35-.09-.7-.02-1.04,.21-.34,.23-.56,.57-.68,1.02l-.53,2.13,5,1.24,.57-2.28Zm-6.78,4.78l-.37,1.04,4.86,1.7,.37-1.04-1.39-.48-.47-.86,2.58-.69,.43-1.21-3.53,.94-1.39-2.49-.43,1.21,1.45,2.63-2.12-.75Zm-1.63,3.82c.11-.25,.23-.47,.4-.67,.16-.19,.32-.35,.47-.46,.15-.11,.3-.19,.44-.27,.14-.07,.25-.12,.34-.15l.13-.04,.38,.91s-.06,0-.1,.02c-.04,0-.12,.04-.23,.09-.11,.05-.21,.11-.31,.17-.1,.07-.2,.17-.32,.3-.12,.14-.2,.28-.27,.44-.18,.45-.19,.87-.02,1.29,.17,.42,.48,.73,.93,.91,.45,.18,.88,.19,1.3,.02,.43-.17,.73-.48,.91-.92,.07-.17,.12-.35,.14-.52,.02-.17,.02-.33,0-.46-.02-.13-.05-.25-.08-.36-.03-.11-.07-.18-.1-.24l-.05-.08,.9-.34s.04,.07,.07,.13c.03,.06,.07,.16,.13,.34,.06,.16,.1,.34,.13,.52,.03,.17,.02,.4,0,.65-.03,.26-.1,.51-.19,.76-.3,.72-.8,1.23-1.49,1.52-.7,.29-1.39,.3-2.06,.02-.68-.28-1.16-.77-1.43-1.47-.28-.68-.27-1.38,.03-2.1Zm.41,9.29c-.72,.23-1.4,.16-2.05-.17-.65-.35-1.08-.88-1.3-1.6-.21-.72-.14-1.42,.24-2.11,.37-.69,.91-1.14,1.63-1.38,.72-.23,1.39-.17,2.05,.17,.65,.35,1.08,.88,1.3,1.6,.21,.72,.14,1.42-.23,2.11-.38,.69-.92,1.14-1.64,1.38Zm-2.35-2.16c-.14-.44-.1-.85,.12-1.26,.21-.41,.54-.67,.98-.8,.44-.13,.87-.09,1.29,.14,.42,.22,.7,.55,.83,.99,.14,.44,.1,.85-.12,1.26-.21,.41-.54,.67-.98,.8-.44,.13-.87,.09-1.29-.14-.42-.22-.7-.55-.83-.99Zm-7.28,13.91l-1.05-1.03,.72-.73c.15-.15,.34-.23,.54-.24,.2,0,.38,.07,.52,.21,.15,.15,.22,.32,.21,.52,0,.2-.08,.39-.23,.54l-.72,.72Zm1.45-.06l-1.52,1.53-3.66-3.59,.78-.78,1.2,1.18,.75-.76c.37-.38,.79-.57,1.28-.58,.48,0,.89,.15,1.25,.49,.35,.34,.51,.76,.5,1.23,0,.48-.2,.9-.57,1.28Zm-6.57,3.72l-.65-.09,.24,2.64-.99,.81-.34-3.61-2.83-.43,.99-.81,2.65,.38-1.27-1.52,.85-.7,1.27,1.52,.13-2.66,.99-.81-.12,2.85,3.51,1.01-.99,.81-2.57-.74-.04,.65,1.1,1.33-.85,.7-1.09-1.33Zm-4.78,4.49l2.26-1.57,.57,.8-3.17,2.2-2.94-4.19,3.11-2.16,.57,.81-2.2,1.53,.59,.84,1.71-1.19,.57,.8-1.71,1.19,.64,.93Zm-5.69,.49l-.28-.51,1.19-.65,1.53,2.75-1.9,1.05,.04-.13c.02-.08,.03-.19,.03-.35s0-.33-.03-.53c-.02-.2-.08-.45-.18-.74-.11-.3-.23-.59-.4-.89Zm-.69,3.3l.26-.15s.02-.07,.03-.12c0-.06,.02-.17,.03-.35,0-.17,0-.36-.02-.55-.02-.19-.09-.44-.18-.73-.1-.29-.23-.59-.4-.89l-.77-1.38,3.12-1.71,2.01,3.62,.55-.3,1,1.79-.97,.53-.51-.93-2.7,1.48,.51,.93-.97,.53-.99-1.79Zm-4.58,2.46c-.71-.26-1.21-.74-1.5-1.4-.3-.68-.3-1.36-.02-2.05,.28-.7,.78-1.19,1.5-1.51,.72-.31,1.42-.34,2.13-.08,.71,.26,1.2,.73,1.5,1.4,.3,.68,.31,1.36,.02,2.05-.28,.7-.78,1.2-1.5,1.51-.71,.31-1.42,.34-2.13,.08Zm-.5-3.15c.16-.43,.46-.73,.88-.91,.43-.18,.84-.19,1.27-.02,.43,.16,.74,.47,.93,.9,.19,.44,.2,.86,.04,1.29-.16,.43-.46,.73-.87,.91-.43,.18-.84,.19-1.27,.02-.43-.16-.74-.46-.92-.9-.2-.44-.21-.86-.06-1.29Zm-2.73-.26l-3.54,1.12,.48,1.51c.21,.67,.34,1.19,.39,1.59,.04,.4,.03,.66-.05,.8-.08,.15-.2,.25-.39,.31-.12,.04-.24,.05-.37,.04l.32,1h.1c.06,0,.14,0,.25,0,.12,0,.22-.04,.32-.07,.25-.08,.46-.2,.61-.36,.15-.16,.26-.39,.33-.69,.07-.3,.07-.69,0-1.18-.08-.49-.22-1.08-.45-1.76l-.18-.56,1.43-.46,1.27,3.93,1.05-.34-1.57-4.88Zm-8.35,3.8c-.24,.39-.32,.8-.22,1.27,.1,.46,.34,.81,.73,1.07,.38,.25,.79,.33,1.25,.23,.46-.1,.79-.34,1.05-.72,.24-.39,.32-.8,.22-1.27-.1-.46-.34-.82-.73-1.07-.39-.25-.79-.33-1.25-.23-.46,.1-.8,.34-1.05,.72Zm19.38-81.16l-2.17-6.53-2.32,6.53h-5.54l5.4-15.29h4.79l5.59,15.29h-5.74Zm-62.65,13.49c4.48,0,8.1,3.62,8.1,8.1s-3.62,8.1-8.1,8.1-8.1-3.62-8.1-8.1,3.62-8.1,8.1-8.1Zm0,1.34c1.87,0,3.55,.76,4.78,1.98,1.22,1.22,1.98,2.92,1.98,4.78s-.76,3.55-1.98,4.79c-1.22,1.22-2.92,1.98-4.78,1.98s-3.55-.76-4.78-1.98c-1.22-1.22-1.98-2.92-1.98-4.79s.76-3.55,1.98-4.78c1.23-1.22,2.92-1.98,4.78-1.98Zm0,5.44c.37,0,.7,.15,.93,.39,.24,.24,.39,.57,.39,.93s-.15,.7-.39,.93c-.24,.24-.57,.39-.93,.39s-.7-.15-.93-.39c-.24-.24-.39-.57-.39-.93s.15-.7,.39-.93c.23-.24,.56-.39,.93-.39Zm0-2.8c1.13,0,2.17,.46,2.92,1.21,.75,.75,1.21,1.77,1.21,2.92s-.47,2.17-1.21,2.92c-.75,.75-1.77,1.21-2.92,1.21s-2.17-.47-2.92-1.21c-.75-.75-1.21-1.77-1.21-2.92s.46-2.17,1.21-2.92c.75-.76,1.77-1.21,2.92-1.21Zm1.95,2.17c.5,.5,.8,1.19,.8,1.95s-.31,1.45-.8,1.95c-.5,.5-1.19,.8-1.95,.8s-1.45-.31-1.95-.8c-.5-.5-.8-1.19-.8-1.95s.31-1.45,.8-1.95c.5-.5,1.19-.8,1.95-.8,.77,0,1.45,.3,1.95,.8Zm1.87-1.87c.98,.98,1.58,2.32,1.58,3.82s-.6,2.84-1.58,3.82c-.98,.98-2.32,1.58-3.82,1.58s-2.84-.6-3.82-1.58c-.98-.98-1.58-2.32-1.58-3.82s.6-2.84,1.58-3.82c.98-.98,2.32-1.58,3.82-1.58s2.84,.6,3.82,1.58Zm25.85-33.51c4.48,0,8.1,3.62,8.1,8.1s-3.62,8.1-8.1,8.1-8.1-3.62-8.1-8.1,3.63-8.1,8.1-8.1Zm0,6.77c.37,0,.7,.15,.93,.39,.24,.24,.39,.57,.39,.93s-.15,.7-.39,.93c-.24,.24-.57,.39-.93,.39s-.7-.15-.93-.39c-.24-.24-.39-.57-.39-.93s.15-.7,.39-.93c.23-.23,.57-.39,.93-.39Zm0-5.43c1.87,0,3.55,.76,4.78,1.98,1.22,1.22,1.98,2.92,1.98,4.78s-.76,3.55-1.98,4.78c-1.22,1.22-2.92,1.98-4.78,1.98s-3.55-.76-4.79-1.98c-1.22-1.22-1.98-2.92-1.98-4.78s.76-3.55,1.98-4.78c1.23-1.22,2.92-1.98,4.79-1.98Zm3.82,2.94c.98,.98,1.58,2.32,1.58,3.82s-.6,2.84-1.58,3.82c-.98,.98-2.32,1.58-3.82,1.58s-2.84-.6-3.82-1.58c-.98-.98-1.58-2.32-1.58-3.82s.6-2.84,1.58-3.82c.98-.98,2.32-1.58,3.82-1.58,1.49,0,2.84,.6,3.82,1.58Zm-3.82-.31c1.13,0,2.17,.46,2.92,1.21,.75,.75,1.21,1.77,1.21,2.92s-.46,2.17-1.21,2.92c-.75,.75-1.77,1.21-2.92,1.21s-2.17-.46-2.92-1.21c-.75-.75-1.21-1.77-1.21-2.92s.46-2.17,1.21-2.92c.75-.75,1.78-1.21,2.92-1.21Zm1.96,2.17c.5,.5,.8,1.19,.8,1.95s-.31,1.45-.8,1.95c-.5,.5-1.19,.8-1.95,.8s-1.45-.31-1.95-.8c-.5-.5-.8-1.19-.8-1.95s.31-1.45,.8-1.95,1.19-.8,1.95-.8,1.44,.31,1.95,.8Zm-7.82,68.04v-15.39h5.3v3.53c6.92,.31,8.92,3.25,8.92,6.37s-2.11,5.49-6.71,5.49h-7.51Zm5.35-3.76l.02-4.27c1.4,0,3.69,.46,3.69,2.44,0,1.52-1.28,1.83-3.71,1.83ZM35.8,41.58v7.48h-4.59v-15.29l4.61-.07,4.33,4.72,3.87-4.68,4.64,.03v15.29h-4.59v-7.48l-3.92,4.7-4.35-4.7Zm56.56,58.26c0-1.14,.2-2.21,.62-3.21,.42-1,.98-1.87,1.7-2.61,.73-.75,1.59-1.33,2.58-1.75,.99-.43,2.05-.64,3.2-.64s2.2,.21,3.2,.64c.99,.43,1.85,1.01,2.58,1.75,.73,.75,1.3,1.61,1.7,2.61,.42,1,.62,2.06,.62,3.21s-.2,2.21-.62,3.21c-.42,1-.98,1.87-1.7,2.61-.73,.75-1.59,1.33-2.58,1.75-.99,.43-2.05,.64-3.2,.64s-2.21-.21-3.2-.64c-.99-.43-1.85-1.02-2.58-1.75-.73-.75-1.3-1.61-1.7-2.61-.41-1-.62-2.06-.62-3.21Zm8.1-6.71c1.86,0,3.54,.76,4.76,1.97,1.22,1.22,1.97,2.9,1.97,4.76s-.76,3.54-1.97,4.76c-1.22,1.22-2.9,1.97-4.76,1.97s-3.54-.76-4.76-1.97-1.97-2.9-1.97-4.76,.76-3.54,1.97-4.76c1.22-1.22,2.91-1.97,4.76-1.97Zm3.85,2.87c.99,.99,1.59,2.34,1.59,3.85s-.61,2.87-1.59,3.85c-.99,.99-2.34,1.6-3.85,1.6s-2.87-.61-3.85-1.6c-.99-.99-1.59-2.34-1.59-3.85s.61-2.87,1.59-3.85c.99-.99,2.34-1.6,3.85-1.6,1.5,0,2.87,.62,3.85,1.6Zm-.02,3.85l-2.87,1.66-2.87,1.66v-6.63l2.87,1.66,2.87,1.66Zm2.72-25.76c0,1.18,.02,2.51,.07,4.16l-13.22,.03,.02-15.32,13.14,.03v3.73l-7.91,.02v1.59l6.87-.02v3.92l-6.87,.12-.02,1.72,7.92,.03Zm-57.36,18.14l-5.81,7.61,5.81,7.61h-5.4l-1.69-1.99v2.06h-5.23v-2.06l-1.69,1.99h-5.4l5.47-7.61-5.47-7.61h5.4l1.69,1.99v-2.06h5.23v2.06l1.69-1.99h5.4Zm28.74-13.83l-17.35,.03,.02-4.27h2.1l4.02-11.37h4.89l4.16,11.39h2.07c0,1.21,0,2.57,.08,4.22Zm-10.74-4.33l2.07-5.85,1.95,5.86h-4.02Zm69.52-15.89c.63,3.74,.97,7.58,.97,11.51,0,18.9-7.66,35.99-20.04,48.38-12.38,12.38-29.49,20.04-48.38,20.04-3.41,0-6.76-.25-10.04-.74l1.69-10.68c2.72,.4,5.51,.6,8.35,.6,15.91,0,30.31-6.45,40.73-16.87,10.42-10.42,16.87-24.83,16.87-40.73,0-3.26-.27-6.47-.79-9.59l10.65-1.92ZM69.7,0c19.25,0,36.67,7.8,49.28,20.42,12.61,12.61,20.42,30.04,20.42,49.28s-7.8,36.67-20.42,49.28c-12.61,12.61-30.04,20.42-49.28,20.42s-36.67-7.8-49.28-20.42C7.81,106.38,0,88.95,0,69.7S7.8,33.03,20.42,20.42C33.03,7.81,50.46,0,69.7,0Zm5.21,7.61c14.43,1.21,27.96,7.35,38.38,17.54,8.9,8.71,15.19,20.07,17.63,32.87l-4.63,.83c-2.2-11.57-7.86-21.9-15.86-29.89-8.28-8.28-19.07-14.05-31.12-16.08l-1.26-.19c-2.72-.4-5.51-.6-8.35-.6-15.91,0-30.31,6.45-40.73,16.87-10.43,10.43-16.87,24.84-16.87,40.74,0,3.26,.27,6.47,.79,9.59l.22,1.25c2.2,11.57,7.86,21.9,15.86,29.89,8.28,8.28,19.07,14.05,31.12,16.08l-.74,4.65c-12.84-2.16-24.34-8.2-33.24-16.91-8.72-8.52-14.94-19.61-17.47-32.08-.44-2.16-.77-4.41-.97-6.61-.18-1.93-.27-3.88-.27-5.86,0-17.2,6.97-32.78,18.25-44.05C36.92,14.37,52.5,7.4,69.7,7.4c1.74,0,3.48,.07,5.21,.21ZM6.36,75.69c.22,2.32,.57,4.49,1.03,6.72,2.6,12.74,8.94,24.04,17.83,32.74,9.09,8.88,20.82,15.06,33.94,17.26l-.76,4.78c-14.37-2.38-27.23-9.25-37.09-19.11-9.52-9.52-16.25-21.84-18.85-35.63l-.22-1.25c-.63-3.74-.97-7.58-.97-11.51,0-18.9,7.66-36,20.04-48.38,1.34-1.34,2.74-2.62,4.18-3.86,.18-.15,.38-.31,.56-.47,.15-.13,.3-.24,.45-.37h0s0,0,0,0h0s0-.02,0-.02h0s0-.02,0-.02h0s0-.02,0-.02h0s0-.02,0-.02h0s0-.02,0-.02h0s0-.02,0-.02h0s0-.02,0-.02h0s0-.02,0-.02h0s0-.02,0-.02c.19-.16,.38-.31,.57-.46h0c.17-.14,.34-.28,.51-.41l.05-.04c.16-.13,.34-.26,.5-.39l.06-.04,.15-.12C40.01,6.37,54.25,1.25,69.68,1.25c3.41,0,6.76,.25,10.04,.74l1.26,.19,.09,.02h0c14.34,2.4,27.15,9.26,36.99,19.09,9.52,9.52,16.25,21.84,18.85,35.63l-4.77,.86c-2.49-13.07-8.91-24.67-17.99-33.55-8.48-8.29-19.27-14.22-31.34-16.77-2.62-.55-5.12-.95-7.83-1.18-1.77-.15-3.55-.22-5.32-.22-17.57,0-33.48,7.12-44.99,18.64C13.2,36.23,6.08,52.13,6.08,69.7c0,1.99,.09,3.98,.28,5.99ZM109.53,29.87c-10.19-10.19-24.27-16.5-39.83-16.5s-29.64,6.31-39.83,16.5c-10.19,10.19-16.5,24.27-16.5,39.83s6.31,29.64,16.5,39.83c10.19,10.19,24.27,16.5,39.83,16.5s29.64-6.31,39.83-16.5c10.19-10.19,16.5-24.27,16.5-39.83,0-15.56-6.31-29.64-16.5-39.83Z"/>
        <path class="cls-3" d="M258.29,36.64l-1.71,2.1c-1.21,1.48-2.22,3.04-2.92,4.25l-.16-.04c.08-1.4,.08-2.8,.08-4.17v-2.14h-8.49v27.27h8.49v-2.69c0-1.87,0-4.09-.04-5.14l.16-.04c.7,1.36,1.4,2.53,2.77,4.52l2.3,3.35h10.21l-10.01-14.8,10.01-12.46h-10.67Zm-21.58,17.29c-.93,1.09-2.3,2.06-4.4,2.06-2.88,0-5.22-2.49-5.22-5.53s2.1-5.53,5.38-5.53c1.75,0,3.15,.74,4.25,2.03l4.83-7.32c-2.45-2.14-5.38-3.39-9.27-3.39-7.83,0-13.83,6.27-13.83,14.18s6,14.26,13.91,14.26c4.28,0,6.82-1.48,9.23-3.51l-4.87-7.24Zm-40-3.47c0-3.16,2.34-5.53,5.38-5.53s5.41,2.38,5.41,5.53-2.38,5.53-5.41,5.53-5.38-2.38-5.38-5.53Zm-8.65,0c0,7.91,6.12,14.22,14.02,14.22s14.02-6.31,14.02-14.22-6.12-14.22-14.02-14.22-14.02,6.31-14.02,14.22Zm-10.48-13.83l-6.97,9.78h-.16l-6.97-9.78h-6.97v27.27h8.65v-4.01c0-2.14-.08-4.91-.31-6.74l.16-.04c.58,1.09,1.79,2.92,2.88,4.44l2.45,3.47h.39l2.53-3.58c1.09-1.52,2.18-3.19,2.8-4.32l.16,.04c-.27,2.34-.31,4.75-.31,7.09v3.66h8.65v-27.27h-6.97Z"/>
        <path class="cls-1" d="M285.08,78.63h-.56c-.15,0-.29,.04-.44,.11-.15,.07-.27,.16-.38,.28-.11,.12-.2,.26-.28,.44-.08,.17-.12,.36-.12,.56,0,.39,.12,.72,.36,.99,.23,.27,.52,.41,.87,.41h.54v-2.78Zm4.04,9.5h-4.04v-3.29h-.16l-2.02,3.29h-4.71l2.71-4.39c-.58-.43-1.03-.94-1.32-1.55-.3-.61-.45-1.35-.45-2.21s.17-1.63,.52-2.25c.35-.62,.77-1.12,1.3-1.52,.51-.39,1.07-.67,1.64-.84,.58-.17,1.1-.26,1.57-.26h4.97v13.02h0Zm-18.7-4.15h1.73l-.87-2.53-.86,2.53Zm2.36-8.88l5.03,13.03h-4.24s-.43-1.23-.43-1.23h-3.72s-.43,1.23-.43,1.23h-4.15s4.97-13.03,4.97-13.03h2.96Zm-13.19,8.25h-2.16v4.78h-4.14v-13.04h4.14v4.78h2.16s0-4.78,0-4.78h4.14s0,13.03,0,13.03h-4.14s0-4.77,0-4.77Zm-18.93,4.78v-2.66c0-.22,0-.43,0-.61,0-.18,0-.34,0-.46l-.08-.02c-.17,.32-.36,.65-.55,.97-.19,.32-.45,.72-.78,1.19l-1.09,1.6h-4.87s4.78-7.07,4.78-7.07l-4.78-5.96h5.1l.82,1.01c.28,.36,.54,.72,.78,1.07,.23,.36,.44,.68,.61,.96l.08-.02c-.03-.34-.04-.67-.04-1.01v-2.01h3.98v2.02c0,.34,0,.67-.04,1.01l.08,.02c.17-.28,.38-.6,.61-.96,.23-.35,.49-.71,.78-1.07l.82-1.01h5.09s-4.79,5.96-4.79,5.96l4.79,7.07h-4.87l-1.09-1.6c-.32-.47-.58-.87-.77-1.19-.19-.32-.38-.65-.55-.97l-.08,.02c0,.13,0,.28,0,.46,0,.18,0,.39,0,.61v2.66h-3.98Zm-15.61-13.03h6.96v3.5h-2.84v1.32h2.64v3.39h-2.64v1.32h3.01v3.5h-7.15v-13.02h0Zm-8.28,6.72l-.93,2.77h2l-1.07-2.77Zm-6.4,6.31v-3.54h1.34l3.54-9.49h2.94l3.84,9.49h1.36v3.54h-13.01Zm-10.02-6.41c0,.37,.07,.72,.19,1.05,.13,.32,.31,.6,.54,.83,.23,.23,.5,.43,.82,.56,.32,.14,.66,.2,1.02,.2s.7-.07,1.02-.2c.32-.14,.59-.32,.82-.56,.23-.23,.42-.51,.55-.83,.14-.32,.2-.67,.2-1.05s-.07-.72-.2-1.05c-.14-.32-.32-.6-.55-.83s-.5-.43-.82-.56c-.32-.14-.66-.2-1.02-.2s-.7,.07-1.02,.2c-.32,.14-.59,.32-.82,.56-.23,.23-.41,.51-.54,.83-.13,.32-.19,.67-.19,1.05m-4.13,0c0-.94,.17-1.83,.51-2.65,.34-.82,.81-1.54,1.41-2.16,.6-.61,1.31-1.09,2.13-1.45,.82-.35,1.7-.53,2.64-.53s1.82,.17,2.64,.53c.82,.36,1.53,.84,2.13,1.45,.6,.61,1.08,1.34,1.41,2.16,.34,.82,.51,1.7,.51,2.65s-.17,1.83-.51,2.65c-.34,.82-.81,1.54-1.41,2.16-.6,.61-1.31,1.09-2.13,1.45-.82,.36-1.7,.53-2.64,.53s-1.82-.17-2.64-.53c-.82-.35-1.53-.83-2.13-1.45-.6-.61-1.08-1.34-1.41-2.16-.35-.83-.51-1.71-.51-2.65m-4.84-6.62l5.03,13.03h-4.28s-2.29-6.31-2.29-6.31l-2.27,6.31h-4.17l4.99-13.03h2.98Zm-17.07,6.62c0,.37,.07,.72,.19,1.05,.13,.32,.31,.6,.54,.83,.23,.23,.5,.43,.82,.56,.32,.14,.66,.2,1.02,.2s.7-.07,1.02-.2c.32-.14,.59-.32,.82-.56,.23-.23,.42-.51,.55-.83,.14-.32,.2-.67,.2-1.05s-.07-.72-.2-1.05c-.14-.32-.32-.6-.55-.83-.23-.23-.5-.43-.82-.56-.32-.14-.66-.2-1.02-.2s-.7,.07-1.02,.2c-.32,.14-.59,.32-.82,.56-.23,.23-.41,.51-.54,.83-.13,.32-.19,.67-.19,1.05m-4.13,0c0-.94,.17-1.83,.51-2.65,.34-.82,.81-1.54,1.41-2.16,.6-.61,1.31-1.09,2.13-1.45,.81-.35,1.69-.53,2.64-.53s1.82,.17,2.64,.53c.82,.36,1.53,.84,2.13,1.45,.6,.61,1.08,1.34,1.41,2.16,.34,.82,.51,1.7,.51,2.65s-.17,1.83-.51,2.65c-.34,.82-.81,1.54-1.41,2.16-.6,.61-1.31,1.09-2.13,1.45-.82,.36-1.71,.53-2.64,.53s-1.82-.17-2.64-.53c-.82-.35-1.53-.83-2.13-1.45-.6-.61-1.08-1.34-1.41-2.16-.35-.83-.51-1.71-.51-2.65m-1.49-6.62v13.03h-4.14s0-1.75,0-1.75c0-.56,0-1.12,.03-1.69,.02-.57,.06-1.13,.13-1.7l-.08-.02c-.15,.27-.35,.59-.58,.97-.24,.37-.49,.74-.76,1.09l-1.21,1.71h-.18s-1.17-1.66-1.17-1.66c-.26-.36-.52-.74-.78-1.13-.26-.4-.46-.73-.59-.99l-.08,.02c.05,.44,.09,.95,.12,1.55,.03,.6,.04,1.15,.04,1.67v1.92h-4.14v-13.02h3.33l3.33,4.67h.08l3.33-4.67h3.32Z"/>
        <path class="cls-2" d="M316.03,102.75l-3.25,4.87h-3.03v-13.03h4.14s0,4.87,0,4.87l3.25-4.87h3.03v13.03h-4.14s0-4.87,0-4.87Zm-12.47,0l-3.25,4.87h-3.03v-13.03h4.14s0,4.87,0,4.87l3.25-4.87h3.03v13.03h-4.14s0-4.87,0-4.87Zm-7.78,3.57c-.28,.25-.58,.47-.88,.68-.3,.2-.63,.38-.99,.53-.36,.15-.74,.26-1.15,.35-.42,.08-.88,.13-1.39,.13-.94,0-1.82-.17-2.63-.53-.81-.36-1.52-.83-2.11-1.45-.6-.61-1.07-1.34-1.39-2.17-.34-.83-.5-1.71-.5-2.66s.16-1.83,.5-2.65c.34-.82,.8-1.54,1.39-2.15,.59-.61,1.3-1.08,2.1-1.44,.8-.35,1.68-.53,2.61-.53s1.75,.14,2.47,.42c.72,.28,1.37,.68,1.97,1.2l-2.31,3.5c-.26-.31-.56-.55-.89-.72-.34-.16-.72-.25-1.13-.25s-.76,.07-1.07,.2c-.32,.14-.59,.33-.81,.57-.22,.24-.4,.52-.51,.84-.12,.32-.17,.67-.17,1.03s.07,.7,.19,1.03c.13,.32,.31,.6,.53,.84,.22,.24,.48,.44,.79,.57,.3,.14,.63,.2,.98,.2,.5,0,.93-.1,1.27-.3,.34-.19,.61-.43,.83-.69l2.31,3.47Zm-11.06,0c-.28,.25-.58,.47-.88,.68-.3,.2-.63,.38-.99,.53-.36,.15-.74,.26-1.15,.35-.42,.08-.88,.13-1.39,.13-.94,0-1.82-.17-2.63-.53-.81-.36-1.52-.83-2.11-1.45-.59-.61-1.07-1.34-1.39-2.17-.34-.83-.5-1.71-.5-2.66s.17-1.83,.5-2.65c.34-.82,.8-1.54,1.39-2.15,.59-.61,1.3-1.08,2.1-1.44,.8-.35,1.68-.53,2.61-.53s1.75,.14,2.47,.42c.72,.28,1.37,.68,1.97,1.2l-2.31,3.5c-.26-.31-.56-.55-.89-.72-.34-.16-.72-.25-1.13-.25s-.76,.07-1.07,.2c-.32,.14-.58,.33-.81,.57-.22,.24-.4,.52-.51,.84-.12,.32-.17,.67-.17,1.03s.07,.7,.19,1.03c.13,.32,.31,.6,.53,.84,.22,.24,.48,.44,.79,.57,.3,.14,.63,.2,.98,.2,.51,0,.93-.1,1.27-.3,.34-.19,.61-.43,.84-.69l2.3,3.47Zm-21.25-5.12c0,.37,.07,.72,.19,1.05,.13,.32,.31,.6,.54,.83,.23,.23,.5,.43,.82,.56,.32,.14,.66,.2,1.02,.2s.7-.07,1.02-.2c.32-.14,.59-.32,.82-.56,.23-.23,.42-.51,.55-.83,.14-.32,.2-.67,.2-1.05s-.07-.72-.2-1.05c-.14-.32-.32-.6-.55-.83-.23-.23-.5-.43-.82-.56-.32-.14-.66-.2-1.02-.2s-.7,.07-1.02,.2c-.32,.14-.59,.32-.82,.56-.23,.23-.41,.51-.54,.83-.13,.33-.19,.68-.19,1.05m-4.13,0c0-.94,.17-1.83,.51-2.65,.34-.82,.81-1.54,1.41-2.16,.6-.61,1.31-1.09,2.13-1.45,.81-.35,1.7-.53,2.64-.53s1.82,.17,2.64,.53c.82,.36,1.53,.83,2.13,1.45,.6,.61,1.08,1.34,1.41,2.16,.34,.82,.51,1.71,.51,2.65s-.17,1.83-.51,2.65c-.34,.82-.81,1.54-1.41,2.16-.6,.61-1.31,1.09-2.13,1.45-.81,.36-1.7,.53-2.64,.53s-1.82-.17-2.64-.53c-.82-.36-1.53-.83-2.13-1.45-.6-.61-1.08-1.34-1.41-2.16-.35-.82-.51-1.71-.51-2.65m-6.8-.32h.45c.35,0,.64-.14,.87-.41,.23-.27,.36-.6,.36-.99,0-.19-.04-.39-.11-.56-.08-.17-.16-.32-.28-.44-.12-.12-.24-.21-.38-.28-.15-.07-.29-.11-.44-.11h-.46v2.78Zm-4.14-6.29h4.63c.56,0,1.15,.09,1.78,.26,.63,.17,1.21,.46,1.74,.84,.53,.39,.98,.9,1.32,1.52,.35,.62,.52,1.38,.52,2.25s-.15,1.61-.45,2.24c-.3,.62-.71,1.13-1.23,1.53-.52,.4-1.14,.69-1.85,.87-.72,.18-1.49,.28-2.33,.28v3.24h-4.14s0-13.03,0-13.03Zm-13.9,8.88h1.73l-.87-2.53-.86,2.53Zm2.36-8.88l5.03,13.03h-4.24s-.43-1.23-.43-1.23h-3.72l-.43,1.23h-4.15l4.97-13.03s2.96,0,2.96,0Zm-16.34,9.49h2.16v-9.49h4.13s0,9.49,0,9.49h1.36v3.54h-11.78v-13.03h4.14s0,9.49,0,9.49Zm-10.32-1.34l-3.25,4.87h-3.03v-13.03h4.14s0,4.87,0,4.87l3.25-4.87h3.03v13.03h-4.14s0-4.87,0-4.87Zm-12.43-8.16l5.03,13.03h-4.28s-2.29-6.31-2.29-6.31l-2.27,6.31h-4.17l4.99-13.03s2.98,0,2.98,0Zm-17.07,6.61c0,.37,.07,.72,.19,1.05,.13,.32,.31,.6,.54,.83,.23,.23,.5,.43,.82,.56,.32,.14,.66,.2,1.02,.2s.7-.07,1.02-.2c.32-.14,.59-.32,.82-.56,.23-.23,.42-.51,.55-.83,.14-.32,.2-.67,.2-1.05s-.07-.72-.2-1.05c-.14-.32-.32-.6-.55-.83s-.5-.43-.82-.56c-.32-.14-.66-.2-1.02-.2s-.7,.07-1.02,.2c-.32,.14-.59,.32-.82,.56-.23,.23-.41,.51-.54,.83-.13,.33-.19,.68-.19,1.05m-4.13,0c0-.94,.17-1.83,.51-2.65,.34-.82,.81-1.54,1.41-2.16,.6-.61,1.31-1.09,2.13-1.45,.82-.35,1.7-.53,2.64-.53s1.82,.17,2.64,.53c.82,.36,1.53,.83,2.13,1.45,.6,.61,1.08,1.34,1.41,2.16,.34,.82,.51,1.71,.51,2.65s-.17,1.83-.51,2.65c-.34,.82-.81,1.54-1.41,2.16-.6,.61-1.31,1.09-2.13,1.45-.82,.36-1.7,.53-2.64,.53s-1.82-.17-2.64-.53c-.82-.36-1.53-.83-2.13-1.45-.6-.61-1.08-1.34-1.41-2.16-.35-.82-.51-1.71-.51-2.65m-9.89-6.61h9.41v3.54h-2.64v9.49h-4.14v-9.49h-2.64v-3.54Zm-.92,11.73c-.28,.25-.58,.47-.88,.68-.3,.2-.63,.38-.99,.53-.35,.15-.74,.26-1.15,.35-.42,.08-.88,.13-1.39,.13-.94,0-1.82-.17-2.63-.53-.81-.36-1.52-.83-2.11-1.45-.59-.61-1.07-1.34-1.39-2.17-.34-.83-.5-1.71-.5-2.66s.16-1.83,.5-2.65c.34-.82,.8-1.54,1.39-2.15,.59-.61,1.3-1.08,2.1-1.44,.8-.35,1.68-.53,2.61-.53s1.75,.14,2.47,.42c.72,.28,1.37,.68,1.97,1.2l-2.31,3.5c-.26-.31-.56-.55-.89-.72-.34-.16-.72-.25-1.13-.25s-.76,.07-1.07,.2c-.32,.14-.58,.33-.81,.57-.22,.24-.4,.52-.51,.84-.12,.32-.17,.67-.17,1.03s.07,.7,.19,1.03c.13,.32,.31,.6,.53,.84,.22,.24,.48,.44,.79,.57,.3,.14,.63,.2,.98,.2,.5,0,.93-.1,1.27-.3,.34-.19,.61-.43,.83-.69l2.31,3.47Z"/>
        <path class="cls-3" d="M280.46,43.34h1.05c.86,0,2.03,.51,2.03,1.79,0,1.13-.93,1.87-1.99,1.87h-1.09v-3.66Zm0,9.47h1.05c1.29,0,2.69,.74,2.69,2.3s-1.44,2.22-2.65,2.22h-1.09v-4.52Zm-8.37,11.1h12.39c3.51,0,8.26-2.57,8.26-8.37,0-4.05-1.87-5.38-3.27-6.15v-.16c.9-.66,2.14-1.91,2.14-4.91,0-4.99-3.7-7.67-10.95-7.67h-8.57v27.27Z"/>
      </g>
      <path class="cls-3" d="M306.99,49.92l1.83,5.3h-3.62l1.79-5.3Zm-3.08-13.28l-10.4,27.27h8.69l.9-2.57h7.79l.9,2.57h8.88l-10.52-27.27h-6.23Z"/>
    </g>
  </g>
</svg>