<svg width="1485" height="896" viewBox="0 0 1485 896" fill="none" xmlns="http://www.w3.org/2000/svg">
<path d="M1358.5 206.48H1276.99L1187.8 432.48H1286.82V460.608H1385.19L1414.21 537.039H1484.99L1358.5 206.48ZM1272.75 389.758L1315.54 275.56L1358.5 389.758H1272.75Z" fill="#282828"/>
<path d="M1258.43 460.444V565.03H1187.7V536.985H894.293V206.562L965.024 206.48L965.351 460.39L1089.55 460.444L1089.23 206.562H1160.45V460.444H1258.43Z" fill="#282828"/>
<path d="M1160.26 564.674H894.293V635.442H992.032V895.178H1062.87V635.442H1160.26V627.328V564.674Z" fill="#282828"/>
<path d="M849.178 564.674H613.952H588.795H575.02L594.431 729.599L575.02 894.933H588.795H613.952V895.178H866.411V894.933V832.17V824.383H651.904L657.403 762.41H839.622V758.081V755.14V704.058V701.118V697.442H657.458L651.931 635.442H866.411V627.436V564.674H849.178Z" fill="#282828"/>
<path d="M1397.09 696.22H1394.37C1373.25 696.592 1352.45 701.485 1333.38 710.57C1342.51 691.517 1347.45 670.728 1347.87 649.604C1348.47 618.645 1339.13 582.403 1327.48 570.64C1326.2 569.055 1324.59 567.776 1322.75 566.897C1320.92 566.019 1318.91 565.562 1316.87 565.562C1314.84 565.562 1312.83 566.019 1310.99 566.897C1309.16 567.776 1307.54 569.055 1306.27 570.64C1294.62 582.512 1285.2 618.699 1285.71 649.604C1286.11 670.724 1291 691.517 1300.06 710.597C1281.02 701.468 1260.24 696.529 1239.13 696.111H1236.41C1202.4 696.111 1155 707.874 1154.98 727.152C1154.95 746.43 1202.38 758.302 1236.35 758.329H1239.08C1260.18 757.957 1280.97 753.074 1300.03 744.007C1290.93 763.066 1286 783.852 1285.58 804.972C1284.98 835.931 1294.32 872.173 1305.97 883.936C1307.24 885.521 1308.86 886.8 1310.69 887.679C1312.53 888.557 1314.54 889.014 1316.57 889.014C1318.61 889.014 1320.62 888.557 1322.45 887.679C1324.29 886.8 1325.9 885.521 1327.18 883.936C1338.83 872.064 1348.25 835.877 1347.73 804.972C1347.34 783.849 1342.44 763.053 1333.36 743.979C1352.41 753.104 1373.19 758.044 1394.31 758.465H1397.04C1431.04 758.465 1478.47 746.702 1478.49 727.424C1478.52 708.146 1431.1 696.247 1397.09 696.22Z" fill="white"/>
<path d="M1451.91 697.833C1434.24 692.234 1415.81 689.36 1397.27 689.31H1394.55C1377.75 689.613 1361.11 692.667 1345.3 698.35C1351.02 682.554 1354.11 665.92 1354.42 649.12C1354.96 620.367 1346.63 580.231 1332.23 565.528C1330.37 563.345 1328.06 561.593 1325.46 560.391C1322.86 559.189 1320.03 558.566 1317.16 558.566C1314.29 558.566 1311.46 559.189 1308.86 560.391C1306.26 561.593 1303.95 563.345 1302.09 565.528C1287.66 580.204 1279.25 620.312 1279.74 649.066C1280.03 665.867 1283.08 682.507 1288.75 698.323C1272.95 692.605 1256.32 689.524 1239.53 689.201H1236.8C1218.26 689.229 1199.83 692.066 1182.14 697.615C1160.36 704.749 1149.08 714.442 1149.08 726.477C1149.08 738.513 1160.17 748.261 1182.08 755.422C1199.76 761.009 1218.18 763.883 1236.72 763.944H1239.45C1256.24 763.666 1272.87 760.621 1288.67 754.932C1282.97 770.735 1279.89 787.364 1279.55 804.161C1279 832.915 1287.33 873.051 1301.76 887.754C1303.62 889.936 1305.93 891.689 1308.53 892.891C1311.14 894.093 1313.97 894.715 1316.83 894.715C1319.7 894.715 1322.53 894.093 1325.13 892.891C1327.73 891.689 1330.04 889.936 1331.9 887.754C1346.33 873.078 1354.74 832.97 1354.25 804.216C1353.97 787.412 1350.91 770.77 1345.22 754.959C1361.02 760.676 1377.66 763.758 1394.47 764.081H1397.19C1415.73 764.053 1434.16 761.216 1451.86 755.667C1473.64 748.533 1484.91 738.839 1484.91 726.777C1484.91 714.715 1473.83 704.994 1451.91 697.833ZM1292.15 648.821C1291.55 613.015 1304.57 571.082 1317.04 571.109C1329.51 571.137 1342.47 613.069 1341.79 648.875C1341.36 668.354 1336.94 687.539 1328.8 705.239C1325.91 706.655 1323.16 708.098 1320.63 709.568L1316.98 704.123L1313.31 709.568C1310.59 708.125 1307.86 706.655 1305.14 705.239C1297.02 687.514 1292.63 668.312 1292.24 648.821H1292.15ZM1239.15 751.337H1236.42C1201.22 751.337 1161.31 738.594 1161.31 726.423C1161.31 714.252 1201.28 701.618 1236.48 701.645H1239.2C1258.69 702.07 1277.89 706.491 1295.61 714.633C1297.03 717.519 1298.5 720.269 1299.94 722.802L1294.49 726.477L1299.94 730.153C1298.47 732.74 1297.03 735.463 1295.61 738.322C1277.88 746.477 1258.66 750.907 1239.15 751.337ZM1341.62 804.379C1342.25 840.185 1329.21 882.118 1316.74 882.091C1304.27 882.063 1291.34 840.131 1292.02 804.325C1292.43 784.827 1296.85 765.623 1305 747.907C1307.89 746.491 1310.61 745.048 1313.17 743.577L1316.85 749.023L1320.52 743.577C1323.24 745.02 1325.97 746.491 1328.69 747.907C1336.83 765.642 1341.24 784.866 1341.62 804.379ZM1397.22 751.528H1394.49C1375 751.117 1355.8 746.706 1338.08 738.567C1336.67 735.681 1335.36 732.931 1333.78 730.398L1339.23 726.723L1333.78 723.047C1335.25 720.46 1336.69 717.737 1338.11 714.878C1355.84 706.754 1375.05 702.37 1394.55 701.999H1397.27C1432.47 701.999 1472.41 714.742 1472.41 726.913C1472.41 739.084 1432.39 751.528 1397.22 751.528Z" fill="#282828"/>
<path d="M1310.67 725.68C1316.15 697.231 1329.74 670.974 1349.79 650.065C1371.57 627.629 1403.8 608.704 1420.41 608.704C1422.41 608.529 1424.42 608.798 1426.31 609.492C1428.19 610.186 1429.9 611.288 1431.31 612.72C1432.71 614.151 1433.79 615.876 1434.45 617.771C1435.11 619.666 1435.35 621.684 1435.14 623.68C1434.98 640.317 1416.08 672.556 1393.68 694.04C1372.72 714.044 1346.44 727.582 1317.99 733.032L1308.87 734.801L1310.67 725.68Z" fill="#FD7D32"/>
<path d="M1213.13 845.698C1211.14 845.816 1209.15 845.529 1207.28 844.855C1205.41 844.181 1203.69 843.134 1202.23 841.778C1200.87 840.292 1199.81 838.544 1199.14 836.639C1198.46 834.734 1198.18 832.712 1198.31 830.695C1198.51 814.058 1217.37 781.847 1239.81 760.363C1260.75 740.349 1287.04 726.809 1315.49 721.371L1324.61 719.602L1322.82 728.723C1317.33 757.169 1303.74 783.425 1283.69 804.338C1261.91 826.774 1229.68 845.698 1212.91 845.698" fill="#01B2E0"/>
<path d="M1420.17 845.916C1403.56 845.916 1371.16 826.856 1349.63 804.42C1329.59 783.483 1316.05 757.191 1310.64 728.723L1308.87 719.602L1317.96 721.399C1346.47 726.885 1372.78 740.514 1393.7 760.636C1415.97 782.146 1434.89 814.413 1435.03 831.049C1435.24 833.046 1435 835.064 1434.33 836.958C1433.66 838.851 1432.59 840.574 1431.18 842.003C1429.77 843.431 1428.06 844.53 1426.17 845.221C1424.29 845.912 1422.27 846.177 1420.27 845.998" fill="#701487"/>
<path d="M1315.53 733.224C1287.08 727.745 1260.82 714.146 1239.92 694.069C1217.63 672.558 1198.71 640.292 1198.57 623.655C1198.36 621.658 1198.6 619.641 1199.27 617.747C1199.94 615.853 1201.01 614.13 1202.42 612.702C1203.83 611.273 1205.54 610.174 1207.43 609.484C1209.31 608.793 1211.33 608.528 1213.33 608.707C1229.93 608.707 1262.33 627.767 1283.87 650.176C1303.89 671.126 1317.43 697.425 1322.85 725.9L1324.62 734.994L1315.53 733.224Z" fill="#ABC704"/>
<path d="M1356.74 727C1371.97 719.861 1385.94 710.267 1398.06 698.6C1418.78 678.669 1441.24 644.415 1441.46 623.83C1441.69 621.003 1441.31 618.161 1440.34 615.496C1439.37 612.831 1437.84 610.405 1435.85 608.385C1433.86 606.364 1431.46 604.796 1428.81 603.787C1426.16 602.778 1423.33 602.351 1420.5 602.537C1399.91 602.537 1365.47 624.973 1345.36 645.776C1333.67 657.885 1324.05 671.83 1316.88 687.055C1309.76 671.8 1300.18 657.825 1288.51 645.694C1268.42 624.837 1234.06 602.319 1213.45 602.292C1210.62 602.108 1207.78 602.534 1205.13 603.541C1202.48 604.548 1200.08 606.113 1198.09 608.129C1196.1 610.146 1194.56 612.567 1193.58 615.228C1192.61 617.89 1192.21 620.73 1192.43 623.557C1192.59 644.142 1215.03 678.451 1235.69 698.41C1247.79 710.103 1261.74 719.726 1276.97 726.891C1261.72 734.023 1247.76 743.618 1235.64 755.291C1214.92 775.222 1192.43 809.476 1192.24 830.061C1192.01 832.887 1192.39 835.73 1193.36 838.395C1194.33 841.06 1195.86 843.486 1197.85 845.506C1199.84 847.526 1202.24 849.095 1204.89 850.104C1207.54 851.113 1210.37 851.539 1213.2 851.354C1233.79 851.354 1268.23 828.918 1288.35 808.088C1300 796 1309.57 782.071 1316.69 766.863C1323.83 782.095 1333.42 796.049 1345.08 808.169C1365.17 829.054 1399.53 851.572 1420.14 851.599C1422.97 851.778 1425.8 851.349 1428.45 850.34C1431.1 849.332 1433.5 847.767 1435.49 845.751C1437.48 843.736 1439.02 841.317 1440 838.657C1440.98 835.998 1441.37 833.159 1441.16 830.333C1440.97 809.748 1418.56 775.44 1397.9 755.481C1385.84 743.788 1371.93 734.165 1356.74 727ZM1354.34 654.462C1375.22 632.87 1405.93 615.007 1420.47 615.035C1422.8 614.845 1425.11 615.59 1426.89 617.104C1435.69 625.926 1415.19 664.755 1389.41 689.587C1375.31 703.107 1358.58 713.572 1340.26 720.329C1337.24 719.294 1334.27 718.368 1331.42 717.606L1332.67 711.18L1326.24 712.432C1325.45 709.573 1324.55 706.605 1323.52 703.583C1330.31 685.265 1340.8 668.543 1354.34 654.462ZM1244.38 689.451C1218.62 664.564 1198.09 625.709 1207.02 616.886C1208.81 615.372 1211.12 614.627 1213.45 614.817C1227.99 614.817 1258.67 632.761 1279.5 654.408C1292.99 668.471 1303.45 685.152 1310.23 703.42C1309.2 706.469 1308.27 709.437 1307.51 712.269L1301.06 711.017L1302.31 717.443C1299.59 718.232 1296.51 719.158 1293.46 720.165C1275.17 713.4 1258.46 702.946 1244.38 689.451ZM1279.36 799.456C1258.48 821.048 1227.77 839.019 1213.23 839.019C1210.9 839.209 1208.59 838.465 1206.81 836.95C1197.98 828.101 1218.51 789.272 1244.29 764.467C1258.39 750.947 1275.12 740.482 1293.44 733.725C1296.46 734.76 1299.43 735.659 1302.28 736.448L1301.01 742.874L1307.46 741.622C1308.25 744.481 1309.15 747.422 1310.18 750.471C1303.36 768.736 1292.88 785.408 1279.36 799.456ZM1426.68 837.032C1425.77 837.781 1424.73 838.342 1423.61 838.684C1422.49 839.025 1421.31 839.139 1420.14 839.019C1405.6 839.019 1374.92 821.076 1354.09 799.429C1340.61 785.365 1330.14 768.684 1323.36 750.417C1324.39 747.367 1325.32 744.399 1326.08 741.567L1332.5 742.82L1331.25 736.394C1334.11 735.604 1337.08 734.678 1340.13 733.671C1358.4 740.493 1375.08 750.993 1389.13 764.521C1415.08 789.354 1435.5 828.128 1426.68 837.032Z" fill="#282828"/>
<path d="M1316.61 769.731C1308.29 769.72 1300.16 767.241 1293.24 762.608C1286.33 757.975 1280.94 751.395 1277.76 743.7C1274.59 736.006 1273.76 727.542 1275.39 719.379C1277.03 711.216 1281.04 703.72 1286.93 697.84C1292.83 691.959 1300.33 687.957 1308.49 686.341C1316.66 684.724 1325.12 685.565 1332.81 688.756C1340.49 691.948 1347.06 697.348 1351.68 704.273C1356.3 711.198 1358.76 719.338 1358.76 727.662C1358.74 738.827 1354.29 749.527 1346.38 757.414C1338.48 765.301 1327.78 769.731 1316.61 769.731Z" fill="#FFDE0D"/>
<path d="M1316.93 691.096C1324.02 691.101 1330.94 693.208 1336.83 697.152C1342.72 701.095 1347.31 706.696 1350.02 713.247C1352.72 719.799 1353.42 727.005 1352.04 733.956C1350.65 740.907 1347.23 747.289 1342.21 752.295C1337.19 757.302 1330.8 760.708 1323.85 762.082C1316.9 763.456 1309.69 762.737 1303.15 760.016C1296.6 757.295 1291.01 752.693 1287.08 746.794C1283.15 740.895 1281.06 733.963 1281.07 726.874C1281.09 717.375 1284.87 708.271 1291.6 701.562C1298.32 694.853 1307.43 691.088 1316.93 691.096ZM1316.93 678.543C1307.36 678.527 1298 681.35 1290.03 686.656C1282.07 691.962 1275.85 699.511 1272.18 708.349C1268.5 717.188 1267.53 726.918 1269.39 736.308C1271.24 745.699 1275.84 754.328 1282.6 761.104C1289.36 767.88 1297.98 772.499 1307.36 774.375C1316.75 776.252 1326.48 775.302 1335.32 771.647C1344.17 767.991 1351.73 761.794 1357.05 753.839C1362.38 745.884 1365.22 736.528 1365.23 726.956C1365.23 714.135 1360.14 701.837 1351.09 692.761C1342.03 683.685 1329.75 678.572 1316.93 678.543Z" fill="#282828"/>
<path d="M773.382 206.48L645.968 440.839V206.48H575.02V536.903H664.019L795.653 292.524V536.903H866.438V206.48H773.382Z" fill="#282828"/>
<path d="M549.168 206.562V895.453H478.382V277.466H343.536V768.566C343.536 769.41 343.536 770.309 343.536 771.289V772.133C343.018 792.01 337.818 840.695 300.765 871.464L300.493 871.709C287.452 882.465 267.441 892.975 238.337 894.935C235.315 895.099 232.212 895.235 228.972 895.235C220.501 895.095 212.08 893.916 203.897 891.722V821.336C205.64 821.744 207.301 822.153 208.961 822.452C209.079 822.462 209.198 822.462 209.315 822.452C230.306 826.618 245.77 824.794 255.326 817.006C266.216 807.994 270.626 790.376 272.015 778.015C272.025 777.97 272.025 777.923 272.015 777.878C272.401 774.671 272.601 771.443 272.614 768.212C272.614 767.858 272.614 767.531 272.614 767.232V766.224V765.625L272.995 270.496V248.876L392.786 228.999L393.63 228.863C411.118 225.26 427.514 217.592 441.492 206.48H549.168V206.562Z" fill="#282828"/>
<path d="M347.07 1.3297L84.7002 44.8959C58.2012 49.3058 34.5374 64.0588 18.9104 85.9119C3.28339 107.765 -3.02795 134.93 1.36372 161.435C10.5114 216.411 62.9744 254.014 125.783 244.756L388.125 201.19C429.535 193.021 464.764 150.054 464.982 101.641C465.015 95.9296 464.551 90.2262 463.594 84.5956C459.105 58.1383 444.332 34.532 422.5 18.9312C400.668 3.33052 373.551 -2.99723 347.07 1.3297Z" fill="#FFDE0D"/>
<path d="M155.265 108.387C153.51 103.695 150.718 99.4604 147.098 95.9983C141.987 91.1975 135.691 87.8425 128.857 86.2775C121.023 84.4339 112.89 84.2484 104.98 85.733C97.0415 86.8896 89.4089 89.6007 82.5193 93.711C76.7801 97.081 72.1451 102.048 69.1789 108.006C66.3908 113.948 65.5614 120.622 66.8103 127.066C67.5723 132.51 69.7191 137.666 73.0449 142.042C76.4268 146.085 80.9396 149.024 86.0041 150.483C92.7271 152.38 99.7259 153.108 106.695 152.634L125.943 151.899C129.586 151.687 133.24 151.897 136.834 152.525C139.082 152.883 141.175 153.897 142.85 155.439C144.313 157.027 145.261 159.02 145.573 161.157C146.132 163.989 145.545 166.927 143.939 169.326C142.068 172.063 139.477 174.23 136.452 175.588C132.536 177.47 128.361 178.755 124.065 179.4C119.487 180.274 114.785 180.274 110.207 179.4C106.41 178.701 102.851 177.052 99.8617 174.608C98.2485 173.263 96.9005 171.628 95.8869 169.788L74.1067 174.88C75.8145 179.779 78.6065 184.228 82.2742 187.896C87.5593 193.059 94.1457 196.691 101.332 198.406C109.658 200.357 118.3 200.552 126.706 198.978C134.924 197.762 142.803 194.861 149.847 190.455C155.828 186.717 160.632 181.366 163.705 175.016C166.583 168.734 167.44 161.712 166.155 154.922C165.473 149.608 163.428 144.562 160.22 140.272C156.932 136.484 152.529 133.834 147.642 132.703C140.591 131.046 133.335 130.44 126.107 130.906L106.096 131.396C102.758 131.563 99.4126 131.325 96.1319 130.688C94.0266 130.328 92.0646 129.385 90.469 127.965C89.1347 126.494 88.28 124.651 88.0188 122.683C87.501 120.033 88.0173 117.285 89.4617 115.004C91.1839 112.44 93.5755 110.396 96.3769 109.095C99.9804 107.315 103.838 106.103 107.812 105.501C112.055 104.71 116.403 104.664 120.662 105.365C124.111 105.887 127.366 107.294 130.109 109.449C132.191 111.106 133.782 113.3 134.71 115.794L155.265 108.387Z" fill="#282828"/>
<path d="M269.124 83.83L265.449 62.0469L169.834 78.1392L173.537 99.9222L210.699 93.6596L225.428 181.01L246.636 177.443L231.935 90.0926L269.124 83.83Z" fill="#282828"/>
<path d="M395.492 97.3679C393.976 87.0194 389.906 77.2119 383.649 68.8321C377.878 61.1978 370.034 55.3848 361.052 52.0863C351.463 48.8904 341.236 48.0954 331.268 49.7712C321.301 51.4469 311.896 55.5422 303.879 61.6981C296.451 67.7399 290.937 75.8085 288.006 84.9243C285.056 94.9505 284.429 105.517 286.175 115.822C287.92 126.127 291.992 135.898 298.08 144.392C303.833 152.043 311.683 157.86 320.677 161.138C330.263 164.353 340.494 165.158 350.465 163.482C360.436 161.805 369.841 157.699 377.85 151.526C385.277 145.479 390.798 137.413 393.749 128.3C396.903 118.296 397.502 107.662 395.492 97.3679ZM373.112 120.131C371.416 125.641 368.094 130.51 363.584 134.1C358.606 137.807 352.818 140.279 346.698 141.311C340.578 142.343 334.3 141.906 328.381 140.036C322.938 138.101 318.198 134.583 314.769 129.934C311.124 124.595 308.681 118.529 307.609 112.155C306.538 105.78 306.862 99.2482 308.561 93.0113C310.278 87.5181 313.585 82.6572 318.063 79.0429C323.058 75.3487 328.855 72.8857 334.981 71.8543C341.107 70.8228 347.391 71.2521 353.32 73.107C358.769 75.0296 363.513 78.5499 366.932 83.2089C370.561 88.5549 372.994 94.6207 374.065 100.993C375.136 107.364 374.821 113.892 373.14 120.131H373.112Z" fill="#282828"/>
</svg>
