<svg width="177" height="106" viewBox="0 0 177 106" fill="none" xmlns="http://www.w3.org/2000/svg">
<g id="&#208;&#187;&#208;&#190;&#208;&#179;&#208;&#190;" clip-path="url(#clip0_106232_2102)">
<g id="flower">
<path id="Vector" d="M165.863 82.417H165.54C163.04 82.461 160.577 83.0403 158.319 84.116C159.4 81.8602 159.985 79.3988 160.034 76.8977C160.105 73.2322 158.999 68.9413 157.619 67.5485C157.468 67.3609 157.277 67.2094 157.06 67.1054C156.843 67.0014 156.605 66.9473 156.364 66.9473C156.123 66.9473 155.885 67.0014 155.668 67.1054C155.45 67.2094 155.259 67.3609 155.108 67.5485C153.728 68.9541 152.613 73.2387 152.674 76.8977C152.721 79.3983 153.3 81.8601 154.373 84.1192C152.118 83.0384 149.658 82.4536 147.158 82.4041H146.836C142.809 82.4041 137.196 83.7968 137.193 86.0793C137.19 88.3618 142.806 89.7674 146.829 89.7706H147.152C149.651 89.7266 152.112 89.1484 154.37 88.0749C153.291 90.3314 152.708 92.7925 152.658 95.2931C152.587 98.9586 153.693 103.25 155.073 104.642C155.224 104.83 155.415 104.982 155.632 105.086C155.849 105.19 156.087 105.244 156.328 105.244C156.569 105.244 156.807 105.19 157.024 105.086C157.242 104.982 157.433 104.83 157.584 104.642C158.964 103.237 160.079 98.9522 160.018 95.2931C159.972 92.7921 159.392 90.3299 158.316 88.0716C160.572 89.152 163.033 89.7368 165.534 89.7867H165.856C169.883 89.7867 175.499 88.394 175.502 86.1115C175.505 83.829 169.889 82.4202 165.863 82.417Z" fill="white"/>
<path id="Vector_2" d="M172.334 82.6852C170.241 82.0223 168.059 81.6821 165.863 81.6761H165.541C163.552 81.712 161.581 82.0736 159.709 82.7464C160.387 80.8762 160.752 78.9068 160.789 76.9177C160.853 73.5133 159.867 68.7613 158.162 67.0205C157.941 66.7621 157.668 66.5546 157.36 66.4123C157.052 66.27 156.716 66.1963 156.377 66.1963C156.038 66.1963 155.702 66.27 155.394 66.4123C155.086 66.5546 154.813 66.7621 154.593 67.0205C152.884 68.7581 151.888 73.5069 151.946 76.9113C151.98 78.9005 152.341 80.8706 153.013 82.7432C151.142 82.0663 149.173 81.7014 147.184 81.6632H146.862C144.666 81.6665 142.484 82.0024 140.388 82.6594C137.809 83.504 136.475 84.6517 136.475 86.0767C136.475 87.5016 137.787 88.6558 140.382 89.5036C142.475 90.1652 144.657 90.5054 146.852 90.5127H147.175C149.163 90.4797 151.132 90.1192 153.003 89.4456C152.328 91.3167 151.963 93.2856 151.923 95.2743C151.859 98.6787 152.845 103.431 154.554 105.171C154.774 105.43 155.048 105.637 155.356 105.78C155.664 105.922 155.999 105.996 156.338 105.996C156.678 105.996 157.013 105.922 157.321 105.78C157.629 105.637 157.903 105.43 158.123 105.171C159.831 103.434 160.828 98.6852 160.77 95.2808C160.736 93.2912 160.374 91.3208 159.699 89.4488C161.571 90.1258 163.541 90.4906 165.531 90.5288H165.854C168.049 90.5255 170.232 90.1896 172.327 89.5327C174.906 88.688 176.241 87.5403 176.241 86.1121C176.241 84.684 174.929 83.5331 172.334 82.6852ZM153.416 76.8822C153.345 72.6429 154.886 67.6781 156.363 67.6813C157.839 67.6846 159.374 72.6493 159.293 76.8887C159.243 79.195 158.72 81.4664 157.755 83.5621C157.414 83.7297 157.088 83.9006 156.788 84.0747L156.356 83.4299L155.921 84.0747C155.599 83.9038 155.276 83.7297 154.954 83.5621C153.993 81.4635 153.473 79.19 153.426 76.8822H153.416ZM147.139 89.0201H146.817C142.648 89.0201 137.922 87.5113 137.922 86.0702C137.922 84.6292 142.655 83.1333 146.823 83.1365H147.146C149.454 83.1869 151.727 83.7103 153.825 84.6743C153.993 85.016 154.167 85.3416 154.338 85.6415L153.693 86.0767L154.338 86.5119C154.164 86.8182 153.993 87.1406 153.825 87.4791C151.726 88.4446 149.45 88.9691 147.139 89.0201ZM159.274 95.3001C159.348 99.5395 157.804 104.504 156.327 104.501C154.851 104.498 153.319 99.5331 153.4 95.2937C153.449 92.9852 153.972 90.7115 154.938 88.6139C155.279 88.4462 155.602 88.2753 155.905 88.1013L156.34 88.746L156.775 88.1013C157.098 88.2721 157.42 88.4462 157.742 88.6139C158.707 90.7137 159.228 92.9898 159.274 95.3001ZM165.857 89.0426H165.534C163.226 88.994 160.953 88.4717 158.855 87.5081C158.687 87.1663 158.532 86.8407 158.345 86.5409L158.99 86.1057L158.345 85.6705C158.519 85.3642 158.69 85.0418 158.858 84.7033C160.957 83.7415 163.232 83.2224 165.541 83.1784H165.863C170.032 83.1784 174.761 84.6872 174.761 86.1283C174.761 87.5693 170.022 89.0426 165.857 89.0426Z" fill="#131314"/>
<path id="Vector_3" d="M155.621 85.9477C156.271 82.5794 157.88 79.4706 160.254 76.995C162.833 74.3386 166.65 72.098 168.617 72.098C168.854 72.0772 169.092 72.109 169.315 72.1912C169.538 72.2734 169.74 72.4039 169.907 72.5734C170.073 72.7428 170.201 72.947 170.279 73.1714C170.358 73.3958 170.386 73.6347 170.361 73.8711C170.342 75.8409 168.104 79.6579 165.451 82.2015C162.969 84.57 159.858 86.1729 156.489 86.8181L155.409 87.0277L155.621 85.9477Z" fill="#FD7D32"/>
<path id="Vector_4" d="M144.076 100.084C143.841 100.098 143.606 100.064 143.384 99.9841C143.162 99.9043 142.959 99.7803 142.787 99.6197C142.624 99.4439 142.5 99.2369 142.42 99.0113C142.34 98.7858 142.307 98.5464 142.322 98.3076C142.345 96.3378 144.579 92.524 147.236 89.9804C149.716 87.6107 152.828 86.0077 156.198 85.3638L157.278 85.1543L157.065 86.2343C156.415 89.6023 154.806 92.7109 152.432 95.1869C149.853 97.8434 146.036 100.084 144.05 100.084" fill="#01B2E0"/>
<path id="Vector_5" d="M168.578 100.107C166.611 100.107 162.775 97.8502 160.225 95.1937C157.853 92.7148 156.249 89.602 155.608 86.2314L155.399 85.1514L156.475 85.3642C159.851 86.0138 162.966 87.6273 165.444 90.0097C168.081 92.5566 170.322 96.3769 170.338 98.3466C170.362 98.5831 170.334 98.822 170.255 99.0462C170.176 99.2704 170.049 99.4744 169.882 99.6435C169.715 99.8127 169.512 99.9428 169.289 100.024C169.066 100.106 168.827 100.137 168.591 100.116" fill="#6C2382"/>
<path id="Vector_6" d="M156.205 86.818C152.835 86.1692 149.726 84.5591 147.252 82.1821C144.612 79.6352 142.371 75.8149 142.355 73.8451C142.331 73.6087 142.359 73.3698 142.438 73.1456C142.517 72.9214 142.644 72.7174 142.811 72.5483C142.978 72.3791 143.181 72.249 143.404 72.1672C143.627 72.0855 143.865 72.054 144.102 72.0753C146.069 72.0753 149.905 74.332 152.455 76.9852C154.827 79.4656 156.43 82.5794 157.072 85.9507L157.281 87.0275L156.205 86.818Z" fill="#ABC704"/>
<path id="Vector_7" d="M161.07 86.0959C162.874 85.2507 164.528 84.1147 165.964 82.7334C168.417 80.3735 171.077 76.3179 171.103 73.8807C171.13 73.5461 171.084 73.2095 170.97 72.894C170.855 72.5784 170.674 72.2913 170.438 72.0521C170.203 71.8128 169.918 71.6272 169.605 71.5077C169.291 71.3882 168.955 71.3377 168.62 71.3596C166.183 71.3596 162.105 74.0161 159.722 76.4791C158.338 77.9128 157.199 79.5639 156.35 81.3665C155.508 79.5603 154.373 77.9057 152.991 76.4695C150.612 74 146.543 71.3339 144.103 71.3306C143.768 71.3089 143.432 71.3593 143.118 71.4786C142.804 71.5978 142.52 71.7831 142.284 72.0218C142.048 72.2605 141.866 72.5472 141.75 72.8623C141.635 73.1775 141.588 73.5138 141.614 73.8485C141.633 76.2857 144.29 80.3478 146.737 82.7108C148.17 84.0954 149.821 85.2347 151.624 86.083C149.819 86.9274 148.166 88.0635 146.73 89.4455C144.277 91.8054 141.614 95.861 141.591 98.2982C141.564 98.6328 141.609 98.9694 141.724 99.2849C141.839 99.6005 142.02 99.8876 142.256 100.127C142.491 100.366 142.775 100.552 143.089 100.671C143.403 100.791 143.739 100.841 144.074 100.819C146.511 100.819 150.589 98.1628 152.972 95.6966C154.351 94.2654 155.485 92.6163 156.328 90.8156C157.173 92.619 158.309 94.2713 159.69 95.7062C162.069 98.1789 166.138 100.845 168.578 100.848C168.913 100.869 169.249 100.819 169.562 100.699C169.876 100.58 170.16 100.395 170.396 100.156C170.632 99.9173 170.814 99.6309 170.929 99.316C171.045 99.0011 171.092 98.665 171.067 98.3304C171.044 95.8932 168.391 91.8311 165.944 89.4681C164.516 88.0836 162.869 86.9443 161.07 86.0959ZM160.786 77.5075C163.259 74.951 166.895 72.8362 168.617 72.8394C168.893 72.817 169.167 72.9051 169.378 73.0844C170.419 74.1289 167.992 78.7262 164.939 81.6663C163.27 83.267 161.289 84.5061 159.119 85.3061C158.762 85.1835 158.41 85.0739 158.072 84.9837L158.22 84.2228L157.459 84.3711C157.366 84.0326 157.259 83.6812 157.137 83.3234C157.941 81.1545 159.183 79.1747 160.786 77.5075ZM147.765 81.6502C144.715 78.7036 142.284 74.1032 143.342 73.0586C143.553 72.8793 143.827 72.7912 144.103 72.8136C145.824 72.8136 149.458 74.9381 151.924 77.5011C153.521 79.1662 154.76 81.1412 155.564 83.304C155.441 83.6651 155.331 84.0165 155.241 84.3518L154.477 84.2035L154.625 84.9643C154.303 85.0578 153.939 85.1674 153.578 85.2867C151.411 84.4857 149.433 83.2479 147.765 81.6502ZM151.908 94.6746C149.435 97.2311 145.798 99.3589 144.077 99.3589C143.801 99.3813 143.527 99.2932 143.316 99.1138C142.272 98.0661 144.702 93.4689 147.755 90.5319C149.424 88.9312 151.405 87.6921 153.574 86.8922C153.932 87.0147 154.284 87.1211 154.622 87.2146L154.471 87.9754L155.235 87.8271C155.328 88.1656 155.435 88.5138 155.557 88.8749C154.75 91.0374 153.508 93.0113 151.908 94.6746ZM169.352 99.1235C169.245 99.2122 169.122 99.2787 168.989 99.3191C168.856 99.3595 168.716 99.373 168.578 99.3589C166.857 99.3589 163.223 97.2343 160.757 94.6714C159.16 93.0063 157.921 91.0313 157.117 88.8684C157.24 88.5073 157.35 88.1559 157.44 87.8207L158.201 87.969L158.052 87.2081C158.391 87.1146 158.742 87.005 159.103 86.8857C161.267 87.6935 163.242 88.9367 164.906 90.5384C167.979 93.4785 170.397 98.0693 169.352 99.1235Z" fill="#131314"/>
<path id="Vector_8" d="M156.328 91.0927C155.342 91.0915 154.379 90.798 153.56 90.2494C152.741 89.7008 152.104 88.9218 151.727 88.0108C151.351 87.0997 151.254 86.0976 151.447 85.1312C151.64 84.1647 152.116 83.2772 152.813 82.581C153.511 81.8847 154.399 81.4109 155.366 81.2195C156.333 81.028 157.335 81.1276 158.245 81.5055C159.156 81.8834 159.933 82.5227 160.48 83.3427C161.027 84.1626 161.319 85.1262 161.318 86.1119C161.316 87.4338 160.789 88.7006 159.853 89.6345C158.918 90.5683 157.65 91.0927 156.328 91.0927Z" fill="#FFDE0D"/>
<path id="Vector_9" d="M156.35 81.8661C157.189 81.8667 158.01 82.1162 158.707 82.5831C159.404 83.05 159.948 83.7132 160.268 84.4888C160.589 85.2645 160.672 86.1178 160.507 86.9407C160.343 87.7637 159.938 88.5193 159.343 89.1121C158.749 89.7048 157.993 90.1081 157.169 90.2708C156.346 90.4335 155.493 90.3484 154.718 90.0262C153.943 89.704 153.281 89.1592 152.816 88.4607C152.351 87.7622 152.103 86.9415 152.104 86.1022C152.106 84.9776 152.554 83.8996 153.35 83.1053C154.147 82.3109 155.226 81.8652 156.35 81.8661ZM156.35 80.3799C155.217 80.378 154.108 80.7122 153.165 81.3404C152.222 81.9686 151.486 82.8625 151.051 83.9089C150.616 84.9554 150.501 86.1074 150.72 87.2192C150.94 88.331 151.485 89.3527 152.285 90.155C153.086 90.9573 154.106 91.5041 155.217 91.7263C156.329 91.9485 157.481 91.8361 158.528 91.4032C159.576 90.9704 160.471 90.2367 161.102 89.2948C161.732 88.3529 162.069 87.2452 162.069 86.1119C162.069 84.5939 161.467 83.1379 160.395 82.0633C159.323 80.9887 157.868 80.3833 156.35 80.3799Z" fill="#131314"/>
</g>
<g id="letters">
<path id="Vector_10" d="M161.431 24.4028H151.779L141.218 51.1608H152.943V54.4911H164.591L168.027 63.5404H176.409L161.431 24.4028ZM151.276 46.1026L156.344 32.5817L161.431 46.1026H151.276Z" fill="white"/>
<path id="Vector_11" d="M149.593 54.4849V66.8678H141.217V63.5472H106.474V24.4257L114.849 24.416L114.888 54.4785L129.595 54.4849L129.557 24.4257H137.99V54.4849H149.593Z" fill="white"/>
<path id="Vector_12" d="M137.968 66.8672H106.474V75.246H118.047V105.998H126.436V75.246H137.968V74.2853V66.8672Z" fill="white"/>
<path id="Vector_13" d="M101.117 66.8672H73.2627H70.2839H68.6526L70.9512 86.3941L68.6526 105.969H70.2839H73.2627V105.998H103.157V105.969V98.5384V97.6164H77.7568L78.408 90.2789H99.9853V89.7663V89.4181V83.3701V83.022V82.5867H78.4144L77.76 75.246H103.157V74.2982V66.8672H101.117Z" fill="white"/>
<path id="Vector_14" d="M92.1416 24.4255L77.054 52.1732V24.4255H68.6526V63.547H79.1914L94.7787 34.6129V63.547H103.16V24.4255H92.1416Z" fill="white"/>
</g>
<path id="Vector_15" d="M65.4463 24.4365V106H57.0642V32.8314H41.0965V90.9769C41.0965 91.0769 41.0965 91.1832 41.0965 91.2993V91.3992C41.0352 93.7527 40.4195 99.5169 36.0318 103.16L35.9996 103.189C34.4553 104.462 32.0858 105.707 28.6395 105.939C28.2816 105.958 27.9141 105.974 27.5305 105.974C26.5275 105.958 25.5303 105.818 24.5613 105.558V97.2247C24.7676 97.2731 24.9643 97.3215 25.1609 97.3569C25.1749 97.3581 25.1889 97.3581 25.2029 97.3569C27.6884 97.8502 29.5196 97.6342 30.6512 96.7122C31.9407 95.6451 32.463 93.5592 32.6274 92.0956C32.6286 92.0902 32.6286 92.0848 32.6274 92.0795C32.6732 91.6997 32.6968 91.3175 32.6983 90.935C32.6983 90.8931 32.6983 90.8544 32.6983 90.8189V90.6997V90.6287L32.7435 32.0061V29.4463L46.9284 27.0929L47.0284 27.0768C49.0993 26.6502 51.0407 25.7424 52.6959 24.4268H65.4463V24.4365Z" fill="white"/>
<g id="sto">
<path id="Vector_16" d="M41.5118 0.157434L10.4435 5.31561C7.30568 5.83773 4.50355 7.58446 2.65308 10.1718C0.802619 12.7592 0.0552658 15.9755 0.575303 19.1137C1.65852 25.6227 7.8709 30.0748 15.3083 28.9787L46.3734 23.8206C51.2769 22.8534 55.4486 17.7661 55.4744 12.0341C55.4783 11.3579 55.4232 10.6827 55.3099 10.016C54.7784 6.88348 53.029 4.08853 50.4438 2.24143C47.8586 0.394328 44.6475 -0.354868 41.5118 0.157434Z" fill="#FFDE0D"/>
<path id="Vector_17" d="M18.7935 12.8401C18.5857 12.2846 18.2551 11.7831 17.8264 11.3732C17.2212 10.8048 16.4757 10.4076 15.6664 10.2223C14.7387 10.004 13.7757 9.98208 12.8391 10.1578C11.899 10.2948 10.9952 10.6158 10.1794 11.1024C9.49981 11.5014 8.95095 12.0895 8.59971 12.7949C8.26956 13.4985 8.17135 14.2887 8.31924 15.0516C8.40947 15.6961 8.66368 16.3067 9.0575 16.8248C9.45796 17.3034 9.99235 17.6514 10.592 17.8242C11.3881 18.0488 12.2169 18.1349 13.0422 18.0788L15.3214 17.9918C15.7527 17.9667 16.1854 17.9915 16.611 18.0659C16.8772 18.1083 17.1251 18.2283 17.3235 18.4109C17.4966 18.599 17.609 18.8349 17.6458 19.0879C17.7121 19.4232 17.6425 19.7711 17.4524 20.0551C17.2308 20.3792 16.924 20.6358 16.5658 20.7966C16.1021 21.0193 15.6077 21.1714 15.099 21.2479C14.5569 21.3513 14.0001 21.3513 13.458 21.2479C13.0084 21.1651 12.587 20.9699 12.233 20.6805C12.0419 20.5212 11.8823 20.3277 11.7623 20.1099L9.18323 20.7127C9.38546 21.2927 9.71608 21.8195 10.1504 22.2537C10.7762 22.865 11.5561 23.2951 12.4071 23.4982C13.393 23.7292 14.4163 23.7522 15.4117 23.5659C16.3849 23.4219 17.3179 23.0784 18.152 22.5568C18.8602 22.1142 19.4291 21.4806 19.7929 20.7289C20.1338 19.985 20.2352 19.1536 20.0831 18.3497C20.0023 17.7206 19.7602 17.1231 19.3803 16.6152C18.991 16.1666 18.4695 15.8529 17.8909 15.719C17.056 15.5228 16.1966 15.4511 15.3408 15.5062L12.9712 15.5642C12.576 15.584 12.1798 15.5559 11.7913 15.4804C11.542 15.4378 11.3097 15.3261 11.1207 15.158C10.9627 14.9839 10.8615 14.7657 10.8306 14.5326C10.7693 14.2189 10.8304 13.8935 11.0015 13.6235C11.2054 13.3199 11.4886 13.0779 11.8203 12.9239C12.247 12.7131 12.7038 12.5696 13.1744 12.4983C13.6768 12.4047 14.1917 12.3993 14.696 12.4822C15.1044 12.544 15.4899 12.7106 15.8147 12.9658C16.0613 13.1619 16.2496 13.4217 16.3595 13.717L18.7935 12.8401Z" fill="#131314"/>
<path id="Vector_18" d="M32.2801 9.8872L31.8449 7.30811L20.5227 9.21341L20.9611 11.7925L25.3617 11.051L27.1058 21.3931L29.6172 20.9708L27.8763 10.6287L32.2801 9.8872Z" fill="#131314"/>
<path id="Vector_19" d="M47.2473 11.5829C47.0679 10.3576 46.5859 9.19638 45.8449 8.20422C45.1617 7.30034 44.2328 6.61208 43.1691 6.22155C42.0337 5.84315 40.8227 5.74904 39.6424 5.94744C38.4621 6.14585 37.3484 6.63072 36.399 7.35957C35.5195 8.07491 34.8666 9.03023 34.5195 10.1096C34.1701 11.2966 34.0959 12.5478 34.3026 13.7678C34.5093 14.9879 34.9915 16.1447 35.7124 17.1505C36.3937 18.0563 37.3232 18.7451 38.3882 19.1331C39.5233 19.5138 40.7348 19.6091 41.9155 19.4106C43.0962 19.2122 44.2099 18.726 45.1583 17.9951C46.0378 17.2791 46.6916 16.3241 47.041 15.2452C47.4145 14.0608 47.4854 12.8017 47.2473 11.5829ZM44.5973 14.278C44.3964 14.9304 44.0031 15.5068 43.469 15.9319C42.8795 16.3708 42.1942 16.6634 41.4694 16.7856C40.7447 16.9078 40.0013 16.8561 39.3005 16.6347C38.656 16.4056 38.0946 15.9891 37.6886 15.4386C37.257 14.8066 36.9677 14.0883 36.8408 13.3336C36.7139 12.5788 36.7524 11.8055 36.9535 11.067C37.1568 10.4167 37.5484 9.84109 38.0787 9.41317C38.6702 8.97578 39.3566 8.68417 40.082 8.56205C40.8074 8.43992 41.5515 8.49075 42.2536 8.71037C42.8989 8.938 43.4606 9.3548 43.8655 9.90642C44.2952 10.5394 44.5832 11.2576 44.7101 12.012C44.8369 12.7664 44.7996 13.5393 44.6005 14.278H44.5973Z" fill="#131314"/>
</g>
</g>
<defs>
<clipPath id="clip0_106232_2102">
<rect width="177" height="106" fill="white"/>
</clipPath>
</defs>
</svg>
