<?xml version="1.0" encoding="UTF-8"?>
<svg id="_Слой_2" data-name="Слой 2" xmlns="http://www.w3.org/2000/svg" viewBox="0 0 822.68 357.66">
  <defs>
    <style>
      .cls-1, .cls-2 {
        fill: #6c2382;
      }

      .cls-3 {
        fill: #08b1df;
      }

      .cls-3, .cls-4, .cls-2, .cls-5, .cls-6, .cls-7 {
        fill-rule: evenodd;
      }

      .cls-4 {
        fill: #abc711;
      }

      .cls-5 {
        fill: #ef7d3c;
      }

      .cls-6 {
        fill: #fff;
      }
    </style>
  </defs>
  <g id="_Слой_1-2" data-name="Слой 1">
    <g>
      <path class="cls-6" d="M157.31,321.75c-.32-.05-.65-.1-.97-.15,.32,.05,.65,.1,.97,.15h0ZM208.05,5.72h0c36.78,6.16,69.66,23.76,94.91,48.98,24.43,24.43,41.7,56.04,48.36,91.4l-12.23,2.21c-6.39-33.52-22.86-63.3-46.15-86.09-23.26-22.76-53.33-38.59-86.93-44.26l-.55,3.23c2.46,.42,4.92,.9,7.33,1.42,29.95,6.51,56.73,21.32,77.83,41.95,22.84,22.34,38.97,51.49,45.23,84.32l-11.88,2.14c-5.64-29.67-20.15-56.19-40.68-76.69-21.25-21.25-48.91-36.03-79.85-41.23v-.02h0l-3.23-.5h0c-6.98-1.02-14.14-1.54-21.42-1.54-40.81,0-77.76,16.55-104.5,43.29-26.74,26.74-43.27,63.69-43.27,104.5,0,8.37,.7,16.6,2.04,24.6h0l.57,3.21c5.64,29.67,20.15,56.19,40.68,76.69,21.25,21.25,48.93,36.06,79.85,41.25l-1.89,11.93c-32.95-5.54-62.45-21.05-85.29-43.39-22.34-21.87-38.27-50.25-44.83-82.21-.15-.7-.27-1.42-.42-2.11l-3.21,.57h0c6.39,33.52,22.86,63.3,46.15,86.08,23.31,22.79,53.41,38.62,87.08,44.29l-1.94,12.25c-36.85-6.11-69.86-23.73-95.15-49.03-24.43-24.43-41.7-56.04-48.36-91.4h0l-.57-3.21c-1.62-9.59-2.49-19.46-2.49-29.52,0-48.48,19.66-92.37,51.42-124.13,2.91-2.93,5.94-5.74,9.07-8.45l.12-.1,.02-.02,.15-.12h0l.15-.12,.02-.02,.12-.1c.37-.32,.72-.62,1.09-.92h0c.47-.4,.97-.8,1.44-1.22h0c.55-.45,1.09-.92,1.67-1.37h0c1.42-1.14,2.86-2.26,4.3-3.35l.02-.02,.45-.35h0C102.68,16.41,139.21,3.28,178.8,3.28c8.75,0,17.35,.65,25.75,1.89l3.23,.5h0l.17,.02,.1,.02h0Zm-49.01,316.28c-.32-.05-.65-.1-.94-.12,.3,.05,.62,.07,.94,.12h0Zm1.79,.25h0c-.3-.05-.6-.07-.9-.12,.3,.05,.6,.1,.9,.12h0Zm120.18-245.6c-26.14-26.14-62.28-42.32-102.19-42.32s-76.05,16.18-102.19,42.32c-26.14,26.14-42.32,62.28-42.32,102.19s16.18,76.05,42.32,102.19c21.12,21.12,48.78,35.74,79.65,40.58l7.26-45.9h19.23c11.83,0,17.22-6.16,17.22-14.09,0-3.31-.9-6.56-3.18-9.27,25.6-6.76,45.92-26.42,53.58-51.54l24.3-.05c-.12-4.2-.17-7.6-.17-10.66l-20.33-.07,.05-4.42,17.62-.3v-10.07l-17.62,.05v-4.08l20.3-.05v-9.57l46.55-8.37,.02,.1c-5.32-29.67-19.66-56.21-40.11-76.66h0Zm-103.75,189.42c6.24,0,9.52-.8,9.52-4.72,0-5.09-5.86-6.26-9.47-6.26l-.05,10.98Z"/>
      <path class="cls-3" d="M351.89,149.31l-27.31,4.92c1.34,8,2.04,16.23,2.04,24.6,0,40.81-16.55,77.76-43.29,104.5-26.74,26.74-63.69,43.29-104.5,43.29-7.28,0-14.44-.52-21.42-1.54l-4.32,27.41c8.4,1.24,17,1.89,25.75,1.89,48.49,0,92.37-19.66,124.13-51.42,31.76-31.76,51.42-75.65,51.42-124.13,0-10.07-.84-19.93-2.48-29.52h0Zm-174.63,116.75l.05-10.96c3.6,0,9.47,1.17,9.47,6.26-.03,3.93-3.28,4.7-9.52,4.7h0Zm97.27-104.48l46.55-8.37c1.49,8.33,2.26,16.87,2.26,25.62,0,39.91-16.18,76.05-42.32,102.19-26.14,26.14-62.28,42.32-102.19,42.32-7.65,0-15.18-.6-22.54-1.74l7.23-45.9h19.24c11.83,0,17.22-6.16,17.22-14.09,0-3.31-.9-6.56-3.18-9.27,25.6-6.76,45.92-26.42,53.58-51.54l24.3-.05c-.12-4.2-.17-7.6-.17-10.66l-20.33-.07,.05-4.42,17.62-.3v-10.07l-17.62,.05v-4.08l20.3-.05v-9.57Z"/>
      <path class="cls-7" d="M281.02,76.64c-26.14-26.14-62.28-42.32-102.19-42.32s-76.05,16.18-102.19,42.32c-26.14,26.14-42.32,62.28-42.32,102.19s16.18,76.05,42.32,102.19c26.14,26.14,62.28,42.32,102.19,42.32s76.05-16.18,102.19-42.32c26.14-26.14,42.32-62.28,42.32-102.19,0-39.91-16.18-76.04-42.32-102.19h0ZM16.33,194.19c.57,5.94,1.47,11.53,2.63,17.25,6.66,32.68,22.94,61.68,45.75,84,23.31,22.79,53.41,38.64,87.08,44.29l-1.94,12.25c-36.85-6.11-69.86-23.73-95.16-49.03-24.43-24.43-41.7-56.04-48.36-91.4l-.57-3.21h0c-1.62-9.59-2.48-19.46-2.48-29.52,0-48.48,19.66-92.37,51.42-124.13,3.43-3.43,7.03-6.73,10.74-9.89h0c.47-.4,.97-.8,1.44-1.22h0c.37-.32,.77-.62,1.14-.94l.02-.02h.02l.02-.02,.02-.02,.02-.02,.02-.02,.02-.02h0l.02-.02,.02-.02,.02-.02,.02-.02,.02-.02,.02-.02h0l.02-.02,.02-.02,.02-.02,.02-.02,.02-.02,.02-.02h0l.02-.02c.5-.4,.97-.8,1.47-1.17l.02-.02c.45-.35,.87-.7,1.32-1.02l.12-.1c.42-.32,.87-.67,1.29-.99l.15-.1,.4-.3h0C102.65,16.34,139.18,3.22,178.77,3.22c8.75,0,17.35,.65,25.75,1.89h0l3.23,.5h0l.22,.05h.02c36.78,6.16,69.66,23.76,94.91,48.98,24.43,24.43,41.7,56.04,48.36,91.4l-12.23,2.21c-6.39-33.52-22.86-63.3-46.15-86.08-21.74-21.27-49.43-36.48-80.39-43.02-6.71-1.42-13.15-2.44-20.08-3.03-4.55-.37-9.1-.57-13.64-.57-45.08,0-85.89,18.27-115.43,47.81-29.46,29.59-47.73,70.39-47.73,115.47,0,5.09,.22,10.21,.72,15.36h0ZM192.2,19.53c37.03,3.11,71.72,18.86,98.46,45.01,22.84,22.34,38.97,51.49,45.23,84.32l-11.88,2.14c-5.64-29.67-20.15-56.19-40.68-76.69-21.25-21.25-48.93-36.03-79.85-41.25l-3.23-.5h0c-6.98-1.02-14.14-1.54-21.42-1.54-40.81,0-77.76,16.55-104.5,43.29-26.76,26.76-43.29,63.72-43.29,104.52,0,8.37,.7,16.6,2.04,24.6l.57,3.21h0c5.64,29.67,20.16,56.19,40.68,76.69,21.25,21.25,48.93,36.06,79.85,41.25l-1.89,11.93c-32.95-5.54-62.45-21.05-85.29-43.39-22.37-21.87-38.32-50.3-44.83-82.31-1.12-5.54-1.96-11.31-2.49-16.95-.47-4.94-.7-9.97-.7-15.03,0-44.14,17.89-84.1,46.82-113.02,28.93-28.93,68.89-46.82,113.02-46.82,4.47,0,8.92,.18,13.37,.55h0ZM178.83,0c49.38,0,94.09,20.01,126.44,52.39,32.36,32.36,52.39,77.06,52.39,126.44s-20,94.09-52.39,126.44c-32.36,32.36-77.06,52.39-126.44,52.39s-94.09-20.01-126.44-52.39C20.03,272.92,0,228.21,0,178.83S20,84.74,52.39,52.39C84.74,20.03,129.45,0,178.83,0h0Zm173.06,149.31c1.61,9.59,2.48,19.46,2.48,29.52,0,48.48-19.66,92.35-51.42,124.13-31.76,31.76-75.65,51.42-124.13,51.42-8.75,0-17.35-.65-25.75-1.89l4.32-27.41c6.98,1.02,14.14,1.54,21.42,1.54,40.81,0,77.76-16.55,104.5-43.29,26.74-26.74,43.29-63.69,43.29-104.5,0-8.37-.7-16.6-2.04-24.6l27.31-4.92h0Zm-178.36,40.73l5.32-15.01,5,15.04-10.31-.02h0Zm27.56,11.11l-44.51,.07,.05-10.96h5.39l10.31-29.17h12.55l10.69,29.22h5.32c-.02,3.11,.02,6.59,.2,10.84h0Zm-73.73,35.49l-14.91,19.53,14.91,19.53h-13.84l-4.35-5.09v5.29h-13.42v-5.29l-4.35,5.09h-13.84l14.04-19.53-14.04-19.53h13.84l4.35,5.09v-5.29h13.42v5.29l4.35-5.09h13.84Zm147.17-46.55c0,3.03,.05,6.44,.17,10.66l-33.92,.07,.05-39.31,33.72,.07v9.57l-20.3,.05v4.08l17.62-.05v10.07l-17.62,.3-.05,4.42,20.33,.07h0Zm-6.98,66.08l-7.36,4.25-7.36,4.25v-17l7.36,4.25,7.36,4.25h0Zm.05-9.87c2.54,2.54,4.08,6.01,4.08,9.87s-1.57,7.36-4.08,9.87c-2.54,2.53-6.01,4.1-9.87,4.1s-7.36-1.57-9.87-4.1c-2.54-2.54-4.08-6.01-4.08-9.87s1.57-7.36,4.08-9.87c2.54-2.53,6.01-4.1,9.87-4.1,3.85,.03,7.35,1.59,9.87,4.1h0Zm-9.87-7.36c4.77,0,9.07,1.94,12.2,5.05,3.13,3.13,5.04,7.43,5.04,12.2s-1.94,9.07-5.04,12.2c-3.13,3.13-7.43,5.05-12.2,5.05s-9.07-1.94-12.2-5.05c-3.13-3.11-5.04-7.43-5.04-12.2s1.94-9.07,5.04-12.2c3.13-3.13,7.46-5.05,12.2-5.05h0Zm-20.78,17.22c0-2.93,.52-5.67,1.59-8.23,1.07-2.56,2.51-4.8,4.37-6.68,1.86-1.91,4.08-3.4,6.61-4.5,2.54-1.09,5.27-1.64,8.2-1.64s5.64,.55,8.2,1.64c2.54,1.09,4.75,2.58,6.61,4.5,1.86,1.91,3.33,4.12,4.37,6.68,1.07,2.56,1.59,5.29,1.59,8.23s-.52,5.67-1.59,8.23c-1.07,2.56-2.51,4.8-4.37,6.68-1.86,1.91-4.08,3.41-6.61,4.5-2.54,1.09-5.27,1.64-8.2,1.64s-5.67-.55-8.2-1.64c-2.54-1.09-4.75-2.61-6.61-4.5-1.86-1.91-3.33-4.12-4.37-6.68-1.04-2.56-1.59-5.29-1.59-8.23h0ZM91.85,106.69v19.19h-11.78v-39.24l11.83-.17,11.11,12.1,9.94-12,11.9,.07v39.24h-11.78v-19.19l-10.07,12.05-11.16-12.05h0Zm85.41,159.37l.05-10.96c3.6,0,9.47,1.17,9.47,6.26-.03,3.9-3.28,4.7-9.52,4.7h0Zm-13.72,9.64v-39.49h13.59v9.05c17.74,.8,22.89,8.35,22.89,16.35s-5.42,14.09-17.22,14.09h-19.26Zm20.06-174.56c1.29,1.29,2.06,3.06,2.06,5s-.8,3.73-2.06,4.99c-1.29,1.29-3.06,2.06-5,2.06s-3.73-.8-4.99-2.06c-1.29-1.29-2.06-3.06-2.06-4.99s.8-3.73,2.06-5c1.29-1.29,3.06-2.06,4.99-2.06s3.7,.79,5,2.06h0Zm-5.02-5.57c2.91,0,5.57,1.19,7.48,3.11,1.91,1.91,3.11,4.55,3.11,7.48s-1.19,5.57-3.11,7.48c-1.91,1.91-4.55,3.11-7.48,3.11s-5.57-1.19-7.48-3.11c-1.91-1.91-3.11-4.55-3.11-7.48s1.19-5.57,3.11-7.48c1.91-1.91,4.57-3.11,7.48-3.11h0Zm9.79,.8c2.51,2.51,4.05,5.96,4.05,9.79s-1.54,7.28-4.05,9.79c-2.51,2.51-5.96,4.05-9.79,4.05s-7.28-1.54-9.79-4.05c-2.51-2.51-4.05-5.96-4.05-9.79s1.54-7.28,4.05-9.79c2.51-2.51,5.96-4.05,9.79-4.05,3.83-.02,7.28,1.54,9.79,4.05h0Zm-9.79-7.56c4.8,0,9.12,1.94,12.28,5.07,3.13,3.13,5.07,7.48,5.07,12.28s-1.94,9.12-5.07,12.28c-3.13,3.13-7.48,5.07-12.28,5.07s-9.12-1.94-12.28-5.07c-3.13-3.13-5.07-7.48-5.07-12.28s1.94-9.12,5.07-12.28c3.16-3.13,7.48-5.07,12.28-5.07h0Zm0,13.94c.94,0,1.79,.37,2.39,.99,.62,.62,.99,1.47,.99,2.39s-.37,1.79-.99,2.39c-.62,.62-1.47,.99-2.39,.99s-1.79-.37-2.39-.99c-.62-.62-.99-1.47-.99-2.39s.37-1.79,.99-2.39c.6-.6,1.47-.99,2.39-.99h0Zm0-17.37c11.48,0,20.78,9.29,20.78,20.78s-9.29,20.77-20.78,20.77-20.78-9.29-20.78-20.77,9.32-20.78,20.78-20.78h0Zm-66.33,85.99c2.51,2.51,4.05,5.96,4.05,9.79s-1.54,7.28-4.05,9.79c-2.51,2.51-5.96,4.05-9.79,4.05s-7.28-1.54-9.79-4.05c-2.51-2.51-4.05-5.96-4.05-9.79s1.54-7.28,4.05-9.79c2.51-2.51,5.96-4.05,9.79-4.05s7.28,1.54,9.79,4.05h0Zm-4.8,4.8c1.29,1.29,2.06,3.06,2.06,4.99s-.8,3.73-2.06,5c-1.29,1.29-3.06,2.06-4.99,2.06s-3.73-.8-5-2.06c-1.29-1.29-2.06-3.06-2.06-5s.8-3.73,2.06-4.99c1.29-1.29,3.06-2.06,5-2.06,1.96-.02,3.73,.77,4.99,2.06h0Zm-4.99-5.57c2.91,0,5.57,1.19,7.48,3.11,1.91,1.91,3.11,4.55,3.11,7.48s-1.19,5.57-3.11,7.48c-1.91,1.91-4.55,3.11-7.48,3.11s-5.57-1.19-7.48-3.11c-1.91-1.91-3.11-4.55-3.11-7.48s1.19-5.57,3.11-7.48c1.91-1.94,4.55-3.11,7.48-3.11h0Zm0,7.18c.94,0,1.79,.37,2.38,.99,.62,.62,.99,1.47,.99,2.39s-.37,1.79-.99,2.39c-.62,.62-1.47,.99-2.38,.99s-1.79-.37-2.39-.99c-.62-.62-.99-1.47-.99-2.39s.37-1.79,.99-2.39c.6-.62,1.44-.99,2.39-.99h0Zm0-13.97c4.8,0,9.12,1.94,12.28,5.07,3.13,3.13,5.07,7.48,5.07,12.28s-1.94,9.12-5.07,12.28c-3.13,3.13-7.48,5.07-12.28,5.07s-9.12-1.94-12.28-5.07c-3.13-3.13-5.07-7.48-5.07-12.28s1.94-9.12,5.07-12.28c3.16-3.13,7.48-5.07,12.28-5.07h0Zm0-3.43c11.48,0,20.77,9.29,20.77,20.78s-9.29,20.78-20.77,20.78-20.78-9.29-20.78-20.78,9.29-20.78,20.78-20.78h0Zm160.74-34.62l-5.57-16.75-5.94,16.75h-14.22l13.84-39.22h12.28l14.34,39.22h-14.74Zm-49.73,208.23c-.62,.99-.82,2.06-.57,3.26,.25,1.19,.87,2.09,1.86,2.73,.97,.65,2.04,.84,3.21,.6,1.17-.25,2.04-.87,2.68-1.84,.62-.99,.82-2.06,.57-3.26-.25-1.19-.87-2.11-1.86-2.73-.99-.65-2.04-.85-3.21-.6-1.17,.25-2.06,.87-2.68,1.84h0Zm21.42-9.74l-9.07,2.88,1.24,3.88c.55,1.71,.87,3.06,.99,4.08,.1,1.02,.07,1.69-.12,2.06-.2,.37-.52,.65-.99,.8-.3,.1-.62,.12-.94,.1l.82,2.56h.25c.15,0,.35,0,.65-.02,.3-.02,.57-.1,.82-.17,.65-.2,1.17-.52,1.57-.92,.4-.42,.67-.99,.85-1.76,.17-.77,.17-1.77-.02-3.03-.2-1.27-.57-2.76-1.14-4.52l-.47-1.44,3.68-1.17,3.26,10.09,2.68-.87-4.03-12.53h0Zm7.01,.67c.42-1.09,1.17-1.86,2.26-2.34,1.09-.47,2.16-.5,3.26-.05,1.09,.42,1.89,1.22,2.39,2.31,.5,1.12,.52,2.21,.1,3.31-.42,1.09-1.17,1.86-2.24,2.34-1.09,.47-2.16,.5-3.25,.05-1.09-.42-1.89-1.19-2.36-2.31-.52-1.12-.55-2.21-.15-3.31h0Zm1.29,8.08c-1.81-.67-3.11-1.89-3.85-3.6-.77-1.74-.77-3.48-.05-5.27,.72-1.79,2.01-3.06,3.85-3.88,1.84-.8,3.65-.87,5.47-.2,1.81,.67,3.08,1.86,3.85,3.6,.77,1.74,.8,3.48,.05,5.27-.72,1.79-2.01,3.08-3.85,3.88-1.82,.8-3.65,.87-5.47,.2h0Zm11.75-6.31l.67-.37c.02-.07,.05-.17,.07-.3,.02-.15,.05-.45,.07-.9,.02-.45,0-.92-.05-1.42-.05-.5-.22-1.12-.47-1.86-.25-.75-.6-1.52-1.02-2.29l-1.96-3.53,8-4.4,5.14,9.29,1.42-.77,2.56,4.6-2.48,1.37-1.32-2.39-6.93,3.8,1.32,2.39-2.49,1.37-2.53-4.6h0Zm1.77-8.47l-.72-1.32,3.06-1.67,3.93,7.06-4.87,2.68,.1-.32c.05-.2,.07-.5,.07-.9s-.02-.85-.07-1.37c-.05-.52-.2-1.14-.47-1.89-.27-.77-.6-1.52-1.02-2.29h0Zm14.59-1.27l5.79-4.03,1.47,2.06-8.13,5.64-7.55-10.76,7.98-5.54,1.47,2.09-5.64,3.93,1.52,2.16,4.4-3.06,1.47,2.06-4.4,3.06,1.64,2.39h0Zm12.28-11.53l-1.67-.22,.62,6.78-2.53,2.09-.87-9.27-7.26-1.09,2.54-2.09,6.81,.97-3.26-3.9,2.19-1.79,3.26,3.9,.32-6.83,2.54-2.09-.3,7.31,9,2.59-2.53,2.09-6.58-1.89-.1,1.67,2.83,3.4-2.19,1.79-2.81-3.41h0Zm16.85-9.54l-3.9,3.93-9.39-9.22,1.99-2.01,3.08,3.03,1.91-1.94c.94-.97,2.04-1.47,3.28-1.49,1.24-.02,2.29,.37,3.21,1.27,.9,.87,1.32,1.94,1.29,3.16-.03,1.22-.52,2.31-1.47,3.28h0Zm-3.73,.15l-2.68-2.63,1.84-1.86c.4-.4,.87-.6,1.39-.62,.52,0,.97,.17,1.34,.55,.37,.37,.57,.82,.55,1.34,0,.52-.2,.99-.6,1.39l-1.84,1.84h0Zm18.69-35.69c-.35-1.12-.25-2.19,.3-3.23,.55-1.04,1.39-1.72,2.51-2.06,1.12-.32,2.24-.22,3.31,.35,1.07,.57,1.79,1.42,2.14,2.53,.35,1.12,.25,2.19-.3,3.23-.55,1.04-1.39,1.72-2.51,2.06-1.12,.32-2.24,.22-3.31-.35-1.07-.57-1.79-1.42-2.14-2.54h0Zm6.04,5.54c-1.84,.6-3.6,.42-5.27-.45-1.67-.9-2.78-2.26-3.33-4.1-.55-1.84-.35-3.65,.62-5.42,.94-1.76,2.34-2.93,4.18-3.53,1.84-.6,3.58-.45,5.27,.45,1.67,.9,2.78,2.26,3.33,4.1,.55,1.84,.35,3.65-.6,5.42-.97,1.76-2.36,2.93-4.2,3.53h0Zm-1.04-23.83c.27-.65,.6-1.22,1.02-1.71,.42-.5,.82-.9,1.22-1.17,.4-.27,.77-.5,1.12-.7,.35-.17,.65-.3,.87-.37l.32-.1,.97,2.34c-.05,.02-.15,.02-.25,.05-.1,.02-.3,.1-.6,.22-.27,.12-.55,.27-.8,.45-.25,.17-.52,.45-.82,.77-.3,.35-.52,.72-.7,1.12-.47,1.14-.5,2.24-.05,3.31,.45,1.07,1.24,1.86,2.39,2.34,1.14,.47,2.26,.5,3.33,.05,1.09-.45,1.86-1.24,2.34-2.36,.17-.45,.3-.9,.35-1.34,.05-.45,.05-.85-.02-1.19-.05-.32-.12-.65-.2-.92-.07-.27-.17-.47-.25-.62l-.12-.2,2.31-.87c.05,.07,.1,.17,.17,.32,.07,.15,.17,.42,.32,.87,.15,.42,.25,.87,.32,1.34,.07,.45,.05,1.02-.02,1.67-.07,.67-.25,1.32-.5,1.94-.77,1.84-2.06,3.16-3.83,3.9-1.79,.75-3.55,.77-5.29,.05-1.74-.72-2.98-1.99-3.68-3.78-.72-1.74-.69-3.55,.08-5.39h0Zm4.17-9.79l-.94,2.66,12.48,4.35,.94-2.66-3.55-1.24-1.22-2.21,6.61-1.77,1.09-3.11-9.05,2.41-3.55-6.39-1.09,3.11,3.73,6.76-5.44-1.91h0Zm17.4-12.25c.32-1.27,.2-2.39-.32-3.38-.52-.99-1.32-1.61-2.34-1.86-.4-.1-.82-.12-1.22-.05-.4,.05-.72,.15-.99,.3-.25,.12-.5,.3-.75,.5-.22,.2-.37,.35-.45,.42-.07,.07-.12,.15-.15,.2l-.05-.17c-.05-.1-.1-.25-.22-.42-.1-.17-.25-.37-.42-.57-.17-.2-.4-.37-.67-.55-.27-.17-.6-.3-.94-.37-.9-.22-1.79-.05-2.66,.55-.87,.6-1.44,1.47-1.74,2.61l-1.37,5.47,12.82,3.18,1.46-5.84h0Zm-3.06,2.49l.72-2.91c.12-.5,.07-.94-.17-1.37-.22-.4-.57-.67-1.04-.8-.47-.12-.9-.05-1.29,.2-.4,.25-.67,.62-.8,1.12l-.72,2.91,3.31,.84h0Zm-7.6-4.6l-.65,2.53,2.76,.67,.65-2.54c.12-.45,.07-.85-.1-1.17-.2-.32-.5-.55-.9-.65-.42-.1-.77-.05-1.09,.15-.35,.22-.55,.55-.67,.99h0Zm1.49-21.45l-.4,2.78,13.07,1.81,.4-2.78-13.07-1.81h0Zm11.83,10.76c.2-1.34-.07-2.51-.8-3.5-.72-.99-1.69-1.59-2.96-1.76-1.24-.17-2.36,.12-3.33,.9-.97,.77-1.54,1.81-1.74,3.16l-.35,2.51-4.3-.6-.4,2.78,13.07,1.81,.79-5.29h0Zm-2.88,2.14l.35-2.41c.07-.55-.02-1.04-.35-1.47-.3-.42-.72-.67-1.24-.75-.52-.07-.99,.05-1.42,.37-.42,.32-.67,.77-.75,1.32l-.35,2.41,3.75,.52h0Zm-31.76,63.42l-1.91-7.06,1.49-2.01,10.61,7.83-1.69,2.26-7.08-5.22,1.81,6.59-6.83,.2,7.03,5.19-1.69,2.26-10.61-7.83,1.52-2.04,7.36-.17h0Zm-109.57,65.91l-5.14-5.19-2.54,.27,1.49,13.05,2.81-.32-.99-8.67,4.82,4.85,3.63-5.81,.99,8.7,2.81-.32-1.49-13.05-2.49,.27-3.9,6.24h0Zm12.7,3.5c1.64,1.02,3.43,1.32,5.42,.9,1.96-.42,3.48-1.42,4.55-3.03,1.07-1.59,1.42-3.33,1.02-5.17-.4-1.84-1.42-3.28-3.06-4.3-1.64-1.02-3.43-1.32-5.39-.9-1.96,.42-3.48,1.42-4.57,3.03-1.07,1.59-1.42,3.31-1.02,5.17,.4,1.84,1.41,3.28,3.06,4.3Z"/>
      <path class="cls-5" d="M455.61,94.01l-17.89,25.08h-.4l-17.89-25.08h-17.89v69.95h22.19v-10.29c0-5.5-.2-12.59-.8-17.29l.4-.1c1.5,2.8,4.6,7.5,7.4,11.39l6.3,8.89h1l6.5-9.19c2.8-3.9,5.6-8.19,7.19-11.09l.4,.1c-.7,6-.8,12.19-.8,18.19v9.39h22.19V94.01h-17.89Zm26.88,35.48c0,20.29,15.69,36.48,35.98,36.48s35.98-16.19,35.98-36.48-15.69-36.48-35.98-36.48-35.98,16.19-35.98,36.48h0Zm22.18,0c0-8.09,6-14.19,13.79-14.19s13.89,6.1,13.89,14.19-6.1,14.19-13.89,14.19-13.79-6.1-13.79-14.19h0Zm102.63,8.89c-2.4,2.8-5.9,5.3-11.29,5.3-7.4,0-13.39-6.4-13.39-14.19s5.4-14.19,13.79-14.19c4.5,0,8.09,1.9,10.89,5.2l12.39-18.79c-6.3-5.5-13.79-8.69-23.78-8.69-20.09,0-35.48,16.09-35.48,36.38s15.39,36.58,35.68,36.58c10.99,0,17.49-3.8,23.68-8.99l-12.49-18.59h0Zm55.36-44.37l-4.4,5.4c-3.1,3.8-5.7,7.79-7.5,10.89l-.4-.1c.2-3.6,.2-7.19,.2-10.69v-5.5h-21.79v69.95h21.79v-6.9c0-4.8,0-10.49-.1-13.19l.4-.1c1.8,3.5,3.6,6.5,7.1,11.59l5.9,8.59h26.18l-25.68-37.98,25.68-31.98h-27.38Z"/>
      <path class="cls-2" d="M432.78,192.7v33.42h-10.61s0-4.5,0-4.5c0-1.44,.02-2.88,.07-4.35,.05-1.47,.15-2.91,.32-4.35l-.2-.05c-.37,.7-.9,1.52-1.49,2.49-.62,.94-1.27,1.89-1.94,2.81l-3.11,4.4h-.47s-3.01-4.25-3.01-4.25c-.67-.92-1.34-1.89-2.01-2.91-.67-1.02-1.17-1.86-1.52-2.54l-.2,.05c.12,1.12,.22,2.44,.3,3.98,.07,1.54,.1,2.96,.1,4.27v4.92h-10.61v-33.4h8.55l8.55,11.98h.2l8.55-11.98h8.52Zm3.83,16.97c0-2.41,.45-4.7,1.32-6.81,.87-2.11,2.09-3.95,3.63-5.54,1.54-1.57,3.35-2.81,5.47-3.73,2.09-.9,4.35-1.37,6.78-1.37s4.67,.45,6.78,1.37c2.11,.92,3.93,2.16,5.47,3.73,1.54,1.57,2.76,3.43,3.63,5.54,.87,2.11,1.32,4.37,1.32,6.81s-.45,4.7-1.32,6.81c-.87,2.11-2.09,3.95-3.63,5.54-1.54,1.57-3.36,2.81-5.47,3.73-2.11,.92-4.37,1.37-6.78,1.37s-4.67-.45-6.78-1.37c-2.11-.9-3.93-2.14-5.47-3.73-1.54-1.57-2.76-3.43-3.63-5.54-.89-2.14-1.32-4.4-1.32-6.81h0Zm10.59,0c0,.94,.17,1.84,.5,2.68,.32,.82,.8,1.54,1.39,2.14,.6,.6,1.29,1.09,2.11,1.44,.82,.35,1.69,.52,2.61,.52s1.79-.17,2.61-.52c.82-.35,1.52-.82,2.11-1.44,.6-.6,1.07-1.32,1.42-2.14,.35-.82,.52-1.71,.52-2.68s-.17-1.84-.52-2.68c-.35-.82-.82-1.54-1.42-2.14-.6-.6-1.29-1.09-2.11-1.44-.82-.35-1.69-.52-2.61-.52s-1.79,.17-2.61,.52c-.82,.35-1.52,.82-2.11,1.44-.6,.6-1.04,1.32-1.39,2.14-.32,.82-.5,1.71-.5,2.68h0Zm43.79-16.97h-7.66s-12.8,33.43-12.8,33.43h10.69l5.82-16.18,5.86,16.18h10.98s-12.9-33.43-12.9-33.43h0Zm12.43,16.97c0-2.41,.45-4.7,1.32-6.81,.87-2.11,2.09-3.95,3.63-5.54,1.54-1.57,3.35-2.81,5.47-3.73,2.11-.9,4.37-1.37,6.78-1.37s4.67,.45,6.78,1.37c2.11,.92,3.93,2.16,5.47,3.73,1.54,1.57,2.76,3.43,3.63,5.54,.87,2.11,1.32,4.37,1.32,6.81s-.45,4.7-1.32,6.81c-.87,2.11-2.09,3.95-3.63,5.54-1.54,1.57-3.35,2.81-5.47,3.73-2.11,.92-4.37,1.37-6.78,1.37s-4.67-.45-6.78-1.37c-2.11-.9-3.93-2.14-5.47-3.73-1.54-1.57-2.76-3.43-3.63-5.54-.89-2.14-1.32-4.4-1.32-6.81h0Zm10.59,0c0,.94,.17,1.84,.5,2.68,.32,.82,.8,1.54,1.39,2.14,.6,.6,1.29,1.09,2.11,1.44,.82,.35,1.69,.52,2.61,.52s1.79-.17,2.61-.52c.82-.35,1.52-.82,2.11-1.44,.6-.6,1.07-1.32,1.42-2.14,.35-.82,.52-1.71,.52-2.68s-.17-1.84-.52-2.68c-.35-.82-.82-1.54-1.42-2.14-.6-.6-1.29-1.09-2.11-1.44-.82-.35-1.69-.52-2.61-.52s-1.79,.17-2.61,.52c-.82,.35-1.52,.82-2.11,1.44-.6,.6-1.04,1.32-1.39,2.14-.32,.82-.5,1.71-.5,2.68h0Zm25.7,16.45v-9.07h3.43l9.07-24.35h7.56l9.84,24.35h3.48v9.07h-33.38Zm16.43-16.18l-2.39,7.11h5.12l-2.73-7.11h0Zm21.25-17.25h17.87v8.97h-7.28v3.38h6.78v8.7h-6.78v3.38h7.73v8.97h-18.34v-33.4h.03Zm40.06,33.43v-6.84c0-.57,0-1.09,.02-1.57,.02-.47,.02-.87,.02-1.19l-.2-.05c-.45,.82-.92,1.67-1.42,2.49-.5,.82-1.14,1.84-1.99,3.06l-2.81,4.1h-12.5s12.28-18.14,12.28-18.14l-12.28-15.28h13.07l2.11,2.58c.72,.92,1.39,1.84,2.01,2.73,.6,.92,1.12,1.74,1.57,2.46l.2-.05c-.07-.87-.1-1.71-.1-2.58v-5.17h10.21v5.17c0,.87-.02,1.71-.1,2.58l.2,.05c.45-.72,.97-1.54,1.57-2.46,.6-.9,1.27-1.81,2.01-2.73l2.11-2.58h13.07s-12.28,15.28-12.28,15.28l12.28,18.14h-12.5l-2.81-4.1c-.82-1.22-1.49-2.24-1.99-3.06-.5-.82-.97-1.67-1.42-2.48l-.2,.05c0,.32,0,.72,.02,1.19,.02,.47,.02,.99,.02,1.57v6.83h-10.21Zm48.56-12.25h-5.54v12.28h-10.61v-33.45h10.61v12.28h5.54s0-12.28,0-12.28h10.61s0,33.42,0,33.42h-10.61s0-12.25,0-12.25h0Zm33.85-21.17l12.9,33.42h-10.88s-1.09-3.16-1.09-3.16h-9.54s-1.09,3.16-1.09,3.16h-10.64s12.75-33.42,12.75-33.42h7.6Zm-6.06,22.79h4.45l-2.24-6.49-2.21,6.49h0Zm47.99,10.64h-10.36v-8.45h-.42l-5.19,8.45h-12.08l6.96-11.26c-1.49-1.09-2.63-2.41-3.38-3.98-.77-1.57-1.14-3.45-1.14-5.67s.45-4.17,1.34-5.77c.9-1.59,1.99-2.88,3.33-3.9,1.32-.99,2.73-1.72,4.2-2.16,1.49-.45,2.83-.67,4.03-.67h12.75v33.4h-.02Zm-10.36-24.38h-1.44c-.37,0-.75,.1-1.12,.27-.37,.17-.7,.42-.97,.72-.27,.3-.52,.67-.72,1.12-.2,.45-.3,.92-.3,1.44,0,.99,.3,1.84,.92,2.54,.6,.7,1.34,1.04,2.24,1.04h1.39v-7.13h0Z"/>
      <path class="cls-4" d="M425.33,272.79c-.72,.65-1.49,1.22-2.26,1.74-.77,.52-1.62,.97-2.54,1.37-.9,.37-1.89,.67-2.96,.9-1.07,.2-2.26,.32-3.55,.32-2.41,0-4.67-.45-6.76-1.37-2.09-.92-3.9-2.14-5.42-3.73-1.52-1.57-2.73-3.43-3.58-5.57-.87-2.14-1.29-4.4-1.29-6.83s.42-4.7,1.29-6.81c.87-2.11,2.06-3.95,3.58-5.52,1.52-1.57,3.33-2.78,5.39-3.7,2.06-.9,4.3-1.37,6.68-1.37s4.5,.35,6.34,1.07c1.84,.72,3.5,1.74,5.04,3.08l-5.91,8.97c-.67-.8-1.44-1.42-2.29-1.84-.87-.42-1.84-.65-2.91-.65s-1.94,.17-2.73,.52c-.82,.35-1.49,.84-2.09,1.47-.57,.62-1.02,1.34-1.32,2.16-.3,.82-.45,1.72-.45,2.63s.17,1.79,.5,2.63c.32,.82,.8,1.54,1.37,2.16,.57,.62,1.24,1.12,2.04,1.47,.77,.35,1.61,.52,2.51,.52,1.29,0,2.39-.25,3.26-.77,.87-.5,1.57-1.09,2.14-1.77l5.92,8.9h0Zm2.38-30.09h24.15v9.07h-6.78v24.35h-10.61v-24.35h-6.78l.03-9.07h0Zm25.37,16.95c0-2.41,.45-4.7,1.32-6.81,.87-2.11,2.09-3.95,3.63-5.54,1.54-1.57,3.35-2.81,5.47-3.73,2.11-.9,4.37-1.37,6.78-1.37s4.67,.45,6.78,1.37c2.11,.92,3.93,2.14,5.47,3.73,1.54,1.57,2.76,3.43,3.63,5.54,.87,2.11,1.32,4.37,1.32,6.81s-.45,4.7-1.32,6.81c-.87,2.11-2.09,3.95-3.63,5.54-1.54,1.57-3.35,2.81-5.47,3.73-2.11,.92-4.37,1.37-6.78,1.37s-4.67-.45-6.78-1.37c-2.11-.92-3.93-2.14-5.47-3.73-1.54-1.57-2.76-3.43-3.63-5.54-.9-2.11-1.32-4.4-1.32-6.81h0Zm10.59,0c0,.94,.17,1.84,.5,2.68,.32,.82,.8,1.54,1.39,2.14,.6,.6,1.29,1.09,2.11,1.44,.82,.35,1.69,.52,2.61,.52s1.79-.17,2.61-.52c.82-.35,1.52-.82,2.11-1.44,.6-.6,1.07-1.32,1.42-2.14,.35-.82,.52-1.72,.52-2.68s-.17-1.84-.52-2.68c-.35-.82-.82-1.54-1.42-2.14-.6-.6-1.29-1.09-2.11-1.44-.82-.35-1.69-.52-2.61-.52s-1.79,.17-2.61,.52c-.82,.35-1.52,.82-2.11,1.44-.6,.6-1.04,1.32-1.39,2.14-.32,.85-.5,1.74-.5,2.68h0Zm43.79-16.95s-7.65,0-7.65,0l-12.8,33.42h10.69l5.81-16.18,5.86,16.18h10.98s-12.9-33.42-12.9-33.42h0Zm31.88,20.92l-8.35,12.5h-7.78v-33.42h10.61s0,12.5,0,12.5l8.35-12.5h7.78v33.42h-10.61s0-12.5,0-12.5h0Zm26.47,3.43h5.54v-24.35h10.59s0,24.35,0,24.35h3.48v9.07h-30.22v-33.42h10.61s0,24.35,0,24.35h0Zm41.92-24.35l12.9,33.42h-10.89s-1.09-3.16-1.09-3.16h-9.54l-1.09,3.16h-10.64l12.75-33.42s7.6,0,7.6,0h0Zm-6.06,22.79h4.45l-2.24-6.49-2.21,6.49h0Zm35.66-22.79h11.88c1.44,0,2.96,.22,4.57,.67,1.61,.45,3.11,1.17,4.47,2.16,1.37,.99,2.51,2.31,3.38,3.9,.9,1.59,1.34,3.53,1.34,5.77s-.37,4.13-1.14,5.74c-.77,1.59-1.81,2.91-3.16,3.93-1.34,1.02-2.93,1.76-4.75,2.24-1.84,.47-3.83,.72-5.99,.72v8.3h-10.61s0-33.42,0-33.42h0Zm10.59,16.13h1.14c.9,0,1.64-.35,2.24-1.04,.6-.7,.92-1.54,.92-2.53,0-.5-.1-.99-.27-1.44-.2-.45-.42-.82-.72-1.12-.3-.3-.62-.55-.97-.72-.37-.17-.75-.27-1.12-.27h-1.19l-.02,7.13h0Zm17.45,.82c0-2.41,.45-4.7,1.32-6.81,.87-2.11,2.09-3.95,3.63-5.54,1.54-1.57,3.36-2.81,5.47-3.73,2.09-.9,4.35-1.37,6.78-1.37s4.67,.45,6.78,1.37c2.11,.92,3.93,2.14,5.47,3.73,1.54,1.57,2.76,3.43,3.63,5.54,.87,2.11,1.32,4.37,1.32,6.81s-.45,4.7-1.32,6.81c-.87,2.11-2.09,3.95-3.63,5.54-1.54,1.57-3.35,2.81-5.47,3.73-2.09,.92-4.35,1.37-6.78,1.37s-4.67-.45-6.78-1.37c-2.11-.92-3.93-2.14-5.47-3.73-1.54-1.57-2.76-3.43-3.63-5.54-.89-2.11-1.32-4.4-1.32-6.81h0Zm10.59,0c0,.94,.17,1.84,.5,2.68,.32,.82,.8,1.54,1.39,2.14,.6,.6,1.29,1.09,2.11,1.44,.82,.35,1.69,.52,2.61,.52s1.79-.17,2.61-.52c.82-.35,1.52-.82,2.11-1.44,.6-.6,1.07-1.32,1.42-2.14,.35-.82,.52-1.72,.52-2.68s-.17-1.84-.52-2.68c-.35-.82-.82-1.54-1.42-2.14-.6-.6-1.29-1.09-2.11-1.44-.82-.35-1.69-.52-2.61-.52s-1.79,.17-2.61,.52c-.82,.35-1.52,.82-2.11,1.44-.6,.6-1.04,1.32-1.39,2.14-.32,.85-.5,1.74-.5,2.68h0Zm54.52,13.15c-.72,.65-1.49,1.22-2.26,1.74-.77,.52-1.62,.97-2.54,1.37-.92,.37-1.89,.67-2.96,.9-1.07,.2-2.26,.32-3.55,.32-2.41,0-4.67-.45-6.76-1.37-2.09-.92-3.9-2.14-5.42-3.73-1.52-1.57-2.73-3.43-3.58-5.57-.87-2.14-1.29-4.4-1.29-6.83s.42-4.7,1.29-6.81c.87-2.11,2.06-3.95,3.58-5.52,1.52-1.57,3.33-2.78,5.39-3.7,2.06-.9,4.3-1.37,6.68-1.37s4.5,.35,6.34,1.07c1.84,.72,3.5,1.74,5.04,3.08l-5.91,8.97c-.67-.8-1.44-1.42-2.29-1.84-.87-.42-1.84-.65-2.91-.65s-1.94,.17-2.73,.52c-.82,.35-1.49,.84-2.09,1.47-.57,.62-1.02,1.34-1.32,2.16-.3,.82-.45,1.72-.45,2.63s.17,1.79,.5,2.63c.32,.82,.8,1.54,1.37,2.16,.57,.62,1.24,1.12,2.04,1.47,.77,.35,1.62,.52,2.51,.52,1.32,0,2.39-.25,3.26-.77,.87-.5,1.57-1.09,2.16-1.77l5.89,8.9h0Zm28.38,0c-.72,.65-1.49,1.22-2.26,1.74-.77,.52-1.62,.97-2.54,1.37-.92,.37-1.89,.67-2.96,.9-1.07,.2-2.26,.32-3.55,.32-2.41,0-4.67-.45-6.76-1.37-2.09-.92-3.9-2.14-5.42-3.73-1.54-1.57-2.73-3.43-3.58-5.57-.87-2.14-1.29-4.4-1.29-6.83s.42-4.7,1.29-6.81c.87-2.11,2.06-3.95,3.58-5.52,1.52-1.57,3.33-2.78,5.39-3.7,2.06-.9,4.3-1.37,6.68-1.37s4.5,.35,6.34,1.07c1.84,.72,3.5,1.74,5.04,3.08l-5.91,8.97c-.67-.8-1.44-1.42-2.29-1.84-.87-.42-1.84-.65-2.91-.65s-1.94,.17-2.73,.52c-.82,.35-1.52,.84-2.09,1.47-.57,.62-1.02,1.34-1.32,2.16-.3,.82-.45,1.72-.45,2.63s.17,1.79,.5,2.63c.32,.82,.8,1.54,1.37,2.16,.57,.62,1.24,1.12,2.04,1.47,.77,.35,1.62,.52,2.51,.52,1.29,0,2.39-.25,3.26-.77,.87-.5,1.57-1.09,2.14-1.77l5.92,8.9h0Zm19.96-9.17l-8.35,12.5h-7.78v-33.42h10.61s0,12.5,0,12.5l8.35-12.5h7.78v33.42h-10.61s0-12.5,0-12.5h0Zm31.98,0l-8.35,12.5h-7.78v-33.42h10.61s0,12.5,0,12.5l8.35-12.5h7.78v33.42h-10.61s0-12.5,0-12.5Z"/>
      <path class="cls-5" d="M698.05,163.96h31.78c8.99,0,21.19-6.6,21.19-21.49,0-10.39-4.8-13.79-8.39-15.79v-.4c2.3-1.7,5.5-4.9,5.5-12.59,0-12.79-9.49-19.69-28.08-19.69h-21.99v69.95h0Zm21.49-28.48h2.7c3.3,0,6.9,1.9,6.9,5.9s-3.7,5.7-6.79,5.7h-2.8v-11.59h0Zm0-24.28h2.7c2.2,0,5.2,1.3,5.2,4.6,0,2.9-2.4,4.8-5.1,4.8h-2.8v-9.39Z"/>
      <path class="cls-5" d="M779.71,94.01l-26.68,69.95h22.29l2.3-6.6h19.99l2.3,6.6h22.79l-26.98-69.95h-15.99Zm7.89,34.08l4.7,13.59h-9.29l4.6-13.59Z"/>
      <rect fill= "#6c2382" x="577.24" y="183.41" width="8.05" height="5.73"/>
      <rect fill= "#6c2382" x="587.18" y="183.41" width="8.05" height="5.73"/>
      <g>
        <path class="cls-7" d="M262.77,304.56c.58,0,1.04,.47,1.04,1.05s-.47,1.05-1.04,1.05-1.05-.47-1.05-1.05,.47-1.05,1.05-1.05Z"/>
        <path class="cls-7" d="M265.55,302.54c.58,0,1.05,.47,1.05,1.04s-.47,1.05-1.05,1.05-1.04-.47-1.04-1.05,.47-1.04,1.04-1.04Z"/>
      </g>
      <path class="cls-6" d="M248.96,150.74h6.78v5.73h-6.78v-5.73h0Zm10.68,0h6.78v5.73h-6.78v-5.73Z"/>
      <path class="cls-7" d="M248.96,150.74h6.78v5.73h-6.78v-5.73h0Zm10.68,0h6.78v5.73h-6.78v-5.73Z"/>
    </g>
  </g>
</svg>