<svg width="240" height="122" viewBox="0 0 240 122" fill="none" xmlns="http://www.w3.org/2000/svg">
<g id="mosvol" clip-path="url(#clip0_106824_2555)">
<path id="Vector" fill-rule="evenodd" clip-rule="evenodd" d="M108.539 52.5519C109.27 52.5519 109.767 52.7449 110.092 53.0802C110.417 53.4154 110.6 53.9437 110.6 54.7159C110.6 55.488 110.417 56.0162 110.092 56.3515C109.767 56.6867 109.27 56.8797 108.539 56.8797H101.248V52.5622H108.539V52.5519ZM101.248 68.3895V63.3509H108.914C109.767 63.3509 110.346 63.5744 110.732 63.9604C111.108 64.3564 111.321 64.9762 111.321 65.8702C111.321 66.7642 111.108 67.3837 110.732 67.78C110.356 68.1762 109.767 68.3895 108.914 68.3895H101.248ZM108.031 46.0708C109.727 46.0708 111.199 46.2638 112.478 46.6395C113.748 47.0155 114.783 47.5538 115.555 48.2548C116.306 48.9356 116.875 49.6974 117.24 50.5506C117.606 51.3939 117.789 52.3082 117.789 53.2732C117.789 54.0554 117.677 54.7972 117.444 55.498C117.21 56.199 116.844 56.839 116.367 57.418C115.87 58.0275 115.179 58.5153 114.316 58.8708C113.839 59.074 113.321 59.2263 112.763 59.338V59.6835C114.387 59.9678 115.697 60.5471 116.651 61.4408C117.911 62.6296 118.52 64.3159 118.52 66.4594C118.52 67.3737 118.418 68.2167 118.225 68.999C118.022 69.8015 117.657 70.5737 117.159 71.305C116.641 72.0468 115.971 72.6765 115.179 73.1846C114.377 73.6923 113.342 74.0988 112.113 74.3933C110.874 74.6981 109.442 74.8506 107.848 74.8506H94.0596V46.0503H108.041L108.031 46.0708Z" fill="#6666CC"/>
<path id="Vector_2" d="M41.4231 0C43.3829 0 46.2258 0.223503 49.4853 1.21902C51.4246 1.81853 55.8822 3.23056 59.9435 7.16189C64.0862 11.1645 65.6397 15.6546 66.8988 19.3119C67.2949 20.4596 67.7417 22.3899 68.635 26.2605C70.0768 32.4979 70.4324 35.3119 72.1076 41.8846C72.26 42.4636 72.5444 43.6116 72.9097 44.9119C75.4989 54.2885 77.6007 58.1081 79.063 62.71C81.8146 71.3654 81.0937 78.9743 80.7991 81.8086C80.0275 89.2142 77.6921 94.5071 75.5801 99.1699C73.316 104.178 69.3052 111.584 62.2586 119.284C56.0343 120.341 48.6831 120.95 40.8039 120.95C32.9248 120.95 25.5733 120.341 19.3493 119.284C12.3127 111.584 8.2919 104.178 6.0275 99.1699C3.91552 94.5071 1.58039 89.2142 0.80852 81.8086C0.514159 78.9845 -0.206743 71.3654 2.54493 62.71C4.00697 58.1081 6.11895 54.2783 8.69796 44.9119C9.06353 43.6013 9.34789 42.4636 9.50007 41.8846C11.1755 35.3119 11.5308 32.4979 12.9726 26.2605C13.8662 22.3899 14.313 20.4596 14.709 19.3119C15.9679 15.6546 17.5214 11.1645 21.6642 7.16189C25.7562 3.23056 30.2136 1.80828 32.1529 1.21902C35.4123 0.223503 38.2554 0 40.215 0H41.4231ZM40.7837 112.305C60.5427 112.305 70.4119 103.416 70.4119 85.6486C70.5948 80.9248 70.5236 76.9627 70.3917 73.9964C70.219 70.0346 70.1278 68.0536 69.6505 65.2903C69.0108 61.6637 68.107 58.9514 66.645 54.6541C65.3251 50.7632 64.2486 48.1017 63.8731 47.1264C62.2688 42.9818 60.5731 36.47 60.5527 26.4025C60.5527 14.5575 53.9631 8.63491 40.7937 8.63491C27.6246 8.63491 21.0855 14.5575 21.0855 26.4025C21.055 36.47 19.3696 42.9818 17.7653 47.1264C17.3895 48.0917 16.3133 50.7632 14.9932 54.6541C13.5311 58.9514 12.6173 61.6637 11.9879 65.2903C11.5004 68.0433 11.4191 70.0346 11.2465 73.9964C11.1145 76.9627 11.0436 80.9248 11.2262 85.6486C11.2262 103.416 21.0855 112.305 40.7837 112.305Z" fill="#6666CC"/>
<path id="Vector_3" fill-rule="evenodd" clip-rule="evenodd" d="M147.773 24.1368C148.89 22.9685 149.479 21.1807 149.479 18.7222C149.479 16.2639 148.89 14.4758 147.773 13.3076C146.656 12.1393 144.971 11.5298 142.625 11.5298C140.28 11.5298 138.594 12.1393 137.487 13.3076C136.381 14.4758 135.792 16.2639 135.792 18.7222C135.792 21.1807 136.381 22.9685 137.487 24.1368C138.594 25.3051 140.29 25.9146 142.615 25.9146C144.94 25.9146 146.646 25.3051 147.763 24.1368H147.773ZM135.132 31.1769C132.989 29.8866 131.355 28.1596 130.248 25.9958C129.141 23.832 128.593 21.4142 128.593 18.7324C128.593 16.7311 128.918 14.8516 129.568 13.1043C130.217 11.357 131.121 9.82325 132.299 8.52273C133.487 7.21245 134.959 6.18619 136.746 5.44467C138.523 4.70315 140.493 4.32715 142.625 4.32715C144.757 4.32715 146.727 4.70315 148.504 5.44467C150.281 6.18619 151.774 7.21245 152.951 8.52273C154.129 9.82325 155.043 11.347 155.683 13.1043C156.333 14.8516 156.657 16.7209 156.657 18.7324C156.657 21.4142 156.109 23.8423 155.003 25.9958C153.906 28.1496 152.281 29.8766 150.139 31.1667C147.986 32.4669 145.478 33.107 142.635 33.107C139.792 33.107 137.295 32.4669 135.132 31.1769Z" fill="#6666CC"/>
<path id="Vector_4" fill-rule="evenodd" clip-rule="evenodd" d="M140.574 65.9005C141.691 64.7322 142.28 62.9444 142.28 60.4859C142.28 58.0275 141.691 56.2395 140.574 55.0712C139.457 53.903 137.771 53.2935 135.426 53.2935C133.08 53.2935 131.395 53.903 130.288 55.0712C129.182 56.2395 128.593 58.0275 128.593 60.4859C128.593 62.9444 129.182 64.7322 130.288 65.9005C131.395 67.0687 133.091 67.6782 135.416 67.6782C137.741 67.6782 139.447 67.0687 140.564 65.9005H140.574ZM127.933 72.9406C125.79 71.6503 124.155 69.9235 123.048 67.7595C121.942 65.5957 121.394 63.1779 121.394 60.4961C121.394 58.4948 121.718 56.6155 122.368 54.868C123.018 53.1207 123.922 51.5869 125.1 50.2864C126.288 48.9761 127.76 47.9501 129.547 47.2083C131.324 46.4668 133.294 46.0908 135.426 46.0908C137.558 46.0908 139.528 46.4668 141.305 47.2083C143.082 47.9501 144.574 48.9761 145.752 50.2864C146.93 51.5869 147.844 53.1107 148.483 54.868C149.133 56.6155 149.458 58.4846 149.458 60.4961C149.458 63.1779 148.91 65.606 147.803 67.7595C146.707 69.9133 145.082 71.6403 142.94 72.9303C140.787 74.2306 138.279 74.8706 135.436 74.8706C132.593 74.8706 130.095 74.2306 127.933 72.9406Z" fill="#6666CC"/>
<path id="Vector_5" fill-rule="evenodd" clip-rule="evenodd" d="M201.374 65.9005C202.491 64.7322 203.08 62.9444 203.08 60.4859C203.08 58.0275 202.491 56.2395 201.374 55.0712C200.257 53.903 198.572 53.2935 196.226 53.2935C193.881 53.2935 192.195 53.903 191.088 55.0712C189.982 56.2395 189.393 58.0275 189.393 60.4859C189.393 62.9444 189.982 64.7322 191.088 65.9005C192.195 67.0687 193.891 67.6782 196.216 67.6782C198.541 67.6782 200.247 67.0687 201.364 65.9005H201.374ZM188.733 72.9406C186.59 71.6503 184.956 69.9235 183.849 67.7595C182.742 65.5957 182.194 63.1779 182.194 60.4961C182.194 58.4948 182.519 56.6155 183.169 54.868C183.818 53.1207 184.722 51.5869 185.9 50.2864C187.088 48.9761 188.56 47.9501 190.347 47.2083C192.124 46.4668 194.094 46.0908 196.226 46.0908C198.359 46.0908 200.328 46.4668 202.105 47.2083C203.882 47.9501 205.375 48.9761 206.552 50.2864C207.73 51.5869 208.645 53.1107 209.284 54.868C209.935 56.6155 210.259 58.4846 210.259 60.4961C210.259 63.1779 209.71 65.606 208.603 67.7595C207.507 69.9133 205.882 71.6403 203.74 72.9303C201.587 74.2306 199.079 74.8706 196.236 74.8706C193.393 74.8706 190.895 74.2306 188.733 72.9406Z" fill="#6666CC"/>
<path id="Vector_6" d="M156.667 46.0801V51.3624C156.667 52.7137 156.667 53.882 156.627 54.8673C156.596 55.8628 156.566 56.9193 156.505 58.0673C156.454 59.2051 156.363 60.1803 156.241 61.0031C156.119 61.8159 155.967 62.6386 155.784 63.4819C155.591 64.3252 155.358 65.0159 155.073 65.5645C154.789 66.113 154.454 66.621 154.058 67.068C153.672 67.525 153.215 67.8503 152.687 68.0738C152.149 68.2973 151.56 68.3988 150.91 68.3988V74.8801C152.565 74.8801 154.058 74.6566 155.378 74.2096C156.698 73.7626 157.805 73.1734 158.688 72.4623C159.571 71.7511 160.353 70.7963 160.993 69.6178C161.643 68.4395 162.14 67.261 162.496 66.113C162.851 64.9652 163.135 63.5529 163.338 61.8971C163.541 60.2414 163.673 58.7378 163.744 57.3765C163.816 56.0153 163.846 54.4102 163.846 52.5612H171.766V74.8801H178.965V46.0801H156.678H156.667Z" fill="#6666CC"/>
<path id="Vector_7" d="M220.697 57.2445H230.769V46.0801H237.968V74.8699H230.769V63.7157H220.697V74.8699H213.498V46.0801H220.697V57.2445Z" fill="#6666CC"/>
<path id="Vector_8" d="M128.592 87.833V116.623H121.394V94.3141H114.915V116.623H107.727V94.3141H101.249V116.623H94.0498V87.833H128.592Z" fill="#6666CC"/>
<path id="Vector_9" fill-rule="evenodd" clip-rule="evenodd" d="M186.753 24.0968C186.529 24.757 186.255 25.387 185.941 26.0066C184.844 28.1603 183.219 29.8874 181.077 31.1774C178.924 32.4777 176.416 33.1177 173.573 33.1177C170.73 33.1177 168.233 32.4777 166.07 31.1876C163.927 29.8974 162.293 28.1703 161.186 26.0066C160.079 23.8428 159.531 21.425 159.531 18.7432C159.531 16.7419 159.856 14.8623 160.506 13.1151C161.155 11.3678 162.059 9.83374 163.237 8.53346C164.425 7.22294 165.897 6.19693 167.684 5.45541C169.461 4.7139 171.431 4.33789 173.563 4.33789C175.695 4.33789 177.665 4.7139 179.442 5.45541C181.219 6.19693 182.712 7.22294 183.89 8.53346C185.067 9.83374 185.981 11.3578 186.621 13.1151C186.651 13.2066 186.682 13.2878 186.712 13.3793L179.858 15.2181C179.574 14.4663 179.188 13.8363 178.701 13.3183C177.584 12.15 175.899 11.5405 173.553 11.5405C171.208 11.5405 169.522 12.15 168.415 13.3183C167.309 14.4866 166.72 16.2746 166.72 18.7329C166.72 21.1915 167.309 22.9792 168.415 24.1475C169.522 25.3158 171.218 25.9253 173.543 25.9253C175.868 25.9253 177.574 25.3158 178.691 24.1475C179.178 23.6295 179.564 22.9995 179.848 22.248L186.732 24.0968H186.753Z" fill="#6666CC"/>
<path id="Vector_10" fill-rule="evenodd" clip-rule="evenodd" d="M173.776 107.266C175.218 107.266 176.538 107.012 177.756 106.514C178.954 106.017 179.97 105.326 180.772 104.422C181.564 103.538 182.183 102.512 182.62 101.333C183.056 100.155 183.27 98.885 183.27 97.534C183.27 95.7257 182.894 94.0901 182.153 92.6274C181.412 91.1643 180.305 89.9961 178.843 89.1225C177.381 88.2388 175.685 87.8223 173.766 87.8223H158.799V116.622H165.998V107.266H173.766H173.776ZM172.984 100.785C174.07 100.785 174.822 100.5 175.309 99.9925C175.797 99.4845 176.071 98.682 176.071 97.5442C176.071 96.4064 175.797 95.6139 175.309 95.0959C174.822 94.5879 174.06 94.3034 172.984 94.3034H165.998V100.785H171.542H172.984Z" fill="#6666CC"/>
<path id="Vector_11" fill-rule="evenodd" clip-rule="evenodd" d="M149.194 83.8302C148.747 84.0944 148.23 84.2264 147.661 84.2264C147.092 84.2264 146.574 84.0944 146.128 83.8404C145.691 83.5864 145.346 83.2309 145.112 82.7941C144.879 82.3571 144.767 81.8796 144.767 81.3514C144.767 80.9554 144.828 80.5794 144.96 80.2341C145.092 79.8988 145.275 79.5736 145.529 79.3198C145.772 79.0556 146.077 78.8423 146.453 78.7001C146.818 78.5578 147.214 78.4766 147.651 78.4766C148.087 78.4766 148.483 78.5476 148.849 78.7001C149.214 78.8523 149.519 79.0556 149.763 79.3198C150.006 79.5838 150.199 79.8988 150.331 80.2341C150.463 80.5794 150.524 80.9554 150.524 81.3514C150.524 81.8796 150.413 82.3674 150.179 82.7941C149.945 83.2207 149.61 83.5662 149.184 83.8302H149.194ZM141.274 83.8302C140.827 84.0944 140.31 84.2264 139.741 84.2264C139.172 84.2264 138.654 84.0944 138.208 83.8404C137.771 83.5864 137.426 83.2309 137.192 82.7941C136.959 82.3571 136.847 81.8796 136.847 81.3514C136.847 80.9554 136.908 80.5794 137.04 80.2341C137.172 79.8988 137.355 79.5736 137.609 79.3198C137.852 79.0556 138.157 78.8423 138.533 78.7001C138.898 78.5578 139.294 78.4766 139.731 78.4766C140.167 78.4766 140.564 78.5476 140.929 78.7001C141.294 78.8523 141.599 79.0556 141.843 79.3198C142.087 79.5838 142.279 79.8988 142.411 80.2341C142.543 80.5794 142.604 80.9554 142.604 81.3514C142.604 81.8796 142.493 82.3674 142.259 82.7941C142.026 83.2207 141.69 83.5662 141.264 83.8302H141.274ZM154.484 116.623V110.141H140.096V105.458H151.611V98.977H140.096V94.2939H154.484V87.8125H132.897V116.613H154.484V116.623Z" fill="#6666CC"/>
<path id="Vector_12" fill-rule="evenodd" clip-rule="evenodd" d="M94.0498 4.31738V33.1174H101.249V20.8762H101.929L105.96 29.5214H113.088L117.119 20.8762H117.799V33.1174H124.998V4.31738H117.687L109.971 20.8762H109.077L101.36 4.31738H94.0498Z" fill="#6666CC"/>
</g>
<defs>
<clipPath id="clip0_106824_2555">
<rect width="239" height="122" fill="white" transform="translate(0.5)"/>
</clipPath>
</defs>
</svg>
