<svg width="220" height="220" viewBox="0 0 220 220" fill="none" xmlns="http://www.w3.org/2000/svg">
<path fill-rule="evenodd" clip-rule="evenodd" d="M102.141 104.018C102.657 104.018 103.007 104.154 103.236 104.39C103.465 104.626 103.594 104.998 103.594 105.542C103.594 106.086 103.465 106.458 103.236 106.694C103.007 106.93 102.657 107.066 102.141 107.066H97.0035V104.025H102.141V104.018ZM97.0035 115.174V111.625H102.406C103.007 111.625 103.415 111.782 103.687 112.054C103.952 112.333 104.102 112.769 104.102 113.399C104.102 114.029 103.952 114.465 103.687 114.744C103.422 115.024 103.007 115.174 102.406 115.174H97.0035ZM101.784 99.4524C102.979 99.4524 104.016 99.5884 104.918 99.8531C105.812 100.118 106.542 100.497 107.086 100.991C107.616 101.47 108.016 102.007 108.274 102.608C108.532 103.202 108.66 103.846 108.66 104.526C108.66 105.077 108.582 105.599 108.417 106.093C108.253 106.587 107.995 107.038 107.659 107.445C107.308 107.875 106.821 108.218 106.213 108.469C105.877 108.612 105.512 108.719 105.118 108.798V109.041C106.263 109.242 107.186 109.65 107.859 110.279C108.746 111.117 109.176 112.304 109.176 113.814C109.176 114.458 109.104 115.052 108.968 115.603C108.825 116.168 108.567 116.712 108.217 117.228C107.852 117.75 107.38 118.194 106.821 118.552C106.256 118.909 105.526 119.196 104.66 119.403C103.787 119.618 102.778 119.725 101.655 119.725H91.9371V99.438H101.791L101.784 99.4524Z" fill="#6666CC"/>
<path d="M54.841 67C56.2222 67 58.2257 67.1574 60.5228 67.8587C61.8896 68.281 65.0311 69.2756 67.8933 72.0449C70.813 74.8643 71.9078 78.0272 72.7952 80.6034C73.0743 81.4119 73.3892 82.7716 74.0188 85.498C75.0349 89.8917 75.2855 91.8739 76.4661 96.5037C76.5735 96.9116 76.774 97.7203 77.0314 98.6362C78.8562 105.241 80.3374 107.932 81.368 111.173C83.3073 117.27 82.7992 122.63 82.5916 124.626C82.0478 129.843 80.4019 133.571 78.9134 136.856C77.3178 140.384 74.4911 145.6 69.5249 151.025C65.1384 151.769 59.9575 152.198 54.4046 152.198C48.8517 152.198 43.6707 151.769 39.2842 151.025C34.3251 145.6 31.4914 140.384 29.8956 136.856C28.4071 133.571 26.7614 129.843 26.2174 124.626C26.01 122.637 25.5019 117.27 27.4412 111.173C28.4716 107.932 29.96 105.234 31.7776 98.6362C32.0352 97.713 32.2356 96.9116 32.3429 96.5037C33.5237 91.8739 33.7741 89.8917 34.7902 85.498C35.42 82.7716 35.7348 81.4119 36.014 80.6034C36.9012 78.0272 37.996 74.8643 40.9157 72.0449C43.7996 69.2756 46.9409 68.2738 48.3077 67.8587C50.6048 67.1574 52.6085 67 53.9895 67H54.841ZM54.3903 146.108C68.3156 146.108 75.2711 139.847 75.2711 127.331C75.4 124.004 75.3498 121.213 75.2568 119.124C75.1351 116.333 75.0708 114.937 74.7345 112.991C74.2836 110.436 73.6467 108.526 72.6163 105.499C71.6861 102.758 70.9274 100.883 70.6628 100.196C69.5322 97.2766 68.3371 92.6896 68.3227 85.5981C68.3227 77.2544 63.6786 73.0825 54.3974 73.0825C45.1163 73.0825 40.5078 77.2544 40.5078 85.5981C40.4863 92.6896 39.2985 97.2766 38.1679 100.196C37.903 100.876 37.1446 102.758 36.2142 105.499C35.1838 108.526 34.5398 110.436 34.0962 112.991C33.7526 114.93 33.6954 116.333 33.5737 119.124C33.4807 121.213 33.4307 124.004 33.5594 127.331C33.5594 139.847 40.5078 146.108 54.3903 146.108Z" fill="#6666CC"/>
<path fill-rule="evenodd" clip-rule="evenodd" d="M129.792 84.0021C130.579 83.1791 130.994 81.9198 130.994 80.188C130.994 78.4563 130.579 77.1968 129.792 76.3739C129.005 75.551 127.817 75.1216 126.164 75.1216C124.511 75.1216 123.323 75.551 122.543 76.3739C121.763 77.1968 121.348 78.4563 121.348 80.188C121.348 81.9198 121.763 83.1791 122.543 84.0021C123.323 84.825 124.518 85.2543 126.157 85.2543C127.795 85.2543 128.998 84.825 129.785 84.0021H129.792ZM120.883 88.9612C119.373 88.0523 118.221 86.8358 117.441 85.3116C116.661 83.7874 116.274 82.0843 116.274 80.1952C116.274 78.7855 116.503 77.4615 116.961 76.2307C117.419 74.9999 118.056 73.9195 118.886 73.0034C119.724 72.0805 120.761 71.3576 122.021 70.8352C123.273 70.3129 124.661 70.048 126.164 70.048C127.667 70.048 129.055 70.3129 130.307 70.8352C131.559 71.3576 132.611 72.0805 133.441 73.0034C134.271 73.9195 134.915 74.9929 135.366 76.2307C135.824 77.4615 136.053 78.7783 136.053 80.1952C136.053 82.0843 135.667 83.7946 134.887 85.3116C134.114 86.8287 132.969 88.0452 131.459 88.9539C129.942 89.8699 128.175 90.3207 126.171 90.3207C124.167 90.3207 122.407 89.8699 120.883 88.9612Z" fill="#6666CC"/>
<path fill-rule="evenodd" clip-rule="evenodd" d="M124.718 113.421C125.505 112.598 125.921 111.338 125.921 109.606C125.921 107.875 125.505 106.615 124.718 105.792C123.931 104.969 122.743 104.54 121.09 104.54C119.437 104.54 118.249 104.969 117.469 105.792C116.69 106.615 116.274 107.875 116.274 109.606C116.274 111.338 116.69 112.598 117.469 113.421C118.249 114.243 119.444 114.673 121.083 114.673C122.722 114.673 123.924 114.243 124.711 113.421H124.718ZM115.809 118.38C114.299 117.471 113.147 116.254 112.367 114.73C111.587 113.206 111.201 111.503 111.201 109.614C111.201 108.204 111.43 106.88 111.888 105.649C112.346 104.418 112.983 103.338 113.813 102.422C114.65 101.499 115.688 100.776 116.947 100.254C118.199 99.7314 119.587 99.4665 121.09 99.4665C122.593 99.4665 123.981 99.7314 125.234 100.254C126.486 100.776 127.538 101.499 128.368 102.422C129.198 103.338 129.842 104.411 130.293 105.649C130.751 106.88 130.98 108.197 130.98 109.614C130.98 111.503 130.593 113.213 129.813 114.73C129.04 116.247 127.896 117.464 126.386 118.372C124.869 119.288 123.101 119.739 121.097 119.739C119.094 119.739 117.334 119.288 115.809 118.38Z" fill="#6666CC"/>
<path fill-rule="evenodd" clip-rule="evenodd" d="M167.568 113.421C168.355 112.598 168.77 111.338 168.77 109.606C168.77 107.875 168.355 106.615 167.568 105.792C166.781 104.969 165.593 104.54 163.94 104.54C162.287 104.54 161.099 104.969 160.319 105.792C159.539 106.615 159.124 107.875 159.124 109.606C159.124 111.338 159.539 112.598 160.319 113.421C161.099 114.243 162.294 114.673 163.933 114.673C165.571 114.673 166.774 114.243 167.561 113.421H167.568ZM158.659 118.38C157.149 117.471 155.997 116.254 155.217 114.73C154.437 113.206 154.05 111.503 154.05 109.614C154.05 108.204 154.279 106.88 154.737 105.649C155.195 104.418 155.832 103.338 156.662 102.422C157.5 101.499 158.537 100.776 159.797 100.254C161.049 99.7314 162.437 99.4665 163.94 99.4665C165.443 99.4665 166.831 99.7314 168.083 100.254C169.335 100.776 170.387 101.499 171.217 102.422C172.048 103.338 172.692 104.411 173.142 105.649C173.601 106.88 173.83 108.197 173.83 109.614C173.83 111.503 173.443 113.213 172.663 114.73C171.89 116.247 170.745 117.464 169.235 118.372C167.718 119.288 165.951 119.739 163.947 119.739C161.943 119.739 160.183 119.288 158.659 118.38Z" fill="#6666CC"/>
<path d="M136.06 99.4591V103.18C136.06 104.132 136.06 104.955 136.032 105.649C136.01 106.35 135.989 107.094 135.946 107.903C135.91 108.704 135.846 109.391 135.76 109.971C135.674 110.543 135.567 111.123 135.438 111.717C135.302 112.311 135.137 112.798 134.937 113.184C134.737 113.57 134.5 113.928 134.221 114.243C133.949 114.565 133.627 114.794 133.255 114.952C132.876 115.109 132.461 115.181 132.003 115.181V119.746C133.169 119.746 134.221 119.589 135.151 119.274C136.082 118.959 136.862 118.544 137.484 118.043C138.107 117.542 138.658 116.869 139.109 116.039C139.567 115.209 139.917 114.379 140.168 113.57C140.418 112.762 140.619 111.767 140.762 110.601C140.905 109.434 140.998 108.375 141.048 107.416C141.098 106.458 141.119 105.327 141.119 104.024H146.701V119.746H151.775V99.4591H136.068H136.06Z" fill="#6666CC"/>
<path d="M181.186 107.323H188.284V99.4591H193.358V119.739H188.284V111.882H181.186V119.739H176.112V99.4591H181.186V107.323Z" fill="#6666CC"/>
<path d="M116.274 128.87V149.15H111.201V133.435H106.635V149.15H101.569V133.435H97.0035V149.15H91.9301V128.87H116.274Z" fill="#6666CC"/>
<path fill-rule="evenodd" clip-rule="evenodd" d="M157.263 83.9739C157.106 84.439 156.913 84.8827 156.691 85.3191C155.918 86.8363 154.773 88.0528 153.263 88.9615C151.746 89.8774 149.979 90.3283 147.975 90.3283C145.971 90.3283 144.211 89.8774 142.687 88.9687C141.177 88.0598 140.025 86.8433 139.245 85.3191C138.465 83.7949 138.078 82.0918 138.078 80.2028C138.078 78.793 138.307 77.4691 138.765 76.2383C139.223 75.0075 139.86 73.9269 140.69 73.011C141.527 72.0878 142.565 71.3651 143.825 70.8428C145.077 70.3205 146.465 70.0556 147.968 70.0556C149.471 70.0556 150.859 70.3205 152.111 70.8428C153.363 71.3651 154.415 72.0878 155.245 73.011C156.075 73.9269 156.72 75.0004 157.17 76.2383C157.192 76.3027 157.213 76.36 157.235 76.4244L152.404 77.7197C152.204 77.1901 151.932 76.7464 151.589 76.3815C150.802 75.5585 149.614 75.1292 147.961 75.1292C146.308 75.1292 145.12 75.5585 144.34 76.3815C143.56 77.2044 143.145 78.4639 143.145 80.1955C143.145 81.9273 143.56 83.1867 144.34 84.0096C145.12 84.8326 146.315 85.2619 147.954 85.2619C149.592 85.2619 150.794 84.8326 151.581 84.0096C151.925 83.6447 152.197 83.2009 152.397 82.6716L157.249 83.9739H157.263Z" fill="#6666CC"/>
<path fill-rule="evenodd" clip-rule="evenodd" d="M148.118 142.559C149.134 142.559 150.064 142.38 150.923 142.029C151.767 141.679 152.483 141.192 153.048 140.555C153.607 139.933 154.043 139.21 154.351 138.38C154.658 137.55 154.809 136.655 154.809 135.703C154.809 134.43 154.544 133.278 154.022 132.247C153.499 131.217 152.719 130.394 151.689 129.778C150.658 129.156 149.463 128.862 148.111 128.862H137.563V149.149H142.637V142.559H148.111H148.118ZM147.56 137.993C148.326 137.993 148.855 137.793 149.199 137.435C149.542 137.077 149.735 136.512 149.735 135.711C149.735 134.909 149.542 134.351 149.199 133.986C148.855 133.628 148.318 133.428 147.56 133.428H142.637V137.993H146.544H147.56Z" fill="#6666CC"/>
<path fill-rule="evenodd" clip-rule="evenodd" d="M130.794 126.051C130.479 126.237 130.114 126.33 129.713 126.33C129.312 126.33 128.947 126.237 128.633 126.058C128.325 125.879 128.082 125.628 127.917 125.321C127.752 125.013 127.674 124.677 127.674 124.305C127.674 124.026 127.717 123.761 127.81 123.517C127.903 123.281 128.032 123.052 128.21 122.873C128.382 122.687 128.597 122.537 128.862 122.437C129.119 122.337 129.398 122.279 129.706 122.279C130.014 122.279 130.293 122.33 130.55 122.437C130.808 122.544 131.023 122.687 131.194 122.873C131.366 123.059 131.502 123.281 131.595 123.517C131.688 123.761 131.731 124.026 131.731 124.305C131.731 124.677 131.652 125.02 131.488 125.321C131.323 125.621 131.087 125.865 130.787 126.051H130.794ZM125.212 126.051C124.897 126.237 124.532 126.33 124.132 126.33C123.731 126.33 123.366 126.237 123.051 126.058C122.743 125.879 122.5 125.628 122.335 125.321C122.171 125.013 122.092 124.677 122.092 124.305C122.092 124.026 122.135 123.761 122.228 123.517C122.321 123.281 122.45 123.052 122.629 122.873C122.801 122.687 123.015 122.537 123.28 122.437C123.538 122.337 123.817 122.279 124.124 122.279C124.432 122.279 124.711 122.33 124.969 122.437C125.226 122.544 125.441 122.687 125.613 122.873C125.785 123.059 125.921 123.281 126.014 123.517C126.107 123.761 126.15 124.026 126.15 124.305C126.15 124.677 126.071 125.02 125.906 125.321C125.742 125.621 125.505 125.865 125.205 126.051H125.212ZM134.522 149.15V144.584H124.382V141.286H132.497V136.72H124.382V133.421H134.522V128.856H119.309V149.143H134.522V149.15Z" fill="#6666CC"/>
<path fill-rule="evenodd" clip-rule="evenodd" d="M91.9301 70.0413V90.3282H97.0035V81.7054H97.483L100.324 87.7951H105.347L108.188 81.7054H108.668V90.3282H113.741V70.0413H108.589L103.15 81.7054H102.521L97.0822 70.0413H91.9301Z" fill="#6666CC"/>
</svg>
