<svg width="439" height="176" viewBox="0 0 439 176" fill="none" xmlns="http://www.w3.org/2000/svg">
<path d="M104.818 0.403586L25.5861 13.5373C10.899 16.0136 0.112509 28.6489 0.000397356 43.508C-0.00844135 45.2275 0.130194 46.9451 0.414428 48.6408C3.17303 65.1948 19.0222 76.4861 37.9836 73.7387L117.216 60.6143C129.711 58.15 140.35 45.2112 140.42 30.6296C140.429 28.9115 140.289 27.1954 140.001 25.5014C137.186 8.90706 121.468 -2.30529 104.818 0.403586Z" fill="black"/>
<path d="M46.8362 32.4395C46.3147 31.0333 45.4792 29.7635 44.3939 28.7268C42.8518 27.2839 40.9524 26.2764 38.8907 25.8076C36.5293 25.2549 34.0782 25.1997 31.6941 25.6452C29.2997 25.9951 26.9975 26.8087 24.9162 28.0399C23.1861 29.0553 21.7882 30.5502 20.8923 32.342C20.0549 34.1301 19.8056 36.1359 20.1805 38.0735C20.4043 39.7085 21.0453 41.258 22.0413 42.5751C23.0629 43.7938 24.4273 44.6798 25.9582 45.1183C27.9884 45.6882 30.1017 45.9063 32.2058 45.7634L38.0114 45.5453C39.1005 45.4854 40.1927 45.5481 41.2678 45.7309C41.9461 45.8404 42.5773 46.1477 43.0821 46.6127C43.5096 47.0939 43.7822 47.6922 43.8636 48.3298C44.0176 49.1707 43.8413 50.0381 43.3705 50.7523C42.8034 51.5738 42.0238 52.2268 41.1143 52.6412C39.9374 53.2046 38.6832 53.5907 37.3927 53.7875C36.0097 54.0492 34.589 54.0492 33.206 53.7875C32.0593 53.5772 30.9842 53.0825 30.0799 52.3488C29.597 51.939 29.1909 51.4476 28.8797 50.8962L22.339 52.4277C22.8656 53.9035 23.7179 55.2419 24.8325 56.3446C26.4323 57.8998 28.4266 58.9904 30.6009 59.5004C33.1129 60.0893 35.7208 60.1492 38.258 59.6768C40.7366 59.311 43.1128 58.4376 45.2359 57.1103C47.0437 55.99 48.4955 54.3806 49.4227 52.4695C50.2889 50.5834 50.5475 48.4755 50.1623 46.4363C49.9586 44.838 49.3413 43.3205 48.3713 42.0321C47.3833 40.8845 46.0561 40.0783 44.58 39.7303C42.4471 39.2328 40.2532 39.0495 38.0673 39.1873L32.0197 39.3404C31.0131 39.3906 30.004 39.3186 29.0146 39.127C28.3759 39.0137 27.7827 38.7223 27.3027 38.287C26.9007 37.8447 26.6425 37.2915 26.563 36.6998C26.4058 35.8988 26.5639 35.0676 27.0049 34.3793C27.5241 33.6071 28.2447 32.9908 29.089 32.5972C30.1776 32.0635 31.3415 31.6992 32.5408 31.5159C33.8205 31.2792 35.1319 31.2667 36.4158 31.4788C37.456 31.6412 38.4376 32.0663 39.2675 32.7133C39.8969 33.2117 40.3793 33.8707 40.6631 34.6207L46.8362 32.4395Z" fill="white"/>
<path d="M81.1861 24.9352L80.0743 18.3823L51.2322 23.2274L52.344 29.7988L63.5645 27.91L67.9978 54.2006L74.3943 53.1239L69.961 26.838L81.1861 24.9352Z" fill="white"/>
<path d="M112.568 36.0919C112.055 37.7496 111.053 39.2147 109.693 40.2965C106.644 42.558 102.692 43.2207 99.0682 42.0786C97.4317 41.4957 96.0072 40.4367 94.9791 39.0389C92.7546 35.7893 92.0745 31.7281 93.1184 27.9332C93.6352 26.2797 94.6326 24.8164 95.984 23.7286C99.038 21.4731 102.989 20.8109 106.614 21.9465C108.254 22.5243 109.682 23.5843 110.707 24.9863C112.914 28.2432 113.593 32.2961 112.568 36.0919ZM119.318 29.2466C118.865 26.1321 117.64 23.1796 115.755 20.6563C114.011 18.3503 111.639 16.5942 108.921 15.5978C103.058 13.6519 96.6083 14.7369 91.7088 18.4937C89.4619 20.3134 87.7951 22.7471 86.9127 25.4968C85.1119 31.5991 86.2214 38.1886 89.9225 43.3688C91.6632 45.6683 94.0334 47.417 96.7469 48.4041C102.61 50.3514 109.059 49.2678 113.959 45.5129C116.191 43.6978 117.854 41.2818 118.751 38.5516C119.716 35.5461 119.912 32.3467 119.318 29.2466Z" fill="white"/>
<path d="M223.173 54.0521L184.711 124.658V54.0521H163.284V153.576H190.158L229.9 79.9668V153.576H251.266V54.0521H223.173Z" fill="black"/>
<path d="M373.975 109.218L386.894 74.8248L399.863 109.218H373.975ZM399.873 53.9919H375.259L348.32 122.087H369.975V130.552H407.897L416.666 153.576H438.037L399.873 53.9919Z" fill="black"/>
<path d="M340.104 130.529V54.0522H318.58L318.677 130.529H281.173L281.076 54.0568H259.719V153.576H340.104V176H361.503V130.519L340.104 130.529Z" fill="black"/>
<path d="M138.74 54.1172C132.162 61.2131 128.301 65.659 118.383 67.3483L82.419 73.3815L82.3027 114.514V114.699V114.996V115.298C82.3051 116.272 82.2474 117.245 82.1306 118.212C82.1325 118.221 82.1325 118.231 82.1306 118.24C81.7073 121.952 80.3954 127.281 77.0786 129.995C74.1944 132.348 69.5378 132.896 63.1925 131.638H63.0809C62.5845 131.54 62.0774 131.428 61.5597 131.304V152.504C64.0313 153.162 66.5749 153.516 69.1331 153.557C70.1007 153.557 71.045 153.525 71.9568 153.469C80.7443 152.88 86.7872 149.715 90.7321 146.471L90.8111 146.401C101.999 137.119 103.567 122.468 103.725 116.481V116.235V115.399V75.4652H133.432V153.571H154.831V54.1172H138.74Z" fill="black"/>
</svg>
