<svg width="30" height="24" viewBox="0 0 30 24" fill="none" xmlns="http://www.w3.org/2000/svg">
<path id="Vector" fill-rule="evenodd" clip-rule="evenodd" d="M26.8925 0.164191C27.2614 0.0188087 27.6651 -0.0313328 28.0617 0.0189852C28.4582 0.0693032 28.8332 0.218242 29.1474 0.450298C29.4617 0.682355 29.7037 0.989046 29.8485 1.33845C29.9932 1.68785 30.0353 2.0672 29.9703 2.437L26.585 21.6664C26.2566 23.5212 24.0834 24.585 22.2669 23.661C20.7474 22.888 18.4905 21.6971 16.4605 20.4545C15.4455 19.8325 12.3364 17.8406 12.7185 16.4233C13.0469 15.2114 18.2711 10.6574 21.2563 7.94988C22.4281 6.88616 21.8937 6.27253 20.51 7.25098C17.074 9.68034 11.5573 13.3747 9.73326 14.4147C8.12421 15.3316 7.28535 15.4882 6.2823 15.3316C4.45234 15.0465 2.75522 14.6048 1.37007 14.0666C-0.50169 13.3398 -0.41064 10.93 1.36857 10.2283L26.8925 0.164191Z" fill="#FCF0FF"/>
</svg>
