<svg width="102" height="87" viewBox="0 0 102 87" fill="none" xmlns="http://www.w3.org/2000/svg">
<g id="&#208;&#184;&#208;&#186;&#208;&#190;&#208;&#189;&#208;&#186;&#208;&#176;">
<path id="Vector" d="M12.3913 29.1667C12.3913 31.419 14.25 33.2619 16.5217 33.2619C18.7935 33.2619 20.6522 31.419 20.6522 29.1667V20.9762H28.913C31.1848 20.9762 33.0435 19.1333 33.0435 16.881C33.0435 14.6286 31.1848 12.7857 28.913 12.7857H20.6522V4.59524C20.6522 2.34286 18.7935 0.5 16.5217 0.5C14.25 0.5 12.3913 2.34286 12.3913 4.59524V12.7857H4.13043C1.8587 12.7857 0 14.6286 0 16.881C0 19.1333 1.8587 20.9762 4.13043 20.9762H12.3913V29.1667Z" fill="#701487"/>
<path id="Vector_2" d="M53.696 66.0238C60.5395 66.0238 66.0873 60.5233 66.0873 53.7381C66.0873 46.9529 60.5395 41.4524 53.696 41.4524C46.8525 41.4524 41.3047 46.9529 41.3047 53.7381C41.3047 60.5233 46.8525 66.0238 53.696 66.0238Z" fill="#701487"/>
<path id="Vector_3" d="M86.7394 20.9764H73.646L68.5242 15.4478C67.7545 14.6099 66.8169 13.9404 65.7715 13.482C64.726 13.0237 63.5956 12.7866 62.4525 12.7859H36.0177C36.7199 14.0145 37.1742 15.3659 37.1742 16.8811C37.1742 21.3859 33.4568 25.0716 28.9133 25.0716H24.7829V29.1668C24.7829 33.6716 21.0655 37.3573 16.522 37.3573C14.9938 37.3573 13.6307 36.9068 12.3916 36.2107V78.3097C12.3916 82.8145 16.109 86.5002 20.6525 86.5002H86.7394C91.2829 86.5002 95.0003 82.8145 95.0003 78.3097V29.1668C95.0003 24.6621 91.2829 20.9764 86.7394 20.9764ZM53.696 74.2145C42.296 74.2145 33.0438 65.0411 33.0438 53.7383C33.0438 42.4354 42.296 33.2621 53.696 33.2621C65.096 33.2621 74.3481 42.4354 74.3481 53.7383C74.3481 65.0411 65.096 74.2145 53.696 74.2145Z" fill="#701487"/>
</g>
</svg>
