<svg width="282" height="122" viewBox="0 0 282 122" fill="none" xmlns="http://www.w3.org/2000/svg">
<g clip-path="url(#clip0_106824_2773)">
<path fill-rule="evenodd" clip-rule="evenodd" d="M54.2329 109.75C54.1228 109.733 54.0126 109.716 53.9017 109.699C54.0119 109.716 54.1228 109.733 54.2329 109.75ZM71.566 1.94985C84.1286 4.05192 95.3587 10.0536 103.983 18.6572C112.327 26.9901 118.226 37.7727 120.502 49.8352L116.325 50.5897C114.143 39.1549 108.515 28.9991 100.562 21.2254C92.6168 13.4609 82.3456 8.0607 70.8698 6.12784L70.6834 7.23002C71.5236 7.37385 72.3639 7.53537 73.1872 7.71305C83.4154 9.93433 92.566 14.9861 99.7726 22.0222C107.573 29.6429 113.082 39.5864 115.222 50.7843L111.165 51.5135C109.237 41.3923 104.281 32.3472 97.2695 25.3541C90.012 18.1065 80.5641 13.0624 69.9964 11.2911V11.2826L68.8927 11.1134C66.5074 10.7658 64.0628 10.5881 61.5759 10.5881C47.6378 10.5881 35.0159 16.2336 25.8822 25.3549C16.7486 34.4754 11.1038 47.0809 11.1038 60.9993C11.1038 63.8559 11.3418 66.6618 11.8001 69.3914L11.9957 70.4852C13.9227 80.6063 18.8797 89.6515 25.8915 96.6445C33.149 103.892 42.6046 108.945 53.1646 110.716L52.5192 114.785C41.2637 112.894 31.1881 107.605 23.3868 99.9841C15.7558 92.525 10.3144 82.8438 8.07391 71.9427C8.02308 71.705 7.98072 71.4597 7.92912 71.222L6.83391 71.4174C9.01585 82.8522 14.6436 93.008 22.5966 100.781C30.5588 108.554 40.8385 113.954 52.3398 115.887L51.6774 120.066C39.0894 117.981 27.8169 111.97 19.1754 103.341C10.8312 95.0078 4.93154 84.2251 2.65717 72.1627L2.46154 71.0689C1.90932 67.797 1.61279 64.4312 1.61279 60.9978C1.61279 44.4597 8.3273 29.489 19.1754 18.6564C20.169 17.6565 21.2041 16.6982 22.2739 15.7744L22.3162 15.7406L22.3247 15.7321L22.3756 15.6898L22.4264 15.6475L22.4349 15.6391L22.4772 15.6052C22.6043 15.4952 22.7237 15.3929 22.8508 15.2914C23.0125 15.156 23.1819 15.0199 23.3429 14.8761C23.5293 14.7238 23.7165 14.5623 23.9113 14.41C24.395 14.02 24.8879 13.6385 25.3801 13.2655L25.3885 13.257L25.541 13.1386C35.5743 5.59406 48.0521 1.11841 61.5743 1.11841C64.5619 1.11841 67.4994 1.33838 70.3684 1.76295L71.472 1.93216L71.5313 1.94062L71.566 1.94831V1.94985ZM54.8267 109.835C54.7166 109.818 54.6057 109.801 54.504 109.792C54.6057 109.809 54.7158 109.818 54.8267 109.835ZM55.4382 109.919C55.3358 109.911 55.2341 109.894 55.1325 109.877C55.2341 109.894 55.3358 109.902 55.4382 109.919ZM96.4878 26.1425C87.5582 17.225 75.2159 11.7064 61.5836 11.7064C47.9512 11.7064 35.6089 17.2243 26.6794 26.1425C17.7498 35.0599 12.2237 47.3855 12.2237 60.9993C12.2237 74.6132 17.7498 86.9387 26.6794 95.8561C33.8945 103.061 43.3424 108.046 53.8848 109.698L56.3632 94.0417H62.9329C66.9734 94.0417 68.8157 91.9389 68.8157 89.2353C68.8157 88.1078 68.5099 86.9979 67.7289 86.0734C76.4721 83.7675 83.4154 77.0629 86.0302 68.4923L94.3313 68.4754C94.2889 67.0425 94.2719 65.8818 94.2719 64.8389L87.3287 64.8135L87.3456 63.3044L93.3639 63.2029V59.7695L87.3456 59.7864V58.3965L94.2804 58.3796V55.1161L110.179 52.2595L110.188 52.2934C108.372 42.1722 103.474 33.1186 96.4886 26.1425H96.4878ZM61.0491 90.7529C63.1794 90.7529 64.3 90.4814 64.3 89.1423C64.3 87.4048 62.2968 87.0064 61.066 87.0064L61.0491 90.7536V90.7529Z" fill="#332784"/>
<path fill-rule="evenodd" clip-rule="evenodd" d="M120.694 50.9282L111.365 52.6065C111.823 55.3362 112.061 58.142 112.061 60.9986C112.061 74.9178 106.408 87.5225 97.2753 96.6438C88.1416 105.765 75.5197 111.411 61.5816 111.411C59.0947 111.411 56.6501 111.232 54.2648 110.885L52.7876 120.236C55.6566 120.66 58.5941 120.88 61.5816 120.88C78.1422 120.88 93.1332 114.175 103.981 103.342C114.829 92.5081 121.544 77.5383 121.544 61.0002C121.544 57.5667 121.256 54.2009 120.695 50.929L120.694 50.9282ZM61.0463 90.7522L61.0633 87.0141C62.294 87.0141 64.2973 87.4125 64.2973 89.15C64.2888 90.4891 63.1767 90.7522 61.0463 90.7522ZM94.27 55.1154L110.168 52.2588C110.678 55.0985 110.941 58.0143 110.941 60.9986C110.941 74.6125 105.415 86.938 96.4851 95.8554C87.5555 104.773 75.2132 110.291 61.5808 110.291C58.9661 110.291 56.3944 110.088 53.882 109.698L56.352 94.0418H62.9225C66.9629 94.0418 68.8052 91.9389 68.8052 89.2354C68.8052 88.1078 68.4995 86.998 67.7185 86.0735C76.4617 83.7676 83.4049 77.063 86.0197 68.4924L94.3208 68.4755C94.2785 67.0425 94.2615 65.8819 94.2615 64.839L87.3175 64.8136L87.3344 63.3045L93.3527 63.203V59.7695L87.3344 59.7864V58.3966L94.2692 58.3797L94.27 55.1162V55.1154Z" fill="#E72978"/>
<path fill-rule="evenodd" clip-rule="evenodd" d="M96.4869 26.1432C87.5573 17.2257 75.215 11.7071 61.5827 11.7071C47.9503 11.7071 35.608 17.225 26.6784 26.1432C17.7489 35.0606 12.2228 47.3862 12.2228 61C12.2228 74.6138 17.7489 86.9394 26.6784 95.8568C35.608 104.774 47.9503 110.293 61.5827 110.293C75.215 110.293 87.5573 104.774 96.4869 95.8568C105.416 86.9394 110.943 74.6138 110.943 61C110.943 47.3862 105.416 35.0606 96.4861 26.1432H96.4869ZM6.07666 66.2386C6.27229 68.2646 6.57728 70.172 6.97624 72.121C9.25138 83.2682 14.8114 93.161 22.6034 100.772C30.5656 108.545 40.8453 113.954 52.3465 115.878L51.6842 120.057C39.0962 117.972 27.8237 111.962 19.1822 103.332C10.838 94.9992 4.93909 84.2166 2.66395 72.1541L2.46832 71.0604C1.9161 67.7885 1.61957 64.4235 1.61957 60.99C1.61957 44.4519 8.33408 29.4813 19.1822 18.6479C20.3537 17.478 21.5844 16.3505 22.8491 15.2744C23.0108 15.1391 23.1802 15.0029 23.3412 14.8591C23.4683 14.7491 23.6046 14.6476 23.7317 14.5368L23.7402 14.5284H23.7486L23.7571 14.5199L23.7656 14.5114L23.7741 14.503L23.7825 14.4945L23.791 14.486L23.7995 14.4776L23.808 14.4691L23.8164 14.4607L23.8249 14.4522L23.8334 14.4437L23.8418 14.4353L23.8503 14.4268L23.8588 14.4184L23.8673 14.4099L23.8757 14.4014L23.8842 14.393L23.8927 14.3845L23.9011 14.3761C24.0706 14.2407 24.2323 14.1046 24.4018 13.9776L24.4102 13.9692C24.5627 13.8507 24.7075 13.7315 24.86 13.6215L24.9024 13.5877C25.0464 13.4777 25.1997 13.3585 25.3437 13.2485L25.3945 13.2147L25.5301 13.1124C35.5634 5.56783 48.0412 1.09218 61.5634 1.09218C64.5517 1.09218 67.4885 1.31216 70.3574 1.73673L71.4611 1.90594L71.5373 1.92286H71.5458C84.1084 4.0257 95.3385 10.0266 103.963 18.631C112.307 26.9639 118.207 37.7465 120.481 49.809L116.305 50.5635C114.123 39.1286 108.495 28.9729 100.542 21.1999C93.115 13.9438 83.6586 8.75593 73.0816 6.52618C70.7895 6.04316 68.5914 5.69551 66.223 5.49245C64.6696 5.36555 63.1161 5.29709 61.5626 5.29709C46.165 5.29709 32.2269 11.5279 22.1343 21.6068C12.071 31.6995 5.83174 45.6187 5.83174 60.9954C5.83174 62.7329 5.90799 64.4796 6.0782 66.234L6.07666 66.2386ZM66.1491 6.66309C78.7971 7.7222 90.6465 13.097 99.7802 22.0144C107.581 29.6351 113.09 39.5786 115.229 50.7765L111.172 51.5057C109.245 41.3845 104.288 32.3394 97.2771 25.3464C90.0196 18.0987 80.5632 13.0547 70.0039 11.2749L68.9002 11.1057C66.5149 10.758 64.0704 10.5803 61.5834 10.5803C47.6453 10.5803 35.0234 16.2259 25.8898 25.3471C16.7476 34.4769 11.1029 47.0816 11.1029 61.0008C11.1029 63.8574 11.3409 66.6632 11.7992 69.3929L11.9948 70.4866C13.9218 80.6078 18.8787 89.6529 25.8905 96.646C33.148 103.894 42.6044 108.946 53.1637 110.717L52.5183 114.786C41.2628 112.896 31.1871 107.606 23.3859 99.9856C15.7464 92.5264 10.2965 82.8283 8.07299 71.9103C7.69097 70.0197 7.40215 68.053 7.22424 66.1286C7.06327 64.4419 6.98702 62.729 6.98702 61C6.98702 45.9448 13.0985 32.314 22.9792 22.4467C32.8592 12.5801 46.5093 6.47619 61.5842 6.47619C63.1122 6.47619 64.6318 6.53618 66.1506 6.66309H66.1491ZM61.5827 0C78.449 0 93.7196 6.82384 104.772 17.8695C115.824 28.906 122.665 44.1558 122.665 61C122.665 77.8435 115.832 93.0933 104.772 104.13C93.7196 115.168 78.4498 122 61.5827 122C44.7163 122 29.4457 115.176 18.3935 104.13C7.34131 93.094 0.500488 77.8442 0.500488 61C0.500488 44.1565 7.33361 28.9067 18.3935 17.8695C29.445 6.83307 44.7155 0 61.5827 0ZM120.695 50.9288C121.247 54.2008 121.544 57.5665 121.544 60.9992C121.544 77.5374 114.83 92.4995 103.982 103.341C93.1334 114.175 78.1433 120.88 61.5819 120.88C58.5943 120.88 55.6568 120.659 52.7879 120.236L54.2651 110.885C56.6504 111.233 59.0949 111.41 61.5819 111.41C75.52 111.41 88.1419 105.765 97.2755 96.6436C106.409 87.5224 112.062 74.9176 112.062 60.9985C112.062 58.1419 111.824 55.336 111.365 52.6063L120.695 50.9281L120.695 50.9288ZM59.7742 64.8226L61.5911 59.7025L63.2971 64.8311L59.7742 64.8226ZM69.1875 68.6114L53.9847 68.6368L54.0017 64.8988H55.8432L59.366 54.9468H63.6529L67.3028 64.9157H69.1197C69.1113 65.9756 69.1282 67.1624 69.1875 68.6114ZM44.0023 80.7162L38.9091 87.3793L44.0023 94.0424H39.2741L37.7884 92.3049V94.1109H33.2043V92.3049L31.7186 94.0424H26.9904L31.7863 87.3793L26.9904 80.7162H31.7186L33.2043 82.4537V80.6478H37.7884V82.4537L39.2741 80.7162H44.0023ZM94.271 64.8388C94.271 65.8733 94.288 67.0347 94.3303 68.4753L82.7436 68.5007L82.7605 55.0907L94.2795 55.1161V58.3795L87.3447 58.3965V59.7863L93.363 59.7694V63.2028L87.3447 63.3051L87.3278 64.8142L94.271 64.8396V64.8388ZM91.8857 87.3785L89.3734 88.8276L86.861 90.2767V87.3778V84.4781L89.3734 85.9272L91.8857 87.377V87.3785ZM91.9027 84.0128C92.7684 84.8773 93.2944 86.0641 93.2944 87.3785C93.2944 88.6922 92.7599 89.8875 91.9027 90.7443C91.037 91.6088 89.8486 92.1434 88.5331 92.1434C87.2176 92.1434 86.0208 91.6088 85.1628 90.7443C84.2971 89.8798 83.771 88.693 83.771 87.3785C83.771 86.0648 84.3063 84.8696 85.1628 84.0128C86.0285 83.1483 87.2169 82.6137 88.5331 82.6137C89.8486 82.6222 91.0455 83.1567 91.9027 84.0128ZM88.5331 81.5038C90.1628 81.5038 91.6316 82.1653 92.7006 83.2244C93.7704 84.2927 94.4235 85.7587 94.4235 87.3862C94.4235 89.0137 93.7612 90.4805 92.7006 91.5481C91.6308 92.6164 90.1628 93.2686 88.5331 93.2686C86.9034 93.2686 85.4346 92.6072 84.3648 91.5481C83.2951 90.4882 82.6419 89.0137 82.6419 87.3862C82.6419 85.7587 83.3043 84.292 84.3648 83.2244C85.4339 82.1561 86.9111 81.5038 88.5331 81.5038ZM81.4366 87.3785C81.4366 86.3787 81.6153 85.4457 81.9796 84.5727C82.3446 83.6997 82.8368 82.9367 83.4737 82.2922C84.1099 81.64 84.8655 81.1308 85.7319 80.7578C86.5976 80.3847 87.5319 80.1986 88.5331 80.1986C89.5344 80.1986 90.4601 80.3847 91.3343 80.7578C92.2 81.1308 92.9555 81.6392 93.5925 82.2922C94.2287 82.9444 94.73 83.699 95.0866 84.5727C95.4517 85.4457 95.6296 86.3787 95.6296 87.3785C95.6296 88.3784 95.4509 89.3114 95.0866 90.1844C94.7216 91.0574 94.2294 91.8204 93.5925 92.4649C92.9563 93.1171 92.2008 93.6263 91.3343 93.9993C90.4686 94.3724 89.5351 94.5585 88.5331 94.5585C87.5319 94.5585 86.5976 94.3724 85.7319 93.9993C84.8662 93.6263 84.1107 93.1094 83.4737 92.4649C82.8376 91.8127 82.3362 91.0581 81.9796 90.1844C81.623 89.3114 81.4366 88.3784 81.4366 87.3785ZM31.8726 36.3905V42.9344H27.8491V29.5497L31.8895 29.4905L35.6835 33.6185L39.0785 29.5243L43.1443 29.5497V42.9344H39.1209V36.3905L35.6827 40.5016L31.8718 36.3905H31.8726ZM61.0474 90.7528L61.0643 87.0147C62.2951 87.0147 64.2983 87.4132 64.2983 89.1507C64.2899 90.4813 63.1777 90.7528 61.0474 90.7528ZM56.3615 94.0416V80.5724H61.0042V83.6582C67.0649 83.9297 68.8217 86.5063 68.8217 89.236C68.8217 91.9403 66.9709 94.0424 62.939 94.0424H56.3608L56.3615 94.0416ZM63.2116 34.5007C63.6529 34.9414 63.9163 35.5429 63.9163 36.2044C63.9163 36.8735 63.6444 37.4757 63.2116 37.908C62.7703 38.3487 62.168 38.6118 61.5056 38.6118C60.8356 38.6118 60.2325 38.3403 59.7997 37.908C59.3583 37.4673 59.0949 36.865 59.0949 36.2044C59.0949 35.5344 59.3668 34.933 59.7997 34.5007C60.241 34.06 60.844 33.7969 61.5056 33.7969C62.1672 33.7969 62.7703 34.0677 63.2116 34.5007ZM61.4972 32.6017C62.4907 32.6017 63.3988 33.0086 64.0519 33.6616C64.7058 34.3138 65.1132 35.2129 65.1132 36.2128C65.1132 37.205 64.7058 38.1118 64.0519 38.7641C63.3988 39.4163 62.4984 39.8239 61.4972 39.8239C60.5036 39.8239 59.5956 39.4171 58.9424 38.7641C58.2893 38.1118 57.8811 37.2127 57.8811 36.2128C57.8811 35.2129 58.2886 34.3138 58.9424 33.6616C59.5956 33.0093 60.5044 32.6017 61.4972 32.6017ZM64.8413 32.8732C65.6985 33.7292 66.2253 34.9076 66.2253 36.2128C66.2253 37.5181 65.6993 38.6964 64.8413 39.5524C63.9841 40.4085 62.8042 40.9346 61.4972 40.9346C60.1901 40.9346 59.0102 40.4093 58.153 39.5524C57.2958 38.6964 56.769 37.5181 56.769 36.2128C56.769 34.9076 57.295 33.7292 58.153 32.8732C59.0102 32.0171 60.1901 31.491 61.4972 31.491C62.8042 31.4826 63.9841 32.0164 64.8413 32.8732ZM61.4972 30.2958C63.1353 30.2958 64.6126 30.9573 65.6901 32.0256C66.7599 33.0939 67.4222 34.5768 67.4222 36.2128C67.4222 37.8488 66.7599 39.324 65.6901 40.4C64.6203 41.4684 63.1353 42.1298 61.4972 42.1298C59.859 42.1298 58.3817 41.4684 57.3043 40.4C56.2345 39.3317 55.5729 37.8488 55.5729 36.2128C55.5729 34.5768 56.2352 33.1016 57.3043 32.0256C58.3825 30.9573 59.859 30.2958 61.4972 30.2958ZM61.4972 35.0514C61.8199 35.0514 62.1087 35.1783 62.312 35.3906C62.5238 35.6021 62.6517 35.8905 62.6517 36.2044C62.6517 36.5266 62.5246 36.8151 62.312 37.0181C62.1002 37.2296 61.8114 37.3573 61.4972 37.3573C61.1744 37.3573 60.8856 37.2304 60.6823 37.0181C60.4705 36.8066 60.3426 36.5182 60.3426 36.2044C60.3426 35.8821 60.4697 35.5944 60.6823 35.3906C60.8856 35.1875 61.1829 35.0514 61.4972 35.0514ZM61.4972 29.1259C65.419 29.1259 68.5937 32.2963 68.5937 36.2128C68.5937 40.1293 65.419 43.2989 61.4972 43.2989C57.5754 43.2989 54.4006 40.1285 54.4006 36.2128C54.4006 32.2971 57.5838 29.1259 61.4972 29.1259ZM38.842 58.4557C39.6993 59.3117 40.2261 60.4901 40.2261 61.7953C40.2261 63.1005 39.7 64.2789 38.842 65.1349C37.9848 65.991 36.8049 66.5171 35.4979 66.5171C34.1909 66.5171 33.0109 65.9917 32.153 65.1349C31.2957 64.2789 30.7689 63.1005 30.7689 61.7953C30.7689 60.4901 31.295 59.3117 32.153 58.4557C33.0102 57.5996 34.1901 57.0735 35.4979 57.0735C36.8049 57.0735 37.9848 57.5988 38.842 58.4557ZM37.2039 60.0916C37.6452 60.5324 37.9086 61.1338 37.9086 61.7953C37.9086 62.4644 37.6367 63.0667 37.2039 63.4989C36.7625 63.9397 36.1595 64.2027 35.4979 64.2027C34.827 64.2027 34.2248 63.9312 33.7919 63.4989C33.3506 63.0582 33.0872 62.456 33.0872 61.7953C33.0872 61.1254 33.3591 60.5239 33.7919 60.0916C34.2332 59.6509 34.8363 59.3879 35.4979 59.3879C36.1679 59.3794 36.771 59.6509 37.2039 60.0916ZM35.4979 58.1934C36.4907 58.1934 37.3995 58.6003 38.0526 59.2525C38.7057 59.9055 39.1139 60.8039 39.1139 61.8038C39.1139 62.7959 38.7065 63.7028 38.0526 64.355C37.3995 65.0072 36.4991 65.4141 35.4979 65.4141C34.5043 65.4141 33.5963 65.0072 32.9432 64.355C32.29 63.702 31.8818 62.8036 31.8818 61.8038C31.8818 60.8116 32.2893 59.9047 32.9432 59.2525C33.5963 58.591 34.4966 58.1934 35.4979 58.1934ZM35.4979 60.6431C35.8198 60.6431 36.1086 60.77 36.3127 60.9823C36.5253 61.1938 36.6524 61.4823 36.6524 61.7961C36.6524 62.1183 36.5253 62.406 36.3127 62.6098C36.1009 62.8213 35.8121 62.949 35.4979 62.949C35.1752 62.949 34.8864 62.8221 34.683 62.6098C34.4705 62.3975 34.3434 62.1099 34.3434 61.7961C34.3434 61.4738 34.4705 61.1854 34.683 60.9823C34.8864 60.77 35.1752 60.6431 35.4979 60.6431ZM35.4979 55.8798C37.1361 55.8798 38.6133 56.5413 39.6908 57.6096C40.7606 58.678 41.423 60.1609 41.423 61.7968C41.423 63.4328 40.7606 64.908 39.6908 65.9841C38.621 67.0524 37.1361 67.7139 35.4979 67.7139C33.8597 67.7139 32.3825 67.0524 31.305 65.9841C30.2352 64.9157 29.5728 63.4328 29.5728 61.7968C29.5728 60.1609 30.2352 58.6856 31.305 57.6096C32.3832 56.5413 33.8597 55.8798 35.4979 55.8798ZM35.4979 54.7099C39.4197 54.7099 42.5936 57.8804 42.5936 61.7968C42.5936 65.7133 39.4189 68.8829 35.4979 68.8829C31.5761 68.8829 28.4014 65.7125 28.4014 61.7968C28.4014 57.8811 31.5761 54.7099 35.4979 54.7099ZM90.4008 42.9021L88.4992 37.1889L86.4705 42.9021H81.6153L86.3435 29.5259H90.5364L95.434 42.9021H90.4008ZM73.4151 113.929C73.2033 114.269 73.1347 114.633 73.2194 115.04C73.3042 115.447 73.5167 115.752 73.8556 115.972C74.1868 116.192 74.5519 116.261 74.9508 116.175C75.3498 116.09 75.6471 115.878 75.8681 115.548C76.0799 115.208 76.1485 114.844 76.0637 114.437C75.979 114.03 75.7665 113.716 75.4276 113.505C75.0879 113.284 74.7313 113.216 74.3324 113.301C73.9334 113.386 73.6276 113.598 73.4151 113.929V113.929ZM80.7326 110.607L77.6342 111.59L78.0585 112.913C78.2449 113.497 78.3558 113.955 78.3982 114.302C78.4321 114.65 78.4236 114.879 78.3558 115.006C78.2881 115.133 78.1771 115.226 78.0162 115.278C77.9137 115.312 77.8044 115.32 77.6935 115.312L77.9738 116.185H78.0593C78.1101 116.185 78.1779 116.185 78.2796 116.176C78.382 116.168 78.4752 116.142 78.5599 116.117C78.7802 116.049 78.9589 115.938 79.0944 115.803C79.23 115.658 79.324 115.464 79.3833 115.201C79.4426 114.938 79.4426 114.599 79.3748 114.167C79.307 113.735 79.1792 113.226 78.9843 112.624L78.8226 112.133L80.0787 111.734L81.1909 115.175L82.1082 114.878L80.7319 110.606L80.7326 110.607ZM83.1264 110.835C83.2704 110.462 83.5253 110.2 83.8989 110.038C84.2724 109.877 84.6375 109.869 85.011 110.021C85.3846 110.166 85.6564 110.437 85.8259 110.81C85.9953 111.191 86.0046 111.564 85.8598 111.937C85.7158 112.31 85.4608 112.573 85.0958 112.734C84.7222 112.895 84.3571 112.903 83.9836 112.751C83.6101 112.606 83.3382 112.344 83.1772 111.963C82.9985 111.581 82.9901 111.208 83.1264 110.835ZM83.5677 113.59C82.9485 113.362 82.5064 112.946 82.2522 112.361C81.9888 111.767 81.9888 111.174 82.2353 110.564C82.481 109.953 82.9223 109.521 83.5508 109.241C84.1792 108.97 84.7985 108.945 85.4185 109.174C86.0377 109.402 86.4713 109.809 86.7339 110.403C86.9974 110.996 87.0058 111.59 86.7509 112.2C86.5052 112.81 86.0639 113.251 85.4354 113.522C84.8154 113.794 84.1869 113.819 83.5677 113.59ZM87.5827 111.437L87.8122 111.31C87.8207 111.285 87.8292 111.251 87.8376 111.208C87.8461 111.157 87.8546 111.056 87.8631 110.903C87.8715 110.751 87.863 110.589 87.8461 110.42C87.8292 110.251 87.7699 110.038 87.6844 109.784C87.5996 109.53 87.481 109.268 87.3362 109.005L86.6654 107.801L89.3988 106.3L91.1556 109.471L91.6393 109.208L92.5135 110.776L91.6647 111.242L91.2149 110.428L88.8466 111.725L89.2964 112.539L88.4476 113.005L87.5827 111.437V111.437ZM88.1858 108.547L87.9393 108.098L88.9837 107.529L90.3246 109.937L88.661 110.852L88.6948 110.742C88.7118 110.674 88.7203 110.573 88.7203 110.437C88.7203 110.301 88.7118 110.148 88.6948 109.971C88.6779 109.792 88.6271 109.581 88.5331 109.326C88.4399 109.063 88.3298 108.809 88.1858 108.546V108.547ZM93.1681 108.115L95.146 106.742L95.6466 107.445L92.8708 109.37L90.2907 105.7L93.0156 103.809L93.5162 104.521L91.5892 105.86L92.1068 106.598L93.6094 105.556L94.1101 106.259L92.6074 107.302L93.1673 108.115L93.1681 108.115ZM97.361 104.181L96.7926 104.105L97.0044 106.419L96.1387 107.132L95.8414 103.97L93.363 103.597L94.2287 102.884L96.5546 103.215L95.4425 101.885L96.1896 101.274L97.3017 102.605L97.4118 100.273L98.2775 99.561L98.1751 102.053L101.248 102.935L100.382 103.647L98.1335 103.003L98.0996 103.571L99.067 104.732L98.3199 105.343L97.361 104.181ZM103.116 100.926L101.783 102.265L98.5748 99.1203L99.2541 98.4334L100.307 99.4672L100.96 98.8057C101.283 98.475 101.656 98.3058 102.081 98.2973C102.505 98.2888 102.862 98.4242 103.176 98.7296C103.482 99.0265 103.626 99.391 103.617 99.8064C103.609 100.222 103.439 100.596 103.116 100.925V100.926ZM101.843 100.977L100.925 100.079L101.554 99.4433C101.689 99.308 101.851 99.2403 102.029 99.2318C102.208 99.2318 102.36 99.291 102.487 99.4179C102.614 99.5449 102.683 99.6979 102.674 99.8756C102.674 100.054 102.606 100.215 102.47 100.35L101.842 100.977H101.843ZM108.226 88.8045C108.107 88.423 108.141 88.0585 108.328 87.7024C108.514 87.3462 108.803 87.117 109.185 86.9986C109.567 86.8886 109.949 86.9224 110.314 87.117C110.679 87.3124 110.926 87.6001 111.044 87.9816C111.163 88.3631 111.13 88.7276 110.942 89.0837C110.755 89.4398 110.467 89.6691 110.085 89.7875C109.703 89.8975 109.321 89.8636 108.955 89.6691C108.59 89.4737 108.344 89.1853 108.225 88.8045H108.226ZM110.289 90.6951C109.66 90.8981 109.058 90.8389 108.489 90.5428C107.92 90.2374 107.539 89.7713 107.352 89.1437C107.166 88.5161 107.233 87.8977 107.564 87.2955C107.886 86.694 108.362 86.2956 108.99 86.0918C109.619 85.8887 110.212 85.9395 110.789 86.2441C111.358 86.5494 111.74 87.0155 111.927 87.6431C112.113 88.2708 112.045 88.8891 111.724 89.4914C111.393 90.0929 110.917 90.4913 110.289 90.6951ZM109.932 82.5652C110.025 82.3453 110.135 82.1499 110.28 81.9807C110.425 81.8115 110.561 81.6753 110.696 81.5823C110.832 81.4892 110.959 81.4131 111.078 81.3446C111.197 81.2854 111.298 81.2423 111.375 81.2177L111.486 81.1839L111.817 81.9807C111.8 81.9892 111.766 81.9892 111.731 81.9976C111.697 82.0061 111.629 82.0315 111.528 82.0738C111.435 82.1161 111.341 82.1668 111.256 82.2261C111.171 82.2853 111.077 82.3783 110.976 82.4891C110.873 82.6075 110.797 82.7352 110.738 82.8706C110.576 83.2605 110.568 83.6336 110.721 83.9982C110.873 84.3627 111.145 84.6335 111.536 84.795C111.926 84.9565 112.308 84.9642 112.673 84.8119C113.047 84.6596 113.309 84.3881 113.471 84.0066C113.53 83.8543 113.573 83.7013 113.59 83.549C113.607 83.3967 113.607 83.2606 113.581 83.1421C113.564 83.0321 113.539 82.9221 113.513 82.8283C113.488 82.7352 113.454 82.6675 113.428 82.6168L113.386 82.5491L114.175 82.2522C114.192 82.2776 114.209 82.3114 114.234 82.3622C114.26 82.4129 114.294 82.506 114.344 82.6591C114.395 82.8029 114.43 82.956 114.455 83.1167C114.48 83.269 114.472 83.4644 114.446 83.6843C114.421 83.9136 114.361 84.1335 114.277 84.3458C114.013 84.9734 113.572 85.4226 112.97 85.6764C112.359 85.931 111.756 85.9395 111.162 85.6934C110.567 85.448 110.143 85.015 109.906 84.405C109.661 83.812 109.669 83.1936 109.932 82.566V82.5652ZM111.358 79.2256L111.035 80.1324L115.296 81.6153L115.619 80.7085L114.405 80.2847L113.989 79.5302L116.248 78.928L116.621 77.8681L113.531 78.6903L112.317 76.5113L111.944 77.5712L113.217 79.8771L111.358 79.2249V79.2256ZM117.3 75.0469C117.41 74.6146 117.367 74.2331 117.19 73.8939C117.011 73.5547 116.74 73.3432 116.392 73.2586C116.256 73.2248 116.111 73.2163 115.976 73.2417C115.84 73.2586 115.729 73.2924 115.636 73.344C115.551 73.3863 115.467 73.4463 115.381 73.5132C115.305 73.5809 115.253 73.6316 115.229 73.657C115.203 73.6824 115.186 73.7078 115.178 73.7247L115.161 73.6655C115.144 73.6316 115.127 73.5809 115.085 73.5217C115.051 73.4624 114.999 73.3947 114.94 73.3263C114.881 73.2586 114.804 73.1994 114.711 73.1402C114.618 73.0809 114.508 73.0379 114.388 73.0133C114.083 72.9371 113.777 72.9963 113.48 73.1994C113.183 73.4024 112.988 73.6993 112.886 74.0893L112.419 75.9545L116.799 77.0397L117.299 75.0476L117.3 75.0469ZM116.255 75.8945L116.502 74.9023C116.544 74.7331 116.527 74.58 116.442 74.4362C116.366 74.3008 116.247 74.207 116.086 74.1647C115.924 74.1224 115.78 74.1477 115.645 74.2323C115.509 74.3169 115.415 74.4439 115.373 74.6138L115.126 75.606L116.255 75.8937V75.8945ZM113.657 74.3262L113.436 75.1907L114.378 75.4199L114.599 74.5554C114.642 74.4031 114.625 74.267 114.566 74.157C114.498 74.047 114.396 73.9708 114.26 73.937C114.116 73.9032 113.996 73.9201 113.886 73.9878C113.768 74.0639 113.7 74.1747 113.657 74.327V74.3262ZM114.167 67.0109L114.031 67.96L118.496 68.5784L118.631 67.6292L114.167 67.0109ZM118.207 70.6812C118.275 70.2236 118.182 69.8251 117.935 69.486C117.689 69.1468 117.358 68.9437 116.925 68.8837C116.5 68.8245 116.118 68.926 115.788 69.1891C115.457 69.4521 115.262 69.8075 115.193 70.2659L115.075 71.1219L113.607 70.9189L113.471 71.868L117.936 72.4864L118.207 70.6812ZM117.223 71.4104L117.341 70.5881C117.367 70.402 117.333 70.232 117.223 70.0882C117.12 69.9436 116.976 69.859 116.798 69.8336C116.62 69.8082 116.459 69.8505 116.315 69.9605C116.171 70.0705 116.086 70.2236 116.06 70.4097L115.941 71.2319L117.223 71.4104ZM106.375 93.0433L105.721 90.6359L106.231 89.949L109.855 92.6187L109.278 93.3902L106.859 91.6096L107.478 93.8563L105.144 93.924L107.546 95.6953L106.969 96.4667L103.345 93.7971L103.862 93.1017L106.375 93.0425V93.0433ZM68.9495 115.524L67.1927 113.752L66.327 113.845L66.8369 118.295L67.7958 118.185L67.4561 115.227L69.1028 116.88L70.342 114.896L70.6817 117.863L71.6405 117.753L71.1315 113.303L70.2827 113.396L68.9503 115.524H68.9495ZM73.2872 116.719C73.8471 117.067 74.4587 117.168 75.138 117.024C75.808 116.88 76.3264 116.541 76.6915 115.99C77.0565 115.448 77.1751 114.854 77.0396 114.227C76.904 113.599 76.5559 113.108 75.996 112.761C75.436 112.413 74.8245 112.312 74.1544 112.456C73.4836 112.6 72.966 112.939 72.5925 113.49C72.2274 114.032 72.1088 114.618 72.2444 115.253C72.3799 115.881 72.7273 116.371 73.288 116.719H73.2872Z" fill="white"/>
<path d="M156.12 32.0663L150.01 40.6223H149.874L143.764 32.0663H137.654V55.9275H145.232V52.4163C145.232 50.5419 145.164 48.1214 144.959 46.5193L145.095 46.4855C145.607 47.44 146.666 49.0421 147.621 50.3712L149.772 53.4047H150.113L152.332 50.2689C153.288 48.9398 154.243 47.4738 154.789 46.4855L154.926 46.5193C154.687 48.5644 154.652 50.6781 154.652 52.7232V55.9275H162.23V32.0663H156.12ZM165.303 44.1673C165.303 51.0872 170.662 56.6097 177.591 56.6097C184.52 56.6097 189.879 51.0872 189.879 44.1673C189.879 37.2473 184.52 31.7256 177.591 31.7256C170.662 31.7256 165.303 37.248 165.303 44.1673ZM172.88 44.1673C172.88 41.406 174.928 39.327 177.591 39.327C180.253 39.327 182.335 41.406 182.335 44.1673C182.335 46.9285 180.253 49.0075 177.591 49.0075C174.928 49.0075 172.88 46.9277 172.88 44.1673ZM207.936 47.2015C207.117 48.156 205.922 49.0082 204.079 49.0082C201.553 49.0082 199.505 46.827 199.505 44.168C199.505 41.5091 201.348 39.3278 204.216 39.3278C205.751 39.3278 206.981 39.9754 207.936 41.1007L212.169 34.6922C210.018 32.8178 207.458 31.7264 204.045 31.7264C197.184 31.7264 191.927 37.2142 191.927 44.1342C191.927 51.0542 197.184 56.6105 204.113 56.6105C207.868 56.6105 210.087 55.3152 212.203 53.5423L207.936 47.2023V47.2015ZM226.847 32.0663L225.345 33.9069C224.287 35.2021 223.399 36.5658 222.785 37.6226L222.649 37.5888C222.717 36.362 222.717 35.1344 222.717 33.9415V32.0663H215.276V55.9275H222.717V53.5754C222.717 51.9394 222.717 49.9966 222.682 49.0759L222.819 49.0421C223.433 50.235 224.048 51.258 225.243 52.9963L227.257 55.9275H236.2L227.428 42.9743L236.2 32.0663H226.848H226.847Z" fill="#332784"/>
<path d="M148.325 65.7291V77.1302H144.7V75.5957C144.7 75.1042 144.709 74.612 144.726 74.112C144.743 73.6121 144.777 73.1198 144.836 72.6291L144.768 72.6122C144.641 72.8499 144.462 73.1291 144.259 73.4598C144.047 73.7821 143.826 74.1043 143.597 74.4174L142.536 75.918L142.375 75.9172L141.349 74.4682C141.12 74.1543 140.89 73.8236 140.661 73.476C140.432 73.1283 140.262 72.8406 140.143 72.6114L140.075 72.6284C140.118 73.0099 140.152 73.459 140.178 73.9844C140.203 74.5097 140.212 74.9935 140.212 75.4427V77.1209H136.586V65.7276H139.507L142.427 69.8133H142.495L145.415 65.7276H148.326L148.325 65.7291ZM149.632 71.5185C149.632 70.6963 149.784 69.9164 150.082 69.1957C150.379 68.475 150.795 67.8481 151.321 67.3051C151.847 66.7713 152.467 66.3475 153.189 66.0337C153.902 65.7284 154.674 65.5676 155.506 65.5676C156.329 65.5676 157.102 65.7199 157.824 66.0337C158.545 66.3475 159.165 66.7713 159.691 67.3051C160.217 67.8397 160.633 68.475 160.931 69.1957C161.228 69.9164 161.38 70.6878 161.38 71.5185C161.38 72.3407 161.228 73.1206 160.931 73.8413C160.633 74.562 160.217 75.1888 159.691 75.7319C159.165 76.2656 158.545 76.6894 157.824 77.0033C157.102 77.3171 156.329 77.4694 155.506 77.4694C154.683 77.4694 153.91 77.3171 153.189 77.0033C152.467 76.6979 151.848 76.2741 151.321 75.7319C150.795 75.1973 150.378 74.562 150.082 73.8413C149.776 73.1122 149.632 72.3407 149.632 71.5185ZM153.248 71.5185C153.248 71.8408 153.307 72.1461 153.417 72.4345C153.528 72.7145 153.689 72.9599 153.893 73.1637C154.097 73.3667 154.334 73.5367 154.614 73.6552C154.895 73.7736 155.191 73.8336 155.505 73.8336C155.82 73.8336 156.117 73.7744 156.396 73.6552C156.677 73.5367 156.914 73.3752 157.118 73.1637C157.321 72.9599 157.483 72.7145 157.602 72.4345C157.72 72.1546 157.78 71.85 157.78 71.5185C157.78 71.1878 157.721 70.8909 157.602 70.6032C157.483 70.3232 157.321 70.0779 157.118 69.8741C156.914 69.671 156.677 69.501 156.396 69.3826C156.116 69.2641 155.82 69.2041 155.505 69.2041C155.191 69.2041 154.894 69.2634 154.614 69.3826C154.334 69.501 154.097 69.6625 153.893 69.8741C153.689 70.0771 153.536 70.3232 153.417 70.6032C153.307 70.8832 153.248 71.1878 153.248 71.5185ZM168.204 65.7291L172.61 77.1302H168.857L166.854 71.6116L164.868 77.1302H161.218L165.589 65.7291L168.204 65.7284V65.7291ZM172.448 71.5185C172.448 70.6963 172.6 69.9164 172.898 69.1957C173.195 68.475 173.611 67.8481 174.137 67.3051C174.663 66.7713 175.283 66.3475 176.005 66.0337C176.726 65.7284 177.499 65.5676 178.322 65.5676C179.146 65.5676 179.918 65.7199 180.639 66.0337C181.361 66.3475 181.98 66.7713 182.507 67.3051C183.033 67.8397 183.449 68.475 183.746 69.1957C184.043 69.9164 184.196 70.6878 184.196 71.5185C184.196 72.3407 184.043 73.1206 183.746 73.8413C183.449 74.562 183.033 75.1888 182.507 75.7319C181.981 76.2656 181.361 76.6894 180.639 77.0033C179.917 77.3171 179.145 77.4694 178.322 77.4694C177.499 77.4694 176.726 77.3171 176.005 77.0033C175.283 76.6979 174.664 76.2741 174.137 75.7319C173.611 75.1973 173.195 74.562 172.898 73.8413C172.593 73.1122 172.448 72.3407 172.448 71.5185ZM176.064 71.5185C176.064 71.8408 176.123 72.1461 176.233 72.4345C176.344 72.7145 176.505 72.9599 176.709 73.1637C176.912 73.3667 177.15 73.5367 177.43 73.6552C177.711 73.7736 178.007 73.8336 178.321 73.8336C178.636 73.8336 178.932 73.7744 179.213 73.6552C179.493 73.5367 179.73 73.3752 179.934 73.1637C180.138 72.9599 180.299 72.7145 180.418 72.4345C180.537 72.1546 180.597 71.85 180.597 71.5185C180.597 71.1878 180.537 70.8909 180.418 70.6032C180.299 70.3232 180.138 70.0779 179.934 69.8741C179.731 69.671 179.493 69.501 179.213 69.3826C178.932 69.2641 178.636 69.2041 178.321 69.2041C178.007 69.2041 177.71 69.2634 177.43 69.3826C177.15 69.501 176.912 69.6625 176.709 69.8741C176.505 70.0771 176.352 70.3232 176.233 70.6032C176.123 70.8832 176.064 71.1878 176.064 71.5185ZM184.841 77.1302V74.0359H186.013L189.111 65.7284H191.692L195.054 74.0359H196.242V77.1302H184.842H184.841ZM190.452 71.6116L189.637 74.0359H191.385L190.452 71.6116ZM197.709 65.7284H203.812V68.7888H201.325V69.9417H203.643V72.9083H201.325V74.0613H203.966V77.1217H197.701V65.7284H197.709ZM211.393 77.1302V76.0026V75.4004V74.7981C211.393 74.6028 211.393 74.4251 211.401 74.2643C211.41 74.1028 211.41 73.9674 211.41 73.8575L211.342 73.8405C211.189 74.1205 211.028 74.4082 210.858 74.6881C210.689 74.9681 210.468 75.3158 210.179 75.7303L209.219 77.1294H204.95L209.143 70.9409L204.95 65.7276H209.415L210.136 66.6091C210.383 66.9229 210.612 67.2367 210.824 67.5413C211.028 67.8551 211.206 68.135 211.359 68.3804L211.427 68.3635C211.402 68.0666 211.393 67.7789 211.393 67.482V66.6175V65.7192L214.882 65.7199V66.619V67.4836C214.882 67.7805 214.874 68.0681 214.848 68.365L214.916 68.3819C215.069 68.1358 215.247 67.8566 215.451 67.5428C215.655 67.2374 215.884 66.9244 216.139 66.6106L216.861 65.7291L221.326 65.7284L217.133 70.9416L221.326 77.1302H217.056L216.097 75.7311C215.817 75.3158 215.588 74.9681 215.418 74.6881C215.248 74.4082 215.086 74.1205 214.934 73.8405L214.865 73.8575C214.865 73.9674 214.865 74.1036 214.874 74.2643C214.882 74.4259 214.882 74.6035 214.882 74.7989V75.4011V76.0026V77.1302H211.394H211.393ZM227.979 72.9506H226.085V77.1379H222.461V65.7276H226.085V69.9148H227.979V65.7276L231.603 65.7268V77.1279H227.979V72.9483V72.9506ZM239.54 65.7284L243.945 77.1294H240.228L239.854 76.0526H236.595L236.221 77.1294H232.588L236.943 65.7284L239.541 65.7276L239.54 65.7284ZM237.469 73.5013H238.988L238.224 71.2885L237.469 73.5013ZM253.86 77.1294H250.32V74.2474H250.176L248.403 77.1294H244.277L246.654 73.2891C246.144 72.916 245.754 72.4668 245.5 71.9331C245.236 71.3993 245.109 70.7547 245.109 70.0002C245.109 69.2287 245.262 68.5765 245.567 68.0335C245.873 67.4913 246.247 67.0505 246.704 66.7029C247.154 66.3637 247.638 66.1176 248.139 65.9653C248.648 65.813 249.106 65.7368 249.514 65.7368H253.869V77.1294H253.86ZM250.32 68.8134H249.828C249.701 68.8134 249.573 68.8473 249.446 68.9065C249.319 68.9657 249.208 69.0503 249.115 69.1526C249.022 69.2549 248.936 69.381 248.868 69.5341C248.801 69.6864 248.766 69.8479 248.766 70.0256C248.766 70.3648 248.868 70.6532 249.08 70.8901C249.284 71.1278 249.539 71.2462 249.844 71.2462H250.32V68.8134Z" fill="#332784"/>
<path d="M145.779 93.0502C145.532 93.271 145.269 93.4655 145.006 93.6432C144.743 93.8217 144.454 93.974 144.14 94.1093C143.835 94.2362 143.495 94.3378 143.13 94.4147C142.765 94.4824 142.357 94.5246 141.916 94.5246C141.093 94.5246 140.32 94.3724 139.607 94.0586C138.894 93.7447 138.274 93.3294 137.756 92.7872C137.239 92.2526 136.823 91.6173 136.534 90.8881C136.237 90.159 136.093 89.3875 136.093 88.5569C136.093 87.7347 136.237 86.9547 136.534 86.2341C136.831 85.5134 137.239 84.8865 137.756 84.352C138.274 83.8182 138.894 83.4028 139.598 83.089C140.303 82.7837 141.067 82.6229 141.882 82.6229C142.696 82.6229 143.418 82.7414 144.047 82.9875C144.675 83.2336 145.243 83.5805 145.769 84.0389L143.749 87.0986C143.52 86.8271 143.257 86.6156 142.968 86.471C142.671 86.3271 142.34 86.251 141.975 86.251C141.627 86.251 141.312 86.3102 141.041 86.4294C140.761 86.5479 140.532 86.7178 140.328 86.9294C140.132 87.1409 139.98 87.387 139.878 87.667C139.777 87.9469 139.726 88.2523 139.726 88.5661C139.726 88.8799 139.785 89.1768 139.895 89.4645C140.005 89.7444 140.167 89.9898 140.362 90.2021C140.557 90.4144 140.786 90.5836 141.058 90.702C141.322 90.8205 141.61 90.8804 141.915 90.8804C142.357 90.8804 142.73 90.7951 143.028 90.6174C143.325 90.4482 143.562 90.2444 143.758 90.0152L145.779 93.0494V93.0502ZM146.594 82.7844H154.844V85.8787H152.527V94.1862H148.903V85.8787H146.585L146.594 82.7844ZM155.26 88.5661C155.26 87.7439 155.413 86.964 155.71 86.2433C156.008 85.5226 156.423 84.895 156.949 84.3527C157.476 83.8182 158.096 83.3944 158.817 83.0813C159.539 82.776 160.311 82.6152 161.135 82.6152C161.958 82.6152 162.731 82.7675 163.451 83.0813C164.173 83.3952 164.792 83.8105 165.319 84.3527C165.845 84.8865 166.261 85.5226 166.558 86.2433C166.856 86.964 167.008 87.7354 167.008 88.5661C167.008 89.3883 166.856 90.1682 166.558 90.8889C166.261 91.6096 165.845 92.2365 165.319 92.7795C164.793 93.314 164.173 93.7371 163.451 94.0509C162.73 94.3647 161.957 94.517 161.135 94.517C160.311 94.517 159.539 94.3647 158.817 94.0509C158.096 93.7371 157.476 93.3217 156.949 92.7795C156.423 92.2449 156.008 91.6096 155.71 90.8889C155.404 90.1682 155.26 89.3883 155.26 88.5661ZM158.877 88.5661C158.877 88.8884 158.936 89.1937 159.046 89.4821C159.156 89.7621 159.318 90.0075 159.521 90.2113C159.724 90.4144 159.962 90.5843 160.243 90.7028C160.523 90.8212 160.82 90.8812 161.134 90.8812C161.448 90.8812 161.745 90.822 162.025 90.7028C162.305 90.5843 162.543 90.4228 162.747 90.2113C162.95 90.0082 163.112 89.7621 163.23 89.4821C163.349 89.2022 163.409 88.8968 163.409 88.5661C163.409 88.2438 163.35 87.9385 163.23 87.65C163.112 87.3701 162.95 87.1247 162.747 86.9209C162.543 86.7171 162.305 86.5479 162.025 86.4294C161.745 86.3102 161.448 86.251 161.134 86.251C160.82 86.251 160.522 86.3102 160.243 86.4294C159.962 86.5479 159.725 86.7094 159.521 86.9209C159.318 87.124 159.165 87.3701 159.046 87.65C158.936 87.9385 158.877 88.2438 158.877 88.5661ZM173.833 82.7844L178.238 94.1855H174.486L172.483 88.6676L170.496 94.1855H166.846L171.217 82.7844H173.832H173.833ZM184.723 89.9221L181.871 94.1862H179.214V82.7852H182.839V87.0493L185.691 82.7852H188.347V94.1862H184.723V89.9221H184.723ZM193.763 91.092H195.656V82.7844H199.272V91.092H200.461V94.1862H190.138V82.7852H193.763V91.0927V91.092ZM208.083 82.7844L212.489 94.1855H208.771L208.397 93.1087H205.138L204.764 94.1855H201.131L205.486 82.7844H208.083ZM206.012 90.5582H207.532L206.768 88.3454L206.012 90.5582ZM218.193 82.7844H222.25C222.742 82.7844 223.26 82.8606 223.812 83.0129C224.363 83.1652 224.872 83.4113 225.34 83.7505C225.807 84.0897 226.197 84.5389 226.494 85.0811C226.8 85.6234 226.953 86.2848 226.953 87.0478C226.953 87.8108 226.826 88.4553 226.562 89.006C226.299 89.5483 225.943 89.9982 225.484 90.3451C225.026 90.6928 224.483 90.9466 223.863 91.1081C223.234 91.2689 222.556 91.3535 221.817 91.3535V94.1847L218.193 94.1855V82.7844ZM221.809 88.2861H222.199C222.505 88.2861 222.759 88.1677 222.963 87.93C223.167 87.6923 223.277 87.4047 223.277 87.0655C223.277 86.8963 223.244 86.7263 223.184 86.574C223.116 86.4217 223.039 86.294 222.938 86.1925C222.835 86.0902 222.726 86.0064 222.607 85.9464C222.479 85.8872 222.352 85.8533 222.225 85.8533H221.817L221.809 88.2861ZM227.768 88.5661C227.768 87.7439 227.92 86.964 228.217 86.2433C228.515 85.5226 228.931 84.895 229.457 84.3527C229.983 83.8182 230.603 83.3944 231.324 83.0813C232.038 82.776 232.81 82.6152 233.642 82.6152C234.465 82.6152 235.238 82.7675 235.959 83.0813C236.681 83.3952 237.3 83.8105 237.827 84.3527C238.353 84.8865 238.77 85.5226 239.066 86.2433C239.364 86.964 239.516 87.7354 239.516 88.5661C239.516 89.3883 239.364 90.1682 239.066 90.8889C238.769 91.6096 238.353 92.2365 237.827 92.7795C237.301 93.314 236.681 93.7371 235.959 94.0509C235.246 94.3647 234.474 94.517 233.642 94.517C232.819 94.517 232.046 94.3647 231.324 94.0509C230.603 93.7371 229.983 93.3217 229.457 92.7795C228.931 92.2449 228.515 91.6096 228.217 90.8889C227.912 90.1682 227.768 89.3883 227.768 88.5661ZM231.384 88.5661C231.384 88.8884 231.443 89.1937 231.553 89.4821C231.663 89.7621 231.825 90.0075 232.028 90.2113C232.232 90.4144 232.47 90.5843 232.75 90.7028C233.03 90.8212 233.327 90.8812 233.641 90.8812C233.955 90.8812 234.253 90.822 234.532 90.7028C234.813 90.5843 235.05 90.4228 235.254 90.2113C235.457 90.0082 235.619 89.7621 235.738 89.4821C235.856 89.2022 235.916 88.8968 235.916 88.5661C235.916 88.2438 235.857 87.9385 235.738 87.65C235.619 87.3701 235.457 87.1247 235.254 86.9209C235.05 86.7171 234.813 86.5479 234.532 86.4294C234.252 86.311 233.955 86.251 233.641 86.251C233.327 86.251 233.03 86.3102 232.75 86.4294C232.47 86.5479 232.232 86.7094 232.028 86.9209C231.825 87.124 231.672 87.3701 231.553 87.65C231.443 87.9385 231.384 88.2438 231.384 88.5661ZM250.008 93.0502C249.761 93.271 249.499 93.4655 249.235 93.6432C248.972 93.8217 248.683 93.974 248.369 94.1093C248.055 94.2362 247.724 94.3378 247.359 94.4147C246.994 94.4824 246.586 94.5246 246.145 94.5246C245.322 94.5246 244.549 94.3724 243.836 94.0586C243.123 93.7447 242.504 93.3294 241.985 92.7872C241.468 92.2526 241.052 91.6173 240.763 90.8881C240.466 90.159 240.322 89.3875 240.322 88.5569C240.322 87.7347 240.466 86.9547 240.763 86.2341C241.06 85.5134 241.468 84.8865 241.985 84.352C242.503 83.8182 243.123 83.4028 243.827 83.089C244.532 82.7837 245.295 82.6229 246.11 82.6229C246.925 82.6229 247.647 82.7414 248.275 82.9875C248.904 83.2336 249.472 83.5805 249.998 84.0389L247.978 87.0986C247.749 86.8271 247.486 86.6156 247.197 86.471C246.9 86.3271 246.569 86.251 246.204 86.251C245.856 86.251 245.541 86.3102 245.27 86.4294C244.99 86.5479 244.761 86.7178 244.557 86.9294C244.361 87.1409 244.209 87.387 244.107 87.667C244.006 87.9469 243.955 88.2523 243.955 88.5661C243.955 88.8799 244.014 89.1768 244.124 89.4645C244.234 89.7444 244.396 89.9898 244.591 90.2021C244.786 90.4136 245.015 90.5836 245.287 90.702C245.551 90.8205 245.839 90.8804 246.144 90.8804C246.594 90.8804 246.959 90.7951 247.256 90.6174C247.554 90.4482 247.792 90.2444 247.995 90.0152L250.008 93.0494V93.0502ZM259.701 93.0502C259.455 93.271 259.192 93.4655 258.929 93.6432C258.665 93.8217 258.376 93.974 258.063 94.1093C257.749 94.2362 257.418 94.3378 257.053 94.4147C256.687 94.4824 256.28 94.5246 255.839 94.5246C255.015 94.5246 254.243 94.3724 253.53 94.0586C252.816 93.7447 252.197 93.3294 251.679 92.7872C251.153 92.2526 250.745 91.6173 250.457 90.8881C250.159 90.159 250.015 89.3875 250.015 88.5569C250.015 87.7347 250.16 86.9547 250.457 86.2341C250.754 85.5134 251.161 84.8865 251.679 84.352C252.196 83.8182 252.816 83.4028 253.52 83.089C254.225 82.7837 254.988 82.6229 255.804 82.6229C256.619 82.6229 257.341 82.7414 257.969 82.9875C258.598 83.2336 259.166 83.5805 259.692 84.0389L257.672 87.0986C257.442 86.8271 257.18 86.6156 256.891 86.471C256.593 86.3271 256.262 86.251 255.897 86.251C255.549 86.251 255.235 86.3102 254.964 86.4294C254.683 86.5479 254.446 86.7178 254.251 86.9294C254.055 87.1409 253.902 87.387 253.801 87.667C253.699 87.9469 253.648 88.2523 253.648 88.5661C253.648 88.8799 253.708 89.1768 253.818 89.4645C253.928 89.7444 254.09 89.9898 254.284 90.2021C254.48 90.4136 254.709 90.5836 254.981 90.702C255.244 90.8205 255.533 90.8804 255.838 90.8804C256.279 90.8804 256.653 90.7951 256.95 90.6174C257.247 90.4482 257.485 90.2444 257.68 90.0152L259.701 93.0494V93.0502ZM266.517 89.9221L263.665 94.1862H261.009V82.7852H264.633V87.0493L267.486 82.7852H270.143V94.1862H266.518V89.9221H266.517ZM277.442 89.9221L274.59 94.1862H271.933V82.7852H275.557V87.0493L278.409 82.7852H281.066V94.1862H277.442V89.9221Z" fill="#332784"/>
<path d="M238.933 55.9278H249.788C252.861 55.9278 257.024 53.6781 257.024 48.5987C257.024 45.0537 255.386 43.8946 254.157 43.2123V43.0762C254.942 42.497 256.034 41.4056 256.034 38.7813C256.034 34.418 252.791 32.0659 246.442 32.0659H238.933V55.9271L238.933 55.9278ZM246.273 46.2128H247.194C248.32 46.2128 249.549 46.8604 249.549 48.2241C249.549 49.5878 248.286 50.1669 247.228 50.1669H246.273V46.2128ZM246.273 37.9291H247.194C247.945 37.9291 248.969 38.3721 248.969 39.4974C248.969 40.4857 248.149 41.1333 247.228 41.1333H246.273V37.9291Z" fill="#332784"/>
<path d="M266.823 32.0659L257.709 55.9271H265.321L266.106 53.6773H272.933L273.717 55.9271H281.5L272.284 32.0659H266.823ZM269.519 43.69L271.123 48.3256H267.949L269.519 43.69Z" fill="#332784"/>
<path fill-rule="evenodd" clip-rule="evenodd" d="M197.666 62.562H200.416V64.5179H197.666V62.562Z" fill="#332784"/>
<path fill-rule="evenodd" clip-rule="evenodd" d="M201.063 62.562H203.815V64.5179H201.063V62.562Z" fill="#332784"/>
<path fill-rule="evenodd" clip-rule="evenodd" d="M90.2534 103.886C90.4505 103.886 90.61 104.046 90.61 104.243C90.61 104.44 90.4498 104.599 90.2534 104.599C90.0562 104.599 89.896 104.439 89.896 104.243C89.896 104.046 90.0562 103.886 90.2534 103.886Z" fill="white"/>
<path fill-rule="evenodd" clip-rule="evenodd" d="M91.2023 103.197C91.3995 103.197 91.5597 103.357 91.5597 103.553C91.5597 103.75 91.3995 103.91 91.2023 103.91C91.0051 103.91 90.8457 103.75 90.8457 103.553C90.8457 103.356 91.0059 103.197 91.2023 103.197Z" fill="white"/>
<path fill-rule="evenodd" clip-rule="evenodd" d="M85.5366 51.4192H87.8518V53.3751H85.5366V51.4192ZM89.1858 51.4192H91.501V53.3751H89.1858V51.4192Z" fill="white"/>
<path fill-rule="evenodd" clip-rule="evenodd" d="M85.5366 51.4192H87.8518V53.3751H85.5366V51.4192ZM89.1858 51.4192H91.501V53.3751H89.1858V51.4192Z" fill="white"/>
</g>
<defs>
<clipPath id="clip0_106824_2773">
<rect width="281" height="122" fill="white" transform="translate(0.5)"/>
</clipPath>
</defs>
</svg>
