<?xml version="1.0" encoding="UTF-8"?>
<!DOCTYPE svg PUBLIC "-//W3C//DTD SVG 1.1//EN" "http://www.w3.org/Graphics/SVG/1.1/DTD/svg11.dtd">
<!-- Creator: CorelDRAW -->
<svg xmlns="http://www.w3.org/2000/svg" xml:space="preserve" width="124.449mm" height="54.1042mm" version="1.1" style="shape-rendering:geometricPrecision; text-rendering:geometricPrecision; image-rendering:optimizeQuality; fill-rule:evenodd; clip-rule:evenodd"
viewBox="0 0 3648.46 1586.17"
 xmlns:xlink="http://www.w3.org/1999/xlink"
 xmlns:xodm="http://www.corel.com/coreldraw/odm/2003">
 <defs>
  <style type="text/css">
   <![CDATA[
    .fil0 {fill:#332784}
    .fil4 {fill:#332784}
    .fil1 {fill:#E72978}
    .fil2 {fill:white}
    .fil5 {fill:white}
    .fil6 {fill:white}
    .fil3 {fill:#332784;fill-rule:nonzero}
   ]]>
  </style>
 </defs>
 <g id="Слой_x0020_1">
  <metadata id="CorelCorpID_0Corel-Layer"/>
  <path class="fil0" fill="#332784" d="M697.64 1426.91c-1.43,-0.22 -2.86,-0.44 -4.3,-0.66 1.43,0.22 2.87,0.44 4.3,0.66l0 0zm225.05 -1401.56l0 0c163.11,27.33 308.92,105.36 420.9,217.22 108.34,108.34 184.93,248.53 214.47,405.36l-54.23 9.81c-28.33,-148.67 -101.4,-280.71 -204.66,-381.78 -103.16,-100.95 -236.52,-171.16 -385.52,-196.29l-2.42 14.33c10.91,1.87 21.82,3.97 32.51,6.28 132.8,28.88 251.61,94.56 345.18,186.04 101.28,99.08 172.81,228.36 200.59,373.95l-52.68 9.48c-25.02,-131.59 -89.38,-249.19 -180.41,-340.11 -94.23,-94.23 -216.9,-159.81 -354.11,-182.84l0 -0.11 0 0 -14.33 -2.2 0 0c-30.97,-4.52 -62.71,-6.83 -95,-6.83 -180.97,0 -344.85,73.4 -463.44,191.99 -118.59,118.58 -191.88,282.47 -191.88,463.43 0,37.14 3.09,73.62 9.04,109.11l-0 0 0 0 2.54 14.22c25.02,131.59 89.38,249.19 180.42,340.11 94.23,94.23 217,159.92 354.11,182.95l-8.38 52.9c-146.14,-24.58 -276.96,-93.35 -378.25,-192.43 -99.08,-96.98 -169.73,-222.85 -198.82,-364.58 -0.66,-3.09 -1.21,-6.28 -1.88,-9.37l-14.22 2.54 0 0 0 0c28.33,148.67 101.4,280.71 204.66,381.77 103.38,101.06 236.85,171.27 386.18,196.4l-8.6 54.33c-163.44,-27.11 -309.8,-105.25 -422,-217.45 -108.34,-108.34 -184.94,-248.53 -214.47,-405.36l0 0 -2.54 -14.22c-7.17,-42.54 -11.02,-86.3 -11.02,-130.94 0,-215.02 87.18,-409.66 228.03,-550.5 12.9,-13 26.34,-25.46 40.23,-37.47l0.55 -0.44 0.11 -0.11 0.66 -0.55 0 0 0.66 -0.55 0.11 -0.11 0.55 -0.44c1.65,-1.43 3.2,-2.76 4.85,-4.08l0 0c2.1,-1.76 4.3,-3.53 6.39,-5.4l0 0c2.42,-1.98 4.85,-4.08 7.38,-6.06l0 0c6.28,-5.07 12.68,-10.03 19.07,-14.88l0.11 -0.11 1.98 -1.54 0 0c130.27,-98.09 292.28,-156.28 467.85,-156.28 38.79,0 76.93,2.86 114.18,8.38l14.33 2.2 0 0 0.77 0.11 0.45 0.1 0 0zm-217.34 1402.66c-1.43,-0.22 -2.87,-0.44 -4.19,-0.55 1.32,0.22 2.75,0.33 4.19,0.55l0 0zm7.94 1.1c-1.33,-0.11 -2.65,-0.33 -3.97,-0.55 1.32,0.22 2.64,0.33 3.97,0.55l0 0zm532.98 -1089.22c-115.94,-115.94 -276.19,-187.69 -453.19,-187.69 -177,0 -337.25,71.74 -453.19,187.69 -115.94,115.94 -187.69,276.19 -187.69,453.19 0,177 71.75,337.25 187.69,453.19 93.68,93.68 216.35,158.48 353.23,179.97l32.18 -203.56 0 0 85.3 0c52.46,0 76.38,-27.34 76.38,-62.49 0,-14.66 -3.97,-29.09 -14.11,-41.11 113.52,-29.98 203.67,-117.15 237.62,-228.58l107.78 -0.22c-0.55,-18.63 -0.77,-33.72 -0.77,-47.28l-90.15 -0.33 0.22 -19.62 78.14 -1.32 0 -44.64 -78.14 0.22 0 -18.07 90.04 -0.22 0 -42.43 206.43 -37.14 0.11 0.44c-23.58,-131.59 -87.17,-249.3 -177.87,-340l0 0zm-460.13 840.03c27.66,0 42.21,-3.53 42.21,-20.94 0,-22.59 -26.01,-27.77 -41.99,-27.77l-0.22 48.72z"/>
  <path class="fil1" fill="#E72978" d="M1560.59 662.15l-121.13 21.82c5.95,35.49 9.04,71.97 9.04,109.11 0,180.97 -73.4,344.85 -191.98,463.44 -118.59,118.59 -282.47,191.99 -463.44,191.99 -32.29,0 -64.03,-2.32 -95,-6.83l-19.18 121.57c37.25,5.51 75.39,8.38 114.18,8.38 215.02,0 409.66,-87.18 550.51,-228.03 140.85,-140.85 228.03,-335.48 228.03,-550.5 0,-44.64 -3.74,-88.4 -11.02,-130.94l0 0zm-774.46 517.77l0.22 -48.6c15.98,0 41.99,5.18 41.99,27.77 -0.11,17.41 -14.55,20.83 -42.21,20.83l0 0zm431.37 -463.33l206.42 -37.14c6.62,36.92 10.03,74.83 10.03,113.63 0,177 -71.75,337.25 -187.69,453.19 -115.94,115.94 -276.19,187.69 -453.19,187.69 -33.95,0 -67.34,-2.64 -99.96,-7.71l32.07 -203.56 0 0 85.31 -0c52.46,0 76.38,-27.34 76.38,-62.49 0,-14.66 -3.97,-29.09 -14.11,-41.11 113.52,-29.98 203.67,-117.15 237.62,-228.58l107.78 -0.22c-0.55,-18.63 -0.77,-33.72 -0.77,-47.28l-90.16 -0.33 0.22 -19.62 78.14 -1.32 0 -44.64 -78.14 0.22 0 -18.07 90.04 -0.22 0.01 -42.43z"/>
  <path class="fil2" fill="white" d="M1246.27 339.9c-115.94,-115.94 -276.19,-187.69 -453.19,-187.69 -177,0 -337.25,71.74 -453.19,187.69 -115.94,115.94 -187.69,276.19 -187.69,453.19 0,177 71.75,337.25 187.69,453.19 115.94,115.94 276.19,187.69 453.19,187.69 177,0 337.25,-71.75 453.19,-187.69 115.94,-115.94 187.69,-276.19 187.69,-453.19 -0,-177 -71.75,-337.25 -187.7,-453.19l0 0zm-1173.87 521.3c2.54,26.34 6.5,51.14 11.68,76.48 29.54,144.93 101.73,273.55 202.9,372.51 103.38,101.06 236.85,171.38 386.18,196.4l-8.6 54.33c-163.44,-27.11 -309.8,-105.25 -422,-217.45 -108.34,-108.34 -184.93,-248.53 -214.47,-405.36l-2.54 -14.22 0 0c-7.17,-42.54 -11.02,-86.29 -11.02,-130.93 0,-215.02 87.18,-409.66 228.03,-550.51 15.21,-15.21 31.19,-29.87 47.61,-43.86l0 0c2.1,-1.76 4.3,-3.53 6.39,-5.4l0 0c1.65,-1.43 3.42,-2.75 5.07,-4.19l0.11 -0.11 0.11 0 0 0 0.11 -0.11 0.11 -0.11 0.11 -0.11 0.11 -0.11 0.11 -0.11 0 0 0.11 -0.11 0.11 -0.11 0.11 -0.11 0.11 -0.11 0.11 -0.11 0.11 -0.11 0 0 0.11 -0.11 0.11 -0.11 0.11 -0.11 0.11 -0.11 0.11 -0.11 0.11 -0.11 0 0 0.11 -0.11c2.2,-1.76 4.3,-3.53 6.5,-5.18l0.11 -0.11c1.98,-1.54 3.86,-3.09 5.84,-4.52l0.55 -0.44c1.87,-1.43 3.86,-2.98 5.73,-4.41l0.66 -0.44 1.76 -1.33 0 0c130.27,-98.09 292.28,-156.28 467.85,-156.28 38.8,0 76.93,2.86 114.18,8.38l0 0 14.33 2.2 0 0 0.99 0.22 0.11 0 0 0c163.11,27.34 308.92,105.36 420.9,217.23 108.34,108.34 184.94,248.53 214.47,405.36l-54.23 9.81c-28.33,-148.67 -101.4,-280.71 -204.66,-381.77 -96.43,-94.34 -219.21,-161.79 -356.54,-190.78 -29.76,-6.28 -58.3,-10.8 -89.05,-13.44 -20.17,-1.65 -40.34,-2.54 -60.51,-2.54 -199.92,0 -380.89,81.01 -511.93,212.05 -130.66,131.22 -211.67,312.19 -211.67,512.11 0,22.59 0.99,45.3 3.2,68.11l0 0zm779.97 -774.57c164.22,13.77 318.07,83.65 436.66,199.59 101.28,99.08 172.81,228.36 200.59,373.95l-52.68 9.48c-25.02,-131.59 -89.38,-249.19 -180.41,-340.11 -94.23,-94.23 -217.01,-159.81 -354.11,-182.95l-14.33 -2.2 0 0c-30.97,-4.52 -62.71,-6.83 -95,-6.83 -180.97,0 -344.85,73.4 -463.44,191.99 -118.7,118.7 -191.99,282.58 -191.99,463.55 0,37.14 3.09,73.62 9.04,109.11l2.54 14.22 0 0 0 0c25.02,131.59 89.38,249.19 180.42,340.11 94.23,94.23 217.01,159.92 354.11,182.95l-8.38 52.9c-146.14,-24.58 -276.96,-93.35 -378.25,-192.43 -99.19,-96.98 -169.95,-223.07 -198.82,-365.02 -4.96,-24.58 -8.71,-50.15 -11.02,-75.17 -2.09,-21.93 -3.08,-44.2 -3.08,-66.68 0,-195.74 79.35,-372.96 207.64,-501.25 128.28,-128.28 305.51,-207.64 501.24,-207.64 19.84,0 39.57,0.78 59.29,2.43l0 0zm-59.29 -86.63c218.99,0 417.26,88.72 560.76,232.33 143.5,143.49 232.32,341.76 232.32,560.76 0,218.99 -88.72,417.26 -232.32,560.76 -143.5,143.5 -341.76,232.33 -560.76,232.33 -218.99,0 -417.26,-88.72 -560.76,-232.33 -143.5,-143.49 -232.32,-341.76 -232.32,-560.76 0,-218.99 88.72,-417.26 232.32,-560.76 143.49,-143.49 341.76,-232.33 560.76,-232.33l0 0zm767.51 662.15c7.16,42.54 11.02,86.3 11.02,130.93 0,215.02 -87.18,409.55 -228.03,550.51 -140.85,140.85 -335.48,228.03 -550.51,228.03 -38.79,0 -76.93,-2.87 -114.18,-8.38l19.18 -121.57c30.97,4.52 62.71,6.83 95,6.83 180.97,0 344.85,-73.4 463.44,-191.99 118.59,-118.59 191.98,-282.47 191.98,-463.44 0,-37.14 -3.08,-73.62 -9.04,-109.11l121.13 -21.82 0 0zm-790.99 180.64l23.59 -66.57 22.15 66.68 -45.74 -0.11 0 0zm122.22 49.26l-197.39 0.33 0.22 -48.6 23.91 0 45.74 -129.39 55.66 0 47.39 129.61 23.59 0c-0.11,13.78 0.11,29.21 0.88,48.05l0 0zm-327 157.38l-66.13 86.63 66.13 86.63 -61.39 0 -19.29 -22.59 0 23.48 -59.52 0 0 -23.48 -19.29 22.59 -61.39 0 62.27 -86.63 -62.27 -86.63 61.39 0 19.29 22.59 0 -23.48 59.52 0 0 23.48 19.29 -22.59 61.39 0 0 0zm652.68 -206.43c0,13.45 0.22,28.55 0.77,47.28l-150.44 0.33 0.22 -174.35 149.56 0.33 0 42.43 -90.04 0.22 0 18.07 78.14 -0.22 0 44.64 -78.14 1.33 -0.22 19.62 90.15 0.33 0 0zm-30.97 293.05l-32.62 18.84 -32.62 18.84 0 -37.69 0 -37.7 32.62 18.84 32.62 18.85 0 0zm0.22 -43.76c11.24,11.24 18.07,26.67 18.07,43.76 0,17.08 -6.94,32.62 -18.07,43.76 -11.24,11.24 -26.67,18.19 -43.75,18.19 -17.08,0 -32.62,-6.95 -43.76,-18.19 -11.24,-11.24 -18.07,-26.67 -18.07,-43.76 0,-17.08 6.95,-32.62 18.07,-43.76 11.24,-11.24 26.67,-18.19 43.76,-18.19 17.08,0.11 32.62,7.06 43.75,18.19l0 0zm-43.75 -32.62c21.16,0 40.23,8.6 54.11,22.37 13.89,13.89 22.37,32.95 22.37,54.11 0,21.16 -8.6,40.23 -22.37,54.11 -13.89,13.89 -32.95,22.37 -54.11,22.37 -21.16,0 -40.23,-8.6 -54.12,-22.37 -13.89,-13.78 -22.37,-32.95 -22.37,-54.11 0,-21.16 8.6,-40.23 22.37,-54.11 13.88,-13.89 33.06,-22.37 54.12,-22.37l0 0zm-92.14 76.38c0,-13 2.32,-25.13 7.05,-36.48 4.74,-11.35 11.13,-21.27 19.4,-29.65 8.26,-8.48 18.07,-15.1 29.32,-19.95 11.24,-4.85 23.37,-7.27 36.37,-7.27 13,0 25.02,2.42 36.37,7.27 11.24,4.85 21.05,11.46 29.32,19.95 8.26,8.48 14.77,18.29 19.4,29.65 4.74,11.35 7.05,23.48 7.05,36.48 0,13 -2.32,25.13 -7.05,36.48 -4.74,11.35 -11.13,21.27 -19.4,29.65 -8.26,8.48 -18.07,15.1 -29.32,19.95 -11.24,4.85 -23.36,7.27 -36.37,7.27 -13,0 -25.13,-2.42 -36.37,-7.27 -11.24,-4.85 -21.05,-11.57 -29.32,-19.95 -8.26,-8.48 -14.77,-18.29 -19.4,-29.65 -4.63,-11.35 -7.05,-23.48 -7.05,-36.48l0 0zm-643.53 -662.92l0 85.08 -52.24 0 0 -174.02 52.46 -0.77 49.26 53.67 44.08 -53.23 52.79 0.33 0 174.02 -52.24 0 0 -85.08 -44.64 53.45 -49.48 -53.45 0 0zm378.8 706.79l0.22 -48.6c15.98,0 41.99,5.18 41.99,27.77 -0.11,17.3 -14.55,20.83 -42.21,20.83l0 0zm-60.84 42.76l0 -175.12 60.28 0 0 40.12c78.69,3.53 101.5,37.03 101.5,72.52 0,35.16 -24.03,62.49 -76.38,62.49l-85.41 -0 0 0zm88.94 -774.12c5.73,5.73 9.15,13.55 9.15,22.15 0,8.7 -3.53,16.53 -9.15,22.15 -5.73,5.73 -13.55,9.15 -22.15,9.15 -8.7,0 -16.53,-3.53 -22.15,-9.15 -5.73,-5.73 -9.15,-13.56 -9.15,-22.15 0,-8.71 3.53,-16.53 9.15,-22.15 5.73,-5.73 13.56,-9.15 22.15,-9.15 8.59,0 16.42,3.52 22.15,9.15l0 0zm-22.26 -24.69c12.9,0 24.69,5.29 33.17,13.78 8.49,8.48 13.78,20.17 13.78,33.17 0,12.9 -5.29,24.69 -13.78,33.17 -8.48,8.48 -20.17,13.78 -33.17,13.78 -12.9,0 -24.69,-5.29 -33.17,-13.78 -8.48,-8.48 -13.78,-20.17 -13.78,-33.17 0,-13 5.29,-24.69 13.78,-33.17 8.48,-8.48 20.28,-13.78 33.17,-13.78l0 0zm43.42 3.53c11.13,11.13 17.97,26.45 17.97,43.42 0,16.97 -6.83,32.29 -17.97,43.42 -11.13,11.13 -26.45,17.97 -43.42,17.97 -16.97,0 -32.29,-6.83 -43.42,-17.97 -11.13,-11.13 -17.97,-26.45 -17.97,-43.42 0,-16.97 6.83,-32.29 17.97,-43.42 11.13,-11.13 26.45,-17.97 43.42,-17.97 16.97,-0.11 32.29,6.83 43.42,17.97l0 0zm-43.42 -33.51c21.27,0 40.45,8.6 54.44,22.49 13.89,13.89 22.49,33.17 22.49,54.44 0,21.27 -8.6,40.45 -22.49,54.44 -13.89,13.89 -33.17,22.49 -54.44,22.49 -21.27,0 -40.45,-8.6 -54.44,-22.49 -13.89,-13.89 -22.48,-33.17 -22.48,-54.44 0,-21.27 8.6,-40.45 22.48,-54.44 14,-13.89 33.17,-22.49 54.44,-22.49l0 0zm0 61.83c4.19,0 7.94,1.65 10.58,4.41 2.75,2.75 4.41,6.5 4.41,10.58 0,4.19 -1.65,7.94 -4.41,10.58 -2.75,2.75 -6.5,4.41 -10.58,4.41 -4.19,0 -7.94,-1.65 -10.58,-4.41 -2.75,-2.75 -4.41,-6.5 -4.41,-10.58 0,-4.19 1.65,-7.93 4.41,-10.58 2.64,-2.64 6.5,-4.41 10.58,-4.41l0 0zm0 -77.04c50.92,0 92.14,41.22 92.14,92.14 0,50.92 -41.22,92.13 -92.14,92.13 -50.92,0 -92.14,-41.22 -92.14,-92.13 0,-50.91 41.33,-92.14 92.14,-92.14l0 0zm-294.15 381.33c11.13,11.13 17.97,26.45 17.97,43.42 0,16.97 -6.83,32.29 -17.97,43.42 -11.13,11.13 -26.45,17.97 -43.42,17.97 -16.97,0 -32.29,-6.83 -43.43,-17.97 -11.13,-11.13 -17.97,-26.45 -17.97,-43.42 0,-16.97 6.83,-32.29 17.97,-43.42 11.13,-11.13 26.45,-17.97 43.43,-17.97 16.97,0 32.29,6.83 43.42,17.97l0 0zm-21.27 21.27c5.73,5.73 9.15,13.55 9.15,22.15 0,8.7 -3.53,16.53 -9.15,22.15 -5.73,5.73 -13.56,9.15 -22.15,9.15 -8.71,0 -16.53,-3.53 -22.15,-9.15 -5.73,-5.73 -9.15,-13.56 -9.15,-22.15 0,-8.71 3.53,-16.53 9.15,-22.15 5.73,-5.73 13.56,-9.15 22.15,-9.15 8.7,-0.11 16.53,3.42 22.15,9.15l0 0zm-22.15 -24.68c12.89,0 24.69,5.29 33.17,13.77 8.48,8.49 13.78,20.17 13.78,33.17 0,12.9 -5.29,24.69 -13.78,33.17 -8.48,8.48 -20.17,13.77 -33.17,13.77 -12.9,0 -24.69,-5.29 -33.17,-13.77 -8.48,-8.49 -13.78,-20.17 -13.78,-33.17 0,-12.9 5.29,-24.69 13.78,-33.17 8.48,-8.6 20.17,-13.77 33.17,-13.77l0 0zm0 31.85c4.18,0 7.93,1.65 10.58,4.41 2.76,2.75 4.41,6.5 4.41,10.58 0,4.19 -1.65,7.93 -4.41,10.58 -2.75,2.75 -6.5,4.41 -10.58,4.41 -4.19,0 -7.94,-1.65 -10.58,-4.41 -2.76,-2.76 -4.41,-6.5 -4.41,-10.58 0,-4.19 1.65,-7.94 4.41,-10.58 2.64,-2.76 6.39,-4.41 10.58,-4.41l0 0zm0 -61.93c21.27,0 40.45,8.6 54.44,22.49 13.89,13.89 22.49,33.17 22.49,54.44 0,21.27 -8.6,40.45 -22.49,54.44 -13.89,13.89 -33.17,22.49 -54.44,22.49 -21.27,0 -40.45,-8.6 -54.44,-22.49 -13.89,-13.89 -22.49,-33.17 -22.49,-54.44 0,-21.27 8.6,-40.45 22.49,-54.44 14,-13.89 33.17,-22.49 54.44,-22.49l0 0zm0 -15.21c50.92,0 92.13,41.22 92.13,92.14 0,50.92 -41.22,92.13 -92.13,92.13 -50.92,0 -92.14,-41.22 -92.14,-92.13 0,-50.91 41.22,-92.14 92.14,-92.14l0 0zm712.85 -153.52l-24.69 -74.28 -26.34 74.28 -63.04 0 61.39 -173.91 54.44 0 63.59 173.91 -65.35 0 0 0zm-220.54 923.46c-2.75,4.41 -3.64,9.15 -2.54,14.44 1.1,5.29 3.86,9.26 8.26,12.12 4.3,2.86 9.04,3.75 14.22,2.64 5.18,-1.11 9.04,-3.86 11.91,-8.16 2.75,-4.41 3.64,-9.15 2.54,-14.44 -1.1,-5.29 -3.86,-9.37 -8.26,-12.12 -4.41,-2.87 -9.04,-3.75 -14.22,-2.65 -5.18,1.11 -9.15,3.86 -11.91,8.16l0 0zm95.01 -43.2l-40.23 12.78 5.51 17.2c2.42,7.6 3.86,13.55 4.41,18.07 0.44,4.52 0.33,7.49 -0.55,9.15 -0.88,1.65 -2.32,2.86 -4.41,3.53 -1.33,0.44 -2.75,0.55 -4.19,0.44l3.64 11.35 1.11 0c0.66,0 1.54,0 2.86,-0.11 1.33,-0.11 2.54,-0.44 3.64,-0.77 2.86,-0.88 5.18,-2.32 6.94,-4.08 1.76,-1.88 2.98,-4.41 3.75,-7.83 0.77,-3.42 0.77,-7.83 -0.11,-13.44 -0.88,-5.62 -2.54,-12.23 -5.07,-20.06l-2.1 -6.39 16.31 -5.18 14.44 44.74 11.91 -3.86 -17.87 -55.55 0 0zm31.08 2.97c1.87,-4.85 5.18,-8.26 10.03,-10.36 4.85,-2.1 9.59,-2.2 14.44,-0.22 4.85,1.88 8.38,5.4 10.58,10.25 2.2,4.96 2.32,9.81 0.44,14.66 -1.87,4.85 -5.18,8.26 -9.92,10.36 -4.85,2.09 -9.59,2.2 -14.44,0.22 -4.85,-1.88 -8.38,-5.29 -10.47,-10.25 -2.32,-4.96 -2.43,-9.81 -0.66,-14.66l0 0zm5.73 35.82c-8.04,-2.97 -13.78,-8.38 -17.08,-15.98 -3.42,-7.72 -3.42,-15.43 -0.22,-23.37 3.19,-7.94 8.92,-13.55 17.08,-17.19 8.16,-3.53 16.2,-3.86 24.25,-0.88 8.04,2.97 13.67,8.26 17.08,15.98 3.42,7.71 3.53,15.43 0.22,23.37 -3.19,7.93 -8.92,13.66 -17.08,17.19 -8.05,3.53 -16.21,3.86 -24.25,0.88l0 0zm52.13 -27.99l2.98 -1.65c0.11,-0.33 0.22,-0.77 0.33,-1.33 0.11,-0.66 0.22,-1.98 0.33,-3.97 0.11,-1.98 0,-4.08 -0.22,-6.28 -0.22,-2.2 -0.99,-4.96 -2.1,-8.26 -1.1,-3.31 -2.64,-6.72 -4.52,-10.14l-8.71 -15.65 35.49 -19.51 22.81 41.22 6.28 -3.42 11.35 20.39 -11.02 6.06 -5.84 -10.58 -30.75 16.86 5.84 10.58 -11.02 6.06 -11.23 -20.39 0 0zm7.83 -37.58l-3.2 -5.84 13.56 -7.39 17.41 31.3 -21.6 11.9 0.44 -1.43c0.22,-0.89 0.33,-2.2 0.33,-3.97 0,-1.76 -0.11,-3.75 -0.33,-6.06 -0.22,-2.32 -0.88,-5.07 -2.1,-8.38 -1.21,-3.42 -2.64,-6.72 -4.51,-10.14l0 0zm64.69 -5.62l25.68 -17.85 6.5 9.15 -36.04 25.02 -33.5 -47.72 35.38 -24.58 6.5 9.26 -25.02 17.41 6.72 9.59 19.51 -13.55 6.5 9.15 -19.51 13.55 7.27 10.58 0 0zm54.44 -51.14l-7.38 -0.99 2.75 30.09 -11.24 9.26 -3.86 -41.11 -32.18 -4.85 11.24 -9.26 30.2 4.3 -14.44 -17.3 9.7 -7.94 14.44 17.3 1.43 -30.31 11.24 -9.26 -1.33 32.4 39.9 11.47 -11.24 9.26 -29.2 -8.38 -0.44 7.38 12.56 15.1 -9.7 7.94 -12.45 -15.1 0 0zm74.72 -42.32l-17.3 17.41 -41.66 -40.89 8.82 -8.93 13.67 13.44 8.48 -8.6c4.19,-4.3 9.04,-6.5 14.55,-6.61 5.51,-0.11 10.14,1.65 14.22,5.62 3.97,3.86 5.84,8.6 5.73,14 -0.11,5.41 -2.32,10.26 -6.51,14.55l0 0zm-16.53 0.66l-11.91 -11.68 8.16 -8.26c1.76,-1.76 3.86,-2.64 6.17,-2.75 2.32,0 4.3,0.77 5.95,2.42 1.65,1.65 2.54,3.64 2.42,5.95 0,2.32 -0.88,4.41 -2.64,6.17l-8.16 8.15 0 0zm82.88 -158.26c-1.54,-4.96 -1.11,-9.7 1.32,-14.33 2.42,-4.63 6.17,-7.61 11.13,-9.15 4.96,-1.43 9.92,-0.99 14.66,1.54 4.74,2.54 7.94,6.28 9.48,11.24 1.54,4.96 1.11,9.7 -1.33,14.33 -2.42,4.63 -6.17,7.61 -11.13,9.15 -4.96,1.43 -9.92,0.99 -14.66,-1.54 -4.74,-2.54 -7.94,-6.29 -9.48,-11.24l0 0zm26.78 24.58c-8.16,2.64 -15.98,1.87 -23.36,-1.98 -7.39,-3.97 -12.34,-10.03 -14.77,-18.19 -2.42,-8.16 -1.54,-16.2 2.75,-24.03 4.19,-7.82 10.36,-13 18.52,-15.65 8.16,-2.64 15.87,-1.98 23.36,1.98 7.38,3.97 12.34,10.03 14.77,18.19 2.42,8.16 1.54,16.2 -2.64,24.03 -4.29,7.82 -10.47,13 -18.63,15.65l0 0zm-4.63 -105.7c1.21,-2.86 2.64,-5.4 4.52,-7.6 1.88,-2.2 3.64,-3.97 5.4,-5.18 1.76,-1.21 3.42,-2.2 4.96,-3.09 1.54,-0.77 2.86,-1.33 3.86,-1.65l1.43 -0.44 4.3 10.36c-0.22,0.11 -0.66,0.11 -1.11,0.22 -0.44,0.11 -1.33,0.44 -2.64,0.99 -1.21,0.55 -2.42,1.21 -3.53,1.98 -1.1,0.77 -2.32,1.98 -3.64,3.42 -1.33,1.54 -2.32,3.2 -3.09,4.96 -2.1,5.07 -2.2,9.92 -0.22,14.66 1.98,4.74 5.51,8.26 10.58,10.36 5.07,2.1 10.03,2.2 14.77,0.22 4.85,-1.98 8.26,-5.51 10.36,-10.47 0.77,-1.98 1.33,-3.97 1.54,-5.95 0.22,-1.98 0.22,-3.75 -0.11,-5.29 -0.22,-1.43 -0.55,-2.86 -0.88,-4.08 -0.33,-1.21 -0.77,-2.09 -1.11,-2.75l-0.55 -0.88 10.25 -3.86c0.22,0.33 0.44,0.77 0.77,1.43 0.33,0.66 0.77,1.87 1.43,3.86 0.66,1.87 1.11,3.86 1.43,5.95 0.33,1.98 0.22,4.52 -0.11,7.38 -0.33,2.98 -1.11,5.84 -2.2,8.6 -3.42,8.16 -9.15,14 -16.97,17.3 -7.93,3.31 -15.76,3.42 -23.47,0.22 -7.72,-3.19 -13.23,-8.82 -16.31,-16.75 -3.18,-7.71 -3.08,-15.75 0.34,-23.91l0 0zm18.51 -43.42l-4.19 11.79 55.33 19.28 4.19 -11.79 -15.76 -5.51 -5.4 -9.81 29.32 -7.83 4.85 -13.78 -40.12 10.69 -15.76 -28.33 -4.85 13.78 16.53 29.98 -24.14 -8.48 0 0zm77.15 -54.33c1.43,-5.62 0.88,-10.58 -1.43,-14.99 -2.32,-4.41 -5.84,-7.16 -10.36,-8.26 -1.76,-0.44 -3.64,-0.55 -5.4,-0.22 -1.76,0.22 -3.2,0.66 -4.41,1.33 -1.11,0.55 -2.2,1.33 -3.31,2.2 -0.99,0.88 -1.66,1.54 -1.98,1.87 -0.33,0.33 -0.55,0.66 -0.66,0.88l-0.22 -0.77c-0.22,-0.44 -0.44,-1.1 -0.99,-1.87 -0.44,-0.77 -1.11,-1.65 -1.88,-2.54 -0.77,-0.88 -1.76,-1.65 -2.97,-2.42 -1.21,-0.77 -2.64,-1.33 -4.19,-1.65 -3.97,-0.99 -7.94,-0.22 -11.79,2.42 -3.86,2.64 -6.39,6.5 -7.72,11.57l-6.06 24.25 56.87 14.11 6.49 -25.9 0 0zm-13.56 11.02l3.2 -12.9c0.55,-2.2 0.33,-4.19 -0.77,-6.06 -0.99,-1.76 -2.54,-2.98 -4.63,-3.53 -2.1,-0.55 -3.97,-0.22 -5.73,0.88 -1.76,1.1 -2.98,2.75 -3.53,4.96l-3.2 12.9 14.66 3.74 0 0zm-33.73 -20.39l-2.87 11.24 12.23 2.98 2.87 -11.24c0.55,-1.98 0.33,-3.75 -0.44,-5.18 -0.88,-1.43 -2.2,-2.42 -3.97,-2.86 -1.87,-0.44 -3.42,-0.22 -4.85,0.66 -1.54,0.99 -2.42,2.43 -2.97,4.41l0 0zm6.61 -95.11l-1.76 12.34 57.97 8.04 1.76 -12.34 -57.97 -8.04 0 0zm52.46 47.72c0.88,-5.95 -0.33,-11.13 -3.53,-15.54 -3.2,-4.41 -7.49,-7.05 -13.12,-7.83 -5.51,-0.77 -10.47,0.55 -14.76,3.97 -4.3,3.42 -6.83,8.04 -7.72,14l-1.54 11.13 -19.06 -2.64 -1.76 12.34 57.97 8.04 3.52 -23.47 0 0zm-12.78 9.48l1.54 -10.69c0.33,-2.42 -0.11,-4.63 -1.54,-6.5 -1.33,-1.88 -3.2,-2.98 -5.51,-3.31 -2.32,-0.33 -4.41,0.22 -6.28,1.65 -1.87,1.43 -2.97,3.42 -3.31,5.84l-1.54 10.69 16.64 2.32 0 0zm-140.85 281.26l-8.48 -31.3 6.61 -8.93 47.06 34.71 -7.49 10.03 -31.41 -23.15 8.04 29.21 -30.31 0.88 31.19 23.03 -7.49 10.03 -47.06 -34.71 6.72 -9.04 32.62 -0.77 0 0zm-485.92 292.28l-22.81 -23.04 -11.24 1.21 6.62 57.86 12.45 -1.43 -4.41 -38.46 21.38 21.49 16.09 -25.79 4.41 38.57 12.45 -1.43 -6.61 -57.86 -11.02 1.21 -17.3 27.67 0 0zm56.32 15.54c7.27,4.52 15.21,5.84 24.03,3.97 8.7,-1.88 15.43,-6.28 20.17,-13.45 4.74,-7.05 6.28,-14.77 4.52,-22.92 -1.76,-8.16 -6.28,-14.55 -13.55,-19.06 -7.27,-4.52 -15.21,-5.84 -23.91,-3.97 -8.71,1.88 -15.43,6.28 -20.28,13.45 -4.74,7.05 -6.28,14.66 -4.52,22.92 1.76,8.16 6.27,14.54 13.55,19.06z"/>
  <path class="fil3" fill="#332784" fill-rule="nonzero" d="M2020.55 416.91l-79.33 111.24 -1.77 0 -79.33 -111.24 -79.33 0 0 310.23 98.39 0 0 -45.65c0,-24.37 -0.89,-55.84 -3.55,-76.67l1.77 -0.44c6.65,12.41 20.39,33.24 32.8,50.52l27.92 39.44 4.43 0 28.81 -40.77c12.41,-17.28 24.82,-36.34 31.91,-49.19l1.77 0.44c-3.1,26.59 -3.55,54.07 -3.55,80.66l0 41.66 98.39 0 0 -310.23 -79.33 0zm119.22 157.33c0,89.97 69.58,161.77 159.55,161.77 89.97,0 159.55,-71.8 159.55,-161.77 0,-89.97 -69.58,-161.76 -159.55,-161.76 -89.97,0 -159.55,71.8 -159.55,161.76zm98.39 0c0,-35.9 26.59,-62.93 61.16,-62.93 34.57,0 61.6,27.03 61.6,62.93 0,35.9 -27.03,62.93 -61.6,62.93 -34.57,0 -61.16,-27.04 -61.16,-62.93zm455.16 39.45c-10.64,12.41 -26.15,23.49 -50.08,23.49 -32.8,0 -59.39,-28.36 -59.39,-62.93 0,-34.57 23.93,-62.93 61.16,-62.93 19.94,0 35.9,8.42 48.31,23.05l54.95 -83.32c-27.92,-24.37 -61.16,-38.56 -105.48,-38.56 -89.08,0 -157.33,71.35 -157.33,161.32 0,89.97 68.25,162.21 158.22,162.21 48.75,0 77.56,-16.84 105.04,-39.89l-55.4 -82.43zm245.53 -196.78l-19.5 23.93c-13.74,16.84 -25.26,34.57 -33.24,48.31l-1.77 -0.44c0.89,-15.95 0.89,-31.91 0.89,-47.42l0 -24.38 -96.62 0 0 310.23 96.62 0 0 -30.58c0,-21.27 0,-46.53 -0.45,-58.5l1.77 -0.44c7.98,15.51 15.96,28.81 31.47,51.41l26.15 38.11 116.12 0 -113.9 -168.41 113.9 -141.82 -121.43 0z"/>
  <g>
   <path class="fil3" fill="#332784" fill-rule="nonzero" d="M1919.33 854.58l0 148.23 -47.06 0 0 -19.95c0,-6.39 0.11,-12.79 0.33,-19.29 0.22,-6.5 0.66,-12.9 1.43,-19.28l-0.88 -0.22c-1.65,3.09 -3.97,6.72 -6.61,11.02 -2.75,4.19 -5.62,8.38 -8.6,12.45l-13.77 19.51 -2.09 -0.01 -13.33 -18.84c-2.97,-4.08 -5.95,-8.38 -8.93,-12.9 -2.97,-4.52 -5.18,-8.26 -6.72,-11.24l-0.88 0.22c0.55,4.96 0.99,10.8 1.33,17.63 0.33,6.83 0.44,13.12 0.44,18.96l0 21.82 -47.07 0 0 -148.13 37.92 0 37.91 53.12 0.88 0 37.92 -53.12 37.8 0zm16.97 75.27c0,-10.69 1.98,-20.83 5.84,-30.2 3.86,-9.37 9.26,-17.52 16.09,-24.58 6.83,-6.94 14.88,-12.45 24.25,-16.53 9.26,-3.97 19.29,-6.06 30.09,-6.06 10.69,0 20.72,1.98 30.09,6.06 9.37,4.08 17.41,9.59 24.25,16.53 6.83,6.95 12.23,15.21 16.09,24.58 3.86,9.37 5.84,19.4 5.84,30.2 0,10.69 -1.98,20.83 -5.84,30.2 -3.86,9.37 -9.26,17.52 -16.09,24.58 -6.83,6.94 -14.88,12.45 -24.25,16.53 -9.37,4.08 -19.4,6.06 -30.09,6.06 -10.69,0 -20.72,-1.98 -30.09,-6.06 -9.37,-3.97 -17.41,-9.48 -24.25,-16.53 -6.83,-6.95 -12.24,-15.21 -16.09,-24.58 -3.97,-9.48 -5.84,-19.51 -5.84,-30.2l0 0zm46.95 0c0,4.19 0.77,8.16 2.2,11.91 1.43,3.64 3.53,6.83 6.17,9.48 2.65,2.64 5.73,4.85 9.37,6.39 3.64,1.54 7.49,2.32 11.57,2.32 4.08,0 7.94,-0.77 11.57,-2.32 3.64,-1.54 6.72,-3.64 9.37,-6.39 2.64,-2.65 4.74,-5.84 6.28,-9.48 1.54,-3.64 2.32,-7.6 2.32,-11.91 0,-4.3 -0.77,-8.16 -2.32,-11.9 -1.54,-3.64 -3.64,-6.83 -6.28,-9.48 -2.65,-2.64 -5.73,-4.85 -9.37,-6.39 -3.64,-1.54 -7.49,-2.32 -11.57,-2.32 -4.08,0 -7.94,0.77 -11.57,2.32 -3.64,1.54 -6.72,3.64 -9.37,6.39 -2.64,2.64 -4.63,5.84 -6.17,9.48 -1.43,3.64 -2.2,7.6 -2.2,11.9l0 0zm194.19 -75.27l57.2 148.23 -48.72 0 -26.01 -71.75 -25.79 71.75 -47.39 0 56.76 -148.23 33.95 -0.01zm55.1 75.27c0,-10.69 1.98,-20.83 5.84,-30.2 3.86,-9.37 9.26,-17.52 16.09,-24.58 6.83,-6.94 14.88,-12.45 24.25,-16.53 9.37,-3.97 19.4,-6.06 30.09,-6.06 10.69,0 20.72,1.98 30.08,6.06 9.37,4.08 17.41,9.59 24.25,16.53 6.84,6.95 12.23,15.21 16.09,24.58 3.86,9.37 5.84,19.4 5.84,30.2 0,10.69 -1.98,20.83 -5.84,30.2 -3.86,9.37 -9.26,17.52 -16.09,24.58 -6.83,6.94 -14.88,12.45 -24.25,16.53 -9.37,4.08 -19.4,6.06 -30.08,6.06 -10.69,0 -20.72,-1.98 -30.09,-6.06 -9.37,-3.97 -17.41,-9.48 -24.25,-16.53 -6.83,-6.95 -12.23,-15.21 -16.09,-24.58 -3.96,-9.48 -5.84,-19.51 -5.84,-30.2l0 0zm46.95 0c0,4.19 0.77,8.16 2.2,11.91 1.43,3.64 3.53,6.83 6.17,9.48 2.64,2.64 5.73,4.85 9.37,6.39 3.64,1.54 7.49,2.32 11.57,2.32 4.08,0 7.93,-0.77 11.57,-2.32 3.64,-1.54 6.72,-3.64 9.37,-6.39 2.65,-2.65 4.74,-5.84 6.28,-9.48 1.54,-3.64 2.32,-7.6 2.32,-11.91 0,-4.3 -0.77,-8.16 -2.32,-11.9 -1.54,-3.64 -3.64,-6.83 -6.28,-9.48 -2.64,-2.64 -5.73,-4.85 -9.37,-6.39 -3.64,-1.54 -7.49,-2.32 -11.57,-2.32 -4.08,0 -7.94,0.77 -11.57,2.32 -3.64,1.54 -6.73,3.64 -9.37,6.39 -2.64,2.64 -4.63,5.84 -6.17,9.48 -1.43,3.64 -2.2,7.6 -2.2,11.9l0 0zm113.96 72.96l0 -40.23 15.21 0 40.23 -108.01 33.51 0 43.65 108.01 15.43 0 0 40.23 -148.02 0zm72.85 -71.75l-10.58 31.52 22.7 0 -12.12 -31.52zm94.23 -76.49l79.24 0 0 39.79 -32.29 0 0 14.99 30.09 0 0 38.57 -30.09 0 0 14.99 34.28 0 0 39.79 -81.34 0 0 -148.13 0.11 0zm177.66 148.24l0 -14.66 0 -7.83 0 -7.83c0,-2.54 0,-4.85 0.11,-6.94 0.11,-2.1 0.11,-3.86 0.11,-5.29l-0.88 -0.22c-1.98,3.64 -4.08,7.38 -6.28,11.02 -2.2,3.64 -5.07,8.16 -8.82,13.55l-12.46 18.19 -55.43 0 54.44 -80.46 -54.44 -67.78 57.97 0 9.37 11.46c3.2,4.08 6.17,8.16 8.93,12.12 2.65,4.08 4.96,7.72 6.95,10.91l0.88 -0.22c-0.33,-3.86 -0.44,-7.6 -0.44,-11.46l0 -11.24 0 -11.68 45.3 0.01 0 11.69 0 11.24c0,3.86 -0.11,7.6 -0.44,11.46l0.88 0.22c1.98,-3.2 4.3,-6.83 6.95,-10.91 2.64,-3.97 5.62,-8.04 8.93,-12.12l9.37 -11.46 57.97 -0.01 -54.44 67.78 54.44 80.46 -55.44 0 -12.45 -18.19c-3.64,-5.4 -6.61,-9.92 -8.82,-13.56 -2.2,-3.64 -4.3,-7.38 -6.28,-11.02l-0.89 0.22c0,1.43 0,3.2 0.11,5.29 0.11,2.1 0.11,4.41 0.11,6.95l0 7.83 0 7.82 0 14.66 -45.29 -0zm215.35 -54.34l-24.58 0 0 54.44 -47.06 0 0 -148.35 47.06 0 0 54.44 24.58 0 0 -54.44 47.06 -0.01 0 148.23 -47.06 0 0 -54.34zm150.11 -93.9l57.2 148.23 -48.27 0 -4.85 -14 -42.32 -0 -4.85 14 -47.17 0 56.54 -148.23 33.73 -0.01zm-26.89 101.06l19.73 0 -9.92 -28.77 -9.81 28.77zm212.82 47.17l-45.96 0 0 -37.47 -1.87 0 -23.03 37.47 -53.56 0 30.86 -49.93c-6.62,-4.85 -11.69,-10.69 -14.99,-17.63 -3.42,-6.94 -5.07,-15.32 -5.07,-25.13 0,-10.03 1.98,-18.51 5.95,-25.57 3.97,-7.05 8.82,-12.78 14.76,-17.3 5.84,-4.41 12.12,-7.61 18.63,-9.59 6.61,-1.98 12.56,-2.97 17.85,-2.97l56.54 0 0 148.12 -0.11 0zm-45.96 -108.12l-6.39 0c-1.65,0 -3.31,0.44 -4.96,1.21 -1.65,0.77 -3.09,1.87 -4.3,3.2 -1.21,1.33 -2.32,2.97 -3.2,4.96 -0.88,1.98 -1.33,4.08 -1.33,6.39 0,4.41 1.33,8.16 4.08,11.24 2.64,3.09 5.95,4.63 9.92,4.63l6.18 0 0 -31.63 0 0z"/>
  </g>
  <g>
   <path class="fil3" fill="#332784" fill-rule="nonzero" d="M1886.27 1209.79c-3.2,2.87 -6.62,5.4 -10.03,7.71 -3.42,2.32 -7.17,4.3 -11.24,6.06 -3.97,1.65 -8.38,2.97 -13.12,3.97 -4.74,0.88 -10.03,1.43 -15.76,1.43 -10.69,0 -20.72,-1.98 -29.98,-6.06 -9.26,-4.08 -17.31,-9.48 -24.03,-16.53 -6.72,-6.95 -12.12,-15.21 -15.87,-24.69 -3.86,-9.48 -5.73,-19.51 -5.73,-30.31 0,-10.69 1.87,-20.83 5.73,-30.2 3.86,-9.37 9.15,-17.52 15.87,-24.47 6.72,-6.94 14.77,-12.34 23.91,-16.42 9.15,-3.97 19.07,-6.06 29.65,-6.06 10.58,0 19.95,1.54 28.11,4.74 8.16,3.2 15.54,7.71 22.37,13.67l-26.23 39.78c-2.97,-3.53 -6.39,-6.28 -10.14,-8.16 -3.86,-1.87 -8.16,-2.86 -12.9,-2.86 -4.52,0 -8.6,0.77 -12.12,2.32 -3.64,1.54 -6.61,3.75 -9.26,6.5 -2.54,2.75 -4.52,5.95 -5.84,9.59 -1.32,3.64 -1.98,7.61 -1.98,11.69 0,4.08 0.77,7.94 2.2,11.68 1.43,3.64 3.53,6.83 6.06,9.59 2.53,2.76 5.51,4.96 9.04,6.5 3.42,1.54 7.16,2.32 11.13,2.32 5.73,0 10.58,-1.11 14.44,-3.42 3.86,-2.2 6.94,-4.85 9.48,-7.83l26.24 39.45zm10.58 -133.47l107.12 0 0 40.23 -30.08 0 0 108.01 -47.06 0 0 -108.01 -30.09 0 0.11 -40.23 0 0zm112.53 75.17c0,-10.69 1.98,-20.83 5.84,-30.2 3.86,-9.37 9.26,-17.53 16.09,-24.58 6.83,-6.95 14.88,-12.46 24.25,-16.53 9.37,-3.97 19.4,-6.06 30.09,-6.06 10.69,0 20.72,1.98 30.08,6.06 9.37,4.08 17.41,9.48 24.25,16.53 6.83,6.94 12.23,15.21 16.09,24.58 3.86,9.37 5.84,19.4 5.84,30.2 0,10.69 -1.98,20.83 -5.84,30.2 -3.86,9.37 -9.26,17.52 -16.09,24.58 -6.83,6.95 -14.88,12.45 -24.25,16.53 -9.37,4.08 -19.4,6.06 -30.08,6.06 -10.69,0 -20.72,-1.98 -30.09,-6.06 -9.37,-4.08 -17.41,-9.48 -24.25,-16.53 -6.83,-6.95 -12.23,-15.21 -16.09,-24.58 -3.97,-9.37 -5.84,-19.51 -5.84,-30.2l0 0zm46.95 0c0,4.19 0.77,8.16 2.2,11.91 1.43,3.64 3.53,6.83 6.17,9.48 2.64,2.64 5.73,4.85 9.37,6.39 3.64,1.54 7.5,2.32 11.57,2.32 4.08,0 7.93,-0.77 11.57,-2.32 3.64,-1.54 6.72,-3.64 9.37,-6.39 2.64,-2.64 4.74,-5.84 6.28,-9.48 1.54,-3.64 2.32,-7.61 2.32,-11.91 0,-4.19 -0.77,-8.16 -2.32,-11.91 -1.54,-3.64 -3.64,-6.83 -6.28,-9.48 -2.64,-2.65 -5.73,-4.85 -9.37,-6.39 -3.64,-1.55 -7.49,-2.32 -11.57,-2.32 -4.08,0 -7.94,0.77 -11.57,2.32 -3.64,1.54 -6.72,3.64 -9.37,6.39 -2.64,2.64 -4.63,5.84 -6.17,9.48 -1.43,3.75 -2.2,7.72 -2.2,11.91l0 0zm194.19 -75.17l57.2 148.23 -48.72 0 -26.01 -71.74 -25.79 71.74 -47.4 0 56.76 -148.23c0,-0 33.95,-0 33.95,-0zm141.4 92.8l-37.03 55.44 -34.5 0 0 -148.23 47.06 -0 0 55.44 37.03 -55.44 34.49 0 0 148.23 -47.06 0 0 -55.44zm117.37 15.21l24.58 0 0 -108.01 46.95 -0 0 108.01 15.43 0 0 40.23 -134.02 0 0 -148.23 47.06 -0 0 108.01 0 0zm185.93 -108.01l57.2 148.23 -48.27 0 -4.85 -14 -42.32 0 -4.85 14 -47.17 0 56.54 -148.23c0,-0 33.72,-0 33.72,-0zm-26.89 101.07l19.73 0 -9.92 -28.77 -9.81 28.77zm158.15 -101.07l52.68 0c6.39,0 13.12,0.99 20.28,2.97 7.16,1.98 13.77,5.18 19.84,9.59 6.07,4.41 11.13,10.25 14.99,17.3 3.97,7.05 5.95,15.65 5.95,25.57 0,9.92 -1.65,18.3 -5.07,25.46 -3.42,7.05 -8.04,12.9 -14,17.41 -5.95,4.52 -13,7.82 -21.05,9.92 -8.16,2.09 -16.97,3.19 -26.56,3.19l0 36.81 -47.06 0.01 0 -148.23zm46.95 71.53l5.07 0c3.97,0 7.27,-1.54 9.92,-4.63 2.64,-3.09 4.08,-6.83 4.08,-11.24 0,-2.2 -0.44,-4.41 -1.21,-6.39 -0.89,-1.98 -1.88,-3.64 -3.2,-4.96 -1.33,-1.33 -2.75,-2.42 -4.3,-3.2 -1.66,-0.77 -3.31,-1.21 -4.96,-1.21l-5.29 0 -0.11 31.63 0 0zm77.37 3.64c0,-10.69 1.98,-20.83 5.84,-30.2 3.86,-9.37 9.26,-17.53 16.09,-24.58 6.83,-6.95 14.88,-12.46 24.25,-16.53 9.26,-3.97 19.29,-6.06 30.09,-6.06 10.69,0 20.72,1.98 30.09,6.06 9.37,4.08 17.41,9.48 24.25,16.53 6.83,6.94 12.24,15.21 16.09,24.58 3.86,9.37 5.84,19.4 5.84,30.2 0,10.69 -1.98,20.83 -5.84,30.2 -3.86,9.37 -9.26,17.52 -16.09,24.58 -6.83,6.95 -14.88,12.45 -24.25,16.53 -9.26,4.08 -19.29,6.06 -30.09,6.06 -10.69,0 -20.72,-1.98 -30.09,-6.06 -9.37,-4.08 -17.41,-9.48 -24.25,-16.53 -6.83,-6.95 -12.23,-15.21 -16.09,-24.58 -3.97,-9.37 -5.84,-19.51 -5.84,-30.2l0 0zm46.95 0c0,4.19 0.77,8.16 2.2,11.91 1.43,3.64 3.53,6.83 6.17,9.48 2.65,2.64 5.73,4.85 9.37,6.39 3.64,1.54 7.49,2.32 11.57,2.32 4.08,0 7.94,-0.77 11.57,-2.32 3.64,-1.54 6.72,-3.64 9.37,-6.39 2.64,-2.64 4.74,-5.84 6.28,-9.48 1.54,-3.64 2.32,-7.61 2.32,-11.91 0,-4.19 -0.77,-8.16 -2.32,-11.91 -1.54,-3.64 -3.64,-6.83 -6.28,-9.48 -2.65,-2.65 -5.73,-4.85 -9.37,-6.39 -3.64,-1.54 -7.49,-2.32 -11.57,-2.32 -4.08,0 -7.94,0.77 -11.57,2.32 -3.64,1.54 -6.72,3.64 -9.37,6.39 -2.64,2.64 -4.63,5.84 -6.17,9.48 -1.43,3.75 -2.2,7.72 -2.2,11.91l0 0zm241.81 58.3c-3.2,2.87 -6.61,5.4 -10.03,7.71 -3.42,2.32 -7.17,4.3 -11.24,6.06 -4.08,1.65 -8.38,2.97 -13.12,3.97 -4.74,0.88 -10.03,1.43 -15.76,1.43 -10.69,0 -20.72,-1.98 -29.98,-6.06 -9.26,-4.08 -17.3,-9.48 -24.03,-16.53 -6.72,-6.95 -12.12,-15.21 -15.87,-24.69 -3.86,-9.48 -5.73,-19.51 -5.73,-30.31 0,-10.69 1.88,-20.83 5.73,-30.2 3.86,-9.37 9.15,-17.52 15.87,-24.47 6.72,-6.94 14.77,-12.34 23.91,-16.42 9.15,-3.97 19.06,-6.06 29.65,-6.06 10.58,0 19.95,1.54 28.11,4.74 8.16,3.2 15.54,7.71 22.37,13.67l-26.23 39.78c-2.98,-3.53 -6.39,-6.28 -10.14,-8.16 -3.86,-1.87 -8.16,-2.86 -12.9,-2.86 -4.52,0 -8.6,0.77 -12.12,2.32 -3.64,1.54 -6.61,3.75 -9.26,6.5 -2.54,2.75 -4.52,5.95 -5.84,9.59 -1.32,3.64 -1.98,7.61 -1.98,11.69 0,4.08 0.77,7.94 2.2,11.68 1.43,3.64 3.53,6.83 6.06,9.59 2.54,2.75 5.51,4.96 9.04,6.5 3.42,1.54 7.17,2.32 11.13,2.32 5.84,0 10.58,-1.11 14.44,-3.42 3.86,-2.2 6.95,-4.85 9.59,-7.83l26.13 39.45zm125.86 0c-3.2,2.87 -6.61,5.4 -10.03,7.71 -3.42,2.32 -7.17,4.3 -11.24,6.06 -4.08,1.65 -8.38,2.97 -13.12,3.97 -4.74,0.88 -10.03,1.43 -15.76,1.43 -10.69,0 -20.72,-1.98 -29.98,-6.06 -9.26,-4.08 -17.3,-9.48 -24.03,-16.53 -6.83,-6.95 -12.12,-15.21 -15.87,-24.69 -3.86,-9.48 -5.73,-19.51 -5.73,-30.31 0,-10.69 1.88,-20.83 5.73,-30.2 3.86,-9.37 9.15,-17.52 15.87,-24.47 6.72,-6.94 14.77,-12.34 23.91,-16.42 9.15,-3.97 19.06,-6.06 29.65,-6.06 10.58,0 19.95,1.54 28.11,4.74 8.16,3.2 15.54,7.71 22.37,13.67l-26.23 39.78c-2.98,-3.53 -6.39,-6.28 -10.14,-8.16 -3.86,-1.87 -8.16,-2.86 -12.9,-2.86 -4.52,0 -8.6,0.77 -12.12,2.32 -3.64,1.54 -6.72,3.75 -9.26,6.5 -2.54,2.75 -4.52,5.95 -5.84,9.59 -1.32,3.64 -1.98,7.61 -1.98,11.69 0,4.08 0.77,7.94 2.2,11.68 1.43,3.64 3.53,6.83 6.06,9.59 2.54,2.75 5.51,4.96 9.04,6.5 3.42,1.54 7.17,2.32 11.13,2.32 5.73,0 10.58,-1.11 14.44,-3.42 3.86,-2.2 6.95,-4.85 9.48,-7.83l26.24 39.45zm88.5 -40.67l-37.03 55.44 -34.49 0 0 -148.23 47.06 -0 0 55.44 37.03 -55.44 34.5 0 0 148.23 -47.06 0 0 -55.44zm141.84 0l-37.03 55.44 -34.5 0 0 -148.23 47.06 -0 0 55.44 37.03 -55.44 34.5 0 0 148.23 -47.06 0 0 -55.44z"/>
  </g>
  <path class="fil3" fill="#332784" fill-rule="nonzero" d="M3095.77 727.15l140.94 0c39.89,0 93.95,-29.25 93.95,-95.29 0,-46.09 -21.27,-61.16 -37.23,-70.03l0 -1.77c10.19,-7.53 24.37,-21.72 24.37,-55.84 0,-56.73 -42.1,-87.31 -124.54,-87.31l-97.5 0 0 310.23zm95.29 -126.31l11.96 0c14.63,0 30.58,8.42 30.58,26.15 0,17.73 -16.4,25.26 -30.13,25.26l-12.41 0 0 -51.41zm0 -107.7l11.96 0c9.75,0 23.05,5.76 23.05,20.39 0,12.85 -10.64,21.27 -22.6,21.27l-12.41 0 0 -41.66z"/>
  <path class="fil3" fill="#332784" fill-rule="nonzero" d="M3457.89 416.91l-118.33 310.23 98.83 0 10.19 -29.25 88.64 0 10.19 29.25 101.05 0 -119.66 -310.23 -70.91 0zm35.01 151.13l20.83 60.27 -41.22 0 20.39 -60.27z"/>
  <polygon class="fil4" fill="#332784" points="2559.96,813.39 2595.67,813.39 2595.67,838.82 2559.96,838.82 "/>
  <polygon class="fil4" fill="#332784" points="2604.07,813.39 2639.79,813.39 2639.79,838.82 2604.07,838.82 "/>
  <g id="_2269098855696">
   <path class="fil5" fill="white" d="M1165.33 1350.68c2.56,0 4.63,2.08 4.63,4.64 0,2.56 -2.08,4.63 -4.63,4.63 -2.56,0 -4.64,-2.08 -4.64,-4.63 0,-2.56 2.08,-4.64 4.64,-4.64z"/>
   <path class="fil5" fill="white" d="M1177.67 1341.71c2.56,0 4.64,2.08 4.64,4.63 0,2.56 -2.08,4.64 -4.64,4.64 -2.56,0 -4.63,-2.08 -4.63,-4.64 0,-2.56 2.08,-4.63 4.63,-4.63z"/>
  </g>
  <path class="fil6" fill="white" d="M1104.11 668.52l30.06 0 0 25.43 -30.06 0 0 -25.43zm47.38 0l30.06 0 0 25.43 -30.06 0 0 -25.43z"/>
  <path class="fil6" fill="white" d="M1104.11 668.52l30.06 0 0 25.43 -30.06 0 0 -25.43zm47.38 0l30.06 0 0 25.43 -30.06 0 0 -25.43z"/>
 </g>
</svg>
